<?xml version="1.0" encoding="UTF-8"?>
<svg xmlns="http://www.w3.org/2000/svg" xmlns:xlink="http://www.w3.org/1999/xlink" width="322pt" height="226pt" viewBox="0 0 322 226" version="1.1">
<defs>
<clipPath id="clip1">
  <path d="M 102 9 L 105 9 L 105 178.875 L 102 178.875 Z M 102 9 "/>
</clipPath>
<clipPath id="clip2">
  <path d="M 152 9 L 154 9 L 154 178.875 L 152 178.875 Z M 152 9 "/>
</clipPath>
<clipPath id="clip3">
  <path d="M 201 9 L 204 9 L 204 178.875 L 201 178.875 Z M 201 9 "/>
</clipPath>
<clipPath id="clip4">
  <path d="M 250 9 L 253 9 L 253 178.875 L 250 178.875 Z M 250 9 "/>
</clipPath>
<clipPath id="clip5">
  <path d="M 300 9 L 300.972656 9 L 300.972656 178.875 L 300 178.875 Z M 300 9 "/>
</clipPath>
<clipPath id="clip6">
  <path d="M 56.847656 79 L 300.972656 79 L 300.972656 81 L 56.847656 81 Z M 56.847656 79 "/>
</clipPath>
<clipPath id="clip7">
  <path d="M 56.847656 15 L 300.972656 15 L 300.972656 173 L 56.847656 173 Z M 56.847656 15 "/>
</clipPath>
</defs>
<g id="surface1">
<path style=" stroke:none;fill-rule:nonzero;fill:rgb(100%,100%,100%);fill-opacity:1;" d="M 56.847656 178.875 L 300.972656 178.875 L 300.972656 9 L 56.847656 9 Z M 56.847656 178.875 "/>
<g clip-path="url(#clip1)" clip-rule="nonzero">
<path style="fill:none;stroke-width:0.8;stroke-linecap:square;stroke-linejoin:round;stroke:rgb(69.019608%,69.019608%,69.019608%);stroke-opacity:1;stroke-miterlimit:4;" d="M 82.959375 143.1 L 82.959375 7.2 " transform="matrix(1.25,0,0,1.25,0,0)"/>
</g>
<path style="fill:none;stroke-width:0.8;stroke-linecap:butt;stroke-linejoin:round;stroke:rgb(0%,0%,0%);stroke-opacity:1;stroke-miterlimit:4;" d="M -0.000568 0 L -0.000568 3.5 " transform="matrix(1.25,0,0,1.25,103.699929,178.875)"/>
<path style=" stroke:none;fill-rule:nonzero;fill:rgb(0%,0%,0%);fill-opacity:1;" d="M 98.144531 196.085938 L 102.449219 196.085938 L 102.449219 197.125 L 96.664062 197.125 L 96.664062 196.085938 C 97.128906 195.601562 97.769531 194.953125 98.574219 194.136719 C 99.382812 193.320312 99.890625 192.792969 100.097656 192.558594 C 100.492188 192.113281 100.769531 191.738281 100.925781 191.433594 C 101.082031 191.125 101.160156 190.824219 101.160156 190.527344 C 101.160156 190.042969 100.992188 189.648438 100.652344 189.34375 C 100.3125 189.035156 99.867188 188.882812 99.324219 188.882812 C 98.9375 188.882812 98.527344 188.949219 98.097656 189.085938 C 97.671875 189.21875 97.210938 189.421875 96.722656 189.695312 L 96.722656 188.449219 C 97.21875 188.25 97.683594 188.101562 98.113281 188 C 98.546875 187.898438 98.941406 187.847656 99.300781 187.847656 C 100.242188 187.847656 100.996094 188.082031 101.558594 188.554688 C 102.117188 189.027344 102.398438 189.65625 102.398438 190.445312 C 102.398438 190.820312 102.328125 191.175781 102.1875 191.511719 C 102.050781 191.847656 101.792969 192.242188 101.421875 192.699219 C 101.320312 192.816406 100.996094 193.15625 100.453125 193.722656 C 99.90625 194.285156 99.140625 195.074219 98.144531 196.085938 Z M 98.144531 196.085938 "/>
<path style=" stroke:none;fill-rule:nonzero;fill:rgb(0%,0%,0%);fill-opacity:1;" d="M 107.671875 188.824219 C 107.039062 188.824219 106.5625 189.136719 106.242188 189.761719 C 105.921875 190.382812 105.761719 191.324219 105.761719 192.578125 C 105.761719 193.824219 105.921875 194.761719 106.242188 195.386719 C 106.5625 196.011719 107.039062 196.324219 107.671875 196.324219 C 108.3125 196.324219 108.789062 196.011719 109.109375 195.386719 C 109.429688 194.761719 109.589844 193.824219 109.589844 192.578125 C 109.589844 191.324219 109.429688 190.382812 109.109375 189.761719 C 108.789062 189.136719 108.3125 188.824219 107.671875 188.824219 Z M 107.671875 187.847656 C 108.695312 187.847656 109.476562 188.25 110.015625 189.058594 C 110.554688 189.867188 110.824219 191.039062 110.824219 192.578125 C 110.824219 194.109375 110.554688 195.28125 110.015625 196.089844 C 109.476562 196.898438 108.695312 197.300781 107.671875 197.300781 C 106.652344 197.300781 105.871094 196.898438 105.332031 196.089844 C 104.792969 195.28125 104.523438 194.109375 104.523438 192.578125 C 104.523438 191.039062 104.792969 189.867188 105.332031 189.058594 C 105.871094 188.25 106.652344 187.847656 107.671875 187.847656 Z M 107.671875 187.847656 "/>
<g clip-path="url(#clip2)" clip-rule="nonzero">
<path style="fill:none;stroke-width:0.8;stroke-linecap:square;stroke-linejoin:round;stroke:rgb(69.019608%,69.019608%,69.019608%);stroke-opacity:1;stroke-miterlimit:4;" d="M 122.415625 143.1 L 122.415625 7.2 " transform="matrix(1.25,0,0,1.25,0,0)"/>
</g>
<path style="fill:none;stroke-width:0.8;stroke-linecap:butt;stroke-linejoin:round;stroke:rgb(0%,0%,0%);stroke-opacity:1;stroke-miterlimit:4;" d="M 0.001136 0 L 0.001136 3.5 " transform="matrix(1.25,0,0,1.25,153.018111,178.875)"/>
<path style=" stroke:none;fill-rule:nonzero;fill:rgb(0%,0%,0%);fill-opacity:1;" d="M 149.789062 189.085938 L 146.675781 193.949219 L 149.789062 193.949219 Z M 149.464844 188.011719 L 151.015625 188.011719 L 151.015625 193.949219 L 152.316406 193.949219 L 152.316406 194.976562 L 151.015625 194.976562 L 151.015625 197.125 L 149.789062 197.125 L 149.789062 194.976562 L 145.675781 194.976562 L 145.675781 193.785156 Z M 149.464844 188.011719 "/>
<path style=" stroke:none;fill-rule:nonzero;fill:rgb(0%,0%,0%);fill-opacity:1;" d="M 156.992188 188.824219 C 156.355469 188.824219 155.878906 189.136719 155.558594 189.761719 C 155.238281 190.382812 155.082031 191.324219 155.082031 192.578125 C 155.082031 193.824219 155.238281 194.761719 155.558594 195.386719 C 155.878906 196.011719 156.355469 196.324219 156.992188 196.324219 C 157.628906 196.324219 158.109375 196.011719 158.429688 195.386719 C 158.75 194.761719 158.910156 193.824219 158.910156 192.578125 C 158.910156 191.324219 158.75 190.382812 158.429688 189.761719 C 158.109375 189.136719 157.628906 188.824219 156.992188 188.824219 Z M 156.992188 187.847656 C 158.011719 187.847656 158.792969 188.25 159.332031 189.058594 C 159.871094 189.867188 160.140625 191.039062 160.140625 192.578125 C 160.140625 194.109375 159.871094 195.28125 159.332031 196.089844 C 158.792969 196.898438 158.011719 197.300781 156.992188 197.300781 C 155.96875 197.300781 155.191406 196.898438 154.652344 196.089844 C 154.113281 195.28125 153.84375 194.109375 153.84375 192.578125 C 153.84375 191.039062 154.113281 189.867188 154.652344 189.058594 C 155.191406 188.25 155.96875 187.847656 156.992188 187.847656 Z M 156.992188 187.847656 "/>
<g clip-path="url(#clip3)" clip-rule="nonzero">
<path style="fill:none;stroke-width:0.8;stroke-linecap:square;stroke-linejoin:round;stroke:rgb(69.019608%,69.019608%,69.019608%);stroke-opacity:1;stroke-miterlimit:4;" d="M 161.86875 143.1 L 161.86875 7.2 " transform="matrix(1.25,0,0,1.25,0,0)"/>
</g>
<path style="fill:none;stroke-width:0.8;stroke-linecap:butt;stroke-linejoin:round;stroke:rgb(0%,0%,0%);stroke-opacity:1;stroke-miterlimit:4;" d="M -0.000284 0 L -0.000284 3.5 " transform="matrix(1.25,0,0,1.25,202.336293,178.875)"/>
<path style=" stroke:none;fill-rule:nonzero;fill:rgb(0%,0%,0%);fill-opacity:1;" d="M 198.511719 192.078125 C 197.957031 192.078125 197.519531 192.265625 197.195312 192.644531 C 196.871094 193.023438 196.710938 193.539062 196.710938 194.199219 C 196.710938 194.855469 196.871094 195.371094 197.195312 195.753906 C 197.519531 196.132812 197.957031 196.324219 198.511719 196.324219 C 199.0625 196.324219 199.5 196.132812 199.824219 195.753906 C 200.148438 195.371094 200.308594 194.855469 200.308594 194.199219 C 200.308594 193.539062 200.148438 193.023438 199.824219 192.644531 C 199.5 192.265625 199.0625 192.078125 198.511719 192.078125 Z M 200.957031 188.210938 L 200.957031 189.335938 C 200.648438 189.1875 200.335938 189.078125 200.019531 189 C 199.703125 188.921875 199.390625 188.882812 199.082031 188.882812 C 198.269531 188.882812 197.648438 189.15625 197.21875 189.707031 C 196.789062 190.257812 196.542969 191.085938 196.484375 192.199219 C 196.722656 191.84375 197.023438 191.570312 197.386719 191.382812 C 197.75 191.195312 198.148438 191.101562 198.582031 191.101562 C 199.496094 191.101562 200.222656 191.378906 200.753906 191.933594 C 201.285156 192.488281 201.550781 193.242188 201.550781 194.199219 C 201.550781 195.136719 201.273438 195.886719 200.71875 196.453125 C 200.164062 197.019531 199.429688 197.300781 198.511719 197.300781 C 197.457031 197.300781 196.648438 196.898438 196.09375 196.089844 C 195.535156 195.28125 195.257812 194.109375 195.257812 192.578125 C 195.257812 191.136719 195.597656 189.988281 196.28125 189.132812 C 196.964844 188.273438 197.882812 187.847656 199.035156 187.847656 C 199.34375 187.847656 199.65625 187.875 199.972656 187.9375 C 200.285156 188 200.613281 188.089844 200.957031 188.210938 Z M 200.957031 188.210938 "/>
<path style=" stroke:none;fill-rule:nonzero;fill:rgb(0%,0%,0%);fill-opacity:1;" d="M 206.308594 188.824219 C 205.675781 188.824219 205.199219 189.136719 204.878906 189.761719 C 204.558594 190.382812 204.398438 191.324219 204.398438 192.578125 C 204.398438 193.824219 204.558594 194.761719 204.878906 195.386719 C 205.199219 196.011719 205.675781 196.324219 206.308594 196.324219 C 206.949219 196.324219 207.425781 196.011719 207.746094 195.386719 C 208.066406 194.761719 208.226562 193.824219 208.226562 192.578125 C 208.226562 191.324219 208.066406 190.382812 207.746094 189.761719 C 207.425781 189.136719 206.949219 188.824219 206.308594 188.824219 Z M 206.308594 187.847656 C 207.332031 187.847656 208.113281 188.25 208.652344 189.058594 C 209.191406 189.867188 209.460938 191.039062 209.460938 192.578125 C 209.460938 194.109375 209.191406 195.28125 208.652344 196.089844 C 208.113281 196.898438 207.332031 197.300781 206.308594 197.300781 C 205.289062 197.300781 204.507812 196.898438 203.96875 196.089844 C 203.429688 195.28125 203.160156 194.109375 203.160156 192.578125 C 203.160156 191.039062 203.429688 189.867188 203.96875 189.058594 C 204.507812 188.25 205.289062 187.847656 206.308594 187.847656 Z M 206.308594 187.847656 "/>
<g clip-path="url(#clip4)" clip-rule="nonzero">
<path style="fill:none;stroke-width:0.8;stroke-linecap:square;stroke-linejoin:round;stroke:rgb(69.019608%,69.019608%,69.019608%);stroke-opacity:1;stroke-miterlimit:4;" d="M 201.325 143.1 L 201.325 7.2 " transform="matrix(1.25,0,0,1.25,0,0)"/>
</g>
<path style="fill:none;stroke-width:0.8;stroke-linecap:butt;stroke-linejoin:round;stroke:rgb(0%,0%,0%);stroke-opacity:1;stroke-miterlimit:4;" d="M 0.00142 0 L 0.00142 3.5 " transform="matrix(1.25,0,0,1.25,251.654475,178.875)"/>
<path style=" stroke:none;fill-rule:nonzero;fill:rgb(0%,0%,0%);fill-opacity:1;" d="M 247.675781 192.796875 C 247.089844 192.796875 246.628906 192.953125 246.292969 193.265625 C 245.957031 193.578125 245.789062 194.011719 245.789062 194.558594 C 245.789062 195.109375 245.957031 195.539062 246.292969 195.855469 C 246.628906 196.167969 247.089844 196.324219 247.675781 196.324219 C 248.261719 196.324219 248.722656 196.167969 249.058594 195.851562 C 249.398438 195.535156 249.566406 195.105469 249.566406 194.558594 C 249.566406 194.011719 249.398438 193.578125 249.0625 193.265625 C 248.726562 192.953125 248.265625 192.796875 247.675781 192.796875 Z M 246.441406 192.273438 C 245.914062 192.140625 245.5 191.894531 245.207031 191.535156 C 244.910156 191.171875 244.765625 190.726562 244.765625 190.207031 C 244.765625 189.480469 245.023438 188.902344 245.542969 188.480469 C 246.0625 188.058594 246.773438 187.847656 247.675781 187.847656 C 248.582031 187.847656 249.292969 188.058594 249.8125 188.480469 C 250.328125 188.902344 250.585938 189.480469 250.585938 190.207031 C 250.585938 190.726562 250.4375 191.171875 250.144531 191.535156 C 249.847656 191.894531 249.4375 192.140625 248.914062 192.273438 C 249.507812 192.410156 249.96875 192.679688 250.300781 193.085938 C 250.632812 193.488281 250.800781 193.976562 250.800781 194.558594 C 250.800781 195.441406 250.53125 196.121094 249.992188 196.59375 C 249.453125 197.066406 248.679688 197.300781 247.675781 197.300781 C 246.671875 197.300781 245.898438 197.066406 245.359375 196.59375 C 244.820312 196.121094 244.550781 195.441406 244.550781 194.558594 C 244.550781 193.976562 244.714844 193.488281 245.050781 193.085938 C 245.382812 192.679688 245.847656 192.410156 246.441406 192.273438 Z M 245.992188 190.324219 C 245.992188 190.796875 246.136719 191.164062 246.433594 191.429688 C 246.726562 191.691406 247.140625 191.824219 247.675781 191.824219 C 248.203125 191.824219 248.617188 191.691406 248.917969 191.429688 C 249.214844 191.164062 249.367188 190.796875 249.367188 190.324219 C 249.367188 189.851562 249.214844 189.484375 248.917969 189.21875 C 248.617188 188.953125 248.203125 188.824219 247.675781 188.824219 C 247.140625 188.824219 246.726562 188.953125 246.433594 189.21875 C 246.136719 189.484375 245.992188 189.851562 245.992188 190.324219 Z M 245.992188 190.324219 "/>
<path style=" stroke:none;fill-rule:nonzero;fill:rgb(0%,0%,0%);fill-opacity:1;" d="M 255.625 188.824219 C 254.992188 188.824219 254.515625 189.136719 254.195312 189.761719 C 253.875 190.382812 253.714844 191.324219 253.714844 192.578125 C 253.714844 193.824219 253.875 194.761719 254.195312 195.386719 C 254.515625 196.011719 254.992188 196.324219 255.625 196.324219 C 256.265625 196.324219 256.746094 196.011719 257.0625 195.386719 C 257.382812 194.761719 257.542969 193.824219 257.542969 192.578125 C 257.542969 191.324219 257.382812 190.382812 257.0625 189.761719 C 256.746094 189.136719 256.265625 188.824219 255.625 188.824219 Z M 255.625 187.847656 C 256.648438 187.847656 257.429688 188.25 257.96875 189.058594 C 258.507812 189.867188 258.777344 191.039062 258.777344 192.578125 C 258.777344 194.109375 258.507812 195.28125 257.96875 196.089844 C 257.429688 196.898438 256.648438 197.300781 255.625 197.300781 C 254.605469 197.300781 253.824219 196.898438 253.285156 196.089844 C 252.746094 195.28125 252.476562 194.109375 252.476562 192.578125 C 252.476562 191.039062 252.746094 189.867188 253.285156 189.058594 C 253.824219 188.25 254.605469 187.847656 255.625 187.847656 Z M 255.625 187.847656 "/>
<g clip-path="url(#clip5)" clip-rule="nonzero">
<path style="fill:none;stroke-width:0.8;stroke-linecap:square;stroke-linejoin:round;stroke:rgb(69.019608%,69.019608%,69.019608%);stroke-opacity:1;stroke-miterlimit:4;" d="M 240.778125 143.1 L 240.778125 7.2 " transform="matrix(1.25,0,0,1.25,0,0)"/>
</g>
<path style="fill:none;stroke-width:0.8;stroke-linecap:butt;stroke-linejoin:round;stroke:rgb(0%,0%,0%);stroke-opacity:1;stroke-miterlimit:4;" d="M 0 0 L 0 3.5 " transform="matrix(1.25,0,0,1.25,300.972656,178.875)"/>
<path style=" stroke:none;fill-rule:nonzero;fill:rgb(0%,0%,0%);fill-opacity:1;" d="M 290.59375 196.085938 L 292.609375 196.085938 L 292.609375 189.132812 L 290.414062 189.574219 L 290.414062 188.449219 L 292.59375 188.011719 L 293.828125 188.011719 L 293.828125 196.085938 L 295.84375 196.085938 L 295.84375 197.125 L 290.59375 197.125 Z M 290.59375 196.085938 "/>
<path style=" stroke:none;fill-rule:nonzero;fill:rgb(0%,0%,0%);fill-opacity:1;" d="M 300.96875 188.824219 C 300.335938 188.824219 299.855469 189.136719 299.535156 189.761719 C 299.21875 190.382812 299.058594 191.324219 299.058594 192.578125 C 299.058594 193.824219 299.21875 194.761719 299.535156 195.386719 C 299.855469 196.011719 300.335938 196.324219 300.96875 196.324219 C 301.609375 196.324219 302.085938 196.011719 302.40625 195.386719 C 302.726562 194.761719 302.886719 193.824219 302.886719 192.578125 C 302.886719 191.324219 302.726562 190.382812 302.40625 189.761719 C 302.085938 189.136719 301.609375 188.824219 300.96875 188.824219 Z M 300.96875 187.847656 C 301.992188 187.847656 302.769531 188.25 303.308594 189.058594 C 303.847656 189.867188 304.117188 191.039062 304.117188 192.578125 C 304.117188 194.109375 303.847656 195.28125 303.308594 196.089844 C 302.769531 196.898438 301.992188 197.300781 300.96875 197.300781 C 299.949219 197.300781 299.167969 196.898438 298.628906 196.089844 C 298.089844 195.28125 297.820312 194.109375 297.820312 192.578125 C 297.820312 191.039062 298.089844 189.867188 298.628906 189.058594 C 299.167969 188.25 299.949219 187.847656 300.96875 187.847656 Z M 300.96875 187.847656 "/>
<path style=" stroke:none;fill-rule:nonzero;fill:rgb(0%,0%,0%);fill-opacity:1;" d="M 308.921875 188.824219 C 308.289062 188.824219 307.808594 189.136719 307.488281 189.761719 C 307.171875 190.382812 307.011719 191.324219 307.011719 192.578125 C 307.011719 193.824219 307.171875 194.761719 307.488281 195.386719 C 307.808594 196.011719 308.289062 196.324219 308.921875 196.324219 C 309.5625 196.324219 310.039062 196.011719 310.359375 195.386719 C 310.679688 194.761719 310.839844 193.824219 310.839844 192.578125 C 310.839844 191.324219 310.679688 190.382812 310.359375 189.761719 C 310.039062 189.136719 309.5625 188.824219 308.921875 188.824219 Z M 308.921875 187.847656 C 309.945312 187.847656 310.722656 188.25 311.261719 189.058594 C 311.800781 189.867188 312.070312 191.039062 312.070312 192.578125 C 312.070312 194.109375 311.800781 195.28125 311.261719 196.089844 C 310.722656 196.898438 309.945312 197.300781 308.921875 197.300781 C 307.902344 197.300781 307.121094 196.898438 306.582031 196.089844 C 306.042969 195.28125 305.773438 194.109375 305.773438 192.578125 C 305.773438 191.039062 306.042969 189.867188 306.582031 189.058594 C 307.121094 188.25 307.902344 187.847656 308.921875 187.847656 Z M 308.921875 187.847656 "/>
<path style=" stroke:none;fill-rule:nonzero;fill:rgb(0%,0%,0%);fill-opacity:1;" d="M 166.898438 210.523438 L 166.898438 211.070312 L 161.734375 211.070312 C 161.785156 211.84375 162.019531 212.433594 162.4375 212.839844 C 162.851562 213.242188 163.433594 213.445312 164.179688 213.445312 C 164.609375 213.445312 165.027344 213.394531 165.429688 213.289062 C 165.835938 213.183594 166.238281 213.023438 166.640625 212.8125 L 166.640625 213.875 C 166.234375 214.042969 165.820312 214.175781 165.398438 214.265625 C 164.976562 214.355469 164.546875 214.398438 164.109375 214.398438 C 163.019531 214.398438 162.15625 214.082031 161.519531 213.449219 C 160.882812 212.8125 160.5625 211.953125 160.5625 210.871094 C 160.5625 209.75 160.867188 208.863281 161.46875 208.207031 C 162.074219 207.550781 162.890625 207.222656 163.914062 207.222656 C 164.835938 207.222656 165.5625 207.515625 166.097656 208.109375 C 166.632812 208.699219 166.898438 209.503906 166.898438 210.523438 Z M 165.777344 210.191406 C 165.769531 209.578125 165.597656 209.089844 165.261719 208.722656 C 164.925781 208.355469 164.480469 208.171875 163.929688 208.171875 C 163.300781 208.171875 162.800781 208.347656 162.421875 208.703125 C 162.046875 209.058594 161.832031 209.554688 161.773438 210.199219 Z M 165.777344 210.191406 "/>
<path style=" stroke:none;fill-rule:nonzero;fill:rgb(0%,0%,0%);fill-opacity:1;" d="M 169.828125 213.195312 L 169.828125 216.820312 L 168.699219 216.820312 L 168.699219 207.386719 L 169.828125 207.386719 L 169.828125 208.421875 C 170.066406 208.015625 170.363281 207.714844 170.722656 207.519531 C 171.085938 207.320312 171.515625 207.222656 172.015625 207.222656 C 172.84375 207.222656 173.519531 207.550781 174.039062 208.210938 C 174.558594 208.867188 174.816406 209.734375 174.816406 210.808594 C 174.816406 211.882812 174.558594 212.75 174.039062 213.410156 C 173.519531 214.070312 172.84375 214.398438 172.015625 214.398438 C 171.515625 214.398438 171.085938 214.300781 170.722656 214.101562 C 170.363281 213.902344 170.066406 213.601562 169.828125 213.195312 Z M 173.652344 210.808594 C 173.652344 209.984375 173.480469 209.335938 173.140625 208.867188 C 172.800781 208.394531 172.335938 208.160156 171.742188 208.160156 C 171.144531 208.160156 170.679688 208.394531 170.339844 208.867188 C 170 209.335938 169.828125 209.984375 169.828125 210.808594 C 169.828125 211.632812 170 212.28125 170.339844 212.753906 C 170.679688 213.222656 171.144531 213.457031 171.742188 213.457031 C 172.335938 213.457031 172.800781 213.222656 173.140625 212.753906 C 173.480469 212.28125 173.652344 211.632812 173.652344 210.808594 Z M 173.652344 210.808594 "/>
<path style=" stroke:none;fill-rule:nonzero;fill:rgb(0%,0%,0%);fill-opacity:1;" d="M 179.328125 208.171875 C 178.726562 208.171875 178.25 208.40625 177.898438 208.878906 C 177.546875 209.347656 177.375 209.992188 177.375 210.808594 C 177.375 211.625 177.546875 212.269531 177.894531 212.742188 C 178.242188 213.210938 178.71875 213.445312 179.328125 213.445312 C 179.925781 213.445312 180.398438 213.210938 180.75 212.738281 C 181.097656 212.265625 181.273438 211.621094 181.273438 210.808594 C 181.273438 210 181.097656 209.355469 180.75 208.882812 C 180.398438 208.410156 179.925781 208.171875 179.328125 208.171875 Z M 179.328125 207.222656 C 180.304688 207.222656 181.070312 207.539062 181.625 208.175781 C 182.1875 208.808594 182.464844 209.6875 182.464844 210.808594 C 182.464844 211.925781 182.1875 212.804688 181.625 213.445312 C 181.070312 214.082031 180.304688 214.398438 179.328125 214.398438 C 178.34375 214.398438 177.578125 214.082031 177.023438 213.445312 C 176.46875 212.804688 176.1875 211.925781 176.1875 210.808594 C 176.1875 209.6875 176.46875 208.808594 177.023438 208.175781 C 177.578125 207.539062 178.34375 207.222656 179.328125 207.222656 Z M 179.328125 207.222656 "/>
<path style=" stroke:none;fill-rule:nonzero;fill:rgb(0%,0%,0%);fill-opacity:1;" d="M 189.246094 207.648438 L 189.246094 208.699219 C 188.925781 208.523438 188.609375 208.390625 188.289062 208.304688 C 187.972656 208.214844 187.648438 208.171875 187.324219 208.171875 C 186.59375 208.171875 186.027344 208.402344 185.625 208.867188 C 185.222656 209.328125 185.019531 209.972656 185.019531 210.808594 C 185.019531 211.644531 185.222656 212.292969 185.625 212.753906 C 186.027344 213.214844 186.59375 213.445312 187.324219 213.445312 C 187.648438 213.445312 187.972656 213.402344 188.289062 213.316406 C 188.609375 213.226562 188.925781 213.097656 189.246094 212.921875 L 189.246094 213.960938 C 188.929688 214.105469 188.605469 214.214844 188.269531 214.289062 C 187.9375 214.363281 187.578125 214.398438 187.199219 214.398438 C 186.171875 214.398438 185.351562 214.074219 184.746094 213.429688 C 184.140625 212.78125 183.835938 211.90625 183.835938 210.808594 C 183.835938 209.695312 184.144531 208.816406 184.753906 208.179688 C 185.367188 207.539062 186.207031 207.222656 187.273438 207.222656 C 187.621094 207.222656 187.957031 207.257812 188.285156 207.328125 C 188.617188 207.398438 188.933594 207.503906 189.246094 207.648438 Z M 189.246094 207.648438 "/>
<path style=" stroke:none;fill-rule:nonzero;fill:rgb(0%,0%,0%);fill-opacity:1;" d="M 196.882812 210.09375 L 196.882812 214.222656 L 195.757812 214.222656 L 195.757812 210.132812 C 195.757812 209.484375 195.632812 209 195.378906 208.679688 C 195.128906 208.359375 194.75 208.199219 194.246094 208.199219 C 193.636719 208.199219 193.160156 208.390625 192.808594 208.777344 C 192.460938 209.164062 192.285156 209.691406 192.285156 210.359375 L 192.285156 214.222656 L 191.15625 214.222656 L 191.15625 204.722656 L 192.285156 204.722656 L 192.285156 208.449219 C 192.554688 208.035156 192.871094 207.730469 193.234375 207.527344 C 193.597656 207.324219 194.019531 207.222656 194.496094 207.222656 C 195.28125 207.222656 195.875 207.464844 196.277344 207.949219 C 196.679688 208.433594 196.882812 209.148438 196.882812 210.09375 Z M 196.882812 210.09375 "/>
<g clip-path="url(#clip6)" clip-rule="nonzero">
<path style="fill:none;stroke-width:0.8;stroke-linecap:square;stroke-linejoin:round;stroke:rgb(69.019608%,69.019608%,69.019608%);stroke-opacity:1;stroke-miterlimit:4;" d="M 45.478125 64.1 L 240.778125 64.1 " transform="matrix(1.25,0,0,1.25,0,0)"/>
</g>
<path style="fill:none;stroke-width:0.8;stroke-linecap:butt;stroke-linejoin:round;stroke:rgb(0%,0%,0%);stroke-opacity:1;stroke-miterlimit:4;" d="M 0 -0.00052 L -3.5 -0.00052 " transform="matrix(1.25,0,0,1.25,56.847656,80.12565)"/>
<path style=" stroke:none;fill-rule:nonzero;fill:rgb(0%,0%,0%);fill-opacity:1;" d="M 27.648438 83.742188 L 29.664062 83.742188 L 29.664062 76.789062 L 27.46875 77.226562 L 27.46875 76.105469 L 29.648438 75.664062 L 30.882812 75.664062 L 30.882812 83.742188 L 32.898438 83.742188 L 32.898438 84.777344 L 27.648438 84.777344 Z M 27.648438 83.742188 "/>
<path style=" stroke:none;fill-rule:nonzero;fill:rgb(0%,0%,0%);fill-opacity:1;" d="M 38.023438 76.476562 C 37.390625 76.476562 36.910156 76.789062 36.589844 77.414062 C 36.273438 78.039062 36.113281 78.976562 36.113281 80.230469 C 36.113281 81.480469 36.273438 82.417969 36.589844 83.042969 C 36.910156 83.667969 37.390625 83.980469 38.023438 83.980469 C 38.664062 83.980469 39.140625 83.667969 39.460938 83.042969 C 39.78125 82.417969 39.941406 81.480469 39.941406 80.230469 C 39.941406 78.976562 39.78125 78.039062 39.460938 77.414062 C 39.140625 76.789062 38.664062 76.476562 38.023438 76.476562 Z M 38.023438 75.5 C 39.046875 75.5 39.824219 75.90625 40.363281 76.714844 C 40.902344 77.523438 41.171875 78.695312 41.171875 80.230469 C 41.171875 81.765625 40.902344 82.9375 40.363281 83.746094 C 39.824219 84.554688 39.046875 84.957031 38.023438 84.957031 C 37.003906 84.957031 36.222656 84.554688 35.683594 83.746094 C 35.144531 82.9375 34.875 81.765625 34.875 80.230469 C 34.875 78.695312 35.144531 77.523438 35.683594 76.714844 C 36.222656 75.90625 37.003906 75.5 38.023438 75.5 Z M 38.023438 75.5 "/>
<path style=" stroke:none;fill-rule:nonzero;fill:rgb(0%,0%,0%);fill-opacity:1;" d="M 44.902344 74.183594 C 44.460938 74.183594 44.125 74.402344 43.902344 74.839844 C 43.679688 75.277344 43.566406 75.933594 43.566406 76.8125 C 43.566406 77.683594 43.679688 78.339844 43.902344 78.777344 C 44.125 79.214844 44.460938 79.433594 44.902344 79.433594 C 45.351562 79.433594 45.6875 79.214844 45.910156 78.777344 C 46.132812 78.339844 46.246094 77.683594 46.246094 76.8125 C 46.246094 75.933594 46.132812 75.277344 45.910156 74.839844 C 45.6875 74.402344 45.351562 74.183594 44.902344 74.183594 Z M 44.902344 73.5 C 45.621094 73.5 46.164062 73.78125 46.542969 74.347656 C 46.921875 74.914062 47.109375 75.734375 47.109375 76.8125 C 47.109375 77.882812 46.921875 78.703125 46.542969 79.269531 C 46.164062 79.835938 45.621094 80.117188 44.902344 80.117188 C 44.1875 80.117188 43.644531 79.835938 43.265625 79.269531 C 42.890625 78.703125 42.699219 77.882812 42.699219 76.8125 C 42.699219 75.734375 42.890625 74.914062 43.265625 74.347656 C 43.644531 73.78125 44.1875 73.5 44.902344 73.5 Z M 44.902344 73.5 "/>
<path style="fill:none;stroke-width:0.6;stroke-linecap:butt;stroke-linejoin:round;stroke:rgb(0%,0%,0%);stroke-opacity:1;stroke-miterlimit:4;" d="M 0 -0.000395 L -2 -0.000395 " transform="matrix(1.25,0,0,1.25,56.847656,160.766119)"/>
<path style="fill:none;stroke-width:0.6;stroke-linecap:butt;stroke-linejoin:round;stroke:rgb(0%,0%,0%);stroke-opacity:1;stroke-miterlimit:4;" d="M 0 -0.000941 L -2 -0.000941 " transform="matrix(1.25,0,0,1.25,56.847656,140.450395)"/>
<path style="fill:none;stroke-width:0.6;stroke-linecap:butt;stroke-linejoin:round;stroke:rgb(0%,0%,0%);stroke-opacity:1;stroke-miterlimit:4;" d="M 0 -0.000802 L -2 -0.000802 " transform="matrix(1.25,0,0,1.25,56.847656,126.036159)"/>
<path style="fill:none;stroke-width:0.6;stroke-linecap:butt;stroke-linejoin:round;stroke:rgb(0%,0%,0%);stroke-opacity:1;stroke-miterlimit:4;" d="M 0 -0.000113 L -2 -0.000113 " transform="matrix(1.25,0,0,1.25,56.847656,114.85561)"/>
<path style="fill:none;stroke-width:0.6;stroke-linecap:butt;stroke-linejoin:round;stroke:rgb(0%,0%,0%);stroke-opacity:1;stroke-miterlimit:4;" d="M 0 -0.001348 L -2 -0.001348 " transform="matrix(1.25,0,0,1.25,56.847656,105.720435)"/>
<path style="fill:none;stroke-width:0.6;stroke-linecap:butt;stroke-linejoin:round;stroke:rgb(0%,0%,0%);stroke-opacity:1;stroke-miterlimit:4;" d="M 0 -0.00053 L -2 -0.00053 " transform="matrix(1.25,0,0,1.25,56.847656,97.996756)"/>
<path style="fill:none;stroke-width:0.6;stroke-linecap:butt;stroke-linejoin:round;stroke:rgb(0%,0%,0%);stroke-opacity:1;stroke-miterlimit:4;" d="M 0 -0.00121 L -2 -0.00121 " transform="matrix(1.25,0,0,1.25,56.847656,91.3062)"/>
<path style="fill:none;stroke-width:0.6;stroke-linecap:butt;stroke-linejoin:round;stroke:rgb(0%,0%,0%);stroke-opacity:1;stroke-miterlimit:4;" d="M 0 0.001231 L -2 0.001231 " transform="matrix(1.25,0,0,1.25,56.847656,85.404711)"/>
<path style="fill:none;stroke-width:0.6;stroke-linecap:butt;stroke-linejoin:round;stroke:rgb(0%,0%,0%);stroke-opacity:1;stroke-miterlimit:4;" d="M 0 -0.000928 L -2 -0.000928 " transform="matrix(1.25,0,0,1.25,56.847656,45.395691)"/>
<path style="fill:none;stroke-width:0.6;stroke-linecap:butt;stroke-linejoin:round;stroke:rgb(0%,0%,0%);stroke-opacity:1;stroke-miterlimit:4;" d="M 0 -0.001474 L -2 -0.001474 " transform="matrix(1.25,0,0,1.25,56.847656,25.079968)"/>
<path style="fill:none;stroke-width:0.6;stroke-linecap:butt;stroke-linejoin:round;stroke:rgb(0%,0%,0%);stroke-opacity:1;stroke-miterlimit:4;" d="M 0 -0.001335 L -2 -0.001335 " transform="matrix(1.25,0,0,1.25,56.847656,10.665731)"/>
<path style=" stroke:none;fill-rule:nonzero;fill:rgb(0%,0%,0%);fill-opacity:1;" d="M 9 119.921875 L 9 118.800781 L 18.5 118.800781 L 18.5 119.921875 Z M 9 119.921875 "/>
<path style=" stroke:none;fill-rule:nonzero;fill:rgb(0%,0%,0%);fill-opacity:1;" d="M 12.449219 113.800781 C 12.449219 114.402344 12.683594 114.878906 13.15625 115.230469 C 13.625 115.582031 14.269531 115.753906 15.085938 115.753906 C 15.902344 115.753906 16.546875 115.582031 17.019531 115.234375 C 17.488281 114.886719 17.722656 114.40625 17.722656 113.800781 C 17.722656 113.203125 17.488281 112.730469 17.015625 112.378906 C 16.542969 112.03125 15.898438 111.855469 15.085938 111.855469 C 14.277344 111.855469 13.632812 112.03125 13.160156 112.378906 C 12.6875 112.730469 12.449219 113.203125 12.449219 113.800781 Z M 11.5 113.800781 C 11.5 112.824219 11.816406 112.058594 12.453125 111.5 C 13.085938 110.941406 13.964844 110.664062 15.085938 110.664062 C 16.203125 110.664062 17.082031 110.941406 17.722656 111.5 C 18.359375 112.058594 18.675781 112.824219 18.675781 113.800781 C 18.675781 114.78125 18.359375 115.550781 17.722656 116.105469 C 17.082031 116.660156 16.203125 116.9375 15.085938 116.9375 C 13.964844 116.9375 13.085938 116.660156 12.453125 116.105469 C 11.816406 115.550781 11.5 114.78125 11.5 113.800781 Z M 11.5 113.800781 "/>
<path style=" stroke:none;fill-rule:nonzero;fill:rgb(0%,0%,0%);fill-opacity:1;" d="M 15 104.304688 C 14.1875 104.304688 13.554688 104.472656 13.109375 104.808594 C 12.660156 105.144531 12.4375 105.613281 12.4375 106.222656 C 12.4375 106.824219 12.660156 107.292969 13.109375 107.628906 C 13.554688 107.964844 14.1875 108.132812 15 108.132812 C 15.808594 108.132812 16.4375 107.964844 16.886719 107.628906 C 17.335938 107.292969 17.558594 106.824219 17.558594 106.222656 C 17.558594 105.613281 17.335938 105.144531 16.886719 104.808594 C 16.4375 104.472656 15.808594 104.304688 15 104.304688 Z M 17.652344 103.183594 C 18.8125 103.183594 19.679688 103.441406 20.246094 103.957031 C 20.8125 104.472656 21.097656 105.265625 21.097656 106.332031 C 21.097656 106.726562 21.070312 107.097656 21.011719 107.449219 C 20.953125 107.796875 20.859375 108.136719 20.738281 108.46875 L 19.648438 108.46875 C 19.824219 108.136719 19.957031 107.8125 20.042969 107.492188 C 20.128906 107.167969 20.171875 106.839844 20.171875 106.507812 C 20.171875 105.769531 19.976562 105.21875 19.59375 104.855469 C 19.210938 104.488281 18.628906 104.304688 17.851562 104.304688 L 17.296875 104.304688 C 17.699219 104.535156 18 104.832031 18.199219 105.195312 C 18.398438 105.558594 18.5 105.992188 18.5 106.496094 C 18.5 107.332031 18.179688 108.007812 17.542969 108.523438 C 16.902344 109.035156 16.054688 109.292969 15 109.292969 C 13.941406 109.292969 13.09375 109.035156 12.457031 108.523438 C 11.816406 108.007812 11.5 107.332031 11.5 106.496094 C 11.5 105.992188 11.597656 105.558594 11.796875 105.195312 C 11.996094 104.832031 12.296875 104.535156 12.699219 104.304688 L 11.664062 104.304688 L 11.664062 103.183594 Z M 17.652344 103.183594 "/>
<path style=" stroke:none;fill-rule:nonzero;fill:rgb(0%,0%,0%);fill-opacity:1;" d="M 12.710938 92.933594 C 12.636719 93.0625 12.585938 93.199219 12.550781 93.347656 C 12.515625 93.496094 12.5 93.660156 12.5 93.835938 C 12.5 94.472656 12.703125 94.960938 13.117188 95.300781 C 13.53125 95.640625 14.125 95.808594 14.898438 95.808594 L 18.5 95.808594 L 18.5 96.9375 L 11.664062 96.9375 L 11.664062 95.808594 L 12.726562 95.808594 C 12.308594 95.574219 12 95.265625 11.800781 94.886719 C 11.597656 94.507812 11.5 94.046875 11.5 93.507812 C 11.5 93.429688 11.503906 93.34375 11.515625 93.25 C 11.523438 93.15625 11.539062 93.054688 11.558594 92.941406 Z M 12.710938 92.933594 "/>
<path style=" stroke:none;fill-rule:nonzero;fill:rgb(0%,0%,0%);fill-opacity:1;" d="M 12.976562 86.652344 C 12.46875 86.371094 12.097656 86.035156 11.859375 85.644531 C 11.617188 85.253906 11.5 84.792969 11.5 84.265625 C 11.5 83.554688 11.746094 83.003906 12.246094 82.617188 C 12.742188 82.230469 13.453125 82.039062 14.371094 82.039062 L 18.5 82.039062 L 18.5 83.167969 L 14.410156 83.167969 C 13.753906 83.167969 13.269531 83.28125 12.953125 83.515625 C 12.632812 83.746094 12.476562 84.101562 12.476562 84.578125 C 12.476562 85.160156 12.667969 85.617188 13.054688 85.957031 C 13.441406 86.292969 13.96875 86.464844 14.636719 86.464844 L 18.5 86.464844 L 18.5 87.59375 L 14.410156 87.59375 C 13.75 87.59375 13.261719 87.707031 12.949219 87.941406 C 12.632812 88.171875 12.476562 88.53125 12.476562 89.015625 C 12.476562 89.589844 12.667969 90.042969 13.058594 90.382812 C 13.445312 90.71875 13.972656 90.890625 14.636719 90.890625 L 18.5 90.890625 L 18.5 92.019531 L 11.664062 92.019531 L 11.664062 90.890625 L 12.726562 90.890625 C 12.304688 90.632812 11.996094 90.324219 11.796875 89.96875 C 11.597656 89.609375 11.5 89.183594 11.5 88.691406 C 11.5 88.195312 11.625 87.773438 11.878906 87.425781 C 12.128906 87.078125 12.496094 86.820312 12.976562 86.652344 Z M 12.976562 86.652344 "/>
<path style=" stroke:none;fill-rule:nonzero;fill:rgb(0%,0%,0%);fill-opacity:1;" d="M 11.863281 75.441406 L 12.925781 75.441406 C 12.761719 75.757812 12.640625 76.085938 12.5625 76.429688 C 12.480469 76.769531 12.4375 77.125 12.4375 77.492188 C 12.4375 78.050781 12.523438 78.46875 12.695312 78.746094 C 12.863281 79.023438 13.121094 79.164062 13.464844 79.164062 C 13.722656 79.164062 13.929688 79.0625 14.078125 78.863281 C 14.226562 78.664062 14.367188 78.265625 14.5 77.660156 L 14.585938 77.277344 C 14.757812 76.480469 14.996094 75.914062 15.308594 75.578125 C 15.621094 75.242188 16.054688 75.074219 16.613281 75.074219 C 17.246094 75.074219 17.75 75.324219 18.121094 75.828125 C 18.492188 76.332031 18.675781 77.019531 18.675781 77.898438 C 18.675781 78.265625 18.640625 78.648438 18.570312 79.042969 C 18.496094 79.441406 18.390625 79.859375 18.25 80.296875 L 17.089844 80.296875 C 17.304688 79.882812 17.464844 79.472656 17.574219 79.070312 C 17.679688 78.667969 17.734375 78.269531 17.734375 77.875 C 17.734375 77.347656 17.644531 76.941406 17.464844 76.65625 C 17.28125 76.371094 17.027344 76.226562 16.699219 76.226562 C 16.394531 76.226562 16.160156 76.332031 15.996094 76.535156 C 15.832031 76.742188 15.675781 77.191406 15.527344 77.886719 L 15.433594 78.277344 C 15.289062 78.972656 15.0625 79.476562 14.761719 79.785156 C 14.457031 80.09375 14.039062 80.25 13.511719 80.25 C 12.867188 80.25 12.371094 80.023438 12.023438 79.566406 C 11.671875 79.109375 11.5 78.464844 11.5 77.625 C 11.5 77.210938 11.527344 76.820312 11.589844 76.453125 C 11.648438 76.085938 11.742188 75.75 11.863281 75.441406 Z M 11.863281 75.441406 "/>
<path style=" stroke:none;fill-rule:nonzero;fill:rgb(0%,0%,0%);fill-opacity:1;" d="M 14.800781 67.4375 L 15.347656 67.4375 L 15.347656 72.601562 C 16.121094 72.554688 16.710938 72.320312 17.117188 71.902344 C 17.519531 71.488281 17.722656 70.90625 17.722656 70.160156 C 17.722656 69.730469 17.671875 69.3125 17.566406 68.90625 C 17.460938 68.503906 17.300781 68.101562 17.089844 67.699219 L 18.152344 67.699219 C 18.320312 68.105469 18.453125 68.515625 18.542969 68.941406 C 18.632812 69.363281 18.675781 69.792969 18.675781 70.226562 C 18.675781 71.320312 18.359375 72.183594 17.726562 72.820312 C 17.089844 73.457031 16.230469 73.773438 15.148438 73.773438 C 14.027344 73.773438 13.140625 73.472656 12.484375 72.867188 C 11.828125 72.265625 11.5 71.449219 11.5 70.421875 C 11.5 69.503906 11.792969 68.777344 12.386719 68.242188 C 12.976562 67.707031 13.78125 67.4375 14.800781 67.4375 Z M 14.46875 68.5625 C 13.855469 68.570312 13.367188 68.742188 13 69.078125 C 12.632812 69.414062 12.449219 69.859375 12.449219 70.410156 C 12.449219 71.039062 12.625 71.539062 12.980469 71.914062 C 13.335938 72.292969 13.832031 72.507812 14.476562 72.566406 Z M 14.46875 68.5625 "/>
<g clip-path="url(#clip7)" clip-rule="nonzero">
<path style="fill:none;stroke-width:1.5;stroke-linecap:square;stroke-linejoin:round;stroke:rgb(12.156863%,46.666667%,70.588235%);stroke-opacity:1;stroke-miterlimit:4;" d="M 45.478125 13.378125 L 47.45 21.984375 L 49.425 27.971875 L 51.396875 32.809375 L 53.36875 36.953125 L 55.340625 40.65 L 57.315625 44.025 L 59.2875 47.18125 L 61.259375 50.140625 L 63.23125 52.959375 L 65.20625 55.66875 L 67.178125 58.28125 L 69.15 60.809375 L 71.125 63.2625 L 73.096875 65.6625 L 75.06875 68.009375 L 77.040625 70.30625 L 79.015625 72.575 L 80.9875 74.8 L 82.959375 77 L 84.93125 79.184375 L 86.90625 81.325 L 88.878125 83.446875 L 90.85 85.54375 L 92.825 87.596875 L 94.796875 89.68125 L 96.76875 91.7125 L 98.740625 93.734375 L 102.6875 97.68125 L 106.63125 101.51875 L 108.60625 103.39375 L 110.578125 105.246875 L 112.55 107.065625 L 114.525 108.821875 L 116.496875 110.559375 L 118.46875 112.271875 L 120.440625 113.884375 L 122.415625 115.4875 L 124.3875 116.996875 L 126.359375 118.478125 L 128.33125 119.896875 L 130.30625 121.246875 L 132.278125 122.553125 L 134.25 123.73125 L 136.225 124.8875 L 138.196875 125.96875 L 140.16875 126.965625 L 142.140625 127.903125 L 144.115625 128.746875 L 146.0875 129.546875 L 148.059375 130.278125 L 150.03125 130.93125 L 152.00625 131.559375 L 153.978125 132.109375 L 155.95 132.590625 L 157.925 133.028125 L 159.896875 133.43125 L 161.86875 133.790625 L 163.840625 134.10625 L 165.815625 134.38125 L 167.7875 134.625 L 169.759375 134.83125 L 171.73125 135.015625 L 173.70625 135.19375 L 175.678125 135.328125 L 177.65 135.459375 L 179.625 135.56875 L 183.56875 135.73125 L 185.540625 135.803125 L 187.515625 135.86875 L 189.4875 135.91875 L 191.459375 135.953125 L 193.43125 135.98125 L 195.40625 136.009375 L 197.378125 136.046875 L 199.35 136.075 L 201.325 136.075 L 203.296875 136.109375 L 205.26875 136.1125 L 207.240625 136.153125 L 209.215625 136.15625 L 211.1875 136.16875 L 213.159375 136.2375 L 215.13125 136.23125 L 217.10625 136.2625 L 219.078125 136.3125 L 221.05 136.3 L 223.025 136.334375 L 224.996875 136.4 L 226.96875 136.43125 L 228.940625 136.471875 L 230.915625 136.5375 L 232.8875 136.61875 L 234.859375 136.69375 L 236.83125 136.74375 L 238.80625 136.81875 L 240.778125 136.921875 " transform="matrix(1.25,0,0,1.25,0,0)"/>
</g>
<path style="fill:none;stroke-width:0.8;stroke-linecap:square;stroke-linejoin:miter;stroke:rgb(0%,0%,0%);stroke-opacity:1;stroke-miterlimit:4;" d="M 45.478125 143.1 L 45.478125 7.2 " transform="matrix(1.25,0,0,1.25,0,0)"/>
<path style="fill:none;stroke-width:0.8;stroke-linecap:square;stroke-linejoin:miter;stroke:rgb(0%,0%,0%);stroke-opacity:1;stroke-miterlimit:4;" d="M 240.778125 143.1 L 240.778125 7.2 " transform="matrix(1.25,0,0,1.25,0,0)"/>
<path style="fill:none;stroke-width:0.8;stroke-linecap:square;stroke-linejoin:miter;stroke:rgb(0%,0%,0%);stroke-opacity:1;stroke-miterlimit:4;" d="M 45.478125 143.1 L 240.778125 143.1 " transform="matrix(1.25,0,0,1.25,0,0)"/>
<path style="fill:none;stroke-width:0.8;stroke-linecap:square;stroke-linejoin:miter;stroke:rgb(0%,0%,0%);stroke-opacity:1;stroke-miterlimit:4;" d="M 45.478125 7.2 L 240.778125 7.2 " transform="matrix(1.25,0,0,1.25,0,0)"/>
</g>
</svg>
