<?xml version="1.0" encoding="UTF-8"?>
<svg xmlns="http://www.w3.org/2000/svg" xmlns:xlink="http://www.w3.org/1999/xlink" width="322pt" height="226pt" viewBox="0 0 322 226" version="1.1">
<defs>
<clipPath id="clip1">
  <path d="M 102 9 L 105 9 L 105 178.875 L 102 178.875 Z M 102 9 "/>
</clipPath>
<clipPath id="clip2">
  <path d="M 152 9 L 154 9 L 154 178.875 L 152 178.875 Z M 152 9 "/>
</clipPath>
<clipPath id="clip3">
  <path d="M 201 9 L 204 9 L 204 178.875 L 201 178.875 Z M 201 9 "/>
</clipPath>
<clipPath id="clip4">
  <path d="M 250 9 L 253 9 L 253 178.875 L 250 178.875 Z M 250 9 "/>
</clipPath>
<clipPath id="clip5">
  <path d="M 300 9 L 300.972656 9 L 300.972656 178.875 L 300 178.875 Z M 300 9 "/>
</clipPath>
<clipPath id="clip6">
  <path d="M 56.847656 80 L 300.972656 80 L 300.972656 82 L 56.847656 82 Z M 56.847656 80 "/>
</clipPath>
<clipPath id="clip7">
  <path d="M 56.847656 15 L 300.972656 15 L 300.972656 169 L 56.847656 169 Z M 56.847656 15 "/>
</clipPath>
<clipPath id="clip8">
  <path d="M 56.847656 15 L 300.972656 15 L 300.972656 173 L 56.847656 173 Z M 56.847656 15 "/>
</clipPath>
<filter id="alpha" filterUnits="objectBoundingBox" x="0%" y="0%" width="100%" height="100%">
  <feColorMatrix type="matrix" in="SourceGraphic" values="0 0 0 0 1 0 0 0 0 1 0 0 0 0 1 0 0 0 1 0"/>
</filter>
<mask id="mask0">
  <g filter="url(#alpha)">
<rect x="0" y="0" width="322" height="226" style="fill:rgb(0%,0%,0%);fill-opacity:0.8;stroke:none;"/>
  </g>
</mask>
<clipPath id="clip9">
  <rect width="322" height="226"/>
</clipPath>
<g id="surface6" clip-path="url(#clip9)">
<path style="fill-rule:nonzero;fill:rgb(100%,100%,100%);fill-opacity:1;stroke-width:1;stroke-linecap:butt;stroke-linejoin:miter;stroke:rgb(80%,80%,80%);stroke-opacity:1;stroke-miterlimit:4;" d="M 177.825 44.55625 L 233.778125 44.55625 C 235.1125 44.55625 235.778125 43.890625 235.778125 42.55625 L 235.778125 14.2 C 235.778125 12.865625 235.1125 12.2 233.778125 12.2 L 177.825 12.2 C 176.49375 12.2 175.825 12.865625 175.825 14.2 L 175.825 42.55625 C 175.825 43.890625 176.49375 44.55625 177.825 44.55625 Z M 177.825 44.55625 " transform="matrix(1.25,0,0,1.25,0,0)"/>
</g>
</defs>
<g id="surface1">
<path style=" stroke:none;fill-rule:nonzero;fill:rgb(100%,100%,100%);fill-opacity:1;" d="M 56.847656 178.875 L 300.972656 178.875 L 300.972656 9 L 56.847656 9 Z M 56.847656 178.875 "/>
<g clip-path="url(#clip1)" clip-rule="nonzero">
<path style="fill:none;stroke-width:0.8;stroke-linecap:square;stroke-linejoin:round;stroke:rgb(69.019608%,69.019608%,69.019608%);stroke-opacity:1;stroke-miterlimit:4;" d="M 82.959375 143.1 L 82.959375 7.2 " transform="matrix(1.25,0,0,1.25,0,0)"/>
</g>
<path style="fill:none;stroke-width:0.8;stroke-linecap:butt;stroke-linejoin:round;stroke:rgb(0%,0%,0%);stroke-opacity:1;stroke-miterlimit:4;" d="M -0.000568 0 L -0.000568 3.5 " transform="matrix(1.25,0,0,1.25,103.699929,178.875)"/>
<path style=" stroke:none;fill-rule:nonzero;fill:rgb(0%,0%,0%);fill-opacity:1;" d="M 98.144531 196.085938 L 102.449219 196.085938 L 102.449219 197.125 L 96.664062 197.125 L 96.664062 196.085938 C 97.128906 195.601562 97.769531 194.953125 98.574219 194.136719 C 99.382812 193.320312 99.890625 192.792969 100.097656 192.558594 C 100.492188 192.113281 100.769531 191.738281 100.925781 191.433594 C 101.082031 191.125 101.160156 190.824219 101.160156 190.527344 C 101.160156 190.042969 100.992188 189.648438 100.652344 189.34375 C 100.3125 189.035156 99.867188 188.882812 99.324219 188.882812 C 98.9375 188.882812 98.527344 188.949219 98.097656 189.085938 C 97.671875 189.21875 97.210938 189.421875 96.722656 189.695312 L 96.722656 188.449219 C 97.21875 188.25 97.683594 188.101562 98.113281 188 C 98.546875 187.898438 98.941406 187.847656 99.300781 187.847656 C 100.242188 187.847656 100.996094 188.082031 101.558594 188.554688 C 102.117188 189.027344 102.398438 189.65625 102.398438 190.445312 C 102.398438 190.820312 102.328125 191.175781 102.1875 191.511719 C 102.050781 191.847656 101.792969 192.242188 101.421875 192.699219 C 101.320312 192.816406 100.996094 193.15625 100.453125 193.722656 C 99.90625 194.285156 99.140625 195.074219 98.144531 196.085938 Z M 98.144531 196.085938 "/>
<path style=" stroke:none;fill-rule:nonzero;fill:rgb(0%,0%,0%);fill-opacity:1;" d="M 107.671875 188.824219 C 107.039062 188.824219 106.5625 189.136719 106.242188 189.761719 C 105.921875 190.382812 105.761719 191.324219 105.761719 192.578125 C 105.761719 193.824219 105.921875 194.761719 106.242188 195.386719 C 106.5625 196.011719 107.039062 196.324219 107.671875 196.324219 C 108.3125 196.324219 108.789062 196.011719 109.109375 195.386719 C 109.429688 194.761719 109.589844 193.824219 109.589844 192.578125 C 109.589844 191.324219 109.429688 190.382812 109.109375 189.761719 C 108.789062 189.136719 108.3125 188.824219 107.671875 188.824219 Z M 107.671875 187.847656 C 108.695312 187.847656 109.476562 188.25 110.015625 189.058594 C 110.554688 189.867188 110.824219 191.039062 110.824219 192.578125 C 110.824219 194.109375 110.554688 195.28125 110.015625 196.089844 C 109.476562 196.898438 108.695312 197.300781 107.671875 197.300781 C 106.652344 197.300781 105.871094 196.898438 105.332031 196.089844 C 104.792969 195.28125 104.523438 194.109375 104.523438 192.578125 C 104.523438 191.039062 104.792969 189.867188 105.332031 189.058594 C 105.871094 188.25 106.652344 187.847656 107.671875 187.847656 Z M 107.671875 187.847656 "/>
<g clip-path="url(#clip2)" clip-rule="nonzero">
<path style="fill:none;stroke-width:0.8;stroke-linecap:square;stroke-linejoin:round;stroke:rgb(69.019608%,69.019608%,69.019608%);stroke-opacity:1;stroke-miterlimit:4;" d="M 122.415625 143.1 L 122.415625 7.2 " transform="matrix(1.25,0,0,1.25,0,0)"/>
</g>
<path style="fill:none;stroke-width:0.8;stroke-linecap:butt;stroke-linejoin:round;stroke:rgb(0%,0%,0%);stroke-opacity:1;stroke-miterlimit:4;" d="M 0.001136 0 L 0.001136 3.5 " transform="matrix(1.25,0,0,1.25,153.018111,178.875)"/>
<path style=" stroke:none;fill-rule:nonzero;fill:rgb(0%,0%,0%);fill-opacity:1;" d="M 149.789062 189.085938 L 146.675781 193.949219 L 149.789062 193.949219 Z M 149.464844 188.011719 L 151.015625 188.011719 L 151.015625 193.949219 L 152.316406 193.949219 L 152.316406 194.976562 L 151.015625 194.976562 L 151.015625 197.125 L 149.789062 197.125 L 149.789062 194.976562 L 145.675781 194.976562 L 145.675781 193.785156 Z M 149.464844 188.011719 "/>
<path style=" stroke:none;fill-rule:nonzero;fill:rgb(0%,0%,0%);fill-opacity:1;" d="M 156.992188 188.824219 C 156.355469 188.824219 155.878906 189.136719 155.558594 189.761719 C 155.238281 190.382812 155.082031 191.324219 155.082031 192.578125 C 155.082031 193.824219 155.238281 194.761719 155.558594 195.386719 C 155.878906 196.011719 156.355469 196.324219 156.992188 196.324219 C 157.628906 196.324219 158.109375 196.011719 158.429688 195.386719 C 158.75 194.761719 158.910156 193.824219 158.910156 192.578125 C 158.910156 191.324219 158.75 190.382812 158.429688 189.761719 C 158.109375 189.136719 157.628906 188.824219 156.992188 188.824219 Z M 156.992188 187.847656 C 158.011719 187.847656 158.792969 188.25 159.332031 189.058594 C 159.871094 189.867188 160.140625 191.039062 160.140625 192.578125 C 160.140625 194.109375 159.871094 195.28125 159.332031 196.089844 C 158.792969 196.898438 158.011719 197.300781 156.992188 197.300781 C 155.96875 197.300781 155.191406 196.898438 154.652344 196.089844 C 154.113281 195.28125 153.84375 194.109375 153.84375 192.578125 C 153.84375 191.039062 154.113281 189.867188 154.652344 189.058594 C 155.191406 188.25 155.96875 187.847656 156.992188 187.847656 Z M 156.992188 187.847656 "/>
<g clip-path="url(#clip3)" clip-rule="nonzero">
<path style="fill:none;stroke-width:0.8;stroke-linecap:square;stroke-linejoin:round;stroke:rgb(69.019608%,69.019608%,69.019608%);stroke-opacity:1;stroke-miterlimit:4;" d="M 161.86875 143.1 L 161.86875 7.2 " transform="matrix(1.25,0,0,1.25,0,0)"/>
</g>
<path style="fill:none;stroke-width:0.8;stroke-linecap:butt;stroke-linejoin:round;stroke:rgb(0%,0%,0%);stroke-opacity:1;stroke-miterlimit:4;" d="M -0.000284 0 L -0.000284 3.5 " transform="matrix(1.25,0,0,1.25,202.336293,178.875)"/>
<path style=" stroke:none;fill-rule:nonzero;fill:rgb(0%,0%,0%);fill-opacity:1;" d="M 198.511719 192.078125 C 197.957031 192.078125 197.519531 192.265625 197.195312 192.644531 C 196.871094 193.023438 196.710938 193.539062 196.710938 194.199219 C 196.710938 194.855469 196.871094 195.371094 197.195312 195.753906 C 197.519531 196.132812 197.957031 196.324219 198.511719 196.324219 C 199.0625 196.324219 199.5 196.132812 199.824219 195.753906 C 200.148438 195.371094 200.308594 194.855469 200.308594 194.199219 C 200.308594 193.539062 200.148438 193.023438 199.824219 192.644531 C 199.5 192.265625 199.0625 192.078125 198.511719 192.078125 Z M 200.957031 188.210938 L 200.957031 189.335938 C 200.648438 189.1875 200.335938 189.078125 200.019531 189 C 199.703125 188.921875 199.390625 188.882812 199.082031 188.882812 C 198.269531 188.882812 197.648438 189.15625 197.21875 189.707031 C 196.789062 190.257812 196.542969 191.085938 196.484375 192.199219 C 196.722656 191.84375 197.023438 191.570312 197.386719 191.382812 C 197.75 191.195312 198.148438 191.101562 198.582031 191.101562 C 199.496094 191.101562 200.222656 191.378906 200.753906 191.933594 C 201.285156 192.488281 201.550781 193.242188 201.550781 194.199219 C 201.550781 195.136719 201.273438 195.886719 200.71875 196.453125 C 200.164062 197.019531 199.429688 197.300781 198.511719 197.300781 C 197.457031 197.300781 196.648438 196.898438 196.09375 196.089844 C 195.535156 195.28125 195.257812 194.109375 195.257812 192.578125 C 195.257812 191.136719 195.597656 189.988281 196.28125 189.132812 C 196.964844 188.273438 197.882812 187.847656 199.035156 187.847656 C 199.34375 187.847656 199.65625 187.875 199.972656 187.9375 C 200.285156 188 200.613281 188.089844 200.957031 188.210938 Z M 200.957031 188.210938 "/>
<path style=" stroke:none;fill-rule:nonzero;fill:rgb(0%,0%,0%);fill-opacity:1;" d="M 206.308594 188.824219 C 205.675781 188.824219 205.199219 189.136719 204.878906 189.761719 C 204.558594 190.382812 204.398438 191.324219 204.398438 192.578125 C 204.398438 193.824219 204.558594 194.761719 204.878906 195.386719 C 205.199219 196.011719 205.675781 196.324219 206.308594 196.324219 C 206.949219 196.324219 207.425781 196.011719 207.746094 195.386719 C 208.066406 194.761719 208.226562 193.824219 208.226562 192.578125 C 208.226562 191.324219 208.066406 190.382812 207.746094 189.761719 C 207.425781 189.136719 206.949219 188.824219 206.308594 188.824219 Z M 206.308594 187.847656 C 207.332031 187.847656 208.113281 188.25 208.652344 189.058594 C 209.191406 189.867188 209.460938 191.039062 209.460938 192.578125 C 209.460938 194.109375 209.191406 195.28125 208.652344 196.089844 C 208.113281 196.898438 207.332031 197.300781 206.308594 197.300781 C 205.289062 197.300781 204.507812 196.898438 203.96875 196.089844 C 203.429688 195.28125 203.160156 194.109375 203.160156 192.578125 C 203.160156 191.039062 203.429688 189.867188 203.96875 189.058594 C 204.507812 188.25 205.289062 187.847656 206.308594 187.847656 Z M 206.308594 187.847656 "/>
<g clip-path="url(#clip4)" clip-rule="nonzero">
<path style="fill:none;stroke-width:0.8;stroke-linecap:square;stroke-linejoin:round;stroke:rgb(69.019608%,69.019608%,69.019608%);stroke-opacity:1;stroke-miterlimit:4;" d="M 201.325 143.1 L 201.325 7.2 " transform="matrix(1.25,0,0,1.25,0,0)"/>
</g>
<path style="fill:none;stroke-width:0.8;stroke-linecap:butt;stroke-linejoin:round;stroke:rgb(0%,0%,0%);stroke-opacity:1;stroke-miterlimit:4;" d="M 0.00142 0 L 0.00142 3.5 " transform="matrix(1.25,0,0,1.25,251.654475,178.875)"/>
<path style=" stroke:none;fill-rule:nonzero;fill:rgb(0%,0%,0%);fill-opacity:1;" d="M 247.675781 192.796875 C 247.089844 192.796875 246.628906 192.953125 246.292969 193.265625 C 245.957031 193.578125 245.789062 194.011719 245.789062 194.558594 C 245.789062 195.109375 245.957031 195.539062 246.292969 195.855469 C 246.628906 196.167969 247.089844 196.324219 247.675781 196.324219 C 248.261719 196.324219 248.722656 196.167969 249.058594 195.851562 C 249.398438 195.535156 249.566406 195.105469 249.566406 194.558594 C 249.566406 194.011719 249.398438 193.578125 249.0625 193.265625 C 248.726562 192.953125 248.265625 192.796875 247.675781 192.796875 Z M 246.441406 192.273438 C 245.914062 192.140625 245.5 191.894531 245.207031 191.535156 C 244.910156 191.171875 244.765625 190.726562 244.765625 190.207031 C 244.765625 189.480469 245.023438 188.902344 245.542969 188.480469 C 246.0625 188.058594 246.773438 187.847656 247.675781 187.847656 C 248.582031 187.847656 249.292969 188.058594 249.8125 188.480469 C 250.328125 188.902344 250.585938 189.480469 250.585938 190.207031 C 250.585938 190.726562 250.4375 191.171875 250.144531 191.535156 C 249.847656 191.894531 249.4375 192.140625 248.914062 192.273438 C 249.507812 192.410156 249.96875 192.679688 250.300781 193.085938 C 250.632812 193.488281 250.800781 193.976562 250.800781 194.558594 C 250.800781 195.441406 250.53125 196.121094 249.992188 196.59375 C 249.453125 197.066406 248.679688 197.300781 247.675781 197.300781 C 246.671875 197.300781 245.898438 197.066406 245.359375 196.59375 C 244.820312 196.121094 244.550781 195.441406 244.550781 194.558594 C 244.550781 193.976562 244.714844 193.488281 245.050781 193.085938 C 245.382812 192.679688 245.847656 192.410156 246.441406 192.273438 Z M 245.992188 190.324219 C 245.992188 190.796875 246.136719 191.164062 246.433594 191.429688 C 246.726562 191.691406 247.140625 191.824219 247.675781 191.824219 C 248.203125 191.824219 248.617188 191.691406 248.917969 191.429688 C 249.214844 191.164062 249.367188 190.796875 249.367188 190.324219 C 249.367188 189.851562 249.214844 189.484375 248.917969 189.21875 C 248.617188 188.953125 248.203125 188.824219 247.675781 188.824219 C 247.140625 188.824219 246.726562 188.953125 246.433594 189.21875 C 246.136719 189.484375 245.992188 189.851562 245.992188 190.324219 Z M 245.992188 190.324219 "/>
<path style=" stroke:none;fill-rule:nonzero;fill:rgb(0%,0%,0%);fill-opacity:1;" d="M 255.625 188.824219 C 254.992188 188.824219 254.515625 189.136719 254.195312 189.761719 C 253.875 190.382812 253.714844 191.324219 253.714844 192.578125 C 253.714844 193.824219 253.875 194.761719 254.195312 195.386719 C 254.515625 196.011719 254.992188 196.324219 255.625 196.324219 C 256.265625 196.324219 256.746094 196.011719 257.0625 195.386719 C 257.382812 194.761719 257.542969 193.824219 257.542969 192.578125 C 257.542969 191.324219 257.382812 190.382812 257.0625 189.761719 C 256.746094 189.136719 256.265625 188.824219 255.625 188.824219 Z M 255.625 187.847656 C 256.648438 187.847656 257.429688 188.25 257.96875 189.058594 C 258.507812 189.867188 258.777344 191.039062 258.777344 192.578125 C 258.777344 194.109375 258.507812 195.28125 257.96875 196.089844 C 257.429688 196.898438 256.648438 197.300781 255.625 197.300781 C 254.605469 197.300781 253.824219 196.898438 253.285156 196.089844 C 252.746094 195.28125 252.476562 194.109375 252.476562 192.578125 C 252.476562 191.039062 252.746094 189.867188 253.285156 189.058594 C 253.824219 188.25 254.605469 187.847656 255.625 187.847656 Z M 255.625 187.847656 "/>
<g clip-path="url(#clip5)" clip-rule="nonzero">
<path style="fill:none;stroke-width:0.8;stroke-linecap:square;stroke-linejoin:round;stroke:rgb(69.019608%,69.019608%,69.019608%);stroke-opacity:1;stroke-miterlimit:4;" d="M 240.778125 143.1 L 240.778125 7.2 " transform="matrix(1.25,0,0,1.25,0,0)"/>
</g>
<path style="fill:none;stroke-width:0.8;stroke-linecap:butt;stroke-linejoin:round;stroke:rgb(0%,0%,0%);stroke-opacity:1;stroke-miterlimit:4;" d="M 0 0 L 0 3.5 " transform="matrix(1.25,0,0,1.25,300.972656,178.875)"/>
<path style=" stroke:none;fill-rule:nonzero;fill:rgb(0%,0%,0%);fill-opacity:1;" d="M 290.59375 196.085938 L 292.609375 196.085938 L 292.609375 189.132812 L 290.414062 189.574219 L 290.414062 188.449219 L 292.59375 188.011719 L 293.828125 188.011719 L 293.828125 196.085938 L 295.84375 196.085938 L 295.84375 197.125 L 290.59375 197.125 Z M 290.59375 196.085938 "/>
<path style=" stroke:none;fill-rule:nonzero;fill:rgb(0%,0%,0%);fill-opacity:1;" d="M 300.96875 188.824219 C 300.335938 188.824219 299.855469 189.136719 299.535156 189.761719 C 299.21875 190.382812 299.058594 191.324219 299.058594 192.578125 C 299.058594 193.824219 299.21875 194.761719 299.535156 195.386719 C 299.855469 196.011719 300.335938 196.324219 300.96875 196.324219 C 301.609375 196.324219 302.085938 196.011719 302.40625 195.386719 C 302.726562 194.761719 302.886719 193.824219 302.886719 192.578125 C 302.886719 191.324219 302.726562 190.382812 302.40625 189.761719 C 302.085938 189.136719 301.609375 188.824219 300.96875 188.824219 Z M 300.96875 187.847656 C 301.992188 187.847656 302.769531 188.25 303.308594 189.058594 C 303.847656 189.867188 304.117188 191.039062 304.117188 192.578125 C 304.117188 194.109375 303.847656 195.28125 303.308594 196.089844 C 302.769531 196.898438 301.992188 197.300781 300.96875 197.300781 C 299.949219 197.300781 299.167969 196.898438 298.628906 196.089844 C 298.089844 195.28125 297.820312 194.109375 297.820312 192.578125 C 297.820312 191.039062 298.089844 189.867188 298.628906 189.058594 C 299.167969 188.25 299.949219 187.847656 300.96875 187.847656 Z M 300.96875 187.847656 "/>
<path style=" stroke:none;fill-rule:nonzero;fill:rgb(0%,0%,0%);fill-opacity:1;" d="M 308.921875 188.824219 C 308.289062 188.824219 307.808594 189.136719 307.488281 189.761719 C 307.171875 190.382812 307.011719 191.324219 307.011719 192.578125 C 307.011719 193.824219 307.171875 194.761719 307.488281 195.386719 C 307.808594 196.011719 308.289062 196.324219 308.921875 196.324219 C 309.5625 196.324219 310.039062 196.011719 310.359375 195.386719 C 310.679688 194.761719 310.839844 193.824219 310.839844 192.578125 C 310.839844 191.324219 310.679688 190.382812 310.359375 189.761719 C 310.039062 189.136719 309.5625 188.824219 308.921875 188.824219 Z M 308.921875 187.847656 C 309.945312 187.847656 310.722656 188.25 311.261719 189.058594 C 311.800781 189.867188 312.070312 191.039062 312.070312 192.578125 C 312.070312 194.109375 311.800781 195.28125 311.261719 196.089844 C 310.722656 196.898438 309.945312 197.300781 308.921875 197.300781 C 307.902344 197.300781 307.121094 196.898438 306.582031 196.089844 C 306.042969 195.28125 305.773438 194.109375 305.773438 192.578125 C 305.773438 191.039062 306.042969 189.867188 306.582031 189.058594 C 307.121094 188.25 307.902344 187.847656 308.921875 187.847656 Z M 308.921875 187.847656 "/>
<path style=" stroke:none;fill-rule:nonzero;fill:rgb(0%,0%,0%);fill-opacity:1;" d="M 166.898438 210.523438 L 166.898438 211.070312 L 161.734375 211.070312 C 161.785156 211.84375 162.019531 212.433594 162.4375 212.839844 C 162.851562 213.242188 163.433594 213.445312 164.179688 213.445312 C 164.609375 213.445312 165.027344 213.394531 165.429688 213.289062 C 165.835938 213.183594 166.238281 213.023438 166.640625 212.8125 L 166.640625 213.875 C 166.234375 214.042969 165.820312 214.175781 165.398438 214.265625 C 164.976562 214.355469 164.546875 214.398438 164.109375 214.398438 C 163.019531 214.398438 162.15625 214.082031 161.519531 213.449219 C 160.882812 212.8125 160.5625 211.953125 160.5625 210.871094 C 160.5625 209.75 160.867188 208.863281 161.46875 208.207031 C 162.074219 207.550781 162.890625 207.222656 163.914062 207.222656 C 164.835938 207.222656 165.5625 207.515625 166.097656 208.109375 C 166.632812 208.699219 166.898438 209.503906 166.898438 210.523438 Z M 165.777344 210.191406 C 165.769531 209.578125 165.597656 209.089844 165.261719 208.722656 C 164.925781 208.355469 164.480469 208.171875 163.929688 208.171875 C 163.300781 208.171875 162.800781 208.347656 162.421875 208.703125 C 162.046875 209.058594 161.832031 209.554688 161.773438 210.199219 Z M 165.777344 210.191406 "/>
<path style=" stroke:none;fill-rule:nonzero;fill:rgb(0%,0%,0%);fill-opacity:1;" d="M 169.828125 213.195312 L 169.828125 216.820312 L 168.699219 216.820312 L 168.699219 207.386719 L 169.828125 207.386719 L 169.828125 208.421875 C 170.066406 208.015625 170.363281 207.714844 170.722656 207.519531 C 171.085938 207.320312 171.515625 207.222656 172.015625 207.222656 C 172.84375 207.222656 173.519531 207.550781 174.039062 208.210938 C 174.558594 208.867188 174.816406 209.734375 174.816406 210.808594 C 174.816406 211.882812 174.558594 212.75 174.039062 213.410156 C 173.519531 214.070312 172.84375 214.398438 172.015625 214.398438 C 171.515625 214.398438 171.085938 214.300781 170.722656 214.101562 C 170.363281 213.902344 170.066406 213.601562 169.828125 213.195312 Z M 173.652344 210.808594 C 173.652344 209.984375 173.480469 209.335938 173.140625 208.867188 C 172.800781 208.394531 172.335938 208.160156 171.742188 208.160156 C 171.144531 208.160156 170.679688 208.394531 170.339844 208.867188 C 170 209.335938 169.828125 209.984375 169.828125 210.808594 C 169.828125 211.632812 170 212.28125 170.339844 212.753906 C 170.679688 213.222656 171.144531 213.457031 171.742188 213.457031 C 172.335938 213.457031 172.800781 213.222656 173.140625 212.753906 C 173.480469 212.28125 173.652344 211.632812 173.652344 210.808594 Z M 173.652344 210.808594 "/>
<path style=" stroke:none;fill-rule:nonzero;fill:rgb(0%,0%,0%);fill-opacity:1;" d="M 179.328125 208.171875 C 178.726562 208.171875 178.25 208.40625 177.898438 208.878906 C 177.546875 209.347656 177.375 209.992188 177.375 210.808594 C 177.375 211.625 177.546875 212.269531 177.894531 212.742188 C 178.242188 213.210938 178.71875 213.445312 179.328125 213.445312 C 179.925781 213.445312 180.398438 213.210938 180.75 212.738281 C 181.097656 212.265625 181.273438 211.621094 181.273438 210.808594 C 181.273438 210 181.097656 209.355469 180.75 208.882812 C 180.398438 208.410156 179.925781 208.171875 179.328125 208.171875 Z M 179.328125 207.222656 C 180.304688 207.222656 181.070312 207.539062 181.625 208.175781 C 182.1875 208.808594 182.464844 209.6875 182.464844 210.808594 C 182.464844 211.925781 182.1875 212.804688 181.625 213.445312 C 181.070312 214.082031 180.304688 214.398438 179.328125 214.398438 C 178.34375 214.398438 177.578125 214.082031 177.023438 213.445312 C 176.46875 212.804688 176.1875 211.925781 176.1875 210.808594 C 176.1875 209.6875 176.46875 208.808594 177.023438 208.175781 C 177.578125 207.539062 178.34375 207.222656 179.328125 207.222656 Z M 179.328125 207.222656 "/>
<path style=" stroke:none;fill-rule:nonzero;fill:rgb(0%,0%,0%);fill-opacity:1;" d="M 189.246094 207.648438 L 189.246094 208.699219 C 188.925781 208.523438 188.609375 208.390625 188.289062 208.304688 C 187.972656 208.214844 187.648438 208.171875 187.324219 208.171875 C 186.59375 208.171875 186.027344 208.402344 185.625 208.867188 C 185.222656 209.328125 185.019531 209.972656 185.019531 210.808594 C 185.019531 211.644531 185.222656 212.292969 185.625 212.753906 C 186.027344 213.214844 186.59375 213.445312 187.324219 213.445312 C 187.648438 213.445312 187.972656 213.402344 188.289062 213.316406 C 188.609375 213.226562 188.925781 213.097656 189.246094 212.921875 L 189.246094 213.960938 C 188.929688 214.105469 188.605469 214.214844 188.269531 214.289062 C 187.9375 214.363281 187.578125 214.398438 187.199219 214.398438 C 186.171875 214.398438 185.351562 214.074219 184.746094 213.429688 C 184.140625 212.78125 183.835938 211.90625 183.835938 210.808594 C 183.835938 209.695312 184.144531 208.816406 184.753906 208.179688 C 185.367188 207.539062 186.207031 207.222656 187.273438 207.222656 C 187.621094 207.222656 187.957031 207.257812 188.285156 207.328125 C 188.617188 207.398438 188.933594 207.503906 189.246094 207.648438 Z M 189.246094 207.648438 "/>
<path style=" stroke:none;fill-rule:nonzero;fill:rgb(0%,0%,0%);fill-opacity:1;" d="M 196.882812 210.09375 L 196.882812 214.222656 L 195.757812 214.222656 L 195.757812 210.132812 C 195.757812 209.484375 195.632812 209 195.378906 208.679688 C 195.128906 208.359375 194.75 208.199219 194.246094 208.199219 C 193.636719 208.199219 193.160156 208.390625 192.808594 208.777344 C 192.460938 209.164062 192.285156 209.691406 192.285156 210.359375 L 192.285156 214.222656 L 191.15625 214.222656 L 191.15625 204.722656 L 192.285156 204.722656 L 192.285156 208.449219 C 192.554688 208.035156 192.871094 207.730469 193.234375 207.527344 C 193.597656 207.324219 194.019531 207.222656 194.496094 207.222656 C 195.28125 207.222656 195.875 207.464844 196.277344 207.949219 C 196.679688 208.433594 196.882812 209.148438 196.882812 210.09375 Z M 196.882812 210.09375 "/>
<g clip-path="url(#clip6)" clip-rule="nonzero">
<path style="fill:none;stroke-width:0.8;stroke-linecap:square;stroke-linejoin:round;stroke:rgb(69.019608%,69.019608%,69.019608%);stroke-opacity:1;stroke-miterlimit:4;" d="M 45.478125 64.85625 L 240.778125 64.85625 " transform="matrix(1.25,0,0,1.25,0,0)"/>
</g>
<path style="fill:none;stroke-width:0.8;stroke-linecap:butt;stroke-linejoin:round;stroke:rgb(0%,0%,0%);stroke-opacity:1;stroke-miterlimit:4;" d="M 0 0.000757 L -3.5 0.000757 " transform="matrix(1.25,0,0,1.25,56.847656,81.069366)"/>
<path style=" stroke:none;fill-rule:nonzero;fill:rgb(0%,0%,0%);fill-opacity:1;" d="M 27.648438 84.6875 L 29.664062 84.6875 L 29.664062 77.734375 L 27.46875 78.171875 L 27.46875 77.050781 L 29.648438 76.609375 L 30.882812 76.609375 L 30.882812 84.6875 L 32.898438 84.6875 L 32.898438 85.722656 L 27.648438 85.722656 Z M 27.648438 84.6875 "/>
<path style=" stroke:none;fill-rule:nonzero;fill:rgb(0%,0%,0%);fill-opacity:1;" d="M 38.023438 77.421875 C 37.390625 77.421875 36.910156 77.734375 36.589844 78.359375 C 36.273438 78.984375 36.113281 79.921875 36.113281 81.175781 C 36.113281 82.425781 36.273438 83.363281 36.589844 83.988281 C 36.910156 84.613281 37.390625 84.925781 38.023438 84.925781 C 38.664062 84.925781 39.140625 84.613281 39.460938 83.988281 C 39.78125 83.363281 39.941406 82.425781 39.941406 81.175781 C 39.941406 79.921875 39.78125 78.984375 39.460938 78.359375 C 39.140625 77.734375 38.664062 77.421875 38.023438 77.421875 Z M 38.023438 76.445312 C 39.046875 76.445312 39.824219 76.851562 40.363281 77.660156 C 40.902344 78.464844 41.171875 79.636719 41.171875 81.175781 C 41.171875 82.710938 40.902344 83.882812 40.363281 84.691406 C 39.824219 85.496094 39.046875 85.902344 38.023438 85.902344 C 37.003906 85.902344 36.222656 85.496094 35.683594 84.691406 C 35.144531 83.882812 34.875 82.710938 34.875 81.175781 C 34.875 79.636719 35.144531 78.464844 35.683594 77.660156 C 36.222656 76.851562 37.003906 76.445312 38.023438 76.445312 Z M 38.023438 76.445312 "/>
<path style=" stroke:none;fill-rule:nonzero;fill:rgb(0%,0%,0%);fill-opacity:1;" d="M 44.902344 75.128906 C 44.460938 75.128906 44.125 75.347656 43.902344 75.785156 C 43.679688 76.21875 43.566406 76.878906 43.566406 77.753906 C 43.566406 78.628906 43.679688 79.285156 43.902344 79.722656 C 44.125 80.160156 44.460938 80.378906 44.902344 80.378906 C 45.351562 80.378906 45.6875 80.160156 45.910156 79.722656 C 46.132812 79.285156 46.246094 78.628906 46.246094 77.753906 C 46.246094 76.878906 46.132812 76.21875 45.910156 75.785156 C 45.6875 75.347656 45.351562 75.128906 44.902344 75.128906 Z M 44.902344 74.445312 C 45.621094 74.445312 46.164062 74.726562 46.542969 75.292969 C 46.921875 75.859375 47.109375 76.679688 47.109375 77.753906 C 47.109375 78.828125 46.921875 79.648438 46.542969 80.214844 C 46.164062 80.78125 45.621094 81.0625 44.902344 81.0625 C 44.1875 81.0625 43.644531 80.78125 43.265625 80.214844 C 42.890625 79.648438 42.699219 78.828125 42.699219 77.753906 C 42.699219 76.679688 42.890625 75.859375 43.265625 75.292969 C 43.644531 74.726562 44.1875 74.445312 44.902344 74.445312 Z M 44.902344 74.445312 "/>
<path style="fill:none;stroke-width:0.6;stroke-linecap:butt;stroke-linejoin:round;stroke:rgb(0%,0%,0%);stroke-opacity:1;stroke-miterlimit:4;" d="M 0 -0.000135 L -2 -0.000135 " transform="matrix(1.25,0,0,1.25,56.847656,159.402513)"/>
<path style="fill:none;stroke-width:0.6;stroke-linecap:butt;stroke-linejoin:round;stroke:rgb(0%,0%,0%);stroke-opacity:1;stroke-miterlimit:4;" d="M 0 -0.000082 L -2 -0.000082 " transform="matrix(1.25,0,0,1.25,56.847656,139.668071)"/>
<path style="fill:none;stroke-width:0.6;stroke-linecap:butt;stroke-linejoin:round;stroke:rgb(0%,0%,0%);stroke-opacity:1;stroke-miterlimit:4;" d="M 0 0.001365 L -2 0.001365 " transform="matrix(1.25,0,0,1.25,56.847656,125.666263)"/>
<path style="fill:none;stroke-width:0.6;stroke-linecap:butt;stroke-linejoin:round;stroke:rgb(0%,0%,0%);stroke-opacity:1;stroke-miterlimit:4;" d="M 0 -0.000743 L -2 -0.000743 " transform="matrix(1.25,0,0,1.25,56.847656,114.805616)"/>
<path style="fill:none;stroke-width:0.6;stroke-linecap:butt;stroke-linejoin:round;stroke:rgb(0%,0%,0%);stroke-opacity:1;stroke-miterlimit:4;" d="M 0 0.001418 L -2 0.001418 " transform="matrix(1.25,0,0,1.25,56.847656,105.931821)"/>
<path style="fill:none;stroke-width:0.6;stroke-linecap:butt;stroke-linejoin:round;stroke:rgb(0%,0%,0%);stroke-opacity:1;stroke-miterlimit:4;" d="M 0 0.000442 L -2 0.000442 " transform="matrix(1.25,0,0,1.25,56.847656,98.429135)"/>
<path style="fill:none;stroke-width:0.6;stroke-linecap:butt;stroke-linejoin:round;stroke:rgb(0%,0%,0%);stroke-opacity:1;stroke-miterlimit:4;" d="M 0 -0.00026 L -2 -0.00026 " transform="matrix(1.25,0,0,1.25,56.847656,91.930013)"/>
<path style="fill:none;stroke-width:0.6;stroke-linecap:butt;stroke-linejoin:round;stroke:rgb(0%,0%,0%);stroke-opacity:1;stroke-miterlimit:4;" d="M 0 0.00147 L -2 0.00147 " transform="matrix(1.25,0,0,1.25,56.847656,86.197381)"/>
<path style="fill:none;stroke-width:0.6;stroke-linecap:butt;stroke-linejoin:round;stroke:rgb(0%,0%,0%);stroke-opacity:1;stroke-miterlimit:4;" d="M 0 -0.000868 L -2 -0.000868 " transform="matrix(1.25,0,0,1.25,56.847656,47.333116)"/>
<path style="fill:none;stroke-width:0.6;stroke-linecap:butt;stroke-linejoin:round;stroke:rgb(0%,0%,0%);stroke-opacity:1;stroke-miterlimit:4;" d="M 0 -0.000815 L -2 -0.000815 " transform="matrix(1.25,0,0,1.25,56.847656,27.598675)"/>
<path style="fill:none;stroke-width:0.6;stroke-linecap:butt;stroke-linejoin:round;stroke:rgb(0%,0%,0%);stroke-opacity:1;stroke-miterlimit:4;" d="M 0 0.000632 L -2 0.000632 " transform="matrix(1.25,0,0,1.25,56.847656,13.596866)"/>
<path style=" stroke:none;fill-rule:nonzero;fill:rgb(0%,0%,0%);fill-opacity:1;" d="M 12.710938 104.449219 C 12.636719 104.574219 12.585938 104.710938 12.550781 104.859375 C 12.515625 105.007812 12.496094 105.171875 12.496094 105.351562 C 12.496094 105.984375 12.703125 106.472656 13.117188 106.8125 C 13.53125 107.152344 14.121094 107.324219 14.894531 107.324219 L 18.496094 107.324219 L 18.496094 108.453125 L 11.660156 108.453125 L 11.660156 107.324219 L 12.722656 107.324219 C 12.308594 107.085938 12 106.777344 11.800781 106.402344 C 11.597656 106.023438 11.496094 105.5625 11.496094 105.019531 C 11.496094 104.945312 11.503906 104.859375 11.511719 104.765625 C 11.523438 104.671875 11.539062 104.566406 11.558594 104.453125 Z M 12.710938 104.449219 "/>
<path style=" stroke:none;fill-rule:nonzero;fill:rgb(0%,0%,0%);fill-opacity:1;" d="M 12.972656 98.167969 C 12.46875 97.886719 12.097656 97.550781 11.855469 97.160156 C 11.617188 96.769531 11.496094 96.308594 11.496094 95.78125 C 11.496094 95.066406 11.746094 94.519531 12.246094 94.132812 C 12.742188 93.746094 13.453125 93.550781 14.371094 93.550781 L 18.496094 93.550781 L 18.496094 94.679688 L 14.40625 94.679688 C 13.753906 94.679688 13.265625 94.796875 12.949219 95.03125 C 12.632812 95.261719 12.472656 95.613281 12.472656 96.089844 C 12.472656 96.671875 12.667969 97.132812 13.054688 97.472656 C 13.441406 97.808594 13.964844 97.976562 14.632812 97.976562 L 18.496094 97.976562 L 18.496094 99.105469 L 14.40625 99.105469 C 13.75 99.105469 13.261719 99.222656 12.945312 99.453125 C 12.632812 99.683594 12.472656 100.042969 12.472656 100.527344 C 12.472656 101.101562 12.667969 101.558594 13.054688 101.898438 C 13.445312 102.234375 13.96875 102.402344 14.632812 102.402344 L 18.496094 102.402344 L 18.496094 103.53125 L 11.660156 103.53125 L 11.660156 102.402344 L 12.722656 102.402344 C 12.304688 102.144531 11.996094 101.839844 11.796875 101.480469 C 11.597656 101.121094 11.496094 100.699219 11.496094 100.207031 C 11.496094 99.707031 11.625 99.285156 11.875 98.9375 C 12.128906 98.589844 12.492188 98.332031 12.972656 98.167969 Z M 12.972656 98.167969 "/>
<path style=" stroke:none;fill-rule:nonzero;fill:rgb(0%,0%,0%);fill-opacity:1;" d="M 11.863281 86.953125 L 12.925781 86.953125 C 12.761719 87.269531 12.640625 87.601562 12.558594 87.941406 C 12.476562 88.285156 12.4375 88.636719 12.4375 89.003906 C 12.4375 89.5625 12.523438 89.980469 12.691406 90.257812 C 12.863281 90.539062 13.121094 90.675781 13.460938 90.675781 C 13.722656 90.675781 13.925781 90.578125 14.074219 90.378906 C 14.222656 90.179688 14.367188 89.777344 14.5 89.175781 L 14.585938 88.789062 C 14.757812 87.992188 14.996094 87.425781 15.308594 87.089844 C 15.621094 86.753906 16.054688 86.585938 16.609375 86.585938 C 17.246094 86.585938 17.75 86.839844 18.121094 87.339844 C 18.492188 87.84375 18.675781 88.535156 18.675781 89.414062 C 18.675781 89.78125 18.640625 90.160156 18.566406 90.558594 C 18.496094 90.957031 18.390625 91.375 18.246094 91.8125 L 17.085938 91.8125 C 17.304688 91.398438 17.464844 90.988281 17.574219 90.585938 C 17.679688 90.183594 17.734375 89.785156 17.734375 89.386719 C 17.734375 88.859375 17.644531 88.453125 17.460938 88.167969 C 17.28125 87.882812 17.027344 87.742188 16.695312 87.742188 C 16.390625 87.742188 16.160156 87.84375 15.996094 88.050781 C 15.832031 88.253906 15.675781 88.707031 15.523438 89.402344 L 15.433594 89.792969 C 15.289062 90.488281 15.0625 90.992188 14.757812 91.300781 C 14.457031 91.609375 14.039062 91.761719 13.511719 91.761719 C 12.867188 91.761719 12.371094 91.535156 12.023438 91.078125 C 11.671875 90.625 11.496094 89.976562 11.496094 89.136719 C 11.496094 88.722656 11.527344 88.335938 11.589844 87.96875 C 11.648438 87.601562 11.742188 87.261719 11.863281 86.953125 Z M 11.863281 86.953125 "/>
<path style=" stroke:none;fill-rule:nonzero;fill:rgb(0%,0%,0%);fill-opacity:1;" d="M 14.796875 78.953125 L 15.347656 78.953125 L 15.347656 84.117188 C 16.121094 84.066406 16.710938 83.832031 17.113281 83.417969 C 17.519531 83 17.722656 82.417969 17.722656 81.675781 C 17.722656 81.242188 17.667969 80.824219 17.5625 80.421875 C 17.457031 80.015625 17.300781 79.613281 17.085938 79.214844 L 18.148438 79.214844 C 18.320312 79.617188 18.449219 80.03125 18.539062 80.453125 C 18.628906 80.878906 18.675781 81.304688 18.675781 81.742188 C 18.675781 82.832031 18.359375 83.695312 17.722656 84.332031 C 17.089844 84.96875 16.230469 85.289062 15.144531 85.289062 C 14.027344 85.289062 13.140625 84.984375 12.484375 84.382812 C 11.828125 83.777344 11.496094 82.960938 11.496094 81.9375 C 11.496094 81.015625 11.792969 80.289062 12.386719 79.753906 C 12.976562 79.21875 13.78125 78.953125 14.796875 78.953125 Z M 14.46875 80.074219 C 13.855469 80.082031 13.367188 80.253906 13 80.589844 C 12.632812 80.925781 12.449219 81.371094 12.449219 81.925781 C 12.449219 82.550781 12.625 83.050781 12.980469 83.429688 C 13.335938 83.804688 13.832031 84.023438 14.476562 84.078125 Z M 14.46875 80.074219 "/>
<g clip-path="url(#clip7)" clip-rule="nonzero">
<path style="fill:none;stroke-width:1.5;stroke-linecap:square;stroke-linejoin:round;stroke:rgb(12.156863%,46.666667%,70.588235%);stroke-opacity:1;stroke-miterlimit:4;" d="M 45.478125 13.5125 L 47.45 21.425 L 49.425 26.9 L 51.396875 31.26875 L 53.36875 34.98125 L 55.340625 38.296875 L 57.315625 41.29375 L 59.2875 44.09375 L 61.259375 46.7 L 63.23125 49.165625 L 65.20625 51.525 L 67.178125 53.7875 L 69.15 55.978125 L 71.125 58.090625 L 73.096875 60.15625 L 75.06875 62.165625 L 77.040625 64.134375 L 79.015625 66.065625 L 80.9875 67.95625 L 82.959375 69.809375 L 84.93125 71.625 L 86.90625 73.4125 L 88.878125 75.1875 L 90.85 76.934375 L 92.825 78.675 L 94.796875 80.40625 L 96.76875 82.10625 L 98.740625 83.8 L 100.715625 85.471875 L 102.6875 87.1375 L 104.659375 88.790625 L 106.63125 90.4375 L 108.60625 92.03125 L 110.578125 93.634375 L 112.55 95.203125 L 114.525 96.75625 L 116.496875 98.321875 L 118.46875 99.840625 L 120.440625 101.353125 L 122.415625 102.83125 L 124.3875 104.28125 L 126.359375 105.7625 L 128.33125 107.159375 L 130.30625 108.515625 L 132.278125 109.88125 L 134.25 111.21875 L 136.225 112.534375 L 138.196875 113.790625 L 140.16875 115.04375 L 142.140625 116.21875 L 144.115625 117.35625 L 146.0875 118.4625 L 148.059375 119.553125 L 150.03125 120.5625 L 152.00625 121.546875 L 153.978125 122.5125 L 155.95 123.409375 L 157.925 124.2375 L 159.896875 125.01875 L 161.86875 125.75625 L 163.840625 126.46875 L 165.815625 127.134375 L 167.7875 127.753125 L 169.759375 128.3125 L 171.73125 128.81875 L 173.70625 129.30625 L 175.678125 129.78125 L 177.65 130.175 L 179.625 130.575 L 181.596875 130.925 L 183.56875 131.240625 L 185.540625 131.540625 L 187.515625 131.803125 L 189.4875 132.0375 L 193.43125 132.44375 L 195.40625 132.615625 L 197.378125 132.76875 L 199.35 132.90625 L 201.325 133.025 L 203.296875 133.134375 L 205.26875 133.234375 L 207.240625 133.315625 L 209.215625 133.384375 L 211.1875 133.440625 L 213.159375 133.49375 L 215.13125 133.534375 L 217.10625 133.565625 L 219.078125 133.615625 L 221.05 133.634375 L 223.025 133.6625 L 224.996875 133.6875 L 226.96875 133.678125 L 228.940625 133.665625 L 230.915625 133.65625 L 232.8875 133.66875 L 234.859375 133.70625 L 236.83125 133.70625 L 238.80625 133.728125 L 240.778125 133.721875 " transform="matrix(1.25,0,0,1.25,0,0)"/>
</g>
<g clip-path="url(#clip8)" clip-rule="nonzero">
<path style="fill:none;stroke-width:1.5;stroke-linecap:butt;stroke-linejoin:round;stroke:rgb(74.901961%,0%,74.901961%);stroke-opacity:1;stroke-dasharray:5.55,2.4;stroke-miterlimit:4;" d="M 45.478125 13.378125 L 47.45 21.240625 L 49.425 26.69375 L 51.396875 31.0375 L 53.36875 34.734375 L 55.340625 38.034375 L 57.315625 41.01875 L 59.2875 43.796875 L 61.259375 46.384375 L 63.23125 48.834375 L 65.20625 51.18125 L 67.178125 53.434375 L 69.15 55.609375 L 71.125 57.709375 L 73.096875 59.765625 L 75.06875 61.759375 L 77.040625 63.71875 L 79.015625 65.634375 L 80.9875 67.5125 L 82.959375 69.353125 L 84.93125 71.159375 L 86.90625 72.9375 L 88.878125 74.70625 L 90.85 76.44375 L 92.825 78.178125 L 94.796875 79.903125 L 96.76875 81.6 L 98.740625 83.2875 L 100.715625 84.959375 L 102.6875 86.625 L 104.659375 88.284375 L 106.63125 89.9375 L 108.60625 91.54375 L 110.578125 93.15625 L 112.55 94.7375 L 114.525 96.309375 L 116.496875 97.89375 L 118.46875 99.440625 L 120.440625 100.98125 L 122.415625 102.490625 L 124.3875 103.975 L 126.359375 105.496875 L 128.33125 106.946875 L 130.30625 108.35625 L 132.278125 109.778125 L 134.25 111.178125 L 136.225 112.565625 L 138.196875 113.896875 L 140.16875 115.234375 L 142.140625 116.49375 L 144.115625 117.725 L 146.0875 118.928125 L 148.059375 120.11875 L 150.03125 121.2375 L 152.00625 122.33125 L 153.978125 123.4125 L 155.95 124.43125 L 157.925 125.378125 L 159.896875 126.275 L 161.86875 127.13125 L 163.840625 127.959375 L 165.815625 128.75 L 167.7875 129.4875 L 169.759375 130.1625 L 171.73125 130.778125 L 173.70625 131.375 L 175.678125 131.965625 L 177.65 132.453125 L 179.625 132.953125 L 181.596875 133.390625 L 183.56875 133.790625 L 185.540625 134.18125 L 187.515625 134.509375 L 189.4875 134.803125 L 191.459375 135.0625 L 193.43125 135.334375 L 195.40625 135.55625 L 197.378125 135.753125 L 199.35 135.915625 L 201.325 136.065625 L 203.296875 136.20625 L 205.26875 136.340625 L 207.240625 136.44375 L 209.215625 136.534375 L 211.1875 136.615625 L 213.159375 136.675 L 215.13125 136.725 L 217.10625 136.771875 L 219.078125 136.81875 L 221.05 136.8375 L 223.025 136.865625 L 224.996875 136.8875 L 226.96875 136.890625 L 228.940625 136.8875 L 230.915625 136.88125 L 232.8875 136.89375 L 234.859375 136.921875 L 236.83125 136.90625 L 238.80625 136.915625 L 240.778125 136.9 " transform="matrix(1.25,0,0,1.25,0,0)"/>
</g>
<path style="fill:none;stroke-width:0.8;stroke-linecap:square;stroke-linejoin:miter;stroke:rgb(0%,0%,0%);stroke-opacity:1;stroke-miterlimit:4;" d="M 45.478125 143.1 L 45.478125 7.2 " transform="matrix(1.25,0,0,1.25,0,0)"/>
<path style="fill:none;stroke-width:0.8;stroke-linecap:square;stroke-linejoin:miter;stroke:rgb(0%,0%,0%);stroke-opacity:1;stroke-miterlimit:4;" d="M 240.778125 143.1 L 240.778125 7.2 " transform="matrix(1.25,0,0,1.25,0,0)"/>
<path style="fill:none;stroke-width:0.8;stroke-linecap:square;stroke-linejoin:miter;stroke:rgb(0%,0%,0%);stroke-opacity:1;stroke-miterlimit:4;" d="M 45.478125 143.1 L 240.778125 143.1 " transform="matrix(1.25,0,0,1.25,0,0)"/>
<path style="fill:none;stroke-width:0.8;stroke-linecap:square;stroke-linejoin:miter;stroke:rgb(0%,0%,0%);stroke-opacity:1;stroke-miterlimit:4;" d="M 45.478125 7.2 L 240.778125 7.2 " transform="matrix(1.25,0,0,1.25,0,0)"/>
<use xlink:href="#surface6" mask="url(#mask0)"/>
<path style="fill:none;stroke-width:1.5;stroke-linecap:square;stroke-linejoin:round;stroke:rgb(12.156863%,46.666667%,70.588235%);stroke-opacity:1;stroke-miterlimit:4;" d="M 179.825 20.296875 L 199.825 20.296875 " transform="matrix(1.25,0,0,1.25,0,0)"/>
<path style=" stroke:none;fill-rule:nonzero;fill:rgb(0%,0%,0%);fill-opacity:1;" d="M 262.070312 20.96875 L 262.070312 22.910156 L 264.382812 22.910156 L 264.382812 23.785156 L 262.070312 23.785156 L 262.070312 27.496094 C 262.070312 28.054688 262.148438 28.410156 262.300781 28.570312 C 262.453125 28.730469 262.761719 28.808594 263.230469 28.808594 L 264.382812 28.808594 L 264.382812 29.746094 L 263.230469 29.746094 C 262.363281 29.746094 261.765625 29.585938 261.4375 29.261719 C 261.109375 28.9375 260.941406 28.351562 260.941406 27.496094 L 260.941406 23.785156 L 260.117188 23.785156 L 260.117188 22.910156 L 260.941406 22.910156 L 260.941406 20.96875 Z M 262.070312 20.96875 "/>
<path style=" stroke:none;fill-rule:nonzero;fill:rgb(0%,0%,0%);fill-opacity:1;" d="M 269.824219 23.960938 C 269.695312 23.886719 269.558594 23.835938 269.410156 23.800781 C 269.261719 23.765625 269.097656 23.746094 268.921875 23.746094 C 268.285156 23.746094 267.796875 23.953125 267.457031 24.367188 C 267.117188 24.78125 266.949219 25.371094 266.949219 26.144531 L 266.949219 29.746094 L 265.820312 29.746094 L 265.820312 22.910156 L 266.949219 22.910156 L 266.949219 23.972656 C 267.183594 23.558594 267.492188 23.25 267.871094 23.050781 C 268.25 22.847656 268.710938 22.746094 269.25 22.746094 C 269.328125 22.746094 269.414062 22.753906 269.507812 22.761719 C 269.601562 22.773438 269.703125 22.789062 269.816406 22.808594 Z M 269.824219 23.960938 "/>
<path style=" stroke:none;fill-rule:nonzero;fill:rgb(0%,0%,0%);fill-opacity:1;" d="M 274.109375 26.3125 C 273.199219 26.3125 272.570312 26.414062 272.222656 26.621094 C 271.871094 26.828125 271.695312 27.183594 271.695312 27.683594 C 271.695312 28.082031 271.828125 28.398438 272.089844 28.632812 C 272.355469 28.867188 272.710938 28.984375 273.160156 28.984375 C 273.785156 28.984375 274.285156 28.761719 274.660156 28.320312 C 275.039062 27.878906 275.226562 27.292969 275.226562 26.5625 L 275.226562 26.3125 Z M 276.347656 25.847656 L 276.347656 29.746094 L 275.226562 29.746094 L 275.226562 28.710938 C 274.96875 29.125 274.648438 29.429688 274.265625 29.628906 C 273.882812 29.828125 273.414062 29.925781 272.863281 29.925781 C 272.164062 29.925781 271.605469 29.730469 271.191406 29.335938 C 270.78125 28.941406 270.574219 28.417969 270.574219 27.757812 C 270.574219 26.988281 270.832031 26.410156 271.34375 26.019531 C 271.859375 25.628906 272.628906 25.433594 273.648438 25.433594 L 275.226562 25.433594 L 275.226562 25.320312 C 275.226562 24.804688 275.054688 24.40625 274.714844 24.121094 C 274.375 23.839844 273.898438 23.699219 273.285156 23.699219 C 272.894531 23.699219 272.511719 23.746094 272.140625 23.839844 C 271.773438 23.933594 271.417969 24.074219 271.074219 24.261719 L 271.074219 23.222656 C 271.484375 23.0625 271.882812 22.945312 272.269531 22.867188 C 272.65625 22.789062 273.035156 22.746094 273.398438 22.746094 C 274.390625 22.746094 275.128906 23.003906 275.617188 23.515625 C 276.105469 24.027344 276.347656 24.804688 276.347656 25.847656 Z M 276.347656 25.847656 "/>
<path style=" stroke:none;fill-rule:nonzero;fill:rgb(0%,0%,0%);fill-opacity:1;" d="M 278.660156 22.910156 L 279.785156 22.910156 L 279.785156 29.746094 L 278.660156 29.746094 Z M 278.660156 20.25 L 279.785156 20.25 L 279.785156 21.671875 L 278.660156 21.671875 Z M 278.660156 20.25 "/>
<path style=" stroke:none;fill-rule:nonzero;fill:rgb(0%,0%,0%);fill-opacity:1;" d="M 287.816406 25.621094 L 287.816406 29.746094 L 286.695312 29.746094 L 286.695312 25.65625 C 286.695312 25.011719 286.566406 24.527344 286.316406 24.207031 C 286.0625 23.886719 285.683594 23.722656 285.179688 23.722656 C 284.574219 23.722656 284.09375 23.917969 283.746094 24.304688 C 283.394531 24.691406 283.21875 25.214844 283.21875 25.882812 L 283.21875 29.746094 L 282.089844 29.746094 L 282.089844 22.910156 L 283.21875 22.910156 L 283.21875 23.972656 C 283.488281 23.5625 283.804688 23.253906 284.167969 23.050781 C 284.535156 22.847656 284.953125 22.746094 285.429688 22.746094 C 286.214844 22.746094 286.808594 22.992188 287.210938 23.476562 C 287.617188 23.960938 287.816406 24.675781 287.816406 25.621094 Z M 287.816406 25.621094 "/>
<path style="fill:none;stroke-width:1.5;stroke-linecap:butt;stroke-linejoin:round;stroke:rgb(74.901961%,0%,74.901961%);stroke-opacity:1;stroke-dasharray:5.55,2.4;stroke-miterlimit:4;" d="M 179.825 34.975 L 199.825 34.975 " transform="matrix(1.25,0,0,1.25,0,0)"/>
<path style=" stroke:none;fill-rule:nonzero;fill:rgb(0%,0%,0%);fill-opacity:1;" d="M 260.15625 41.257812 L 261.34375 41.257812 L 263.480469 46.996094 L 265.617188 41.257812 L 266.808594 41.257812 L 264.242188 48.09375 L 262.71875 48.09375 Z M 260.15625 41.257812 "/>
<path style=" stroke:none;fill-rule:nonzero;fill:rgb(0%,0%,0%);fill-opacity:1;" d="M 271.464844 44.660156 C 270.558594 44.660156 269.929688 44.761719 269.578125 44.96875 C 269.230469 45.175781 269.054688 45.53125 269.054688 46.03125 C 269.054688 46.429688 269.183594 46.746094 269.449219 46.980469 C 269.710938 47.214844 270.066406 47.332031 270.519531 47.332031 C 271.140625 47.332031 271.640625 47.109375 272.019531 46.667969 C 272.394531 46.226562 272.582031 45.640625 272.582031 44.910156 L 272.582031 44.660156 Z M 273.707031 44.195312 L 273.707031 48.09375 L 272.582031 48.09375 L 272.582031 47.058594 C 272.328125 47.472656 272.007812 47.777344 271.625 47.976562 C 271.242188 48.175781 270.773438 48.273438 270.21875 48.273438 C 269.519531 48.273438 268.964844 48.078125 268.550781 47.683594 C 268.136719 47.289062 267.929688 46.765625 267.929688 46.105469 C 267.929688 45.335938 268.1875 44.757812 268.703125 44.367188 C 269.21875 43.976562 269.984375 43.78125 271.007812 43.78125 L 272.582031 43.78125 L 272.582031 43.667969 C 272.582031 43.152344 272.414062 42.753906 272.074219 42.46875 C 271.734375 42.1875 271.257812 42.046875 270.640625 42.046875 C 270.25 42.046875 269.871094 42.09375 269.5 42.1875 C 269.128906 42.28125 268.773438 42.421875 268.433594 42.609375 L 268.433594 41.570312 C 268.84375 41.410156 269.242188 41.292969 269.628906 41.214844 C 270.015625 41.136719 270.390625 41.09375 270.757812 41.09375 C 271.746094 41.09375 272.484375 41.351562 272.972656 41.863281 C 273.460938 42.375 273.707031 43.152344 273.707031 44.195312 Z M 273.707031 44.195312 "/>
<path style=" stroke:none;fill-rule:nonzero;fill:rgb(0%,0%,0%);fill-opacity:1;" d="M 276.019531 38.597656 L 277.140625 38.597656 L 277.140625 48.09375 L 276.019531 48.09375 Z M 276.019531 38.597656 "/>
<path style=" stroke:none;fill-rule:nonzero;fill:rgb(0%,0%,0%);fill-opacity:1;" d="M 279.492188 41.257812 L 280.613281 41.257812 L 280.613281 48.09375 L 279.492188 48.09375 Z M 279.492188 38.597656 L 280.613281 38.597656 L 280.613281 40.019531 L 279.492188 40.019531 Z M 279.492188 38.597656 "/>
<path style=" stroke:none;fill-rule:nonzero;fill:rgb(0%,0%,0%);fill-opacity:1;" d="M 287.460938 42.296875 L 287.460938 38.597656 L 288.585938 38.597656 L 288.585938 48.09375 L 287.460938 48.09375 L 287.460938 47.070312 C 287.226562 47.476562 286.929688 47.777344 286.566406 47.976562 C 286.207031 48.175781 285.777344 48.273438 285.269531 48.273438 C 284.445312 48.273438 283.773438 47.945312 283.253906 47.285156 C 282.734375 46.625 282.476562 45.757812 282.476562 44.683594 C 282.476562 43.609375 282.734375 42.742188 283.253906 42.082031 C 283.773438 41.425781 284.445312 41.09375 285.269531 41.09375 C 285.777344 41.09375 286.207031 41.195312 286.566406 41.390625 C 286.929688 41.589844 287.226562 41.890625 287.460938 42.296875 Z M 283.636719 44.683594 C 283.636719 45.507812 283.804688 46.15625 284.144531 46.625 C 284.484375 47.097656 284.953125 47.332031 285.546875 47.332031 C 286.140625 47.332031 286.605469 47.097656 286.949219 46.625 C 287.289062 46.15625 287.460938 45.507812 287.460938 44.683594 C 287.460938 43.859375 287.289062 43.210938 286.949219 42.738281 C 286.605469 42.269531 286.140625 42.035156 285.546875 42.035156 C 284.953125 42.035156 284.484375 42.269531 284.144531 42.738281 C 283.804688 43.210938 283.636719 43.859375 283.636719 44.683594 Z M 283.636719 44.683594 "/>
</g>
</svg>
