<?xml version="1.0" encoding="UTF-8"?>
<svg xmlns="http://www.w3.org/2000/svg" xmlns:xlink="http://www.w3.org/1999/xlink" width="304pt" height="226pt" viewBox="0 0 304 226" version="1.1">
<defs>
<clipPath id="clip1">
  <path d="M 61 9 L 63 9 L 63 178.875 L 61 178.875 Z M 61 9 "/>
</clipPath>
<clipPath id="clip2">
  <path d="M 137 9 L 140 9 L 140 178.875 L 137 178.875 Z M 137 9 "/>
</clipPath>
<clipPath id="clip3">
  <path d="M 214 9 L 216 9 L 216 178.875 L 214 178.875 Z M 214 9 "/>
</clipPath>
<clipPath id="clip4">
  <path d="M 290 9 L 293 9 L 293 178.875 L 290 178.875 Z M 290 9 "/>
</clipPath>
<clipPath id="clip5">
  <path d="M 50.753906 142 L 294.878906 142 L 294.878906 144 L 50.753906 144 Z M 50.753906 142 "/>
</clipPath>
<clipPath id="clip6">
  <path d="M 50.753906 96 L 294.878906 96 L 294.878906 98 L 50.753906 98 Z M 50.753906 96 "/>
</clipPath>
<clipPath id="clip7">
  <path d="M 50.753906 49 L 294.878906 49 L 294.878906 52 L 50.753906 52 Z M 50.753906 49 "/>
</clipPath>
<filter id="alpha" filterUnits="objectBoundingBox" x="0%" y="0%" width="100%" height="100%">
  <feColorMatrix type="matrix" in="SourceGraphic" values="0 0 0 0 1 0 0 0 0 1 0 0 0 0 1 0 0 0 1 0"/>
</filter>
<mask id="mask0">
  <g filter="url(#alpha)">
<rect x="0" y="0" width="304" height="226" style="fill:rgb(0%,0%,0%);fill-opacity:0.8;stroke:none;"/>
  </g>
</mask>
<clipPath id="clip8">
  <rect width="304" height="226"/>
</clipPath>
<g id="surface6" clip-path="url(#clip8)">
<path style="fill-rule:nonzero;fill:rgb(100%,100%,100%);fill-opacity:1;stroke-width:1;stroke-linecap:butt;stroke-linejoin:miter;stroke:rgb(80%,80%,80%);stroke-opacity:1;stroke-miterlimit:4;" d="M 47.603125 44.55625 L 172.153125 44.55625 C 173.4875 44.55625 174.153125 43.890625 174.153125 42.55625 L 174.153125 14.2 C 174.153125 12.865625 173.4875 12.2 172.153125 12.2 L 47.603125 12.2 C 46.26875 12.2 45.603125 12.865625 45.603125 14.2 L 45.603125 42.55625 C 45.603125 43.890625 46.26875 44.55625 47.603125 44.55625 Z M 47.603125 44.55625 " transform="matrix(1.25,0,0,1.25,0,0.000000000000014211)"/>
</g>
</defs>
<g id="surface1">
<path style=" stroke:none;fill-rule:nonzero;fill:rgb(100%,100%,100%);fill-opacity:1;" d="M 50.753906 178.875 L 294.878906 178.875 L 294.878906 9 L 50.753906 9 Z M 50.753906 178.875 "/>
<g clip-path="url(#clip1)" clip-rule="nonzero">
<path style="fill:none;stroke-width:0.8;stroke-linecap:square;stroke-linejoin:round;stroke:rgb(69.019608%,69.019608%,69.019608%);stroke-opacity:1;stroke-miterlimit:4;" d="M 49.48125 143.1 L 49.48125 7.2 " transform="matrix(1.25,0,0,1.25,0,0.000000000000014211)"/>
</g>
<path style="fill:none;stroke-width:0.8;stroke-linecap:butt;stroke-linejoin:round;stroke:rgb(0%,0%,0%);stroke-opacity:1;stroke-miterlimit:4;" d="M 0.000852 0 L 0.000852 3.5 " transform="matrix(1.25,0,0,1.25,61.850497,178.875)"/>
<path style=" stroke:none;fill-rule:nonzero;fill:rgb(0%,0%,0%);fill-opacity:1;" d="M 61.847656 188.824219 C 61.210938 188.824219 60.734375 189.136719 60.414062 189.761719 C 60.097656 190.382812 59.9375 191.324219 59.9375 192.578125 C 59.9375 193.824219 60.097656 194.761719 60.414062 195.386719 C 60.734375 196.011719 61.210938 196.324219 61.847656 196.324219 C 62.484375 196.324219 62.964844 196.011719 63.285156 195.386719 C 63.605469 194.761719 63.765625 193.824219 63.765625 192.578125 C 63.765625 191.324219 63.605469 190.382812 63.285156 189.761719 C 62.964844 189.136719 62.484375 188.824219 61.847656 188.824219 Z M 61.847656 187.847656 C 62.867188 187.847656 63.648438 188.25 64.1875 189.058594 C 64.726562 189.867188 64.996094 191.039062 64.996094 192.578125 C 64.996094 194.109375 64.726562 195.28125 64.1875 196.089844 C 63.648438 196.898438 62.867188 197.300781 61.847656 197.300781 C 60.824219 197.300781 60.046875 196.898438 59.507812 196.089844 C 58.96875 195.28125 58.699219 194.109375 58.699219 192.578125 C 58.699219 191.039062 58.96875 189.867188 59.507812 189.058594 C 60.046875 188.25 60.824219 187.847656 61.847656 187.847656 Z M 61.847656 187.847656 "/>
<g clip-path="url(#clip2)" clip-rule="nonzero">
<path style="fill:none;stroke-width:0.8;stroke-linecap:square;stroke-linejoin:round;stroke:rgb(69.019608%,69.019608%,69.019608%);stroke-opacity:1;stroke-miterlimit:4;" d="M 110.703125 143.1 L 110.703125 7.2 " transform="matrix(1.25,0,0,1.25,0,0.000000000000014211)"/>
</g>
<path style="fill:none;stroke-width:0.8;stroke-linecap:butt;stroke-linejoin:round;stroke:rgb(0%,0%,0%);stroke-opacity:1;stroke-miterlimit:4;" d="M 0.000157 0 L 0.000157 3.5 " transform="matrix(1.25,0,0,1.25,138.37871,178.875)"/>
<path style=" stroke:none;fill-rule:nonzero;fill:rgb(0%,0%,0%);fill-opacity:1;" d="M 135.953125 196.085938 L 137.964844 196.085938 L 137.964844 189.132812 L 135.773438 189.574219 L 135.773438 188.449219 L 137.953125 188.011719 L 139.1875 188.011719 L 139.1875 196.085938 L 141.199219 196.085938 L 141.199219 197.125 L 135.953125 197.125 Z M 135.953125 196.085938 "/>
<g clip-path="url(#clip3)" clip-rule="nonzero">
<path style="fill:none;stroke-width:0.8;stroke-linecap:square;stroke-linejoin:round;stroke:rgb(69.019608%,69.019608%,69.019608%);stroke-opacity:1;stroke-miterlimit:4;" d="M 171.925 143.1 L 171.925 7.2 " transform="matrix(1.25,0,0,1.25,0,0.000000000000014211)"/>
</g>
<path style="fill:none;stroke-width:0.8;stroke-linecap:butt;stroke-linejoin:round;stroke:rgb(0%,0%,0%);stroke-opacity:1;stroke-miterlimit:4;" d="M -0.000539 0 L -0.000539 3.5 " transform="matrix(1.25,0,0,1.25,214.906924,178.875)"/>
<path style=" stroke:none;fill-rule:nonzero;fill:rgb(0%,0%,0%);fill-opacity:1;" d="M 213.328125 196.085938 L 217.632812 196.085938 L 217.632812 197.125 L 211.847656 197.125 L 211.847656 196.085938 C 212.3125 195.601562 212.953125 194.953125 213.757812 194.136719 C 214.566406 193.320312 215.074219 192.792969 215.28125 192.558594 C 215.675781 192.113281 215.953125 191.738281 216.109375 191.433594 C 216.265625 191.125 216.34375 190.824219 216.34375 190.527344 C 216.34375 190.042969 216.175781 189.648438 215.835938 189.34375 C 215.496094 189.035156 215.050781 188.882812 214.507812 188.882812 C 214.121094 188.882812 213.710938 188.949219 213.28125 189.085938 C 212.855469 189.21875 212.394531 189.421875 211.90625 189.695312 L 211.90625 188.449219 C 212.402344 188.25 212.867188 188.101562 213.296875 188 C 213.730469 187.898438 214.125 187.847656 214.484375 187.847656 C 215.425781 187.847656 216.179688 188.082031 216.742188 188.554688 C 217.300781 189.027344 217.582031 189.65625 217.582031 190.445312 C 217.582031 190.820312 217.511719 191.175781 217.371094 191.511719 C 217.234375 191.847656 216.976562 192.242188 216.605469 192.699219 C 216.503906 192.816406 216.179688 193.15625 215.636719 193.722656 C 215.089844 194.285156 214.324219 195.074219 213.328125 196.085938 Z M 213.328125 196.085938 "/>
<g clip-path="url(#clip4)" clip-rule="nonzero">
<path style="fill:none;stroke-width:0.8;stroke-linecap:square;stroke-linejoin:round;stroke:rgb(69.019608%,69.019608%,69.019608%);stroke-opacity:1;stroke-miterlimit:4;" d="M 233.146875 143.1 L 233.146875 7.2 " transform="matrix(1.25,0,0,1.25,0,0.000000000000014211)"/>
</g>
<path style="fill:none;stroke-width:0.8;stroke-linecap:butt;stroke-linejoin:round;stroke:rgb(0%,0%,0%);stroke-opacity:1;stroke-miterlimit:4;" d="M -0.001234 0 L -0.001234 3.5 " transform="matrix(1.25,0,0,1.25,291.435136,178.875)"/>
<path style=" stroke:none;fill-rule:nonzero;fill:rgb(0%,0%,0%);fill-opacity:1;" d="M 292.53125 192.210938 C 293.121094 192.335938 293.582031 192.597656 293.910156 193 C 294.242188 193.398438 294.410156 193.890625 294.410156 194.476562 C 294.410156 195.375 294.101562 196.070312 293.480469 196.5625 C 292.863281 197.054688 291.984375 197.300781 290.84375 197.300781 C 290.464844 197.300781 290.070312 197.261719 289.664062 197.1875 C 289.261719 197.113281 288.84375 197 288.410156 196.847656 L 288.410156 195.660156 C 288.753906 195.859375 289.125 196.007812 289.53125 196.109375 C 289.941406 196.210938 290.367188 196.261719 290.808594 196.261719 C 291.582031 196.261719 292.171875 196.109375 292.574219 195.804688 C 292.980469 195.5 293.183594 195.058594 293.183594 194.476562 C 293.183594 193.9375 292.996094 193.515625 292.617188 193.214844 C 292.242188 192.910156 291.71875 192.761719 291.046875 192.761719 L 289.984375 192.761719 L 289.984375 191.746094 L 291.097656 191.746094 C 291.703125 191.746094 292.167969 191.625 292.488281 191.382812 C 292.808594 191.140625 292.96875 190.792969 292.96875 190.335938 C 292.96875 189.867188 292.804688 189.511719 292.472656 189.261719 C 292.140625 189.007812 291.667969 188.882812 291.046875 188.882812 C 290.710938 188.882812 290.347656 188.921875 289.960938 188.996094 C 289.574219 189.066406 289.148438 189.179688 288.683594 189.335938 L 288.683594 188.238281 C 289.152344 188.105469 289.59375 188.007812 290 187.945312 C 290.410156 187.878906 290.796875 187.847656 291.15625 187.847656 C 292.09375 187.847656 292.835938 188.058594 293.378906 188.484375 C 293.925781 188.910156 294.195312 189.484375 294.195312 190.207031 C 294.195312 190.710938 294.050781 191.140625 293.761719 191.488281 C 293.472656 191.835938 293.0625 192.074219 292.53125 192.210938 Z M 292.53125 192.210938 "/>
<path style=" stroke:none;fill-rule:nonzero;fill:rgb(0%,0%,0%);fill-opacity:1;" d="M 175.976562 207.386719 L 173.503906 210.710938 L 176.105469 214.222656 L 174.78125 214.222656 L 172.789062 211.535156 L 170.800781 214.222656 L 169.476562 214.222656 L 172.132812 210.644531 L 169.703125 207.386719 L 171.027344 207.386719 L 172.839844 209.820312 L 174.652344 207.386719 Z M 175.976562 207.386719 "/>
<g clip-path="url(#clip5)" clip-rule="nonzero">
<path style="fill:none;stroke-width:0.8;stroke-linecap:square;stroke-linejoin:round;stroke:rgb(69.019608%,69.019608%,69.019608%);stroke-opacity:1;stroke-miterlimit:4;" d="M 40.603125 114.634375 L 235.903125 114.634375 " transform="matrix(1.25,0,0,1.25,0,0.000000000000014211)"/>
</g>
<path style="fill:none;stroke-width:0.8;stroke-linecap:butt;stroke-linejoin:round;stroke:rgb(0%,0%,0%);stroke-opacity:1;stroke-miterlimit:4;" d="M 0.000000000000007105 -0.001139 L -3.5 -0.001139 " transform="matrix(1.25,0,0,1.25,50.753906,143.294393)"/>
<path style=" stroke:none;fill-rule:nonzero;fill:rgb(0%,0%,0%);fill-opacity:1;" d="M 38.023438 139.742188 C 37.390625 139.742188 36.910156 140.054688 36.589844 140.679688 C 36.273438 141.304688 36.113281 142.242188 36.113281 143.496094 C 36.113281 144.746094 36.273438 145.683594 36.589844 146.308594 C 36.910156 146.933594 37.390625 147.246094 38.023438 147.246094 C 38.664062 147.246094 39.140625 146.933594 39.460938 146.308594 C 39.78125 145.683594 39.941406 144.746094 39.941406 143.496094 C 39.941406 142.242188 39.78125 141.304688 39.460938 140.679688 C 39.140625 140.054688 38.664062 139.742188 38.023438 139.742188 Z M 38.023438 138.765625 C 39.046875 138.765625 39.824219 139.171875 40.363281 139.980469 C 40.902344 140.785156 41.171875 141.957031 41.171875 143.496094 C 41.171875 145.03125 40.902344 146.203125 40.363281 147.011719 C 39.824219 147.816406 39.046875 148.222656 38.023438 148.222656 C 37.003906 148.222656 36.222656 147.816406 35.683594 147.011719 C 35.144531 146.203125 34.875 145.03125 34.875 143.496094 C 34.875 141.957031 35.144531 140.785156 35.683594 139.980469 C 36.222656 139.171875 37.003906 138.765625 38.023438 138.765625 Z M 38.023438 138.765625 "/>
<g clip-path="url(#clip6)" clip-rule="nonzero">
<path style="fill:none;stroke-width:0.8;stroke-linecap:square;stroke-linejoin:round;stroke:rgb(69.019608%,69.019608%,69.019608%);stroke-opacity:1;stroke-miterlimit:4;" d="M 40.603125 77.490625 L 235.903125 77.490625 " transform="matrix(1.25,0,0,1.25,0,0.000000000000014211)"/>
</g>
<path style="fill:none;stroke-width:0.8;stroke-linecap:butt;stroke-linejoin:round;stroke:rgb(0%,0%,0%);stroke-opacity:1;stroke-miterlimit:4;" d="M 0.000000000000007105 0.000468 L -3.5 0.000468 " transform="matrix(1.25,0,0,1.25,50.753906,96.862696)"/>
<path style=" stroke:none;fill-rule:nonzero;fill:rgb(0%,0%,0%);fill-opacity:1;" d="M 35.398438 92.5 L 40.238281 92.5 L 40.238281 93.539062 L 36.527344 93.539062 L 36.527344 95.769531 C 36.707031 95.707031 36.886719 95.664062 37.0625 95.632812 C 37.242188 95.601562 37.421875 95.589844 37.601562 95.589844 C 38.621094 95.589844 39.425781 95.867188 40.019531 96.425781 C 40.613281 96.980469 40.910156 97.734375 40.910156 98.6875 C 40.910156 99.667969 40.605469 100.429688 39.996094 100.976562 C 39.386719 101.519531 38.523438 101.789062 37.414062 101.789062 C 37.03125 101.789062 36.640625 101.757812 36.242188 101.691406 C 35.847656 101.625 35.4375 101.527344 35.015625 101.398438 L 35.015625 100.160156 C 35.382812 100.359375 35.757812 100.507812 36.148438 100.605469 C 36.539062 100.703125 36.953125 100.75 37.386719 100.75 C 38.09375 100.75 38.648438 100.566406 39.058594 100.195312 C 39.472656 99.824219 39.675781 99.324219 39.675781 98.6875 C 39.675781 98.054688 39.472656 97.550781 39.058594 97.183594 C 38.648438 96.8125 38.09375 96.625 37.386719 96.625 C 37.058594 96.625 36.730469 96.660156 36.402344 96.734375 C 36.074219 96.808594 35.742188 96.921875 35.398438 97.078125 Z M 35.398438 92.5 "/>
<g clip-path="url(#clip7)" clip-rule="nonzero">
<path style="fill:none;stroke-width:0.8;stroke-linecap:square;stroke-linejoin:round;stroke:rgb(69.019608%,69.019608%,69.019608%);stroke-opacity:1;stroke-miterlimit:4;" d="M 40.603125 40.34375 L 235.903125 40.34375 " transform="matrix(1.25,0,0,1.25,0,0.000000000000014211)"/>
</g>
<path style="fill:none;stroke-width:0.8;stroke-linecap:butt;stroke-linejoin:round;stroke:rgb(0%,0%,0%);stroke-opacity:1;stroke-miterlimit:4;" d="M 0.000000000000007105 -0.001051 L -3.5 -0.001051 " transform="matrix(1.25,0,0,1.25,50.753906,50.431001)"/>
<path style=" stroke:none;fill-rule:nonzero;fill:rgb(0%,0%,0%);fill-opacity:1;" d="M 27.648438 54.144531 L 29.660156 54.144531 L 29.660156 47.191406 L 27.46875 47.628906 L 27.46875 46.507812 L 29.648438 46.066406 L 30.882812 46.066406 L 30.882812 54.144531 L 32.894531 54.144531 L 32.894531 55.179688 L 27.648438 55.179688 Z M 27.648438 54.144531 "/>
<path style=" stroke:none;fill-rule:nonzero;fill:rgb(0%,0%,0%);fill-opacity:1;" d="M 38.023438 46.878906 C 37.390625 46.878906 36.910156 47.191406 36.589844 47.816406 C 36.273438 48.441406 36.113281 49.378906 36.113281 50.632812 C 36.113281 51.882812 36.273438 52.820312 36.589844 53.445312 C 36.910156 54.070312 37.390625 54.382812 38.023438 54.382812 C 38.664062 54.382812 39.140625 54.070312 39.460938 53.445312 C 39.78125 52.820312 39.941406 51.882812 39.941406 50.632812 C 39.941406 49.378906 39.78125 48.441406 39.460938 47.816406 C 39.140625 47.191406 38.664062 46.878906 38.023438 46.878906 Z M 38.023438 45.902344 C 39.046875 45.902344 39.824219 46.308594 40.363281 47.117188 C 40.902344 47.921875 41.171875 49.09375 41.171875 50.632812 C 41.171875 52.167969 40.902344 53.339844 40.363281 54.148438 C 39.824219 54.953125 39.046875 55.359375 38.023438 55.359375 C 37.003906 55.359375 36.222656 54.953125 35.683594 54.148438 C 35.144531 53.339844 34.875 52.167969 34.875 50.632812 C 34.875 49.09375 35.144531 47.921875 35.683594 47.117188 C 36.222656 46.308594 37.003906 45.902344 38.023438 45.902344 Z M 38.023438 45.902344 "/>
<path style=" stroke:none;fill-rule:nonzero;fill:rgb(0%,0%,0%);fill-opacity:1;" d="M 9 100.074219 L 9.933594 100.074219 L 9.933594 101.148438 C 9.933594 101.550781 10.015625 101.832031 10.179688 101.988281 C 10.34375 102.144531 10.636719 102.222656 11.058594 102.222656 L 11.660156 102.222656 L 11.660156 100.375 L 12.535156 100.375 L 12.535156 102.222656 L 18.496094 102.222656 L 18.496094 103.351562 L 12.535156 103.351562 L 12.535156 104.425781 L 11.660156 104.425781 L 11.660156 103.351562 L 11.183594 103.351562 C 10.425781 103.351562 9.871094 103.175781 9.523438 102.820312 C 9.175781 102.46875 9 101.90625 9 101.136719 Z M 9 100.074219 "/>
<path style=" stroke:none;fill-rule:nonzero;fill:rgb(0%,0%,0%);fill-opacity:1;" d="M 9.011719 96.4375 C 9.949219 96.984375 10.875 97.386719 11.789062 97.652344 C 12.707031 97.917969 13.632812 98.050781 14.574219 98.050781 C 15.511719 98.050781 16.441406 97.917969 17.363281 97.648438 C 18.285156 97.382812 19.214844 96.980469 20.144531 96.4375 L 20.144531 97.414062 C 19.1875 98.023438 18.25 98.480469 17.324219 98.785156 C 16.402344 99.085938 15.484375 99.238281 14.574219 99.238281 C 13.667969 99.238281 12.753906 99.089844 11.832031 98.789062 C 10.914062 98.484375 9.972656 98.027344 9.011719 97.414062 Z M 9.011719 96.4375 "/>
<path style=" stroke:none;fill-rule:nonzero;fill:rgb(0%,0%,0%);fill-opacity:1;" d="M 11.660156 88.574219 L 14.988281 91.046875 L 18.496094 88.449219 L 18.496094 89.773438 L 15.8125 91.761719 L 18.496094 93.75 L 18.496094 95.078125 L 14.921875 92.421875 L 11.660156 94.851562 L 11.660156 93.527344 L 14.097656 91.714844 L 11.660156 89.902344 Z M 11.660156 88.574219 "/>
<path style=" stroke:none;fill-rule:nonzero;fill:rgb(0%,0%,0%);fill-opacity:1;" d="M 9.011719 87.039062 L 9.011719 86.0625 C 9.972656 85.453125 10.914062 84.996094 11.832031 84.691406 C 12.753906 84.386719 13.667969 84.238281 14.574219 84.238281 C 15.484375 84.238281 16.402344 84.386719 17.324219 84.691406 C 18.25 84.996094 19.1875 85.453125 20.144531 86.0625 L 20.144531 87.039062 C 19.214844 86.496094 18.285156 86.09375 17.363281 85.828125 C 16.441406 85.558594 15.511719 85.425781 14.574219 85.425781 C 13.632812 85.425781 12.707031 85.558594 11.789062 85.828125 C 10.875 86.09375 9.949219 86.496094 9.011719 87.039062 Z M 9.011719 87.039062 "/>
<path style="fill:none;stroke-width:1.5;stroke-linecap:square;stroke-linejoin:round;stroke:rgb(12.156863%,46.666667%,70.588235%);stroke-opacity:1;stroke-miterlimit:4;" d="M 49.48125 114.634375 L 55.603125 117.384375 L 61.725 119.6875 L 67.846875 121.54375 L 73.96875 122.95625 L 80.090625 123.921875 L 86.2125 124.440625 L 92.3375 124.515625 L 98.459375 124.14375 L 104.58125 123.328125 L 110.703125 122.065625 L 116.825 120.35625 L 122.946875 118.2 L 129.06875 115.6 L 135.190625 112.55625 L 141.315625 109.0625 L 147.4375 105.125 L 153.559375 100.74375 L 159.68125 95.915625 L 165.803125 90.640625 L 171.925 84.91875 L 178.046875 78.753125 L 184.16875 72.140625 L 190.29375 65.084375 L 196.415625 57.58125 L 202.5375 49.63125 L 208.659375 41.2375 L 214.78125 32.396875 L 220.903125 23.109375 L 227.025 13.378125 " transform="matrix(1.25,0,0,1.25,0,0.000000000000014211)"/>
<path style="fill:none;stroke-width:1.5;stroke-linecap:butt;stroke-linejoin:round;stroke:rgb(74.901961%,0%,74.901961%);stroke-opacity:1;stroke-dasharray:5.55,2.4;stroke-miterlimit:4;" d="M 49.48125 136.921875 L 55.603125 135.4375 L 61.725 133.95 L 67.846875 132.465625 L 73.96875 130.978125 L 86.2125 128.009375 L 92.3375 126.521875 L 98.459375 125.0375 L 104.58125 123.55 L 110.703125 122.065625 L 116.825 120.578125 L 122.946875 119.09375 L 129.06875 117.60625 L 135.190625 116.121875 L 141.315625 114.634375 L 147.4375 113.15 L 153.559375 111.6625 L 165.803125 108.69375 L 171.925 107.20625 L 178.046875 105.721875 L 184.16875 104.234375 L 190.29375 102.75 L 196.415625 101.2625 L 202.5375 99.778125 L 208.659375 98.290625 L 214.78125 96.80625 L 220.903125 95.31875 L 227.025 93.834375 " transform="matrix(1.25,0,0,1.25,0,0.000000000000014211)"/>
<path style="fill:none;stroke-width:0.8;stroke-linecap:square;stroke-linejoin:miter;stroke:rgb(0%,0%,0%);stroke-opacity:1;stroke-miterlimit:4;" d="M 40.603125 143.1 L 40.603125 7.2 " transform="matrix(1.25,0,0,1.25,0,0.000000000000014211)"/>
<path style="fill:none;stroke-width:0.8;stroke-linecap:square;stroke-linejoin:miter;stroke:rgb(0%,0%,0%);stroke-opacity:1;stroke-miterlimit:4;" d="M 235.903125 143.1 L 235.903125 7.2 " transform="matrix(1.25,0,0,1.25,0,0.000000000000014211)"/>
<path style="fill:none;stroke-width:0.8;stroke-linecap:square;stroke-linejoin:miter;stroke:rgb(0%,0%,0%);stroke-opacity:1;stroke-miterlimit:4;" d="M 40.603125 143.1 L 235.903125 143.1 " transform="matrix(1.25,0,0,1.25,0,0.000000000000014211)"/>
<path style="fill:none;stroke-width:0.8;stroke-linecap:square;stroke-linejoin:miter;stroke:rgb(0%,0%,0%);stroke-opacity:1;stroke-miterlimit:4;" d="M 40.603125 7.2 L 235.903125 7.2 " transform="matrix(1.25,0,0,1.25,0,0.000000000000014211)"/>
<use xlink:href="#surface6" mask="url(#mask0)"/>
<path style="fill:none;stroke-width:1.5;stroke-linecap:square;stroke-linejoin:round;stroke:rgb(12.156863%,46.666667%,70.588235%);stroke-opacity:1;stroke-miterlimit:4;" d="M 49.603125 20.296875 L 69.603125 20.296875 " transform="matrix(1.25,0,0,1.25,0,0.000000000000014211)"/>
<path style=" stroke:none;fill-rule:nonzero;fill:rgb(0%,0%,0%);fill-opacity:1;" d="M 101.640625 20.25 L 101.640625 21.183594 L 100.566406 21.183594 C 100.164062 21.183594 99.886719 21.265625 99.726562 21.429688 C 99.570312 21.59375 99.492188 21.886719 99.492188 22.308594 L 99.492188 22.910156 L 101.34375 22.910156 L 101.34375 23.785156 L 99.492188 23.785156 L 99.492188 29.746094 L 98.363281 29.746094 L 98.363281 23.785156 L 97.289062 23.785156 L 97.289062 22.910156 L 98.363281 22.910156 L 98.363281 22.433594 C 98.363281 21.675781 98.542969 21.121094 98.894531 20.773438 C 99.25 20.425781 99.8125 20.25 100.578125 20.25 Z M 101.640625 20.25 "/>
<path style=" stroke:none;fill-rule:nonzero;fill:rgb(0%,0%,0%);fill-opacity:1;" d="M 105.28125 20.261719 C 104.734375 21.199219 104.332031 22.125 104.066406 23.039062 C 103.800781 23.957031 103.667969 24.882812 103.667969 25.824219 C 103.667969 26.761719 103.800781 27.691406 104.070312 28.613281 C 104.335938 29.535156 104.738281 30.464844 105.28125 31.394531 L 104.304688 31.394531 C 103.695312 30.4375 103.238281 29.5 102.933594 28.574219 C 102.628906 27.652344 102.480469 26.734375 102.480469 25.824219 C 102.480469 24.917969 102.628906 24.003906 102.929688 23.082031 C 103.230469 22.164062 103.691406 21.222656 104.304688 20.261719 Z M 105.28125 20.261719 "/>
<path style=" stroke:none;fill-rule:nonzero;fill:rgb(0%,0%,0%);fill-opacity:1;" d="M 113.140625 22.910156 L 110.667969 26.238281 L 113.269531 29.746094 L 111.945312 29.746094 L 109.953125 27.0625 L 107.964844 29.746094 L 106.640625 29.746094 L 109.296875 26.171875 L 106.867188 22.910156 L 108.191406 22.910156 L 110.003906 25.347656 L 111.816406 22.910156 Z M 113.140625 22.910156 "/>
<path style=" stroke:none;fill-rule:nonzero;fill:rgb(0%,0%,0%);fill-opacity:1;" d="M 114.679688 20.261719 L 115.65625 20.261719 C 116.265625 21.222656 116.722656 22.164062 117.027344 23.082031 C 117.328125 24.003906 117.480469 24.917969 117.480469 25.824219 C 117.480469 26.734375 117.328125 27.652344 117.027344 28.574219 C 116.722656 29.5 116.265625 30.4375 115.65625 31.394531 L 114.679688 31.394531 C 115.222656 30.464844 115.625 29.535156 115.890625 28.613281 C 116.160156 27.691406 116.292969 26.761719 116.292969 25.824219 C 116.292969 24.882812 116.160156 23.957031 115.890625 23.039062 C 115.625 22.125 115.222656 21.199219 114.679688 20.261719 Z M 114.679688 20.261719 "/>
<path style="fill:none;stroke-width:1.5;stroke-linecap:butt;stroke-linejoin:round;stroke:rgb(74.901961%,0%,74.901961%);stroke-opacity:1;stroke-dasharray:5.55,2.4;stroke-miterlimit:4;" d="M 49.603125 34.975 L 69.603125 34.975 " transform="matrix(1.25,0,0,1.25,0,0.000000000000014211)"/>
<path style=" stroke:none;fill-rule:nonzero;fill:rgb(0%,0%,0%);fill-opacity:1;" d="M 96.964844 38.980469 L 104.675781 38.980469 L 104.675781 40.019531 L 101.441406 40.019531 L 101.441406 48.09375 L 100.203125 48.09375 L 100.203125 40.019531 L 96.964844 40.019531 Z M 96.964844 38.980469 "/>
<path style=" stroke:none;fill-rule:nonzero;fill:rgb(0%,0%,0%);fill-opacity:1;" d="M 106.863281 44.660156 C 105.953125 44.660156 105.324219 44.761719 104.976562 44.96875 C 104.625 45.175781 104.449219 45.53125 104.449219 46.03125 C 104.449219 46.429688 104.582031 46.746094 104.84375 46.980469 C 105.109375 47.214844 105.464844 47.332031 105.914062 47.332031 C 106.539062 47.332031 107.039062 47.109375 107.414062 46.667969 C 107.792969 46.226562 107.980469 45.640625 107.980469 44.910156 L 107.980469 44.660156 Z M 109.101562 44.195312 L 109.101562 48.09375 L 107.980469 48.09375 L 107.980469 47.058594 C 107.722656 47.472656 107.402344 47.777344 107.019531 47.976562 C 106.636719 48.175781 106.167969 48.273438 105.617188 48.273438 C 104.917969 48.273438 104.359375 48.078125 103.945312 47.683594 C 103.535156 47.289062 103.328125 46.765625 103.328125 46.105469 C 103.328125 45.335938 103.585938 44.757812 104.097656 44.367188 C 104.613281 43.976562 105.382812 43.78125 106.402344 43.78125 L 107.980469 43.78125 L 107.980469 43.667969 C 107.980469 43.152344 107.808594 42.753906 107.46875 42.46875 C 107.128906 42.1875 106.652344 42.046875 106.039062 42.046875 C 105.648438 42.046875 105.265625 42.09375 104.894531 42.1875 C 104.527344 42.28125 104.171875 42.421875 103.828125 42.609375 L 103.828125 41.570312 C 104.238281 41.410156 104.636719 41.292969 105.023438 41.214844 C 105.410156 41.136719 105.789062 41.09375 106.152344 41.09375 C 107.144531 41.09375 107.882812 41.351562 108.371094 41.863281 C 108.859375 42.375 109.101562 43.152344 109.101562 44.195312 Z M 109.101562 44.195312 "/>
<path style=" stroke:none;fill-rule:nonzero;fill:rgb(0%,0%,0%);fill-opacity:1;" d="M 117.097656 43.96875 L 117.097656 48.09375 L 115.976562 48.09375 L 115.976562 44.003906 C 115.976562 43.359375 115.847656 42.875 115.597656 42.554688 C 115.34375 42.234375 114.964844 42.070312 114.460938 42.070312 C 113.855469 42.070312 113.375 42.265625 113.027344 42.652344 C 112.675781 43.039062 112.5 43.5625 112.5 44.230469 L 112.5 48.09375 L 111.371094 48.09375 L 111.371094 41.257812 L 112.5 41.257812 L 112.5 42.320312 C 112.769531 41.910156 113.085938 41.601562 113.449219 41.398438 C 113.8125 41.195312 114.234375 41.09375 114.710938 41.09375 C 115.496094 41.09375 116.089844 41.339844 116.492188 41.824219 C 116.894531 42.308594 117.097656 43.023438 117.097656 43.96875 Z M 117.097656 43.96875 "/>
<path style=" stroke:none;fill-rule:nonzero;fill:rgb(0%,0%,0%);fill-opacity:1;" d="M 123.835938 44.597656 C 123.835938 43.785156 123.667969 43.152344 123.332031 42.707031 C 122.996094 42.257812 122.527344 42.035156 121.917969 42.035156 C 121.316406 42.035156 120.847656 42.257812 120.511719 42.707031 C 120.175781 43.152344 120.007812 43.785156 120.007812 44.597656 C 120.007812 45.40625 120.175781 46.035156 120.511719 46.484375 C 120.847656 46.933594 121.316406 47.15625 121.917969 47.15625 C 122.527344 47.15625 122.996094 46.933594 123.332031 46.484375 C 123.667969 46.035156 123.835938 45.40625 123.835938 44.597656 Z M 124.957031 47.246094 C 124.957031 48.410156 124.699219 49.277344 124.183594 49.84375 C 123.667969 50.410156 122.875 50.695312 121.808594 50.695312 C 121.414062 50.695312 121.042969 50.664062 120.691406 50.605469 C 120.34375 50.546875 120.003906 50.457031 119.671875 50.335938 L 119.671875 49.242188 C 120.003906 49.421875 120.328125 49.554688 120.648438 49.636719 C 120.972656 49.722656 121.296875 49.765625 121.632812 49.765625 C 122.367188 49.765625 122.921875 49.574219 123.285156 49.191406 C 123.652344 48.808594 123.835938 48.226562 123.835938 47.449219 L 123.835938 46.890625 C 123.601562 47.296875 123.304688 47.597656 122.945312 47.796875 C 122.582031 47.996094 122.148438 48.09375 121.644531 48.09375 C 120.804688 48.09375 120.132812 47.777344 119.617188 47.136719 C 119.105469 46.5 118.847656 45.652344 118.847656 44.597656 C 118.847656 43.539062 119.105469 42.691406 119.617188 42.054688 C 120.132812 41.414062 120.804688 41.09375 121.644531 41.09375 C 122.148438 41.09375 122.582031 41.195312 122.945312 41.394531 C 123.304688 41.59375 123.601562 41.894531 123.835938 42.296875 L 123.835938 41.257812 L 124.957031 41.257812 Z M 124.957031 47.246094 "/>
<path style=" stroke:none;fill-rule:nonzero;fill:rgb(0%,0%,0%);fill-opacity:1;" d="M 133.117188 44.394531 L 133.117188 44.945312 L 127.953125 44.945312 C 128.003906 45.71875 128.238281 46.308594 128.652344 46.710938 C 129.070312 47.117188 129.652344 47.320312 130.394531 47.320312 C 130.828125 47.320312 131.246094 47.265625 131.648438 47.160156 C 132.054688 47.054688 132.457031 46.898438 132.855469 46.683594 L 132.855469 47.746094 C 132.453125 47.917969 132.039062 48.046875 131.617188 48.136719 C 131.195312 48.226562 130.765625 48.273438 130.328125 48.273438 C 129.238281 48.273438 128.375 47.957031 127.738281 47.320312 C 127.101562 46.6875 126.78125 45.828125 126.78125 44.742188 C 126.78125 43.625 127.085938 42.738281 127.6875 42.082031 C 128.292969 41.425781 129.109375 41.09375 130.132812 41.09375 C 131.054688 41.09375 131.78125 41.390625 132.316406 41.984375 C 132.851562 42.574219 133.117188 43.378906 133.117188 44.394531 Z M 131.996094 44.066406 C 131.988281 43.453125 131.816406 42.964844 131.480469 42.597656 C 131.144531 42.230469 130.699219 42.046875 130.144531 42.046875 C 129.519531 42.046875 129.019531 42.222656 128.640625 42.578125 C 128.265625 42.933594 128.050781 43.429688 127.992188 44.074219 Z M 131.996094 44.066406 "/>
<path style=" stroke:none;fill-rule:nonzero;fill:rgb(0%,0%,0%);fill-opacity:1;" d="M 140.644531 43.96875 L 140.644531 48.09375 L 139.523438 48.09375 L 139.523438 44.003906 C 139.523438 43.359375 139.394531 42.875 139.144531 42.554688 C 138.890625 42.234375 138.511719 42.070312 138.007812 42.070312 C 137.402344 42.070312 136.921875 42.265625 136.574219 42.652344 C 136.222656 43.039062 136.046875 43.5625 136.046875 44.230469 L 136.046875 48.09375 L 134.917969 48.09375 L 134.917969 41.257812 L 136.046875 41.257812 L 136.046875 42.320312 C 136.316406 41.910156 136.632812 41.601562 136.996094 41.398438 C 137.363281 41.195312 137.78125 41.09375 138.257812 41.09375 C 139.042969 41.09375 139.636719 41.339844 140.039062 41.824219 C 140.445312 42.308594 140.644531 43.023438 140.644531 43.96875 Z M 140.644531 43.96875 "/>
<path style=" stroke:none;fill-rule:nonzero;fill:rgb(0%,0%,0%);fill-opacity:1;" d="M 143.996094 39.316406 L 143.996094 41.257812 L 146.308594 41.257812 L 146.308594 42.132812 L 143.996094 42.132812 L 143.996094 45.84375 C 143.996094 46.402344 144.070312 46.757812 144.222656 46.917969 C 144.375 47.078125 144.6875 47.15625 145.15625 47.15625 L 146.308594 47.15625 L 146.308594 48.09375 L 145.15625 48.09375 C 144.289062 48.09375 143.691406 47.933594 143.359375 47.609375 C 143.03125 47.285156 142.867188 46.699219 142.867188 45.84375 L 142.867188 42.132812 L 142.042969 42.132812 L 142.042969 41.257812 L 142.867188 41.257812 L 142.867188 39.316406 Z M 143.996094 39.316406 "/>
<path style=" stroke:none;fill-rule:nonzero;fill:rgb(0%,0%,0%);fill-opacity:1;" d="M 151.757812 38.597656 L 152.882812 38.597656 L 152.882812 48.09375 L 151.757812 48.09375 Z M 151.757812 38.597656 "/>
<path style=" stroke:none;fill-rule:nonzero;fill:rgb(0%,0%,0%);fill-opacity:1;" d="M 155.230469 41.257812 L 156.355469 41.257812 L 156.355469 48.09375 L 155.230469 48.09375 Z M 155.230469 38.597656 L 156.355469 38.597656 L 156.355469 40.019531 L 155.230469 40.019531 Z M 155.230469 38.597656 "/>
<path style=" stroke:none;fill-rule:nonzero;fill:rgb(0%,0%,0%);fill-opacity:1;" d="M 164.386719 43.96875 L 164.386719 48.09375 L 163.265625 48.09375 L 163.265625 44.003906 C 163.265625 43.359375 163.140625 42.875 162.886719 42.554688 C 162.632812 42.234375 162.253906 42.070312 161.75 42.070312 C 161.144531 42.070312 160.667969 42.265625 160.316406 42.652344 C 159.964844 43.039062 159.789062 43.5625 159.789062 44.230469 L 159.789062 48.09375 L 158.660156 48.09375 L 158.660156 41.257812 L 159.789062 41.257812 L 159.789062 42.320312 C 160.058594 41.910156 160.375 41.601562 160.738281 41.398438 C 161.105469 41.195312 161.523438 41.09375 162 41.09375 C 162.785156 41.09375 163.378906 41.339844 163.78125 41.824219 C 164.1875 42.308594 164.386719 43.023438 164.386719 43.96875 Z M 164.386719 43.96875 "/>
<path style=" stroke:none;fill-rule:nonzero;fill:rgb(0%,0%,0%);fill-opacity:1;" d="M 172.472656 44.394531 L 172.472656 44.945312 L 167.308594 44.945312 C 167.359375 45.71875 167.59375 46.308594 168.007812 46.710938 C 168.425781 47.117188 169.007812 47.320312 169.75 47.320312 C 170.183594 47.320312 170.601562 47.265625 171.003906 47.160156 C 171.410156 47.054688 171.8125 46.898438 172.210938 46.683594 L 172.210938 47.746094 C 171.808594 47.917969 171.394531 48.046875 170.972656 48.136719 C 170.550781 48.226562 170.121094 48.273438 169.683594 48.273438 C 168.59375 48.273438 167.730469 47.957031 167.09375 47.320312 C 166.457031 46.6875 166.136719 45.828125 166.136719 44.742188 C 166.136719 43.625 166.441406 42.738281 167.042969 42.082031 C 167.648438 41.425781 168.464844 41.09375 169.488281 41.09375 C 170.410156 41.09375 171.136719 41.390625 171.671875 41.984375 C 172.207031 42.574219 172.472656 43.378906 172.472656 44.394531 Z M 171.351562 44.066406 C 171.34375 43.453125 171.171875 42.964844 170.835938 42.597656 C 170.5 42.230469 170.054688 42.046875 169.5 42.046875 C 168.875 42.046875 168.375 42.222656 167.996094 42.578125 C 167.621094 42.933594 167.40625 43.429688 167.347656 44.074219 Z M 171.351562 44.066406 "/>
<path style=" stroke:none;fill-rule:nonzero;fill:rgb(0%,0%,0%);fill-opacity:1;" d="M 180.988281 38.609375 C 180.445312 39.546875 180.039062 40.472656 179.773438 41.386719 C 179.507812 42.304688 179.375 43.230469 179.375 44.171875 C 179.375 45.109375 179.511719 46.039062 179.777344 46.960938 C 180.042969 47.882812 180.449219 48.8125 180.988281 49.742188 L 180.011719 49.742188 C 179.402344 48.785156 178.945312 47.847656 178.640625 46.921875 C 178.339844 46 178.1875 45.082031 178.1875 44.171875 C 178.1875 43.265625 178.335938 42.351562 178.636719 41.429688 C 178.941406 40.511719 179.398438 39.570312 180.011719 38.609375 Z M 180.988281 38.609375 "/>
<path style=" stroke:none;fill-rule:nonzero;fill:rgb(0%,0%,0%);fill-opacity:1;" d="M 188.851562 41.257812 L 186.378906 44.585938 L 188.976562 48.09375 L 187.652344 48.09375 L 185.664062 45.410156 L 183.675781 48.09375 L 182.347656 48.09375 L 185.003906 44.519531 L 182.574219 41.257812 L 183.898438 41.257812 L 185.710938 43.695312 L 187.523438 41.257812 Z M 188.851562 41.257812 "/>
<path style=" stroke:none;fill-rule:nonzero;fill:rgb(0%,0%,0%);fill-opacity:1;" d="M 190.710938 42.417969 L 198.535156 42.417969 L 198.535156 43.445312 L 190.710938 43.445312 Z M 190.710938 44.910156 L 198.535156 44.910156 L 198.535156 45.945312 L 190.710938 45.945312 Z M 190.710938 44.910156 "/>
<path style=" stroke:none;fill-rule:nonzero;fill:rgb(0%,0%,0%);fill-opacity:1;" d="M 201.410156 47.058594 L 203.425781 47.058594 L 203.425781 40.105469 L 201.234375 40.542969 L 201.234375 39.421875 L 203.414062 38.980469 L 204.644531 38.980469 L 204.644531 47.058594 L 206.660156 47.058594 L 206.660156 48.09375 L 201.410156 48.09375 Z M 201.410156 47.058594 "/>
<path style=" stroke:none;fill-rule:nonzero;fill:rgb(0%,0%,0%);fill-opacity:1;" d="M 208.816406 38.609375 L 209.792969 38.609375 C 210.402344 39.570312 210.859375 40.511719 211.160156 41.429688 C 211.464844 42.351562 211.617188 43.265625 211.617188 44.171875 C 211.617188 45.082031 211.464844 46 211.160156 46.921875 C 210.859375 47.847656 210.402344 48.785156 209.792969 49.742188 L 208.816406 49.742188 C 209.355469 48.8125 209.757812 47.882812 210.027344 46.960938 C 210.292969 46.039062 210.425781 45.109375 210.425781 44.171875 C 210.425781 43.230469 210.292969 42.304688 210.027344 41.386719 C 209.757812 40.472656 209.355469 39.546875 208.816406 38.609375 Z M 208.816406 38.609375 "/>
</g>
</svg>
