<?xml version="1.0" encoding="UTF-8"?>
<svg xmlns="http://www.w3.org/2000/svg" xmlns:xlink="http://www.w3.org/1999/xlink" width="329pt" height="226pt" viewBox="0 0 329 226" version="1.1">
<defs>
<clipPath id="clip1">
  <path d="M 102 9 L 104 9 L 104 178.875 L 102 178.875 Z M 102 9 "/>
</clipPath>
<clipPath id="clip2">
  <path d="M 153 9 L 155 9 L 155 178.875 L 153 178.875 Z M 153 9 "/>
</clipPath>
<clipPath id="clip3">
  <path d="M 204 9 L 207 9 L 207 178.875 L 204 178.875 Z M 204 9 "/>
</clipPath>
<clipPath id="clip4">
  <path d="M 256 9 L 258 9 L 258 178.875 L 256 178.875 Z M 256 9 "/>
</clipPath>
<clipPath id="clip5">
  <path d="M 307 9 L 308.347656 9 L 308.347656 178.875 L 307 178.875 Z M 307 9 "/>
</clipPath>
<clipPath id="clip6">
  <path d="M 64.222656 148 L 308.347656 148 L 308.347656 150 L 64.222656 150 Z M 64.222656 148 "/>
</clipPath>
<clipPath id="clip7">
  <path d="M 64.222656 113 L 308.347656 113 L 308.347656 115 L 64.222656 115 Z M 64.222656 113 "/>
</clipPath>
<clipPath id="clip8">
  <path d="M 64.222656 78 L 308.347656 78 L 308.347656 80 L 64.222656 80 Z M 64.222656 78 "/>
</clipPath>
<clipPath id="clip9">
  <path d="M 64.222656 42 L 308.347656 42 L 308.347656 45 L 64.222656 45 Z M 64.222656 42 "/>
</clipPath>
<clipPath id="clip10">
  <path d="M 64.222656 29 L 308.347656 29 L 308.347656 173 L 64.222656 173 Z M 64.222656 29 "/>
</clipPath>
<clipPath id="clip11">
  <path d="M 64.222656 15 L 308.347656 15 L 308.347656 18 L 64.222656 18 Z M 64.222656 15 "/>
</clipPath>
<filter id="alpha" filterUnits="objectBoundingBox" x="0%" y="0%" width="100%" height="100%">
  <feColorMatrix type="matrix" in="SourceGraphic" values="0 0 0 0 1 0 0 0 0 1 0 0 0 0 1 0 0 0 1 0"/>
</filter>
<mask id="mask0">
  <g filter="url(#alpha)">
<rect x="0" y="0" width="329" height="226" style="fill:rgb(0%,0%,0%);fill-opacity:0.8;stroke:none;"/>
  </g>
</mask>
<clipPath id="clip12">
  <rect width="329" height="226"/>
</clipPath>
<g id="surface6" clip-path="url(#clip12)">
<path style="fill-rule:nonzero;fill:rgb(100%,100%,100%);fill-opacity:1;stroke-width:1;stroke-linecap:butt;stroke-linejoin:miter;stroke:rgb(80%,80%,80%);stroke-opacity:1;stroke-miterlimit:4;" d="M 58.378125 138.1 L 113.653125 138.1 C 114.9875 138.1 115.653125 137.434375 115.653125 136.1 L 115.653125 107.74375 C 115.653125 106.409375 114.9875 105.74375 113.653125 105.74375 L 58.378125 105.74375 C 57.04375 105.74375 56.378125 106.409375 56.378125 107.74375 L 56.378125 136.1 C 56.378125 137.434375 57.04375 138.1 58.378125 138.1 Z M 58.378125 138.1 " transform="matrix(1.25,0,0,1.25,0,0)"/>
</g>
</defs>
<g id="surface1">
<path style=" stroke:none;fill-rule:nonzero;fill:rgb(100%,100%,100%);fill-opacity:1;" d="M 64.222656 178.875 L 308.347656 178.875 L 308.347656 9 L 64.222656 9 Z M 64.222656 178.875 "/>
<g clip-path="url(#clip1)" clip-rule="nonzero">
<path style="fill:none;stroke-width:0.8;stroke-linecap:square;stroke-linejoin:round;stroke:rgb(69.019608%,69.019608%,69.019608%);stroke-opacity:1;stroke-miterlimit:4;" d="M 82.215625 143.1 L 82.215625 7.2 " transform="matrix(1.25,0,0,1.25,0,0)"/>
</g>
<path style="fill:none;stroke-width:0.8;stroke-linecap:butt;stroke-linejoin:round;stroke:rgb(0%,0%,0%);stroke-opacity:1;stroke-miterlimit:4;" d="M 0.000658 0 L 0.000658 3.5 " transform="matrix(1.25,0,0,1.25,102.768709,178.875)"/>
<path style=" stroke:none;fill-rule:nonzero;fill:rgb(0%,0%,0%);fill-opacity:1;" d="M 97.214844 196.085938 L 101.515625 196.085938 L 101.515625 197.125 L 95.730469 197.125 L 95.730469 196.085938 C 96.199219 195.601562 96.835938 194.953125 97.644531 194.136719 C 98.453125 193.320312 98.960938 192.792969 99.167969 192.558594 C 99.5625 192.113281 99.835938 191.738281 99.992188 191.433594 C 100.152344 191.125 100.230469 190.824219 100.230469 190.527344 C 100.230469 190.042969 100.058594 189.648438 99.71875 189.34375 C 99.378906 189.035156 98.9375 188.882812 98.390625 188.882812 C 98.003906 188.882812 97.597656 188.949219 97.167969 189.085938 C 96.738281 189.21875 96.28125 189.421875 95.792969 189.695312 L 95.792969 188.449219 C 96.289062 188.25 96.75 188.101562 97.183594 188 C 97.613281 187.898438 98.011719 187.847656 98.367188 187.847656 C 99.3125 187.847656 100.066406 188.082031 100.625 188.554688 C 101.1875 189.027344 101.46875 189.65625 101.46875 190.445312 C 101.46875 190.820312 101.398438 191.175781 101.257812 191.511719 C 101.117188 191.847656 100.863281 192.242188 100.492188 192.699219 C 100.390625 192.816406 100.066406 193.15625 99.519531 193.722656 C 98.976562 194.285156 98.207031 195.074219 97.214844 196.085938 Z M 97.214844 196.085938 "/>
<path style=" stroke:none;fill-rule:nonzero;fill:rgb(0%,0%,0%);fill-opacity:1;" d="M 106.742188 188.824219 C 106.105469 188.824219 105.628906 189.136719 105.308594 189.761719 C 104.992188 190.382812 104.832031 191.324219 104.832031 192.578125 C 104.832031 193.824219 104.992188 194.761719 105.308594 195.386719 C 105.628906 196.011719 106.105469 196.324219 106.742188 196.324219 C 107.378906 196.324219 107.859375 196.011719 108.179688 195.386719 C 108.5 194.761719 108.660156 193.824219 108.660156 192.578125 C 108.660156 191.324219 108.5 190.382812 108.179688 189.761719 C 107.859375 189.136719 107.378906 188.824219 106.742188 188.824219 Z M 106.742188 187.847656 C 107.761719 187.847656 108.542969 188.25 109.082031 189.058594 C 109.621094 189.867188 109.890625 191.039062 109.890625 192.578125 C 109.890625 194.109375 109.621094 195.28125 109.082031 196.089844 C 108.542969 196.898438 107.761719 197.300781 106.742188 197.300781 C 105.71875 197.300781 104.941406 196.898438 104.402344 196.089844 C 103.863281 195.28125 103.59375 194.109375 103.59375 192.578125 C 103.59375 191.039062 103.863281 189.867188 104.402344 189.058594 C 104.941406 188.25 105.71875 187.847656 106.742188 187.847656 Z M 106.742188 187.847656 "/>
<g clip-path="url(#clip2)" clip-rule="nonzero">
<path style="fill:none;stroke-width:0.8;stroke-linecap:square;stroke-linejoin:round;stroke:rgb(69.019608%,69.019608%,69.019608%);stroke-opacity:1;stroke-miterlimit:4;" d="M 123.33125 143.1 L 123.33125 7.2 " transform="matrix(1.25,0,0,1.25,0,0)"/>
</g>
<path style="fill:none;stroke-width:0.8;stroke-linecap:butt;stroke-linejoin:round;stroke:rgb(0%,0%,0%);stroke-opacity:1;stroke-miterlimit:4;" d="M 0.000493 0 L 0.000493 3.5 " transform="matrix(1.25,0,0,1.25,154.163446,178.875)"/>
<path style=" stroke:none;fill-rule:nonzero;fill:rgb(0%,0%,0%);fill-opacity:1;" d="M 150.933594 189.085938 L 147.820312 193.949219 L 150.933594 193.949219 Z M 150.609375 188.011719 L 152.160156 188.011719 L 152.160156 193.949219 L 153.460938 193.949219 L 153.460938 194.976562 L 152.160156 194.976562 L 152.160156 197.125 L 150.933594 197.125 L 150.933594 194.976562 L 146.820312 194.976562 L 146.820312 193.785156 Z M 150.609375 188.011719 "/>
<path style=" stroke:none;fill-rule:nonzero;fill:rgb(0%,0%,0%);fill-opacity:1;" d="M 158.136719 188.824219 C 157.5 188.824219 157.023438 189.136719 156.703125 189.761719 C 156.386719 190.382812 156.226562 191.324219 156.226562 192.578125 C 156.226562 193.824219 156.386719 194.761719 156.703125 195.386719 C 157.023438 196.011719 157.5 196.324219 158.136719 196.324219 C 158.773438 196.324219 159.253906 196.011719 159.574219 195.386719 C 159.894531 194.761719 160.054688 193.824219 160.054688 192.578125 C 160.054688 191.324219 159.894531 190.382812 159.574219 189.761719 C 159.253906 189.136719 158.773438 188.824219 158.136719 188.824219 Z M 158.136719 187.847656 C 159.15625 187.847656 159.9375 188.25 160.476562 189.058594 C 161.015625 189.867188 161.285156 191.039062 161.285156 192.578125 C 161.285156 194.109375 161.015625 195.28125 160.476562 196.089844 C 159.9375 196.898438 159.15625 197.300781 158.136719 197.300781 C 157.113281 197.300781 156.335938 196.898438 155.796875 196.089844 C 155.257812 195.28125 154.988281 194.109375 154.988281 192.578125 C 154.988281 191.039062 155.257812 189.867188 155.796875 189.058594 C 156.335938 188.25 157.113281 187.847656 158.136719 187.847656 Z M 158.136719 187.847656 "/>
<g clip-path="url(#clip3)" clip-rule="nonzero">
<path style="fill:none;stroke-width:0.8;stroke-linecap:square;stroke-linejoin:round;stroke:rgb(69.019608%,69.019608%,69.019608%);stroke-opacity:1;stroke-miterlimit:4;" d="M 164.446875 143.1 L 164.446875 7.2 " transform="matrix(1.25,0,0,1.25,0,0)"/>
</g>
<path style="fill:none;stroke-width:0.8;stroke-linecap:butt;stroke-linejoin:round;stroke:rgb(0%,0%,0%);stroke-opacity:1;stroke-miterlimit:4;" d="M 0.000329 0 L 0.000329 3.5 " transform="matrix(1.25,0,0,1.25,205.558183,178.875)"/>
<path style=" stroke:none;fill-rule:nonzero;fill:rgb(0%,0%,0%);fill-opacity:1;" d="M 201.730469 192.078125 C 201.179688 192.078125 200.738281 192.265625 200.414062 192.644531 C 200.09375 193.023438 199.929688 193.539062 199.929688 194.199219 C 199.929688 194.855469 200.09375 195.371094 200.414062 195.753906 C 200.738281 196.132812 201.179688 196.324219 201.730469 196.324219 C 202.285156 196.324219 202.722656 196.132812 203.046875 195.753906 C 203.371094 195.371094 203.53125 194.855469 203.53125 194.199219 C 203.53125 193.539062 203.371094 193.023438 203.046875 192.644531 C 202.722656 192.265625 202.285156 192.078125 201.730469 192.078125 Z M 204.179688 188.210938 L 204.179688 189.335938 C 203.871094 189.1875 203.558594 189.078125 203.242188 189 C 202.925781 188.921875 202.613281 188.882812 202.304688 188.882812 C 201.492188 188.882812 200.867188 189.15625 200.4375 189.707031 C 200.011719 190.257812 199.765625 191.085938 199.703125 192.199219 C 199.945312 191.84375 200.246094 191.570312 200.605469 191.382812 C 200.96875 191.195312 201.371094 191.101562 201.804688 191.101562 C 202.71875 191.101562 203.441406 191.378906 203.972656 191.933594 C 204.503906 192.488281 204.769531 193.242188 204.769531 194.199219 C 204.769531 195.136719 204.496094 195.886719 203.941406 196.453125 C 203.386719 197.019531 202.652344 197.300781 201.730469 197.300781 C 200.675781 197.300781 199.871094 196.898438 199.3125 196.089844 C 198.757812 195.28125 198.476562 194.109375 198.476562 192.578125 C 198.476562 191.136719 198.820312 189.988281 199.503906 189.132812 C 200.1875 188.273438 201.105469 187.847656 202.253906 187.847656 C 202.566406 187.847656 202.878906 187.875 203.191406 187.9375 C 203.507812 188 203.835938 188.089844 204.179688 188.210938 Z M 204.179688 188.210938 "/>
<path style=" stroke:none;fill-rule:nonzero;fill:rgb(0%,0%,0%);fill-opacity:1;" d="M 209.53125 188.824219 C 208.894531 188.824219 208.417969 189.136719 208.097656 189.761719 C 207.78125 190.382812 207.621094 191.324219 207.621094 192.578125 C 207.621094 193.824219 207.78125 194.761719 208.097656 195.386719 C 208.417969 196.011719 208.894531 196.324219 209.53125 196.324219 C 210.167969 196.324219 210.648438 196.011719 210.96875 195.386719 C 211.289062 194.761719 211.449219 193.824219 211.449219 192.578125 C 211.449219 191.324219 211.289062 190.382812 210.96875 189.761719 C 210.648438 189.136719 210.167969 188.824219 209.53125 188.824219 Z M 209.53125 187.847656 C 210.550781 187.847656 211.332031 188.25 211.871094 189.058594 C 212.410156 189.867188 212.679688 191.039062 212.679688 192.578125 C 212.679688 194.109375 212.410156 195.28125 211.871094 196.089844 C 211.332031 196.898438 210.550781 197.300781 209.53125 197.300781 C 208.507812 197.300781 207.730469 196.898438 207.191406 196.089844 C 206.652344 195.28125 206.382812 194.109375 206.382812 192.578125 C 206.382812 191.039062 206.652344 189.867188 207.191406 189.058594 C 207.730469 188.25 208.507812 187.847656 209.53125 187.847656 Z M 209.53125 187.847656 "/>
<g clip-path="url(#clip4)" clip-rule="nonzero">
<path style="fill:none;stroke-width:0.8;stroke-linecap:square;stroke-linejoin:round;stroke:rgb(69.019608%,69.019608%,69.019608%);stroke-opacity:1;stroke-miterlimit:4;" d="M 205.5625 143.1 L 205.5625 7.2 " transform="matrix(1.25,0,0,1.25,0,0)"/>
</g>
<path style="fill:none;stroke-width:0.8;stroke-linecap:butt;stroke-linejoin:round;stroke:rgb(0%,0%,0%);stroke-opacity:1;stroke-miterlimit:4;" d="M 0.000164 0 L 0.000164 3.5 " transform="matrix(1.25,0,0,1.25,256.95292,178.875)"/>
<path style=" stroke:none;fill-rule:nonzero;fill:rgb(0%,0%,0%);fill-opacity:1;" d="M 252.972656 192.796875 C 252.386719 192.796875 251.925781 192.953125 251.589844 193.265625 C 251.253906 193.578125 251.085938 194.011719 251.085938 194.558594 C 251.085938 195.109375 251.253906 195.539062 251.589844 195.855469 C 251.925781 196.167969 252.386719 196.324219 252.972656 196.324219 C 253.558594 196.324219 254.019531 196.167969 254.355469 195.851562 C 254.695312 195.535156 254.863281 195.105469 254.863281 194.558594 C 254.863281 194.011719 254.695312 193.578125 254.359375 193.265625 C 254.027344 192.953125 253.5625 192.796875 252.972656 192.796875 Z M 251.738281 192.273438 C 251.210938 192.140625 250.800781 191.894531 250.503906 191.535156 C 250.210938 191.171875 250.0625 190.726562 250.0625 190.207031 C 250.0625 189.480469 250.320312 188.902344 250.839844 188.480469 C 251.359375 188.058594 252.070312 187.847656 252.972656 187.847656 C 253.878906 187.847656 254.59375 188.058594 255.109375 188.480469 C 255.625 188.902344 255.882812 189.480469 255.882812 190.207031 C 255.882812 190.726562 255.738281 191.171875 255.441406 191.535156 C 255.148438 191.894531 254.738281 192.140625 254.210938 192.273438 C 254.804688 192.410156 255.269531 192.679688 255.597656 193.085938 C 255.929688 193.488281 256.097656 193.976562 256.097656 194.558594 C 256.097656 195.441406 255.828125 196.121094 255.289062 196.59375 C 254.75 197.066406 253.976562 197.300781 252.972656 197.300781 C 251.96875 197.300781 251.195312 197.066406 250.65625 196.59375 C 250.117188 196.121094 249.847656 195.441406 249.847656 194.558594 C 249.847656 193.976562 250.015625 193.488281 250.347656 193.085938 C 250.683594 192.679688 251.144531 192.410156 251.738281 192.273438 Z M 251.289062 190.324219 C 251.289062 190.796875 251.4375 191.164062 251.730469 191.429688 C 252.027344 191.691406 252.441406 191.824219 252.972656 191.824219 C 253.503906 191.824219 253.917969 191.691406 254.214844 191.429688 C 254.515625 191.164062 254.664062 190.796875 254.664062 190.324219 C 254.664062 189.851562 254.515625 189.484375 254.214844 189.21875 C 253.917969 188.953125 253.503906 188.824219 252.972656 188.824219 C 252.441406 188.824219 252.027344 188.953125 251.730469 189.21875 C 251.4375 189.484375 251.289062 189.851562 251.289062 190.324219 Z M 251.289062 190.324219 "/>
<path style=" stroke:none;fill-rule:nonzero;fill:rgb(0%,0%,0%);fill-opacity:1;" d="M 260.925781 188.824219 C 260.292969 188.824219 259.8125 189.136719 259.492188 189.761719 C 259.175781 190.382812 259.015625 191.324219 259.015625 192.578125 C 259.015625 193.824219 259.175781 194.761719 259.492188 195.386719 C 259.8125 196.011719 260.292969 196.324219 260.925781 196.324219 C 261.566406 196.324219 262.042969 196.011719 262.363281 195.386719 C 262.683594 194.761719 262.84375 193.824219 262.84375 192.578125 C 262.84375 191.324219 262.683594 190.382812 262.363281 189.761719 C 262.042969 189.136719 261.566406 188.824219 260.925781 188.824219 Z M 260.925781 187.847656 C 261.949219 187.847656 262.726562 188.25 263.265625 189.058594 C 263.804688 189.867188 264.074219 191.039062 264.074219 192.578125 C 264.074219 194.109375 263.804688 195.28125 263.265625 196.089844 C 262.726562 196.898438 261.949219 197.300781 260.925781 197.300781 C 259.90625 197.300781 259.125 196.898438 258.585938 196.089844 C 258.046875 195.28125 257.777344 194.109375 257.777344 192.578125 C 257.777344 191.039062 258.046875 189.867188 258.585938 189.058594 C 259.125 188.25 259.90625 187.847656 260.925781 187.847656 Z M 260.925781 187.847656 "/>
<g clip-path="url(#clip5)" clip-rule="nonzero">
<path style="fill:none;stroke-width:0.8;stroke-linecap:square;stroke-linejoin:round;stroke:rgb(69.019608%,69.019608%,69.019608%);stroke-opacity:1;stroke-miterlimit:4;" d="M 246.678125 143.1 L 246.678125 7.2 " transform="matrix(1.25,0,0,1.25,0,0)"/>
</g>
<path style="fill:none;stroke-width:0.8;stroke-linecap:butt;stroke-linejoin:round;stroke:rgb(0%,0%,0%);stroke-opacity:1;stroke-miterlimit:4;" d="M 0 0 L 0 3.5 " transform="matrix(1.25,0,0,1.25,308.347656,178.875)"/>
<path style=" stroke:none;fill-rule:nonzero;fill:rgb(0%,0%,0%);fill-opacity:1;" d="M 297.96875 196.085938 L 299.984375 196.085938 L 299.984375 189.132812 L 297.789062 189.574219 L 297.789062 188.449219 L 299.96875 188.011719 L 301.203125 188.011719 L 301.203125 196.085938 L 303.21875 196.085938 L 303.21875 197.125 L 297.96875 197.125 Z M 297.96875 196.085938 "/>
<path style=" stroke:none;fill-rule:nonzero;fill:rgb(0%,0%,0%);fill-opacity:1;" d="M 308.34375 188.824219 C 307.710938 188.824219 307.230469 189.136719 306.910156 189.761719 C 306.59375 190.382812 306.433594 191.324219 306.433594 192.578125 C 306.433594 193.824219 306.59375 194.761719 306.910156 195.386719 C 307.230469 196.011719 307.710938 196.324219 308.34375 196.324219 C 308.984375 196.324219 309.460938 196.011719 309.78125 195.386719 C 310.101562 194.761719 310.261719 193.824219 310.261719 192.578125 C 310.261719 191.324219 310.101562 190.382812 309.78125 189.761719 C 309.460938 189.136719 308.984375 188.824219 308.34375 188.824219 Z M 308.34375 187.847656 C 309.367188 187.847656 310.144531 188.25 310.683594 189.058594 C 311.222656 189.867188 311.492188 191.039062 311.492188 192.578125 C 311.492188 194.109375 311.222656 195.28125 310.683594 196.089844 C 310.144531 196.898438 309.367188 197.300781 308.34375 197.300781 C 307.324219 197.300781 306.542969 196.898438 306.003906 196.089844 C 305.464844 195.28125 305.195312 194.109375 305.195312 192.578125 C 305.195312 191.039062 305.464844 189.867188 306.003906 189.058594 C 306.542969 188.25 307.324219 187.847656 308.34375 187.847656 Z M 308.34375 187.847656 "/>
<path style=" stroke:none;fill-rule:nonzero;fill:rgb(0%,0%,0%);fill-opacity:1;" d="M 316.296875 188.824219 C 315.664062 188.824219 315.183594 189.136719 314.863281 189.761719 C 314.546875 190.382812 314.386719 191.324219 314.386719 192.578125 C 314.386719 193.824219 314.546875 194.761719 314.863281 195.386719 C 315.183594 196.011719 315.664062 196.324219 316.296875 196.324219 C 316.9375 196.324219 317.414062 196.011719 317.734375 195.386719 C 318.054688 194.761719 318.214844 193.824219 318.214844 192.578125 C 318.214844 191.324219 318.054688 190.382812 317.734375 189.761719 C 317.414062 189.136719 316.9375 188.824219 316.296875 188.824219 Z M 316.296875 187.847656 C 317.320312 187.847656 318.097656 188.25 318.636719 189.058594 C 319.175781 189.867188 319.445312 191.039062 319.445312 192.578125 C 319.445312 194.109375 319.175781 195.28125 318.636719 196.089844 C 318.097656 196.898438 317.320312 197.300781 316.296875 197.300781 C 315.277344 197.300781 314.496094 196.898438 313.957031 196.089844 C 313.417969 195.28125 313.148438 194.109375 313.148438 192.578125 C 313.148438 191.039062 313.417969 189.867188 313.957031 189.058594 C 314.496094 188.25 315.277344 187.847656 316.296875 187.847656 Z M 316.296875 187.847656 "/>
<path style=" stroke:none;fill-rule:nonzero;fill:rgb(0%,0%,0%);fill-opacity:1;" d="M 171.019531 210.523438 L 171.019531 211.070312 L 165.855469 211.070312 C 165.90625 211.84375 166.136719 212.433594 166.554688 212.839844 C 166.972656 213.242188 167.550781 213.445312 168.296875 213.445312 C 168.726562 213.445312 169.144531 213.394531 169.550781 213.289062 C 169.957031 213.183594 170.359375 213.023438 170.757812 212.8125 L 170.757812 213.875 C 170.355469 214.042969 169.941406 214.175781 169.515625 214.265625 C 169.09375 214.355469 168.664062 214.398438 168.230469 214.398438 C 167.140625 214.398438 166.273438 214.082031 165.636719 213.449219 C 165 212.8125 164.683594 211.953125 164.683594 210.871094 C 164.683594 209.75 164.984375 208.863281 165.589844 208.207031 C 166.195312 207.550781 167.007812 207.222656 168.035156 207.222656 C 168.953125 207.222656 169.679688 207.515625 170.214844 208.109375 C 170.75 208.699219 171.019531 209.503906 171.019531 210.523438 Z M 169.894531 210.191406 C 169.886719 209.578125 169.714844 209.089844 169.378906 208.722656 C 169.042969 208.355469 168.601562 208.171875 168.046875 208.171875 C 167.421875 208.171875 166.917969 208.347656 166.542969 208.703125 C 166.167969 209.058594 165.949219 209.554688 165.890625 210.199219 Z M 169.894531 210.191406 "/>
<path style=" stroke:none;fill-rule:nonzero;fill:rgb(0%,0%,0%);fill-opacity:1;" d="M 173.949219 213.195312 L 173.949219 216.820312 L 172.820312 216.820312 L 172.820312 207.386719 L 173.949219 207.386719 L 173.949219 208.421875 C 174.183594 208.015625 174.484375 207.714844 174.84375 207.519531 C 175.203125 207.320312 175.632812 207.222656 176.132812 207.222656 C 176.964844 207.222656 177.640625 207.550781 178.15625 208.210938 C 178.675781 208.867188 178.9375 209.734375 178.9375 210.808594 C 178.9375 211.882812 178.675781 212.75 178.15625 213.410156 C 177.640625 214.070312 176.964844 214.398438 176.132812 214.398438 C 175.632812 214.398438 175.203125 214.300781 174.84375 214.101562 C 174.484375 213.902344 174.183594 213.601562 173.949219 213.195312 Z M 177.769531 210.808594 C 177.769531 209.984375 177.601562 209.335938 177.261719 208.867188 C 176.921875 208.394531 176.453125 208.160156 175.859375 208.160156 C 175.265625 208.160156 174.796875 208.394531 174.457031 208.867188 C 174.117188 209.335938 173.949219 209.984375 173.949219 210.808594 C 173.949219 211.632812 174.117188 212.28125 174.457031 212.753906 C 174.796875 213.222656 175.265625 213.457031 175.859375 213.457031 C 176.453125 213.457031 176.921875 213.222656 177.261719 212.753906 C 177.601562 212.28125 177.769531 211.632812 177.769531 210.808594 Z M 177.769531 210.808594 "/>
<path style=" stroke:none;fill-rule:nonzero;fill:rgb(0%,0%,0%);fill-opacity:1;" d="M 183.445312 208.171875 C 182.84375 208.171875 182.367188 208.40625 182.015625 208.878906 C 181.667969 209.347656 181.492188 209.992188 181.492188 210.808594 C 181.492188 211.625 181.664062 212.269531 182.011719 212.742188 C 182.363281 213.210938 182.839844 213.445312 183.445312 213.445312 C 184.042969 213.445312 184.519531 213.210938 184.867188 212.738281 C 185.21875 212.265625 185.390625 211.621094 185.390625 210.808594 C 185.390625 210 185.21875 209.355469 184.867188 208.882812 C 184.519531 208.410156 184.042969 208.171875 183.445312 208.171875 Z M 183.445312 207.222656 C 184.421875 207.222656 185.1875 207.539062 185.746094 208.175781 C 186.304688 208.808594 186.582031 209.6875 186.582031 210.808594 C 186.582031 211.925781 186.304688 212.804688 185.746094 213.445312 C 185.1875 214.082031 184.421875 214.398438 183.445312 214.398438 C 182.464844 214.398438 181.695312 214.082031 181.140625 213.445312 C 180.585938 212.804688 180.308594 211.925781 180.308594 210.808594 C 180.308594 209.6875 180.585938 208.808594 181.140625 208.175781 C 181.695312 207.539062 182.464844 207.222656 183.445312 207.222656 Z M 183.445312 207.222656 "/>
<path style=" stroke:none;fill-rule:nonzero;fill:rgb(0%,0%,0%);fill-opacity:1;" d="M 193.363281 207.648438 L 193.363281 208.699219 C 193.046875 208.523438 192.726562 208.390625 192.410156 208.304688 C 192.089844 208.214844 191.769531 208.171875 191.441406 208.171875 C 190.714844 208.171875 190.148438 208.402344 189.742188 208.867188 C 189.339844 209.328125 189.140625 209.972656 189.140625 210.808594 C 189.140625 211.644531 189.339844 212.292969 189.742188 212.753906 C 190.148438 213.214844 190.714844 213.445312 191.441406 213.445312 C 191.769531 213.445312 192.089844 213.402344 192.410156 213.316406 C 192.726562 213.226562 193.046875 213.097656 193.363281 212.921875 L 193.363281 213.960938 C 193.050781 214.105469 192.726562 214.214844 192.390625 214.289062 C 192.054688 214.363281 191.699219 214.398438 191.320312 214.398438 C 190.289062 214.398438 189.472656 214.074219 188.863281 213.429688 C 188.257812 212.78125 187.957031 211.90625 187.957031 210.808594 C 187.957031 209.695312 188.261719 208.816406 188.875 208.179688 C 189.488281 207.539062 190.328125 207.222656 191.394531 207.222656 C 191.738281 207.222656 192.074219 207.257812 192.40625 207.328125 C 192.734375 207.398438 193.054688 207.503906 193.363281 207.648438 Z M 193.363281 207.648438 "/>
<path style=" stroke:none;fill-rule:nonzero;fill:rgb(0%,0%,0%);fill-opacity:1;" d="M 201 210.09375 L 201 214.222656 L 199.878906 214.222656 L 199.878906 210.132812 C 199.878906 209.484375 199.75 209 199.5 208.679688 C 199.246094 208.359375 198.867188 208.199219 198.363281 208.199219 C 197.757812 208.199219 197.277344 208.390625 196.929688 208.777344 C 196.578125 209.164062 196.402344 209.691406 196.402344 210.359375 L 196.402344 214.222656 L 195.273438 214.222656 L 195.273438 204.722656 L 196.402344 204.722656 L 196.402344 208.449219 C 196.671875 208.035156 196.988281 207.730469 197.351562 207.527344 C 197.71875 207.324219 198.136719 207.222656 198.613281 207.222656 C 199.398438 207.222656 199.992188 207.464844 200.394531 207.949219 C 200.800781 208.433594 201 209.148438 201 210.09375 Z M 201 210.09375 "/>
<path style=" stroke:none;fill-rule:nonzero;fill:rgb(0%,0%,0%);fill-opacity:1;" d="M 207.597656 207.585938 L 207.597656 208.648438 C 207.28125 208.484375 206.949219 208.363281 206.609375 208.285156 C 206.265625 208.203125 205.914062 208.160156 205.546875 208.160156 C 204.988281 208.160156 204.570312 208.246094 204.292969 208.417969 C 204.011719 208.585938 203.875 208.84375 203.875 209.1875 C 203.875 209.445312 203.972656 209.652344 204.171875 209.800781 C 204.371094 209.949219 204.773438 210.089844 205.375 210.222656 L 205.761719 210.308594 C 206.558594 210.480469 207.125 210.71875 207.460938 211.03125 C 207.796875 211.34375 207.964844 211.777344 207.964844 212.335938 C 207.964844 212.96875 207.710938 213.472656 207.210938 213.84375 C 206.707031 214.214844 206.015625 214.398438 205.136719 214.398438 C 204.773438 214.398438 204.390625 214.363281 203.992188 214.292969 C 203.597656 214.21875 203.179688 214.113281 202.738281 213.972656 L 202.738281 212.8125 C 203.15625 213.027344 203.5625 213.1875 203.964844 213.296875 C 204.367188 213.402344 204.765625 213.457031 205.164062 213.457031 C 205.691406 213.457031 206.097656 213.367188 206.382812 213.1875 C 206.667969 213.003906 206.808594 212.75 206.808594 212.421875 C 206.808594 212.117188 206.707031 211.882812 206.5 211.71875 C 206.296875 211.554688 205.847656 211.398438 205.148438 211.25 L 204.757812 211.15625 C 204.0625 211.011719 203.5625 210.785156 203.25 210.484375 C 202.941406 210.179688 202.789062 209.761719 202.789062 209.234375 C 202.789062 208.589844 203.015625 208.09375 203.472656 207.746094 C 203.925781 207.394531 204.574219 207.222656 205.414062 207.222656 C 205.828125 207.222656 206.21875 207.25 206.582031 207.3125 C 206.949219 207.371094 207.289062 207.464844 207.597656 207.585938 Z M 207.597656 207.585938 "/>
<g clip-path="url(#clip6)" clip-rule="nonzero">
<path style="fill:none;stroke-width:0.8;stroke-linecap:square;stroke-linejoin:round;stroke:rgb(69.019608%,69.019608%,69.019608%);stroke-opacity:1;stroke-miterlimit:4;" d="M 51.378125 119.428125 L 246.678125 119.428125 " transform="matrix(1.25,0,0,1.25,0,0)"/>
</g>
<path style="fill:none;stroke-width:0.8;stroke-linecap:butt;stroke-linejoin:round;stroke:rgb(0%,0%,0%);stroke-opacity:1;stroke-miterlimit:4;" d="M 0 0.0007 L -3.5 0.0007 " transform="matrix(1.25,0,0,1.25,64.222656,149.284281)"/>
<path style=" stroke:none;fill-rule:nonzero;fill:rgb(0%,0%,0%);fill-opacity:1;" d="M 27.648438 152.902344 L 29.664062 152.902344 L 29.664062 145.949219 L 27.46875 146.386719 L 27.46875 145.265625 L 29.648438 144.824219 L 30.882812 144.824219 L 30.882812 152.902344 L 32.898438 152.902344 L 32.898438 153.9375 L 27.648438 153.9375 Z M 27.648438 152.902344 "/>
<path style=" stroke:none;fill-rule:nonzero;fill:rgb(0%,0%,0%);fill-opacity:1;" d="M 38.023438 145.636719 C 37.390625 145.636719 36.910156 145.949219 36.589844 146.574219 C 36.273438 147.199219 36.113281 148.136719 36.113281 149.390625 C 36.113281 150.640625 36.273438 151.578125 36.589844 152.203125 C 36.910156 152.828125 37.390625 153.140625 38.023438 153.140625 C 38.664062 153.140625 39.140625 152.828125 39.460938 152.203125 C 39.78125 151.578125 39.941406 150.640625 39.941406 149.390625 C 39.941406 148.136719 39.78125 147.199219 39.460938 146.574219 C 39.140625 145.949219 38.664062 145.636719 38.023438 145.636719 Z M 38.023438 144.660156 C 39.046875 144.660156 39.824219 145.066406 40.363281 145.875 C 40.902344 146.679688 41.171875 147.851562 41.171875 149.390625 C 41.171875 150.925781 40.902344 152.097656 40.363281 152.90625 C 39.824219 153.710938 39.046875 154.117188 38.023438 154.117188 C 37.003906 154.117188 36.222656 153.710938 35.683594 152.90625 C 35.144531 152.097656 34.875 150.925781 34.875 149.390625 C 34.875 147.851562 35.144531 146.679688 35.683594 145.875 C 36.222656 145.066406 37.003906 144.660156 38.023438 144.660156 Z M 38.023438 144.660156 "/>
<path style=" stroke:none;fill-rule:nonzero;fill:rgb(0%,0%,0%);fill-opacity:1;" d="M 43.050781 146.046875 L 48.527344 146.046875 L 48.527344 146.773438 L 43.050781 146.773438 Z M 43.050781 146.046875 "/>
<path style=" stroke:none;fill-rule:nonzero;fill:rgb(0%,0%,0%);fill-opacity:1;" d="M 50.414062 149.019531 L 50.414062 148.234375 C 50.632812 148.335938 50.851562 148.414062 51.074219 148.46875 C 51.296875 148.523438 51.515625 148.550781 51.726562 148.550781 C 52.296875 148.550781 52.734375 148.359375 53.03125 147.976562 C 53.332031 147.59375 53.503906 147.011719 53.546875 146.230469 C 53.382812 146.472656 53.171875 146.664062 52.917969 146.792969 C 52.664062 146.925781 52.386719 146.992188 52.078125 146.992188 C 51.441406 146.992188 50.933594 146.796875 50.5625 146.414062 C 50.191406 146.027344 50.003906 145.496094 50.003906 144.828125 C 50.003906 144.171875 50.199219 143.648438 50.585938 143.253906 C 50.972656 142.855469 51.488281 142.660156 52.132812 142.660156 C 52.871094 142.660156 53.433594 142.941406 53.824219 143.507812 C 54.210938 144.074219 54.40625 144.894531 54.40625 145.96875 C 54.40625 146.976562 54.167969 147.777344 53.691406 148.378906 C 53.214844 148.976562 52.570312 149.277344 51.765625 149.277344 C 51.550781 149.277344 51.328125 149.253906 51.109375 149.210938 C 50.886719 149.167969 50.65625 149.105469 50.414062 149.019531 Z M 52.132812 146.316406 C 52.519531 146.316406 52.828125 146.183594 53.054688 145.917969 C 53.28125 145.652344 53.394531 145.289062 53.394531 144.828125 C 53.394531 144.371094 53.28125 144.007812 53.054688 143.742188 C 52.828125 143.476562 52.519531 143.34375 52.132812 143.34375 C 51.746094 143.34375 51.4375 143.476562 51.210938 143.742188 C 50.988281 144.007812 50.875 144.371094 50.875 144.828125 C 50.875 145.289062 50.988281 145.652344 51.210938 145.917969 C 51.4375 146.183594 51.746094 146.316406 52.132812 146.316406 Z M 52.132812 146.316406 "/>
<g clip-path="url(#clip7)" clip-rule="nonzero">
<path style="fill:none;stroke-width:0.8;stroke-linecap:square;stroke-linejoin:round;stroke:rgb(69.019608%,69.019608%,69.019608%);stroke-opacity:1;stroke-miterlimit:4;" d="M 51.378125 91.25625 L 246.678125 91.25625 " transform="matrix(1.25,0,0,1.25,0,0)"/>
</g>
<path style="fill:none;stroke-width:0.8;stroke-linecap:butt;stroke-linejoin:round;stroke:rgb(0%,0%,0%);stroke-opacity:1;stroke-miterlimit:4;" d="M 0 0.0014 L -3.5 0.0014 " transform="matrix(1.25,0,0,1.25,64.222656,114.068563)"/>
<path style=" stroke:none;fill-rule:nonzero;fill:rgb(0%,0%,0%);fill-opacity:1;" d="M 27.648438 117.683594 L 29.664062 117.683594 L 29.664062 110.730469 L 27.46875 111.171875 L 27.46875 110.046875 L 29.648438 109.609375 L 30.882812 109.609375 L 30.882812 117.683594 L 32.898438 117.683594 L 32.898438 118.722656 L 27.648438 118.722656 Z M 27.648438 117.683594 "/>
<path style=" stroke:none;fill-rule:nonzero;fill:rgb(0%,0%,0%);fill-opacity:1;" d="M 38.023438 110.421875 C 37.390625 110.421875 36.910156 110.734375 36.589844 111.359375 C 36.273438 111.980469 36.113281 112.921875 36.113281 114.175781 C 36.113281 115.421875 36.273438 116.359375 36.589844 116.984375 C 36.910156 117.609375 37.390625 117.921875 38.023438 117.921875 C 38.664062 117.921875 39.140625 117.609375 39.460938 116.984375 C 39.78125 116.359375 39.941406 115.421875 39.941406 114.175781 C 39.941406 112.921875 39.78125 111.980469 39.460938 111.359375 C 39.140625 110.734375 38.664062 110.421875 38.023438 110.421875 Z M 38.023438 109.445312 C 39.046875 109.445312 39.824219 109.847656 40.363281 110.65625 C 40.902344 111.464844 41.171875 112.636719 41.171875 114.175781 C 41.171875 115.707031 40.902344 116.878906 40.363281 117.6875 C 39.824219 118.496094 39.046875 118.898438 38.023438 118.898438 C 37.003906 118.898438 36.222656 118.496094 35.683594 117.6875 C 35.144531 116.878906 34.875 115.707031 34.875 114.175781 C 34.875 112.636719 35.144531 111.464844 35.683594 110.65625 C 36.222656 109.847656 37.003906 109.445312 38.023438 109.445312 Z M 38.023438 109.445312 "/>
<path style=" stroke:none;fill-rule:nonzero;fill:rgb(0%,0%,0%);fill-opacity:1;" d="M 43.050781 110.832031 L 48.527344 110.832031 L 48.527344 111.554688 L 43.050781 111.554688 Z M 43.050781 110.832031 "/>
<path style=" stroke:none;fill-rule:nonzero;fill:rgb(0%,0%,0%);fill-opacity:1;" d="M 52.34375 110.402344 C 51.957031 110.402344 51.648438 110.535156 51.421875 110.800781 C 51.195312 111.066406 51.082031 111.429688 51.082031 111.890625 C 51.082031 112.347656 51.195312 112.710938 51.421875 112.976562 C 51.648438 113.246094 51.957031 113.378906 52.34375 113.378906 C 52.730469 113.378906 53.039062 113.246094 53.261719 112.976562 C 53.488281 112.710938 53.601562 112.347656 53.601562 111.890625 C 53.601562 111.429688 53.488281 111.066406 53.261719 110.800781 C 53.039062 110.535156 52.730469 110.402344 52.34375 110.402344 Z M 54.054688 107.699219 L 54.054688 108.484375 C 53.839844 108.382812 53.621094 108.304688 53.398438 108.25 C 53.179688 108.195312 52.960938 108.167969 52.742188 108.167969 C 52.175781 108.167969 51.738281 108.359375 51.4375 108.746094 C 51.136719 109.128906 50.96875 109.710938 50.925781 110.488281 C 51.09375 110.242188 51.300781 110.050781 51.554688 109.917969 C 51.808594 109.785156 52.089844 109.71875 52.394531 109.71875 C 53.035156 109.71875 53.542969 109.914062 53.914062 110.304688 C 54.285156 110.691406 54.472656 111.222656 54.472656 111.890625 C 54.472656 112.546875 54.277344 113.070312 53.890625 113.46875 C 53.503906 113.863281 52.988281 114.0625 52.34375 114.0625 C 51.605469 114.0625 51.039062 113.777344 50.652344 113.214844 C 50.261719 112.648438 50.066406 111.828125 50.066406 110.753906 C 50.066406 109.746094 50.304688 108.941406 50.785156 108.34375 C 51.261719 107.742188 51.902344 107.441406 52.710938 107.441406 C 52.925781 107.441406 53.144531 107.464844 53.367188 107.507812 C 53.585938 107.550781 53.816406 107.613281 54.054688 107.699219 Z M 54.054688 107.699219 "/>
<g clip-path="url(#clip8)" clip-rule="nonzero">
<path style="fill:none;stroke-width:0.8;stroke-linecap:square;stroke-linejoin:round;stroke:rgb(69.019608%,69.019608%,69.019608%);stroke-opacity:1;stroke-miterlimit:4;" d="M 51.378125 63.08125 L 246.678125 63.08125 " transform="matrix(1.25,0,0,1.25,0,0)"/>
</g>
<path style="fill:none;stroke-width:0.8;stroke-linecap:butt;stroke-linejoin:round;stroke:rgb(0%,0%,0%);stroke-opacity:1;stroke-miterlimit:4;" d="M 0 -0.001026 L -3.5 -0.001026 " transform="matrix(1.25,0,0,1.25,64.222656,78.852845)"/>
<path style=" stroke:none;fill-rule:nonzero;fill:rgb(0%,0%,0%);fill-opacity:1;" d="M 27.648438 82.46875 L 29.664062 82.46875 L 29.664062 75.515625 L 27.46875 75.957031 L 27.46875 74.832031 L 29.648438 74.394531 L 30.882812 74.394531 L 30.882812 82.46875 L 32.898438 82.46875 L 32.898438 83.507812 L 27.648438 83.507812 Z M 27.648438 82.46875 "/>
<path style=" stroke:none;fill-rule:nonzero;fill:rgb(0%,0%,0%);fill-opacity:1;" d="M 38.023438 75.207031 C 37.390625 75.207031 36.910156 75.519531 36.589844 76.144531 C 36.273438 76.765625 36.113281 77.707031 36.113281 78.960938 C 36.113281 80.207031 36.273438 81.144531 36.589844 81.769531 C 36.910156 82.394531 37.390625 82.707031 38.023438 82.707031 C 38.664062 82.707031 39.140625 82.394531 39.460938 81.769531 C 39.78125 81.144531 39.941406 80.207031 39.941406 78.960938 C 39.941406 77.707031 39.78125 76.765625 39.460938 76.144531 C 39.140625 75.519531 38.664062 75.207031 38.023438 75.207031 Z M 38.023438 74.230469 C 39.046875 74.230469 39.824219 74.632812 40.363281 75.441406 C 40.902344 76.25 41.171875 77.421875 41.171875 78.960938 C 41.171875 80.492188 40.902344 81.664062 40.363281 82.472656 C 39.824219 83.28125 39.046875 83.683594 38.023438 83.683594 C 37.003906 83.683594 36.222656 83.28125 35.683594 82.472656 C 35.144531 81.664062 34.875 80.492188 34.875 78.960938 C 34.875 77.421875 35.144531 76.25 35.683594 75.441406 C 36.222656 74.632812 37.003906 74.230469 38.023438 74.230469 Z M 38.023438 74.230469 "/>
<path style=" stroke:none;fill-rule:nonzero;fill:rgb(0%,0%,0%);fill-opacity:1;" d="M 43.050781 75.613281 L 48.527344 75.613281 L 48.527344 76.339844 L 43.050781 76.339844 Z M 43.050781 75.613281 "/>
<path style=" stroke:none;fill-rule:nonzero;fill:rgb(0%,0%,0%);fill-opacity:1;" d="M 53.003906 75.28125 C 53.417969 75.371094 53.742188 75.554688 53.972656 75.832031 C 54.203125 76.113281 54.320312 76.457031 54.320312 76.867188 C 54.320312 77.496094 54.105469 77.984375 53.671875 78.328125 C 53.238281 78.671875 52.621094 78.84375 51.824219 78.84375 C 51.558594 78.84375 51.28125 78.820312 51 78.765625 C 50.714844 78.714844 50.421875 78.632812 50.121094 78.527344 L 50.121094 77.695312 C 50.359375 77.835938 50.621094 77.941406 50.90625 78.011719 C 51.191406 78.082031 51.488281 78.117188 51.800781 78.117188 C 52.339844 78.117188 52.753906 78.011719 53.035156 77.796875 C 53.320312 77.585938 53.460938 77.273438 53.460938 76.867188 C 53.460938 76.492188 53.332031 76.195312 53.066406 75.984375 C 52.804688 75.773438 52.4375 75.667969 51.96875 75.667969 L 51.222656 75.667969 L 51.222656 74.957031 L 52 74.957031 C 52.425781 74.957031 52.75 74.871094 52.976562 74.703125 C 53.199219 74.535156 53.3125 74.289062 53.3125 73.96875 C 53.3125 73.644531 53.195312 73.390625 52.964844 73.214844 C 52.734375 73.039062 52.402344 72.953125 51.96875 72.953125 C 51.730469 72.953125 51.476562 72.980469 51.207031 73.03125 C 50.933594 73.082031 50.636719 73.160156 50.3125 73.269531 L 50.3125 72.5 C 50.640625 72.410156 50.949219 72.339844 51.234375 72.296875 C 51.519531 72.25 51.789062 72.226562 52.042969 72.226562 C 52.699219 72.226562 53.21875 72.375 53.597656 72.675781 C 53.980469 72.972656 54.171875 73.371094 54.171875 73.878906 C 54.171875 74.234375 54.070312 74.53125 53.867188 74.773438 C 53.664062 75.019531 53.378906 75.1875 53.003906 75.28125 Z M 53.003906 75.28125 "/>
<g clip-path="url(#clip9)" clip-rule="nonzero">
<path style="fill:none;stroke-width:0.8;stroke-linecap:square;stroke-linejoin:round;stroke:rgb(69.019608%,69.019608%,69.019608%);stroke-opacity:1;stroke-miterlimit:4;" d="M 51.378125 34.909375 L 246.678125 34.909375 " transform="matrix(1.25,0,0,1.25,0,0)"/>
</g>
<path style="fill:none;stroke-width:0.8;stroke-linecap:butt;stroke-linejoin:round;stroke:rgb(0%,0%,0%);stroke-opacity:1;stroke-miterlimit:4;" d="M 0 -0.000326 L -3.5 -0.000326 " transform="matrix(1.25,0,0,1.25,64.222656,43.637126)"/>
<path style=" stroke:none;fill-rule:nonzero;fill:rgb(0%,0%,0%);fill-opacity:1;" d="M 35.023438 47.253906 L 37.039062 47.253906 L 37.039062 40.300781 L 34.84375 40.738281 L 34.84375 39.617188 L 37.023438 39.175781 L 38.257812 39.175781 L 38.257812 47.253906 L 40.273438 47.253906 L 40.273438 48.289062 L 35.023438 48.289062 Z M 35.023438 47.253906 "/>
<path style=" stroke:none;fill-rule:nonzero;fill:rgb(0%,0%,0%);fill-opacity:1;" d="M 45.398438 39.988281 C 44.765625 39.988281 44.285156 40.300781 43.964844 40.925781 C 43.648438 41.550781 43.488281 42.488281 43.488281 43.742188 C 43.488281 44.992188 43.648438 45.929688 43.964844 46.554688 C 44.285156 47.179688 44.765625 47.492188 45.398438 47.492188 C 46.039062 47.492188 46.515625 47.179688 46.835938 46.554688 C 47.15625 45.929688 47.316406 44.992188 47.316406 43.742188 C 47.316406 42.488281 47.15625 41.550781 46.835938 40.925781 C 46.515625 40.300781 46.039062 39.988281 45.398438 39.988281 Z M 45.398438 39.011719 C 46.421875 39.011719 47.199219 39.417969 47.738281 40.226562 C 48.277344 41.035156 48.546875 42.207031 48.546875 43.742188 C 48.546875 45.277344 48.277344 46.449219 47.738281 47.257812 C 47.199219 48.066406 46.421875 48.46875 45.398438 48.46875 C 44.378906 48.46875 43.597656 48.066406 43.058594 47.257812 C 42.519531 46.449219 42.25 45.277344 42.25 43.742188 C 42.25 42.207031 42.519531 41.035156 43.058594 40.226562 C 43.597656 39.417969 44.378906 39.011719 45.398438 39.011719 Z M 45.398438 39.011719 "/>
<path style=" stroke:none;fill-rule:nonzero;fill:rgb(0%,0%,0%);fill-opacity:1;" d="M 52.277344 37.695312 C 51.835938 37.695312 51.5 37.914062 51.277344 38.351562 C 51.054688 38.789062 50.941406 39.445312 50.941406 40.324219 C 50.941406 41.195312 51.054688 41.851562 51.277344 42.289062 C 51.5 42.726562 51.835938 42.945312 52.277344 42.945312 C 52.726562 42.945312 53.0625 42.726562 53.285156 42.289062 C 53.507812 41.851562 53.621094 41.195312 53.621094 40.324219 C 53.621094 39.445312 53.507812 38.789062 53.285156 38.351562 C 53.0625 37.914062 52.726562 37.695312 52.277344 37.695312 Z M 52.277344 37.011719 C 52.996094 37.011719 53.539062 37.292969 53.917969 37.859375 C 54.296875 38.425781 54.484375 39.246094 54.484375 40.324219 C 54.484375 41.394531 54.296875 42.214844 53.917969 42.78125 C 53.539062 43.347656 52.996094 43.628906 52.277344 43.628906 C 51.5625 43.628906 51.019531 43.347656 50.640625 42.78125 C 50.265625 42.214844 50.074219 41.394531 50.074219 40.324219 C 50.074219 39.246094 50.265625 38.425781 50.640625 37.859375 C 51.019531 37.292969 51.5625 37.011719 52.277344 37.011719 Z M 52.277344 37.011719 "/>
<path style=" stroke:none;fill-rule:nonzero;fill:rgb(0%,0%,0%);fill-opacity:1;" d="M 9 104.832031 L 9 103.707031 L 18.496094 103.707031 L 18.496094 104.832031 Z M 9 104.832031 "/>
<path style=" stroke:none;fill-rule:nonzero;fill:rgb(0%,0%,0%);fill-opacity:1;" d="M 12.449219 98.710938 C 12.449219 99.3125 12.683594 99.789062 13.152344 100.136719 C 13.625 100.488281 14.269531 100.664062 15.085938 100.664062 C 15.902344 100.664062 16.546875 100.488281 17.015625 100.140625 C 17.488281 99.792969 17.722656 99.316406 17.722656 98.710938 C 17.722656 98.113281 17.488281 97.636719 17.015625 97.289062 C 16.542969 96.9375 15.898438 96.761719 15.085938 96.761719 C 14.277344 96.761719 13.632812 96.9375 13.160156 97.289062 C 12.6875 97.636719 12.449219 98.113281 12.449219 98.710938 Z M 11.496094 98.710938 C 11.496094 97.734375 11.816406 96.96875 12.449219 96.410156 C 13.085938 95.851562 13.964844 95.570312 15.085938 95.570312 C 16.203125 95.570312 17.082031 95.851562 17.71875 96.410156 C 18.355469 96.96875 18.675781 97.734375 18.675781 98.710938 C 18.675781 99.691406 18.355469 100.460938 17.71875 101.015625 C 17.082031 101.570312 16.203125 101.847656 15.085938 101.847656 C 13.964844 101.847656 13.085938 101.570312 12.449219 101.015625 C 11.816406 100.460938 11.496094 99.691406 11.496094 98.710938 Z M 11.496094 98.710938 "/>
<path style=" stroke:none;fill-rule:nonzero;fill:rgb(0%,0%,0%);fill-opacity:1;" d="M 11.863281 89.355469 L 12.925781 89.355469 C 12.761719 89.671875 12.640625 90 12.558594 90.34375 C 12.476562 90.683594 12.4375 91.039062 12.4375 91.40625 C 12.4375 91.960938 12.523438 92.378906 12.691406 92.660156 C 12.863281 92.9375 13.121094 93.078125 13.460938 93.078125 C 13.722656 93.078125 13.925781 92.976562 14.074219 92.777344 C 14.222656 92.578125 14.367188 92.175781 14.5 91.574219 L 14.585938 91.191406 C 14.757812 90.394531 14.996094 89.828125 15.308594 89.492188 C 15.621094 89.15625 16.054688 88.988281 16.609375 88.988281 C 17.246094 88.988281 17.75 89.238281 18.121094 89.742188 C 18.492188 90.242188 18.675781 90.933594 18.675781 91.8125 C 18.675781 92.179688 18.640625 92.558594 18.566406 92.957031 C 18.496094 93.355469 18.390625 93.773438 18.246094 94.210938 L 17.085938 94.210938 C 17.304688 93.796875 17.464844 93.386719 17.574219 92.984375 C 17.679688 92.582031 17.734375 92.183594 17.734375 91.789062 C 17.734375 91.257812 17.644531 90.851562 17.460938 90.570312 C 17.28125 90.285156 17.027344 90.140625 16.695312 90.140625 C 16.390625 90.140625 16.160156 90.242188 15.996094 90.449219 C 15.832031 90.652344 15.675781 91.105469 15.523438 91.800781 L 15.433594 92.191406 C 15.289062 92.886719 15.0625 93.390625 14.757812 93.699219 C 14.457031 94.007812 14.039062 94.164062 13.511719 94.164062 C 12.867188 94.164062 12.371094 93.933594 12.023438 93.480469 C 11.671875 93.023438 11.496094 92.375 11.496094 91.539062 C 11.496094 91.125 11.527344 90.734375 11.589844 90.367188 C 11.648438 90 11.742188 89.664062 11.863281 89.355469 Z M 11.863281 89.355469 "/>
<path style=" stroke:none;fill-rule:nonzero;fill:rgb(0%,0%,0%);fill-opacity:1;" d="M 11.863281 82.839844 L 12.925781 82.839844 C 12.761719 83.15625 12.640625 83.488281 12.558594 83.828125 C 12.476562 84.171875 12.4375 84.523438 12.4375 84.890625 C 12.4375 85.449219 12.523438 85.867188 12.691406 86.144531 C 12.863281 86.425781 13.121094 86.5625 13.460938 86.5625 C 13.722656 86.5625 13.925781 86.464844 14.074219 86.265625 C 14.222656 86.066406 14.367188 85.664062 14.5 85.0625 L 14.585938 84.675781 C 14.757812 83.878906 14.996094 83.3125 15.308594 82.976562 C 15.621094 82.640625 16.054688 82.472656 16.609375 82.472656 C 17.246094 82.472656 17.75 82.726562 18.121094 83.226562 C 18.492188 83.730469 18.675781 84.421875 18.675781 85.300781 C 18.675781 85.667969 18.640625 86.046875 18.566406 86.445312 C 18.496094 86.84375 18.390625 87.261719 18.246094 87.699219 L 17.085938 87.699219 C 17.304688 87.285156 17.464844 86.875 17.574219 86.472656 C 17.679688 86.070312 17.734375 85.671875 17.734375 85.273438 C 17.734375 84.746094 17.644531 84.339844 17.460938 84.054688 C 17.28125 83.769531 17.027344 83.628906 16.695312 83.628906 C 16.390625 83.628906 16.160156 83.730469 15.996094 83.9375 C 15.832031 84.140625 15.675781 84.59375 15.523438 85.289062 L 15.433594 85.679688 C 15.289062 86.375 15.0625 86.878906 14.757812 87.1875 C 14.457031 87.496094 14.039062 87.648438 13.511719 87.648438 C 12.867188 87.648438 12.371094 87.421875 12.023438 86.964844 C 11.671875 86.511719 11.496094 85.863281 11.496094 85.023438 C 11.496094 84.609375 11.527344 84.222656 11.589844 83.855469 C 11.648438 83.488281 11.742188 83.148438 11.863281 82.839844 Z M 11.863281 82.839844 "/>
<g clip-path="url(#clip10)" clip-rule="nonzero">
<path style="fill:none;stroke-width:1.5;stroke-linecap:square;stroke-linejoin:round;stroke:rgb(12.156863%,46.666667%,70.588235%);stroke-opacity:1;stroke-miterlimit:4;" d="M 51.378125 24.365625 L 61.65625 32.8125 L 71.9375 40.35625 L 82.215625 47.575 L 92.49375 54.625 L 102.771875 61.575 L 113.053125 68.396875 L 123.33125 75.146875 L 133.609375 81.784375 L 143.8875 88.35 L 154.16875 94.81875 L 164.446875 101.190625 L 174.725 107.5 L 185.003125 113.696875 L 195.284375 119.875 L 205.5625 126.109375 L 215.840625 130.434375 L 226.11875 133.38125 L 236.4 135.4625 L 246.678125 136.921875 " transform="matrix(1.25,0,0,1.25,0,0)"/>
</g>
<g clip-path="url(#clip11)" clip-rule="nonzero">
<path style="fill:none;stroke-width:1.5;stroke-linecap:butt;stroke-linejoin:round;stroke:rgb(74.901961%,0%,74.901961%);stroke-opacity:1;stroke-dasharray:5.55,2.4;stroke-miterlimit:4;" d="M 51.378125 13.378125 L 61.65625 13.45 L 71.9375 13.465625 L 82.215625 13.471875 L 92.49375 13.475 L 123.33125 13.475 L 133.609375 13.478125 L 246.678125 13.478125 " transform="matrix(1.25,0,0,1.25,0,0)"/>
</g>
<path style="fill:none;stroke-width:0.8;stroke-linecap:square;stroke-linejoin:miter;stroke:rgb(0%,0%,0%);stroke-opacity:1;stroke-miterlimit:4;" d="M 51.378125 143.1 L 51.378125 7.2 " transform="matrix(1.25,0,0,1.25,0,0)"/>
<path style="fill:none;stroke-width:0.8;stroke-linecap:square;stroke-linejoin:miter;stroke:rgb(0%,0%,0%);stroke-opacity:1;stroke-miterlimit:4;" d="M 246.678125 143.1 L 246.678125 7.2 " transform="matrix(1.25,0,0,1.25,0,0)"/>
<path style="fill:none;stroke-width:0.8;stroke-linecap:square;stroke-linejoin:miter;stroke:rgb(0%,0%,0%);stroke-opacity:1;stroke-miterlimit:4;" d="M 51.378125 143.1 L 246.678125 143.1 " transform="matrix(1.25,0,0,1.25,0,0)"/>
<path style="fill:none;stroke-width:0.8;stroke-linecap:square;stroke-linejoin:miter;stroke:rgb(0%,0%,0%);stroke-opacity:1;stroke-miterlimit:4;" d="M 51.378125 7.2 L 246.678125 7.2 " transform="matrix(1.25,0,0,1.25,0,0)"/>
<use xlink:href="#surface6" mask="url(#mask0)"/>
<path style="fill:none;stroke-width:1.5;stroke-linecap:square;stroke-linejoin:round;stroke:rgb(12.156863%,46.666667%,70.588235%);stroke-opacity:1;stroke-miterlimit:4;" d="M 60.378125 113.840625 L 80.378125 113.840625 " transform="matrix(1.25,0,0,1.25,0,0)"/>
<path style=" stroke:none;fill-rule:nonzero;fill:rgb(0%,0%,0%);fill-opacity:1;" d="M 112.761719 137.898438 L 112.761719 139.839844 L 115.074219 139.839844 L 115.074219 140.714844 L 112.761719 140.714844 L 112.761719 144.425781 C 112.761719 144.984375 112.835938 145.339844 112.992188 145.5 C 113.140625 145.660156 113.453125 145.738281 113.921875 145.738281 L 115.074219 145.738281 L 115.074219 146.675781 L 113.921875 146.675781 C 113.054688 146.675781 112.457031 146.515625 112.125 146.191406 C 111.796875 145.867188 111.632812 145.28125 111.632812 144.425781 L 111.632812 140.714844 L 110.808594 140.714844 L 110.808594 139.839844 L 111.632812 139.839844 L 111.632812 137.898438 Z M 112.761719 137.898438 "/>
<path style=" stroke:none;fill-rule:nonzero;fill:rgb(0%,0%,0%);fill-opacity:1;" d="M 120.511719 140.890625 C 120.386719 140.816406 120.25 140.765625 120.101562 140.730469 C 119.953125 140.695312 119.789062 140.675781 119.609375 140.675781 C 118.976562 140.675781 118.488281 140.882812 118.148438 141.296875 C 117.808594 141.710938 117.636719 142.300781 117.636719 143.074219 L 117.636719 146.675781 L 116.507812 146.675781 L 116.507812 139.839844 L 117.636719 139.839844 L 117.636719 140.902344 C 117.875 140.488281 118.183594 140.179688 118.558594 139.980469 C 118.9375 139.777344 119.398438 139.675781 119.941406 139.675781 C 120.015625 139.675781 120.101562 139.683594 120.195312 139.691406 C 120.289062 139.703125 120.394531 139.71875 120.507812 139.738281 Z M 120.511719 140.890625 "/>
<path style=" stroke:none;fill-rule:nonzero;fill:rgb(0%,0%,0%);fill-opacity:1;" d="M 124.796875 143.242188 C 123.890625 143.242188 123.261719 143.34375 122.910156 143.550781 C 122.5625 143.757812 122.386719 144.113281 122.386719 144.613281 C 122.386719 145.011719 122.515625 145.328125 122.78125 145.5625 C 123.042969 145.796875 123.398438 145.914062 123.851562 145.914062 C 124.472656 145.914062 124.972656 145.691406 125.351562 145.25 C 125.726562 144.808594 125.914062 144.222656 125.914062 143.492188 L 125.914062 143.242188 Z M 127.039062 142.777344 L 127.039062 146.675781 L 125.914062 146.675781 L 125.914062 145.640625 C 125.660156 146.054688 125.339844 146.359375 124.957031 146.558594 C 124.574219 146.757812 124.105469 146.855469 123.550781 146.855469 C 122.851562 146.855469 122.296875 146.660156 121.882812 146.265625 C 121.46875 145.871094 121.261719 145.347656 121.261719 144.6875 C 121.261719 143.917969 121.519531 143.339844 122.035156 142.949219 C 122.550781 142.558594 123.316406 142.363281 124.339844 142.363281 L 125.914062 142.363281 L 125.914062 142.25 C 125.914062 141.734375 125.746094 141.335938 125.40625 141.050781 C 125.066406 140.769531 124.589844 140.628906 123.972656 140.628906 C 123.582031 140.628906 123.203125 140.675781 122.832031 140.769531 C 122.460938 140.863281 122.105469 141.003906 121.765625 141.191406 L 121.765625 140.152344 C 122.175781 139.992188 122.574219 139.875 122.960938 139.796875 C 123.347656 139.71875 123.722656 139.675781 124.089844 139.675781 C 125.078125 139.675781 125.816406 139.933594 126.304688 140.445312 C 126.792969 140.957031 127.039062 141.734375 127.039062 142.777344 Z M 127.039062 142.777344 "/>
<path style=" stroke:none;fill-rule:nonzero;fill:rgb(0%,0%,0%);fill-opacity:1;" d="M 129.351562 139.839844 L 130.472656 139.839844 L 130.472656 146.675781 L 129.351562 146.675781 Z M 129.351562 137.179688 L 130.472656 137.179688 L 130.472656 138.601562 L 129.351562 138.601562 Z M 129.351562 137.179688 "/>
<path style=" stroke:none;fill-rule:nonzero;fill:rgb(0%,0%,0%);fill-opacity:1;" d="M 138.507812 142.550781 L 138.507812 146.675781 L 137.382812 146.675781 L 137.382812 142.585938 C 137.382812 141.941406 137.257812 141.457031 137.003906 141.136719 C 136.753906 140.816406 136.375 140.652344 135.871094 140.652344 C 135.261719 140.652344 134.785156 140.847656 134.433594 141.234375 C 134.085938 141.621094 133.910156 142.144531 133.910156 142.8125 L 133.910156 146.675781 L 132.78125 146.675781 L 132.78125 139.839844 L 133.910156 139.839844 L 133.910156 140.902344 C 134.179688 140.492188 134.496094 140.183594 134.859375 139.980469 C 135.222656 139.777344 135.644531 139.675781 136.121094 139.675781 C 136.90625 139.675781 137.5 139.921875 137.902344 140.40625 C 138.304688 140.890625 138.507812 141.605469 138.507812 142.550781 Z M 138.507812 142.550781 "/>
<path style="fill:none;stroke-width:1.5;stroke-linecap:butt;stroke-linejoin:round;stroke:rgb(74.901961%,0%,74.901961%);stroke-opacity:1;stroke-dasharray:5.55,2.4;stroke-miterlimit:4;" d="M 60.378125 128.51875 L 80.378125 128.51875 " transform="matrix(1.25,0,0,1.25,0,0)"/>
<path style=" stroke:none;fill-rule:nonzero;fill:rgb(0%,0%,0%);fill-opacity:1;" d="M 112.761719 156.246094 L 112.761719 158.1875 L 115.074219 158.1875 L 115.074219 159.0625 L 112.761719 159.0625 L 112.761719 162.773438 C 112.761719 163.332031 112.835938 163.6875 112.992188 163.847656 C 113.140625 164.007812 113.453125 164.085938 113.921875 164.085938 L 115.074219 164.085938 L 115.074219 165.023438 L 113.921875 165.023438 C 113.054688 165.023438 112.457031 164.863281 112.125 164.539062 C 111.796875 164.214844 111.632812 163.628906 111.632812 162.773438 L 111.632812 159.0625 L 110.808594 159.0625 L 110.808594 158.1875 L 111.632812 158.1875 L 111.632812 156.246094 Z M 112.761719 156.246094 "/>
<path style=" stroke:none;fill-rule:nonzero;fill:rgb(0%,0%,0%);fill-opacity:1;" d="M 122.398438 161.324219 L 122.398438 161.875 L 117.234375 161.875 C 117.285156 162.648438 117.519531 163.238281 117.933594 163.640625 C 118.351562 164.046875 118.933594 164.25 119.675781 164.25 C 120.109375 164.25 120.527344 164.195312 120.929688 164.089844 C 121.335938 163.984375 121.738281 163.828125 122.136719 163.613281 L 122.136719 164.675781 C 121.734375 164.847656 121.320312 164.976562 120.898438 165.066406 C 120.472656 165.15625 120.046875 165.203125 119.609375 165.203125 C 118.519531 165.203125 117.65625 164.886719 117.019531 164.25 C 116.382812 163.617188 116.0625 162.757812 116.0625 161.671875 C 116.0625 160.554688 116.367188 159.667969 116.96875 159.011719 C 117.574219 158.355469 118.390625 158.023438 119.414062 158.023438 C 120.335938 158.023438 121.0625 158.320312 121.597656 158.914062 C 122.132812 159.503906 122.398438 160.308594 122.398438 161.324219 Z M 121.277344 160.996094 C 121.269531 160.382812 121.097656 159.894531 120.761719 159.527344 C 120.425781 159.160156 119.980469 158.976562 119.425781 158.976562 C 118.800781 158.976562 118.300781 159.152344 117.921875 159.507812 C 117.546875 159.863281 117.328125 160.359375 117.273438 161.003906 Z M 121.277344 160.996094 "/>
<path style=" stroke:none;fill-rule:nonzero;fill:rgb(0%,0%,0%);fill-opacity:1;" d="M 128.597656 158.390625 L 128.597656 159.453125 C 128.28125 159.289062 127.953125 159.167969 127.609375 159.085938 C 127.269531 159.003906 126.914062 158.964844 126.546875 158.964844 C 125.992188 158.964844 125.574219 159.050781 125.292969 159.21875 C 125.015625 159.390625 124.875 159.648438 124.875 159.988281 C 124.875 160.25 124.976562 160.453125 125.175781 160.601562 C 125.375 160.75 125.777344 160.894531 126.378906 161.027344 L 126.761719 161.113281 C 127.558594 161.285156 128.125 161.523438 128.460938 161.835938 C 128.796875 162.148438 128.964844 162.582031 128.964844 163.136719 C 128.964844 163.773438 128.714844 164.277344 128.210938 164.648438 C 127.710938 165.019531 127.019531 165.203125 126.140625 165.203125 C 125.773438 165.203125 125.394531 165.167969 124.996094 165.09375 C 124.597656 165.023438 124.179688 164.917969 123.742188 164.773438 L 123.742188 163.613281 C 124.15625 163.832031 124.566406 163.992188 124.96875 164.101562 C 125.371094 164.207031 125.769531 164.261719 126.164062 164.261719 C 126.695312 164.261719 127.101562 164.171875 127.382812 163.988281 C 127.667969 163.808594 127.8125 163.554688 127.8125 163.222656 C 127.8125 162.917969 127.710938 162.6875 127.503906 162.523438 C 127.300781 162.359375 126.847656 162.203125 126.152344 162.050781 L 125.761719 161.960938 C 125.066406 161.816406 124.5625 161.589844 124.253906 161.285156 C 123.945312 160.984375 123.789062 160.566406 123.789062 160.039062 C 123.789062 159.394531 124.019531 158.898438 124.472656 158.550781 C 124.929688 158.199219 125.578125 158.023438 126.414062 158.023438 C 126.828125 158.023438 127.21875 158.054688 127.585938 158.117188 C 127.953125 158.175781 128.289062 158.269531 128.597656 158.390625 Z M 128.597656 158.390625 "/>
<path style=" stroke:none;fill-rule:nonzero;fill:rgb(0%,0%,0%);fill-opacity:1;" d="M 131.867188 156.246094 L 131.867188 158.1875 L 134.179688 158.1875 L 134.179688 159.0625 L 131.867188 159.0625 L 131.867188 162.773438 C 131.867188 163.332031 131.941406 163.6875 132.09375 163.847656 C 132.246094 164.007812 132.558594 164.085938 133.027344 164.085938 L 134.179688 164.085938 L 134.179688 165.023438 L 133.027344 165.023438 C 132.160156 165.023438 131.558594 164.863281 131.230469 164.539062 C 130.902344 164.214844 130.738281 163.628906 130.738281 162.773438 L 130.738281 159.0625 L 129.914062 159.0625 L 129.914062 158.1875 L 130.738281 158.1875 L 130.738281 156.246094 Z M 131.867188 156.246094 "/>
</g>
</svg>
