<?xml version="1.0" encoding="UTF-8"?>
<svg xmlns="http://www.w3.org/2000/svg" xmlns:xlink="http://www.w3.org/1999/xlink" width="329pt" height="231pt" viewBox="0 0 329 231" version="1.1">
<defs>
<clipPath id="clip1">
  <path d="M 124 13.75 L 126 13.75 L 126 183.625 L 124 183.625 Z M 124 13.75 "/>
</clipPath>
<clipPath id="clip2">
  <path d="M 185 13.75 L 187 13.75 L 187 183.625 L 185 183.625 Z M 185 13.75 "/>
</clipPath>
<clipPath id="clip3">
  <path d="M 246 13.75 L 248 13.75 L 248 183.625 L 246 183.625 Z M 246 13.75 "/>
</clipPath>
<clipPath id="clip4">
  <path d="M 307 13.75 L 308.347656 13.75 L 308.347656 183.625 L 307 183.625 Z M 307 13.75 "/>
</clipPath>
<clipPath id="clip5">
  <path d="M 64.222656 182 L 308.347656 182 L 308.347656 183.625 L 64.222656 183.625 Z M 64.222656 182 "/>
</clipPath>
<clipPath id="clip6">
  <path d="M 64.222656 148 L 308.347656 148 L 308.347656 151 L 64.222656 151 Z M 64.222656 148 "/>
</clipPath>
<clipPath id="clip7">
  <path d="M 64.222656 114 L 308.347656 114 L 308.347656 117 L 64.222656 117 Z M 64.222656 114 "/>
</clipPath>
<clipPath id="clip8">
  <path d="M 64.222656 80 L 308.347656 80 L 308.347656 83 L 64.222656 83 Z M 64.222656 80 "/>
</clipPath>
<clipPath id="clip9">
  <path d="M 64.222656 47 L 308.347656 47 L 308.347656 49 L 64.222656 49 Z M 64.222656 47 "/>
</clipPath>
<clipPath id="clip10">
  <path d="M 64.222656 13.75 L 308.347656 13.75 L 308.347656 15 L 64.222656 15 Z M 64.222656 13.75 "/>
</clipPath>
<clipPath id="clip11">
  <path d="M 64.222656 33 L 308.347656 33 L 308.347656 152 L 64.222656 152 Z M 64.222656 33 "/>
</clipPath>
<clipPath id="clip12">
  <path d="M 64.222656 36 L 308.347656 36 L 308.347656 146 L 64.222656 146 Z M 64.222656 36 "/>
</clipPath>
<filter id="alpha" filterUnits="objectBoundingBox" x="0%" y="0%" width="100%" height="100%">
  <feColorMatrix type="matrix" in="SourceGraphic" values="0 0 0 0 1 0 0 0 0 1 0 0 0 0 1 0 0 0 1 0"/>
</filter>
<mask id="mask0">
  <g filter="url(#alpha)">
<rect x="0" y="0" width="329" height="231" style="fill:rgb(0%,0%,0%);fill-opacity:0.8;stroke:none;"/>
  </g>
</mask>
<clipPath id="clip13">
  <rect width="329" height="231"/>
</clipPath>
<g id="surface6" clip-path="url(#clip13)">
<path style="fill-rule:nonzero;fill:rgb(100%,100%,100%);fill-opacity:1;stroke-width:1;stroke-linecap:butt;stroke-linejoin:miter;stroke:rgb(80%,80%,80%);stroke-opacity:1;stroke-miterlimit:4;" d="M 184.403125 48.35625 L 239.678125 48.35625 C 241.0125 48.35625 241.678125 47.6875 241.678125 46.35625 L 241.678125 18 C 241.678125 16.665625 241.0125 16 239.678125 16 L 184.403125 16 C 183.06875 16 182.403125 16.665625 182.403125 18 L 182.403125 46.35625 C 182.403125 47.6875 183.06875 48.35625 184.403125 48.35625 Z M 184.403125 48.35625 " transform="matrix(1.25,0,0,1.25,0,0)"/>
</g>
</defs>
<g id="surface1">
<path style=" stroke:none;fill-rule:nonzero;fill:rgb(100%,100%,100%);fill-opacity:1;" d="M 64.222656 183.625 L 308.347656 183.625 L 308.347656 13.75 L 64.222656 13.75 Z M 64.222656 183.625 "/>
<g clip-path="url(#clip1)" clip-rule="nonzero">
<path style="fill:none;stroke-width:0.8;stroke-linecap:square;stroke-linejoin:round;stroke:rgb(69.019608%,69.019608%,69.019608%);stroke-opacity:1;stroke-miterlimit:4;" d="M 99.8375 146.9 L 99.8375 11 " transform="matrix(1.25,0,0,1.25,0,0)"/>
</g>
<path style="fill:none;stroke-width:0.8;stroke-linecap:butt;stroke-linejoin:round;stroke:rgb(0%,0%,0%);stroke-opacity:1;stroke-miterlimit:4;" d="M 0.00148 0.000781 L 0.00148 3.500781 " transform="matrix(1.25,0,0,1.25,124.795025,183.624024)"/>
<path style=" stroke:none;fill-rule:nonzero;fill:rgb(0%,0%,0%);fill-opacity:1;" d="M 114.417969 200.835938 L 116.429688 200.835938 L 116.429688 193.882812 L 114.238281 194.320312 L 114.238281 193.199219 L 116.417969 192.757812 L 117.652344 192.757812 L 117.652344 200.835938 L 119.664062 200.835938 L 119.664062 201.871094 L 114.417969 201.871094 Z M 114.417969 200.835938 "/>
<path style=" stroke:none;fill-rule:nonzero;fill:rgb(0%,0%,0%);fill-opacity:1;" d="M 124.789062 193.570312 C 124.15625 193.570312 123.679688 193.882812 123.359375 194.507812 C 123.039062 195.132812 122.878906 196.070312 122.878906 197.324219 C 122.878906 198.574219 123.039062 199.511719 123.359375 200.136719 C 123.679688 200.761719 124.15625 201.074219 124.789062 201.074219 C 125.429688 201.074219 125.910156 200.761719 126.226562 200.136719 C 126.546875 199.511719 126.707031 198.574219 126.707031 197.324219 C 126.707031 196.070312 126.546875 195.132812 126.226562 194.507812 C 125.910156 193.882812 125.429688 193.570312 124.789062 193.570312 Z M 124.789062 192.59375 C 125.8125 192.59375 126.59375 193 127.132812 193.808594 C 127.671875 194.613281 127.941406 195.789062 127.941406 197.324219 C 127.941406 198.859375 127.671875 200.03125 127.132812 200.839844 C 126.59375 201.644531 125.8125 202.050781 124.789062 202.050781 C 123.769531 202.050781 122.988281 201.644531 122.449219 200.839844 C 121.910156 200.03125 121.640625 198.859375 121.640625 197.324219 C 121.640625 195.789062 121.910156 194.613281 122.449219 193.808594 C 122.988281 193 123.769531 192.59375 124.789062 192.59375 Z M 124.789062 192.59375 "/>
<path style=" stroke:none;fill-rule:nonzero;fill:rgb(0%,0%,0%);fill-opacity:1;" d="M 132.742188 193.570312 C 132.109375 193.570312 131.632812 193.882812 131.3125 194.507812 C 130.992188 195.132812 130.832031 196.070312 130.832031 197.324219 C 130.832031 198.574219 130.992188 199.511719 131.3125 200.136719 C 131.632812 200.761719 132.109375 201.074219 132.742188 201.074219 C 133.382812 201.074219 133.863281 200.761719 134.179688 200.136719 C 134.5 199.511719 134.660156 198.574219 134.660156 197.324219 C 134.660156 196.070312 134.5 195.132812 134.179688 194.507812 C 133.863281 193.882812 133.382812 193.570312 132.742188 193.570312 Z M 132.742188 192.59375 C 133.765625 192.59375 134.546875 193 135.085938 193.808594 C 135.625 194.613281 135.894531 195.789062 135.894531 197.324219 C 135.894531 198.859375 135.625 200.03125 135.085938 200.839844 C 134.546875 201.644531 133.765625 202.050781 132.742188 202.050781 C 131.722656 202.050781 130.941406 201.644531 130.402344 200.839844 C 129.863281 200.03125 129.59375 198.859375 129.59375 197.324219 C 129.59375 195.789062 129.863281 194.613281 130.402344 193.808594 C 130.941406 193 131.722656 192.59375 132.742188 192.59375 Z M 132.742188 192.59375 "/>
<g clip-path="url(#clip2)" clip-rule="nonzero">
<path style="fill:none;stroke-width:0.8;stroke-linecap:square;stroke-linejoin:round;stroke:rgb(69.019608%,69.019608%,69.019608%);stroke-opacity:1;stroke-miterlimit:4;" d="M 148.784375 146.9 L 148.784375 11 " transform="matrix(1.25,0,0,1.25,0,0)"/>
</g>
<path style="fill:none;stroke-width:0.8;stroke-linecap:butt;stroke-linejoin:round;stroke:rgb(0%,0%,0%);stroke-opacity:1;stroke-miterlimit:4;" d="M 0.000987 0.000781 L 0.000987 3.500781 " transform="matrix(1.25,0,0,1.25,185.979235,183.624024)"/>
<path style=" stroke:none;fill-rule:nonzero;fill:rgb(0%,0%,0%);fill-opacity:1;" d="M 176.449219 200.835938 L 180.75 200.835938 L 180.75 201.871094 L 174.964844 201.871094 L 174.964844 200.835938 C 175.433594 200.351562 176.070312 199.699219 176.878906 198.886719 C 177.6875 198.070312 178.195312 197.542969 178.402344 197.304688 C 178.796875 196.863281 179.070312 196.488281 179.226562 196.179688 C 179.386719 195.875 179.464844 195.570312 179.464844 195.273438 C 179.464844 194.789062 179.292969 194.394531 178.953125 194.089844 C 178.613281 193.785156 178.171875 193.632812 177.625 193.632812 C 177.238281 193.632812 176.832031 193.699219 176.402344 193.832031 C 175.972656 193.96875 175.515625 194.171875 175.027344 194.445312 L 175.027344 193.199219 C 175.523438 193 175.984375 192.847656 176.417969 192.746094 C 176.847656 192.644531 177.246094 192.59375 177.601562 192.59375 C 178.546875 192.59375 179.300781 192.832031 179.859375 193.304688 C 180.421875 193.773438 180.703125 194.40625 180.703125 195.195312 C 180.703125 195.570312 180.632812 195.925781 180.492188 196.261719 C 180.351562 196.59375 180.097656 196.992188 179.726562 197.445312 C 179.625 197.566406 179.300781 197.90625 178.753906 198.46875 C 178.210938 199.035156 177.441406 199.820312 176.449219 200.835938 Z M 176.449219 200.835938 "/>
<path style=" stroke:none;fill-rule:nonzero;fill:rgb(0%,0%,0%);fill-opacity:1;" d="M 185.976562 193.570312 C 185.339844 193.570312 184.863281 193.882812 184.542969 194.507812 C 184.222656 195.132812 184.066406 196.070312 184.066406 197.324219 C 184.066406 198.574219 184.222656 199.511719 184.542969 200.136719 C 184.863281 200.761719 185.339844 201.074219 185.976562 201.074219 C 186.613281 201.074219 187.09375 200.761719 187.414062 200.136719 C 187.734375 199.511719 187.894531 198.574219 187.894531 197.324219 C 187.894531 196.070312 187.734375 195.132812 187.414062 194.507812 C 187.09375 193.882812 186.613281 193.570312 185.976562 193.570312 Z M 185.976562 192.59375 C 186.996094 192.59375 187.777344 193 188.316406 193.808594 C 188.855469 194.613281 189.125 195.789062 189.125 197.324219 C 189.125 198.859375 188.855469 200.03125 188.316406 200.839844 C 187.777344 201.644531 186.996094 202.050781 185.976562 202.050781 C 184.953125 202.050781 184.175781 201.644531 183.636719 200.839844 C 183.097656 200.03125 182.828125 198.859375 182.828125 197.324219 C 182.828125 195.789062 183.097656 194.613281 183.636719 193.808594 C 184.175781 193 184.953125 192.59375 185.976562 192.59375 Z M 185.976562 192.59375 "/>
<path style=" stroke:none;fill-rule:nonzero;fill:rgb(0%,0%,0%);fill-opacity:1;" d="M 193.929688 193.570312 C 193.292969 193.570312 192.816406 193.882812 192.496094 194.507812 C 192.175781 195.132812 192.019531 196.070312 192.019531 197.324219 C 192.019531 198.574219 192.175781 199.511719 192.496094 200.136719 C 192.816406 200.761719 193.292969 201.074219 193.929688 201.074219 C 194.566406 201.074219 195.046875 200.761719 195.367188 200.136719 C 195.6875 199.511719 195.847656 198.574219 195.847656 197.324219 C 195.847656 196.070312 195.6875 195.132812 195.367188 194.507812 C 195.046875 193.882812 194.566406 193.570312 193.929688 193.570312 Z M 193.929688 192.59375 C 194.949219 192.59375 195.730469 193 196.269531 193.808594 C 196.808594 194.613281 197.078125 195.789062 197.078125 197.324219 C 197.078125 198.859375 196.808594 200.03125 196.269531 200.839844 C 195.730469 201.644531 194.949219 202.050781 193.929688 202.050781 C 192.90625 202.050781 192.128906 201.644531 191.589844 200.839844 C 191.050781 200.03125 190.78125 198.859375 190.78125 197.324219 C 190.78125 195.789062 191.050781 194.613281 191.589844 193.808594 C 192.128906 193 192.90625 192.59375 193.929688 192.59375 Z M 193.929688 192.59375 "/>
<g clip-path="url(#clip3)" clip-rule="nonzero">
<path style="fill:none;stroke-width:0.8;stroke-linecap:square;stroke-linejoin:round;stroke:rgb(69.019608%,69.019608%,69.019608%);stroke-opacity:1;stroke-miterlimit:4;" d="M 197.73125 146.9 L 197.73125 11 " transform="matrix(1.25,0,0,1.25,0,0)"/>
</g>
<path style="fill:none;stroke-width:0.8;stroke-linecap:butt;stroke-linejoin:round;stroke:rgb(0%,0%,0%);stroke-opacity:1;stroke-miterlimit:4;" d="M 0.000493 0.000781 L 0.000493 3.500781 " transform="matrix(1.25,0,0,1.25,247.163446,183.624024)"/>
<path style=" stroke:none;fill-rule:nonzero;fill:rgb(0%,0%,0%);fill-opacity:1;" d="M 240.304688 196.957031 C 240.894531 197.085938 241.355469 197.347656 241.6875 197.746094 C 242.019531 198.144531 242.183594 198.636719 242.183594 199.222656 C 242.183594 200.121094 241.875 200.816406 241.257812 201.3125 C 240.640625 201.804688 239.761719 202.050781 238.621094 202.050781 C 238.238281 202.050781 237.847656 202.011719 237.441406 201.9375 C 237.035156 201.859375 236.617188 201.746094 236.1875 201.597656 L 236.1875 200.40625 C 236.527344 200.605469 236.902344 200.757812 237.308594 200.859375 C 237.714844 200.960938 238.140625 201.011719 238.585938 201.011719 C 239.359375 201.011719 239.945312 200.859375 240.351562 200.554688 C 240.757812 200.25 240.957031 199.804688 240.957031 199.222656 C 240.957031 198.6875 240.769531 198.265625 240.394531 197.964844 C 240.019531 197.660156 239.496094 197.507812 238.824219 197.507812 L 237.761719 197.507812 L 237.761719 196.496094 L 238.871094 196.496094 C 239.476562 196.496094 239.941406 196.375 240.261719 196.132812 C 240.585938 195.890625 240.746094 195.539062 240.746094 195.085938 C 240.746094 194.617188 240.578125 194.257812 240.246094 194.007812 C 239.917969 193.757812 239.441406 193.632812 238.824219 193.632812 C 238.484375 193.632812 238.121094 193.667969 237.734375 193.742188 C 237.347656 193.816406 236.925781 193.929688 236.460938 194.082031 L 236.460938 192.984375 C 236.929688 192.855469 237.367188 192.757812 237.777344 192.691406 C 238.1875 192.628906 238.570312 192.59375 238.933594 192.59375 C 239.871094 192.59375 240.609375 192.808594 241.152344 193.234375 C 241.699219 193.65625 241.972656 194.230469 241.972656 194.957031 C 241.972656 195.460938 241.828125 195.886719 241.539062 196.234375 C 241.25 196.582031 240.839844 196.824219 240.304688 196.957031 Z M 240.304688 196.957031 "/>
<path style=" stroke:none;fill-rule:nonzero;fill:rgb(0%,0%,0%);fill-opacity:1;" d="M 247.160156 193.570312 C 246.523438 193.570312 246.046875 193.882812 245.726562 194.507812 C 245.410156 195.132812 245.25 196.070312 245.25 197.324219 C 245.25 198.574219 245.410156 199.511719 245.726562 200.136719 C 246.046875 200.761719 246.523438 201.074219 247.160156 201.074219 C 247.796875 201.074219 248.277344 200.761719 248.597656 200.136719 C 248.917969 199.511719 249.078125 198.574219 249.078125 197.324219 C 249.078125 196.070312 248.917969 195.132812 248.597656 194.507812 C 248.277344 193.882812 247.796875 193.570312 247.160156 193.570312 Z M 247.160156 192.59375 C 248.179688 192.59375 248.960938 193 249.5 193.808594 C 250.039062 194.613281 250.308594 195.789062 250.308594 197.324219 C 250.308594 198.859375 250.039062 200.03125 249.5 200.839844 C 248.960938 201.644531 248.179688 202.050781 247.160156 202.050781 C 246.136719 202.050781 245.359375 201.644531 244.820312 200.839844 C 244.28125 200.03125 244.011719 198.859375 244.011719 197.324219 C 244.011719 195.789062 244.28125 194.613281 244.820312 193.808594 C 245.359375 193 246.136719 192.59375 247.160156 192.59375 Z M 247.160156 192.59375 "/>
<path style=" stroke:none;fill-rule:nonzero;fill:rgb(0%,0%,0%);fill-opacity:1;" d="M 255.113281 193.570312 C 254.476562 193.570312 254 193.882812 253.679688 194.507812 C 253.363281 195.132812 253.203125 196.070312 253.203125 197.324219 C 253.203125 198.574219 253.363281 199.511719 253.679688 200.136719 C 254 200.761719 254.476562 201.074219 255.113281 201.074219 C 255.75 201.074219 256.230469 200.761719 256.550781 200.136719 C 256.871094 199.511719 257.03125 198.574219 257.03125 197.324219 C 257.03125 196.070312 256.871094 195.132812 256.550781 194.507812 C 256.230469 193.882812 255.75 193.570312 255.113281 193.570312 Z M 255.113281 192.59375 C 256.132812 192.59375 256.914062 193 257.453125 193.808594 C 257.992188 194.613281 258.261719 195.789062 258.261719 197.324219 C 258.261719 198.859375 257.992188 200.03125 257.453125 200.839844 C 256.914062 201.644531 256.132812 202.050781 255.113281 202.050781 C 254.089844 202.050781 253.3125 201.644531 252.773438 200.839844 C 252.234375 200.03125 251.964844 198.859375 251.964844 197.324219 C 251.964844 195.789062 252.234375 194.613281 252.773438 193.808594 C 253.3125 193 254.089844 192.59375 255.113281 192.59375 Z M 255.113281 192.59375 "/>
<g clip-path="url(#clip4)" clip-rule="nonzero">
<path style="fill:none;stroke-width:0.8;stroke-linecap:square;stroke-linejoin:round;stroke:rgb(69.019608%,69.019608%,69.019608%);stroke-opacity:1;stroke-miterlimit:4;" d="M 246.678125 146.9 L 246.678125 11 " transform="matrix(1.25,0,0,1.25,0,0)"/>
</g>
<path style="fill:none;stroke-width:0.8;stroke-linecap:butt;stroke-linejoin:round;stroke:rgb(0%,0%,0%);stroke-opacity:1;stroke-miterlimit:4;" d="M 0 0.000781 L 0 3.500781 " transform="matrix(1.25,0,0,1.25,308.347656,183.624024)"/>
<path style=" stroke:none;fill-rule:nonzero;fill:rgb(0%,0%,0%);fill-opacity:1;" d="M 301.140625 193.832031 L 298.03125 198.699219 L 301.140625 198.699219 Z M 300.820312 192.757812 L 302.367188 192.757812 L 302.367188 198.699219 L 303.671875 198.699219 L 303.671875 199.722656 L 302.367188 199.722656 L 302.367188 201.871094 L 301.140625 201.871094 L 301.140625 199.722656 L 297.03125 199.722656 L 297.03125 198.535156 Z M 300.820312 192.757812 "/>
<path style=" stroke:none;fill-rule:nonzero;fill:rgb(0%,0%,0%);fill-opacity:1;" d="M 308.34375 193.570312 C 307.710938 193.570312 307.230469 193.882812 306.910156 194.507812 C 306.59375 195.132812 306.433594 196.070312 306.433594 197.324219 C 306.433594 198.574219 306.59375 199.511719 306.910156 200.136719 C 307.230469 200.761719 307.710938 201.074219 308.34375 201.074219 C 308.984375 201.074219 309.460938 200.761719 309.78125 200.136719 C 310.101562 199.511719 310.261719 198.574219 310.261719 197.324219 C 310.261719 196.070312 310.101562 195.132812 309.78125 194.507812 C 309.460938 193.882812 308.984375 193.570312 308.34375 193.570312 Z M 308.34375 192.59375 C 309.367188 192.59375 310.144531 193 310.683594 193.808594 C 311.222656 194.613281 311.492188 195.789062 311.492188 197.324219 C 311.492188 198.859375 311.222656 200.03125 310.683594 200.839844 C 310.144531 201.644531 309.367188 202.050781 308.34375 202.050781 C 307.324219 202.050781 306.542969 201.644531 306.003906 200.839844 C 305.464844 200.03125 305.195312 198.859375 305.195312 197.324219 C 305.195312 195.789062 305.464844 194.613281 306.003906 193.808594 C 306.542969 193 307.324219 192.59375 308.34375 192.59375 Z M 308.34375 192.59375 "/>
<path style=" stroke:none;fill-rule:nonzero;fill:rgb(0%,0%,0%);fill-opacity:1;" d="M 316.296875 193.570312 C 315.664062 193.570312 315.183594 193.882812 314.863281 194.507812 C 314.546875 195.132812 314.386719 196.070312 314.386719 197.324219 C 314.386719 198.574219 314.546875 199.511719 314.863281 200.136719 C 315.183594 200.761719 315.664062 201.074219 316.296875 201.074219 C 316.9375 201.074219 317.414062 200.761719 317.734375 200.136719 C 318.054688 199.511719 318.214844 198.574219 318.214844 197.324219 C 318.214844 196.070312 318.054688 195.132812 317.734375 194.507812 C 317.414062 193.882812 316.9375 193.570312 316.296875 193.570312 Z M 316.296875 192.59375 C 317.320312 192.59375 318.097656 193 318.636719 193.808594 C 319.175781 194.613281 319.445312 195.789062 319.445312 197.324219 C 319.445312 198.859375 319.175781 200.03125 318.636719 200.839844 C 318.097656 201.644531 317.320312 202.050781 316.296875 202.050781 C 315.277344 202.050781 314.496094 201.644531 313.957031 200.839844 C 313.417969 200.03125 313.148438 198.859375 313.148438 197.324219 C 313.148438 195.789062 313.417969 194.613281 313.957031 193.808594 C 314.496094 193 315.277344 192.59375 316.296875 192.59375 Z M 316.296875 192.59375 "/>
<path style=" stroke:none;fill-rule:nonzero;fill:rgb(0%,0%,0%);fill-opacity:1;" d="M 174.273438 215.269531 L 174.273438 215.820312 L 169.109375 215.820312 C 169.160156 216.59375 169.394531 217.183594 169.8125 217.585938 C 170.226562 217.992188 170.808594 218.195312 171.554688 218.195312 C 171.984375 218.195312 172.402344 218.140625 172.804688 218.035156 C 173.210938 217.929688 173.613281 217.773438 174.015625 217.558594 L 174.015625 218.621094 C 173.609375 218.792969 173.195312 218.921875 172.773438 219.011719 C 172.351562 219.101562 171.921875 219.148438 171.484375 219.148438 C 170.394531 219.148438 169.53125 218.832031 168.894531 218.195312 C 168.257812 217.5625 167.9375 216.703125 167.9375 215.617188 C 167.9375 214.5 168.242188 213.613281 168.84375 212.957031 C 169.449219 212.296875 170.265625 211.96875 171.289062 211.96875 C 172.210938 211.96875 172.9375 212.265625 173.472656 212.859375 C 174.007812 213.449219 174.273438 214.253906 174.273438 215.269531 Z M 173.152344 214.941406 C 173.144531 214.328125 172.972656 213.835938 172.636719 213.472656 C 172.300781 213.105469 171.855469 212.921875 171.304688 212.921875 C 170.675781 212.921875 170.175781 213.097656 169.796875 213.453125 C 169.421875 213.804688 169.207031 214.304688 169.148438 214.949219 Z M 173.152344 214.941406 "/>
<path style=" stroke:none;fill-rule:nonzero;fill:rgb(0%,0%,0%);fill-opacity:1;" d="M 177.203125 217.945312 L 177.203125 221.570312 L 176.074219 221.570312 L 176.074219 212.132812 L 177.203125 212.132812 L 177.203125 213.171875 C 177.441406 212.765625 177.738281 212.464844 178.097656 212.265625 C 178.460938 212.070312 178.890625 211.96875 179.390625 211.96875 C 180.21875 211.96875 180.894531 212.300781 181.414062 212.957031 C 181.933594 213.617188 182.191406 214.484375 182.191406 215.558594 C 182.191406 216.632812 181.933594 217.5 181.414062 218.160156 C 180.894531 218.816406 180.21875 219.148438 179.390625 219.148438 C 178.890625 219.148438 178.460938 219.046875 178.097656 218.851562 C 177.738281 218.652344 177.441406 218.351562 177.203125 217.945312 Z M 181.027344 215.558594 C 181.027344 214.730469 180.855469 214.085938 180.515625 213.613281 C 180.175781 213.144531 179.710938 212.910156 179.117188 212.910156 C 178.519531 212.910156 178.054688 213.144531 177.714844 213.613281 C 177.375 214.085938 177.203125 214.730469 177.203125 215.558594 C 177.203125 216.382812 177.375 217.03125 177.714844 217.5 C 178.054688 217.972656 178.519531 218.207031 179.117188 218.207031 C 179.710938 218.207031 180.175781 217.972656 180.515625 217.5 C 180.855469 217.03125 181.027344 216.382812 181.027344 215.558594 Z M 181.027344 215.558594 "/>
<path style=" stroke:none;fill-rule:nonzero;fill:rgb(0%,0%,0%);fill-opacity:1;" d="M 186.703125 212.921875 C 186.101562 212.921875 185.625 213.15625 185.273438 213.625 C 184.921875 214.097656 184.75 214.738281 184.75 215.558594 C 184.75 216.375 184.921875 217.019531 185.269531 217.488281 C 185.617188 217.960938 186.09375 218.195312 186.703125 218.195312 C 187.300781 218.195312 187.773438 217.957031 188.125 217.488281 C 188.472656 217.015625 188.648438 216.371094 188.648438 215.558594 C 188.648438 214.746094 188.472656 214.105469 188.125 213.632812 C 187.773438 213.15625 187.300781 212.921875 186.703125 212.921875 Z M 186.703125 211.96875 C 187.679688 211.96875 188.445312 212.289062 189 212.921875 C 189.5625 213.558594 189.839844 214.433594 189.839844 215.558594 C 189.839844 216.675781 189.5625 217.554688 189 218.191406 C 188.445312 218.828125 187.679688 219.148438 186.703125 219.148438 C 185.71875 219.148438 184.953125 218.828125 184.398438 218.191406 C 183.84375 217.554688 183.5625 216.675781 183.5625 215.558594 C 183.5625 214.433594 183.84375 213.558594 184.398438 212.921875 C 184.953125 212.289062 185.71875 211.96875 186.703125 211.96875 Z M 186.703125 211.96875 "/>
<path style=" stroke:none;fill-rule:nonzero;fill:rgb(0%,0%,0%);fill-opacity:1;" d="M 196.621094 212.394531 L 196.621094 213.445312 C 196.300781 213.269531 195.984375 213.140625 195.664062 213.050781 C 195.347656 212.964844 195.023438 212.921875 194.699219 212.921875 C 193.96875 212.921875 193.402344 213.152344 193 213.613281 C 192.597656 214.074219 192.394531 214.722656 192.394531 215.558594 C 192.394531 216.390625 192.597656 217.039062 193 217.503906 C 193.402344 217.964844 193.96875 218.195312 194.699219 218.195312 C 195.023438 218.195312 195.347656 218.152344 195.664062 218.0625 C 195.984375 217.976562 196.300781 217.84375 196.621094 217.667969 L 196.621094 218.707031 C 196.304688 218.855469 195.980469 218.964844 195.644531 219.035156 C 195.3125 219.109375 194.953125 219.148438 194.574219 219.148438 C 193.546875 219.148438 192.726562 218.824219 192.121094 218.175781 C 191.515625 217.53125 191.210938 216.65625 191.210938 215.558594 C 191.210938 214.441406 191.519531 213.566406 192.128906 212.929688 C 192.742188 212.289062 193.582031 211.96875 194.648438 211.96875 C 194.996094 211.96875 195.332031 212.003906 195.660156 212.078125 C 195.992188 212.148438 196.308594 212.253906 196.621094 212.394531 Z M 196.621094 212.394531 "/>
<path style=" stroke:none;fill-rule:nonzero;fill:rgb(0%,0%,0%);fill-opacity:1;" d="M 204.257812 214.84375 L 204.257812 218.96875 L 203.132812 218.96875 L 203.132812 214.878906 C 203.132812 214.234375 203.007812 213.75 202.753906 213.429688 C 202.503906 213.105469 202.125 212.945312 201.621094 212.945312 C 201.011719 212.945312 200.535156 213.140625 200.183594 213.527344 C 199.835938 213.910156 199.660156 214.4375 199.660156 215.105469 L 199.660156 218.96875 L 198.53125 218.96875 L 198.53125 209.472656 L 199.660156 209.472656 L 199.660156 213.195312 C 199.929688 212.785156 200.246094 212.476562 200.609375 212.273438 C 200.972656 212.070312 201.394531 211.96875 201.871094 211.96875 C 202.65625 211.96875 203.25 212.210938 203.652344 212.699219 C 204.054688 213.183594 204.257812 213.898438 204.257812 214.84375 Z M 204.257812 214.84375 "/>
<g clip-path="url(#clip5)" clip-rule="nonzero">
<path style="fill:none;stroke-width:0.8;stroke-linecap:square;stroke-linejoin:round;stroke:rgb(69.019608%,69.019608%,69.019608%);stroke-opacity:1;stroke-miterlimit:4;" d="M 51.378125 146.9 L 246.678125 146.9 " transform="matrix(1.25,0,0,1.25,0,0)"/>
</g>
<path style="fill:none;stroke-width:0.8;stroke-linecap:butt;stroke-linejoin:round;stroke:rgb(0%,0%,0%);stroke-opacity:1;stroke-miterlimit:4;" d="M 0 0.000781 L -3.5 0.000781 " transform="matrix(1.25,0,0,1.25,64.222656,183.624024)"/>
<path style=" stroke:none;fill-rule:nonzero;fill:rgb(0%,0%,0%);fill-opacity:1;" d="M 27.648438 187.242188 L 29.664062 187.242188 L 29.664062 180.289062 L 27.46875 180.726562 L 27.46875 179.605469 L 29.648438 179.164062 L 30.882812 179.164062 L 30.882812 187.242188 L 32.898438 187.242188 L 32.898438 188.277344 L 27.648438 188.277344 Z M 27.648438 187.242188 "/>
<path style=" stroke:none;fill-rule:nonzero;fill:rgb(0%,0%,0%);fill-opacity:1;" d="M 38.023438 179.976562 C 37.390625 179.976562 36.910156 180.289062 36.589844 180.914062 C 36.273438 181.539062 36.113281 182.476562 36.113281 183.730469 C 36.113281 184.980469 36.273438 185.917969 36.589844 186.542969 C 36.910156 187.167969 37.390625 187.480469 38.023438 187.480469 C 38.664062 187.480469 39.140625 187.167969 39.460938 186.542969 C 39.78125 185.917969 39.941406 184.980469 39.941406 183.730469 C 39.941406 182.476562 39.78125 181.539062 39.460938 180.914062 C 39.140625 180.289062 38.664062 179.976562 38.023438 179.976562 Z M 38.023438 179 C 39.046875 179 39.824219 179.40625 40.363281 180.214844 C 40.902344 181.019531 41.171875 182.191406 41.171875 183.730469 C 41.171875 185.265625 40.902344 186.4375 40.363281 187.246094 C 39.824219 188.050781 39.046875 188.457031 38.023438 188.457031 C 37.003906 188.457031 36.222656 188.050781 35.683594 187.246094 C 35.144531 186.4375 34.875 185.265625 34.875 183.730469 C 34.875 182.191406 35.144531 181.019531 35.683594 180.214844 C 36.222656 179.40625 37.003906 179 38.023438 179 Z M 38.023438 179 "/>
<path style=" stroke:none;fill-rule:nonzero;fill:rgb(0%,0%,0%);fill-opacity:1;" d="M 43.050781 180.386719 L 48.527344 180.386719 L 48.527344 181.113281 L 43.050781 181.113281 Z M 43.050781 180.386719 "/>
<path style=" stroke:none;fill-rule:nonzero;fill:rgb(0%,0%,0%);fill-opacity:1;" d="M 53.003906 180.050781 C 53.417969 180.140625 53.742188 180.324219 53.972656 180.605469 C 54.203125 180.882812 54.320312 181.226562 54.320312 181.636719 C 54.320312 182.265625 54.105469 182.753906 53.671875 183.101562 C 53.238281 183.445312 52.621094 183.617188 51.824219 183.617188 C 51.558594 183.617188 51.28125 183.589844 51 183.539062 C 50.714844 183.484375 50.421875 183.40625 50.121094 183.300781 L 50.121094 182.46875 C 50.359375 182.605469 50.621094 182.710938 50.90625 182.78125 C 51.191406 182.855469 51.488281 182.890625 51.800781 182.890625 C 52.339844 182.890625 52.753906 182.78125 53.035156 182.570312 C 53.320312 182.355469 53.460938 182.046875 53.460938 181.636719 C 53.460938 181.261719 53.332031 180.96875 53.066406 180.757812 C 52.804688 180.542969 52.4375 180.4375 51.96875 180.4375 L 51.222656 180.4375 L 51.222656 179.726562 L 52 179.726562 C 52.425781 179.726562 52.75 179.644531 52.976562 179.472656 C 53.199219 179.304688 53.3125 179.058594 53.3125 178.742188 C 53.3125 178.414062 53.195312 178.164062 52.964844 177.988281 C 52.734375 177.8125 52.402344 177.722656 51.96875 177.722656 C 51.730469 177.722656 51.476562 177.75 51.207031 177.800781 C 50.933594 177.851562 50.636719 177.933594 50.3125 178.039062 L 50.3125 177.273438 C 50.640625 177.179688 50.949219 177.113281 51.234375 177.066406 C 51.519531 177.019531 51.789062 177 52.042969 177 C 52.699219 177 53.21875 177.148438 53.597656 177.445312 C 53.980469 177.742188 54.171875 178.144531 54.171875 178.652344 C 54.171875 179.003906 54.070312 179.304688 53.867188 179.546875 C 53.664062 179.789062 53.378906 179.957031 53.003906 180.050781 Z M 53.003906 180.050781 "/>
<g clip-path="url(#clip6)" clip-rule="nonzero">
<path style="fill:none;stroke-width:0.8;stroke-linecap:square;stroke-linejoin:round;stroke:rgb(69.019608%,69.019608%,69.019608%);stroke-opacity:1;stroke-miterlimit:4;" d="M 51.378125 119.71875 L 246.678125 119.71875 " transform="matrix(1.25,0,0,1.25,0,0)"/>
</g>
<path style="fill:none;stroke-width:0.8;stroke-linecap:butt;stroke-linejoin:round;stroke:rgb(0%,0%,0%);stroke-opacity:1;stroke-miterlimit:4;" d="M 0 -0.000469 L -3.5 -0.000469 " transform="matrix(1.25,0,0,1.25,64.222656,149.649024)"/>
<path style=" stroke:none;fill-rule:nonzero;fill:rgb(0%,0%,0%);fill-opacity:1;" d="M 27.648438 153.265625 L 29.664062 153.265625 L 29.664062 146.3125 L 27.46875 146.75 L 27.46875 145.628906 L 29.648438 145.1875 L 30.882812 145.1875 L 30.882812 153.265625 L 32.898438 153.265625 L 32.898438 154.300781 L 27.648438 154.300781 Z M 27.648438 153.265625 "/>
<path style=" stroke:none;fill-rule:nonzero;fill:rgb(0%,0%,0%);fill-opacity:1;" d="M 38.023438 146 C 37.390625 146 36.910156 146.3125 36.589844 146.9375 C 36.273438 147.5625 36.113281 148.5 36.113281 149.753906 C 36.113281 151.003906 36.273438 151.941406 36.589844 152.566406 C 36.910156 153.191406 37.390625 153.503906 38.023438 153.503906 C 38.664062 153.503906 39.140625 153.191406 39.460938 152.566406 C 39.78125 151.941406 39.941406 151.003906 39.941406 149.753906 C 39.941406 148.5 39.78125 147.5625 39.460938 146.9375 C 39.140625 146.3125 38.664062 146 38.023438 146 Z M 38.023438 145.023438 C 39.046875 145.023438 39.824219 145.429688 40.363281 146.238281 C 40.902344 147.046875 41.171875 148.21875 41.171875 149.753906 C 41.171875 151.289062 40.902344 152.460938 40.363281 153.269531 C 39.824219 154.078125 39.046875 154.480469 38.023438 154.480469 C 37.003906 154.480469 36.222656 154.078125 35.683594 153.269531 C 35.144531 152.460938 34.875 151.289062 34.875 149.753906 C 34.875 148.21875 35.144531 147.046875 35.683594 146.238281 C 36.222656 145.429688 37.003906 145.023438 38.023438 145.023438 Z M 38.023438 145.023438 "/>
<path style=" stroke:none;fill-rule:nonzero;fill:rgb(0%,0%,0%);fill-opacity:1;" d="M 43.050781 146.410156 L 48.527344 146.410156 L 48.527344 147.136719 L 43.050781 147.136719 Z M 43.050781 146.410156 "/>
<path style=" stroke:none;fill-rule:nonzero;fill:rgb(0%,0%,0%);fill-opacity:1;" d="M 51.132812 148.792969 L 54.144531 148.792969 L 54.144531 149.515625 L 50.097656 149.515625 L 50.097656 148.792969 C 50.421875 148.453125 50.871094 147.996094 51.433594 147.425781 C 52 146.855469 52.355469 146.488281 52.5 146.320312 C 52.777344 146.011719 52.96875 145.75 53.078125 145.535156 C 53.1875 145.316406 53.246094 145.105469 53.246094 144.898438 C 53.246094 144.558594 53.125 144.285156 52.886719 144.070312 C 52.648438 143.855469 52.339844 143.75 51.957031 143.75 C 51.6875 143.75 51.402344 143.796875 51.101562 143.890625 C 50.800781 143.984375 50.480469 144.125 50.136719 144.316406 L 50.136719 143.445312 C 50.484375 143.304688 50.808594 143.199219 51.113281 143.128906 C 51.414062 143.058594 51.691406 143.023438 51.941406 143.023438 C 52.601562 143.023438 53.128906 143.1875 53.523438 143.519531 C 53.914062 143.847656 54.109375 144.289062 54.109375 144.84375 C 54.109375 145.105469 54.0625 145.355469 53.964844 145.589844 C 53.867188 145.824219 53.6875 146.101562 53.425781 146.417969 C 53.355469 146.503906 53.128906 146.742188 52.75 147.136719 C 52.367188 147.53125 51.828125 148.082031 51.132812 148.792969 Z M 51.132812 148.792969 "/>
<g clip-path="url(#clip7)" clip-rule="nonzero">
<path style="fill:none;stroke-width:0.8;stroke-linecap:square;stroke-linejoin:round;stroke:rgb(69.019608%,69.019608%,69.019608%);stroke-opacity:1;stroke-miterlimit:4;" d="M 51.378125 92.540625 L 246.678125 92.540625 " transform="matrix(1.25,0,0,1.25,0,0)"/>
</g>
<path style="fill:none;stroke-width:0.8;stroke-linecap:butt;stroke-linejoin:round;stroke:rgb(0%,0%,0%);stroke-opacity:1;stroke-miterlimit:4;" d="M 0 0.001406 L -3.5 0.001406 " transform="matrix(1.25,0,0,1.25,64.222656,115.674024)"/>
<path style=" stroke:none;fill-rule:nonzero;fill:rgb(0%,0%,0%);fill-opacity:1;" d="M 27.648438 119.300781 L 29.664062 119.300781 L 29.664062 112.347656 L 27.46875 112.785156 L 27.46875 111.664062 L 29.648438 111.222656 L 30.882812 111.222656 L 30.882812 119.300781 L 32.898438 119.300781 L 32.898438 120.335938 L 27.648438 120.335938 Z M 27.648438 119.300781 "/>
<path style=" stroke:none;fill-rule:nonzero;fill:rgb(0%,0%,0%);fill-opacity:1;" d="M 38.023438 112.035156 C 37.390625 112.035156 36.910156 112.347656 36.589844 112.972656 C 36.273438 113.597656 36.113281 114.535156 36.113281 115.789062 C 36.113281 117.039062 36.273438 117.976562 36.589844 118.601562 C 36.910156 119.226562 37.390625 119.539062 38.023438 119.539062 C 38.664062 119.539062 39.140625 119.226562 39.460938 118.601562 C 39.78125 117.976562 39.941406 117.039062 39.941406 115.789062 C 39.941406 114.535156 39.78125 113.597656 39.460938 112.972656 C 39.140625 112.347656 38.664062 112.035156 38.023438 112.035156 Z M 38.023438 111.058594 C 39.046875 111.058594 39.824219 111.464844 40.363281 112.273438 C 40.902344 113.082031 41.171875 114.253906 41.171875 115.789062 C 41.171875 117.324219 40.902344 118.496094 40.363281 119.304688 C 39.824219 120.113281 39.046875 120.515625 38.023438 120.515625 C 37.003906 120.515625 36.222656 120.113281 35.683594 119.304688 C 35.144531 118.496094 34.875 117.324219 34.875 115.789062 C 34.875 114.253906 35.144531 113.082031 35.683594 112.273438 C 36.222656 111.464844 37.003906 111.058594 38.023438 111.058594 Z M 38.023438 111.058594 "/>
<path style=" stroke:none;fill-rule:nonzero;fill:rgb(0%,0%,0%);fill-opacity:1;" d="M 43.050781 112.445312 L 48.527344 112.445312 L 48.527344 113.171875 L 43.050781 113.171875 Z M 43.050781 112.445312 "/>
<path style=" stroke:none;fill-rule:nonzero;fill:rgb(0%,0%,0%);fill-opacity:1;" d="M 50.539062 114.828125 L 51.949219 114.828125 L 51.949219 109.960938 L 50.414062 110.265625 L 50.414062 109.480469 L 51.941406 109.171875 L 52.804688 109.171875 L 52.804688 114.828125 L 54.214844 114.828125 L 54.214844 115.550781 L 50.539062 115.550781 Z M 50.539062 114.828125 "/>
<g clip-path="url(#clip8)" clip-rule="nonzero">
<path style="fill:none;stroke-width:0.8;stroke-linecap:square;stroke-linejoin:round;stroke:rgb(69.019608%,69.019608%,69.019608%);stroke-opacity:1;stroke-miterlimit:4;" d="M 51.378125 65.359375 L 246.678125 65.359375 " transform="matrix(1.25,0,0,1.25,0,0)"/>
</g>
<path style="fill:none;stroke-width:0.8;stroke-linecap:butt;stroke-linejoin:round;stroke:rgb(0%,0%,0%);stroke-opacity:1;stroke-miterlimit:4;" d="M 0 0.000156 L -3.5 0.000156 " transform="matrix(1.25,0,0,1.25,64.222656,81.699024)"/>
<path style=" stroke:none;fill-rule:nonzero;fill:rgb(0%,0%,0%);fill-opacity:1;" d="M 35.023438 85.316406 L 37.039062 85.316406 L 37.039062 78.363281 L 34.84375 78.800781 L 34.84375 77.679688 L 37.023438 77.238281 L 38.257812 77.238281 L 38.257812 85.316406 L 40.273438 85.316406 L 40.273438 86.351562 L 35.023438 86.351562 Z M 35.023438 85.316406 "/>
<path style=" stroke:none;fill-rule:nonzero;fill:rgb(0%,0%,0%);fill-opacity:1;" d="M 45.398438 78.050781 C 44.765625 78.050781 44.285156 78.363281 43.964844 78.988281 C 43.648438 79.613281 43.488281 80.550781 43.488281 81.804688 C 43.488281 83.054688 43.648438 83.992188 43.964844 84.617188 C 44.285156 85.242188 44.765625 85.554688 45.398438 85.554688 C 46.039062 85.554688 46.515625 85.242188 46.835938 84.617188 C 47.15625 83.992188 47.316406 83.054688 47.316406 81.804688 C 47.316406 80.550781 47.15625 79.613281 46.835938 78.988281 C 46.515625 78.363281 46.039062 78.050781 45.398438 78.050781 Z M 45.398438 77.074219 C 46.421875 77.074219 47.199219 77.480469 47.738281 78.289062 C 48.277344 79.09375 48.546875 80.269531 48.546875 81.804688 C 48.546875 83.339844 48.277344 84.511719 47.738281 85.320312 C 47.199219 86.125 46.421875 86.53125 45.398438 86.53125 C 44.378906 86.53125 43.597656 86.125 43.058594 85.320312 C 42.519531 84.511719 42.25 83.339844 42.25 81.804688 C 42.25 80.269531 42.519531 79.09375 43.058594 78.289062 C 43.597656 77.480469 44.378906 77.074219 45.398438 77.074219 Z M 45.398438 77.074219 "/>
<path style=" stroke:none;fill-rule:nonzero;fill:rgb(0%,0%,0%);fill-opacity:1;" d="M 52.277344 75.757812 C 51.835938 75.757812 51.5 75.976562 51.277344 76.414062 C 51.054688 76.847656 50.941406 77.507812 50.941406 78.382812 C 50.941406 79.257812 51.054688 79.914062 51.277344 80.351562 C 51.5 80.789062 51.835938 81.007812 52.277344 81.007812 C 52.726562 81.007812 53.0625 80.789062 53.285156 80.351562 C 53.507812 79.914062 53.621094 79.257812 53.621094 78.382812 C 53.621094 77.507812 53.507812 76.847656 53.285156 76.414062 C 53.0625 75.976562 52.726562 75.757812 52.277344 75.757812 Z M 52.277344 75.074219 C 52.996094 75.074219 53.539062 75.355469 53.917969 75.921875 C 54.296875 76.488281 54.484375 77.308594 54.484375 78.382812 C 54.484375 79.457031 54.296875 80.277344 53.917969 80.84375 C 53.539062 81.410156 52.996094 81.691406 52.277344 81.691406 C 51.5625 81.691406 51.019531 81.410156 50.640625 80.84375 C 50.265625 80.277344 50.074219 79.457031 50.074219 78.382812 C 50.074219 77.308594 50.265625 76.488281 50.640625 75.921875 C 51.019531 75.355469 51.5625 75.074219 52.277344 75.074219 Z M 52.277344 75.074219 "/>
<g clip-path="url(#clip9)" clip-rule="nonzero">
<path style="fill:none;stroke-width:0.8;stroke-linecap:square;stroke-linejoin:round;stroke:rgb(69.019608%,69.019608%,69.019608%);stroke-opacity:1;stroke-miterlimit:4;" d="M 51.378125 38.178125 L 246.678125 38.178125 " transform="matrix(1.25,0,0,1.25,0,0)"/>
</g>
<path style="fill:none;stroke-width:0.8;stroke-linecap:butt;stroke-linejoin:round;stroke:rgb(0%,0%,0%);stroke-opacity:1;stroke-miterlimit:4;" d="M 0 -0.001094 L -3.5 -0.001094 " transform="matrix(1.25,0,0,1.25,64.222656,47.724024)"/>
<path style=" stroke:none;fill-rule:nonzero;fill:rgb(0%,0%,0%);fill-opacity:1;" d="M 35.023438 51.351562 L 37.039062 51.351562 L 37.039062 44.398438 L 34.84375 44.835938 L 34.84375 43.714844 L 37.023438 43.273438 L 38.257812 43.273438 L 38.257812 51.351562 L 40.273438 51.351562 L 40.273438 52.386719 L 35.023438 52.386719 Z M 35.023438 51.351562 "/>
<path style=" stroke:none;fill-rule:nonzero;fill:rgb(0%,0%,0%);fill-opacity:1;" d="M 45.398438 44.085938 C 44.765625 44.085938 44.285156 44.398438 43.964844 45.023438 C 43.648438 45.648438 43.488281 46.585938 43.488281 47.839844 C 43.488281 49.089844 43.648438 50.027344 43.964844 50.652344 C 44.285156 51.277344 44.765625 51.589844 45.398438 51.589844 C 46.039062 51.589844 46.515625 51.277344 46.835938 50.652344 C 47.15625 50.027344 47.316406 49.089844 47.316406 47.839844 C 47.316406 46.585938 47.15625 45.648438 46.835938 45.023438 C 46.515625 44.398438 46.039062 44.085938 45.398438 44.085938 Z M 45.398438 43.109375 C 46.421875 43.109375 47.199219 43.515625 47.738281 44.324219 C 48.277344 45.128906 48.546875 46.304688 48.546875 47.839844 C 48.546875 49.375 48.277344 50.546875 47.738281 51.355469 C 47.199219 52.160156 46.421875 52.566406 45.398438 52.566406 C 44.378906 52.566406 43.597656 52.160156 43.058594 51.355469 C 42.519531 50.546875 42.25 49.375 42.25 47.839844 C 42.25 46.304688 42.519531 45.128906 43.058594 44.324219 C 43.597656 43.515625 44.378906 43.109375 45.398438 43.109375 Z M 45.398438 43.109375 "/>
<path style=" stroke:none;fill-rule:nonzero;fill:rgb(0%,0%,0%);fill-opacity:1;" d="M 50.582031 46.875 L 51.992188 46.875 L 51.992188 42.007812 L 50.460938 42.316406 L 50.460938 41.53125 L 51.984375 41.222656 L 52.847656 41.222656 L 52.847656 46.875 L 54.257812 46.875 L 54.257812 47.601562 L 50.582031 47.601562 Z M 50.582031 46.875 "/>
<g clip-path="url(#clip10)" clip-rule="nonzero">
<path style="fill:none;stroke-width:0.8;stroke-linecap:square;stroke-linejoin:round;stroke:rgb(69.019608%,69.019608%,69.019608%);stroke-opacity:1;stroke-miterlimit:4;" d="M 51.378125 11 L 246.678125 11 " transform="matrix(1.25,0,0,1.25,0,0)"/>
</g>
<path style="fill:none;stroke-width:0.8;stroke-linecap:butt;stroke-linejoin:round;stroke:rgb(0%,0%,0%);stroke-opacity:1;stroke-miterlimit:4;" d="M 0 0.000781 L -3.5 0.000781 " transform="matrix(1.25,0,0,1.25,64.222656,13.749024)"/>
<path style=" stroke:none;fill-rule:nonzero;fill:rgb(0%,0%,0%);fill-opacity:1;" d="M 35.023438 17.363281 L 37.039062 17.363281 L 37.039062 10.410156 L 34.84375 10.851562 L 34.84375 9.726562 L 37.023438 9.289062 L 38.257812 9.289062 L 38.257812 17.363281 L 40.273438 17.363281 L 40.273438 18.402344 L 35.023438 18.402344 Z M 35.023438 17.363281 "/>
<path style=" stroke:none;fill-rule:nonzero;fill:rgb(0%,0%,0%);fill-opacity:1;" d="M 45.398438 10.101562 C 44.765625 10.101562 44.285156 10.414062 43.964844 11.039062 C 43.648438 11.664062 43.488281 12.601562 43.488281 13.855469 C 43.488281 15.105469 43.648438 16.039062 43.964844 16.664062 C 44.285156 17.289062 44.765625 17.601562 45.398438 17.601562 C 46.039062 17.601562 46.515625 17.289062 46.835938 16.664062 C 47.15625 16.039062 47.316406 15.105469 47.316406 13.855469 C 47.316406 12.601562 47.15625 11.664062 46.835938 11.039062 C 46.515625 10.414062 46.039062 10.101562 45.398438 10.101562 Z M 45.398438 9.125 C 46.421875 9.125 47.199219 9.527344 47.738281 10.335938 C 48.277344 11.144531 48.546875 12.316406 48.546875 13.855469 C 48.546875 15.390625 48.277344 16.558594 47.738281 17.367188 C 47.199219 18.175781 46.421875 18.578125 45.398438 18.578125 C 44.378906 18.578125 43.597656 18.175781 43.058594 17.367188 C 42.519531 16.558594 42.25 15.390625 42.25 13.855469 C 42.25 12.316406 42.519531 11.144531 43.058594 10.335938 C 43.597656 9.527344 44.378906 9.125 45.398438 9.125 Z M 45.398438 9.125 "/>
<path style=" stroke:none;fill-rule:nonzero;fill:rgb(0%,0%,0%);fill-opacity:1;" d="M 51.175781 12.890625 L 54.1875 12.890625 L 54.1875 13.617188 L 50.140625 13.617188 L 50.140625 12.890625 C 50.464844 12.550781 50.914062 12.097656 51.476562 11.527344 C 52.042969 10.957031 52.398438 10.585938 52.542969 10.421875 C 52.820312 10.109375 53.011719 9.847656 53.121094 9.632812 C 53.234375 9.417969 53.289062 9.207031 53.289062 9 C 53.289062 8.660156 53.167969 8.382812 52.929688 8.171875 C 52.691406 7.957031 52.382812 7.847656 52 7.847656 C 51.730469 7.847656 51.445312 7.894531 51.144531 7.988281 C 50.84375 8.082031 50.523438 8.226562 50.179688 8.417969 L 50.179688 7.546875 C 50.527344 7.40625 50.851562 7.300781 51.15625 7.230469 C 51.457031 7.160156 51.734375 7.121094 51.984375 7.121094 C 52.644531 7.121094 53.171875 7.289062 53.566406 7.621094 C 53.957031 7.949219 54.15625 8.390625 54.15625 8.941406 C 54.15625 9.207031 54.105469 9.453125 54.007812 9.6875 C 53.910156 9.921875 53.730469 10.199219 53.472656 10.519531 C 53.398438 10.601562 53.171875 10.839844 52.792969 11.234375 C 52.410156 11.628906 51.871094 12.183594 51.175781 12.890625 Z M 51.175781 12.890625 "/>
<path style="fill:none;stroke-width:0.6;stroke-linecap:butt;stroke-linejoin:round;stroke:rgb(0%,0%,0%);stroke-opacity:1;stroke-miterlimit:4;" d="M 0 0.001527 L -2 0.001527 " transform="matrix(1.25,0,0,1.25,64.222656,173.396529)"/>
<path style="fill:none;stroke-width:0.6;stroke-linecap:butt;stroke-linejoin:round;stroke:rgb(0%,0%,0%);stroke-opacity:1;stroke-miterlimit:4;" d="M 0 0.000187 L -2 0.000187 " transform="matrix(1.25,0,0,1.25,64.222656,167.413829)"/>
<path style="fill:none;stroke-width:0.6;stroke-linecap:butt;stroke-linejoin:round;stroke:rgb(0%,0%,0%);stroke-opacity:1;stroke-miterlimit:4;" d="M 0 -0.000853 L -2 -0.000853 " transform="matrix(1.25,0,0,1.25,64.222656,163.169035)"/>
<path style="fill:none;stroke-width:0.6;stroke-linecap:butt;stroke-linejoin:round;stroke:rgb(0%,0%,0%);stroke-opacity:1;stroke-miterlimit:4;" d="M 0 -0.001214 L -2 -0.001214 " transform="matrix(1.25,0,0,1.25,64.222656,159.876518)"/>
<path style="fill:none;stroke-width:0.6;stroke-linecap:butt;stroke-linejoin:round;stroke:rgb(0%,0%,0%);stroke-opacity:1;stroke-miterlimit:4;" d="M 0 0.000932 L -2 0.000932 " transform="matrix(1.25,0,0,1.25,64.222656,157.186335)"/>
<path style="fill:none;stroke-width:0.6;stroke-linecap:butt;stroke-linejoin:round;stroke:rgb(0%,0%,0%);stroke-opacity:1;stroke-miterlimit:4;" d="M 0 -0.001329 L -2 -0.001329 " transform="matrix(1.25,0,0,1.25,64.222656,154.911818)"/>
<path style="fill:none;stroke-width:0.6;stroke-linecap:butt;stroke-linejoin:round;stroke:rgb(0%,0%,0%);stroke-opacity:1;stroke-miterlimit:4;" d="M 0 -0.000108 L -2 -0.000108 " transform="matrix(1.25,0,0,1.25,64.222656,152.941541)"/>
<path style="fill:none;stroke-width:0.6;stroke-linecap:butt;stroke-linejoin:round;stroke:rgb(0%,0%,0%);stroke-opacity:1;stroke-miterlimit:4;" d="M 0 -0.000407 L -2 -0.000407 " transform="matrix(1.25,0,0,1.25,64.222656,151.203634)"/>
<path style="fill:none;stroke-width:0.6;stroke-linecap:butt;stroke-linejoin:round;stroke:rgb(0%,0%,0%);stroke-opacity:1;stroke-miterlimit:4;" d="M 0 0.000277 L -2 0.000277 " transform="matrix(1.25,0,0,1.25,64.222656,139.421529)"/>
<path style="fill:none;stroke-width:0.6;stroke-linecap:butt;stroke-linejoin:round;stroke:rgb(0%,0%,0%);stroke-opacity:1;stroke-miterlimit:4;" d="M 0 -0.001063 L -2 -0.001063 " transform="matrix(1.25,0,0,1.25,64.222656,133.438829)"/>
<path style="fill:none;stroke-width:0.6;stroke-linecap:butt;stroke-linejoin:round;stroke:rgb(0%,0%,0%);stroke-opacity:1;stroke-miterlimit:4;" d="M 0 0.001022 L -2 0.001022 " transform="matrix(1.25,0,0,1.25,64.222656,129.194035)"/>
<path style="fill:none;stroke-width:0.6;stroke-linecap:butt;stroke-linejoin:round;stroke:rgb(0%,0%,0%);stroke-opacity:1;stroke-miterlimit:4;" d="M 0 0.000661 L -2 0.000661 " transform="matrix(1.25,0,0,1.25,64.222656,125.901518)"/>
<path style="fill:none;stroke-width:0.6;stroke-linecap:butt;stroke-linejoin:round;stroke:rgb(0%,0%,0%);stroke-opacity:1;stroke-miterlimit:4;" d="M 0 -0.000318 L -2 -0.000318 " transform="matrix(1.25,0,0,1.25,64.222656,123.211335)"/>
<path style="fill:none;stroke-width:0.6;stroke-linecap:butt;stroke-linejoin:round;stroke:rgb(0%,0%,0%);stroke-opacity:1;stroke-miterlimit:4;" d="M 0 0.000546 L -2 0.000546 " transform="matrix(1.25,0,0,1.25,64.222656,120.936818)"/>
<path style="fill:none;stroke-width:0.6;stroke-linecap:butt;stroke-linejoin:round;stroke:rgb(0%,0%,0%);stroke-opacity:1;stroke-miterlimit:4;" d="M 0 -0.001358 L -2 -0.001358 " transform="matrix(1.25,0,0,1.25,64.222656,118.966541)"/>
<path style="fill:none;stroke-width:0.6;stroke-linecap:butt;stroke-linejoin:round;stroke:rgb(0%,0%,0%);stroke-opacity:1;stroke-miterlimit:4;" d="M 0 0.001468 L -2 0.001468 " transform="matrix(1.25,0,0,1.25,64.222656,117.228634)"/>
<path style="fill:none;stroke-width:0.6;stroke-linecap:butt;stroke-linejoin:round;stroke:rgb(0%,0%,0%);stroke-opacity:1;stroke-miterlimit:4;" d="M 0 -0.000973 L -2 -0.000973 " transform="matrix(1.25,0,0,1.25,64.222656,105.446529)"/>
<path style="fill:none;stroke-width:0.6;stroke-linecap:butt;stroke-linejoin:round;stroke:rgb(0%,0%,0%);stroke-opacity:1;stroke-miterlimit:4;" d="M 0 0.000812 L -2 0.000812 " transform="matrix(1.25,0,0,1.25,64.222656,99.463829)"/>
<path style="fill:none;stroke-width:0.6;stroke-linecap:butt;stroke-linejoin:round;stroke:rgb(0%,0%,0%);stroke-opacity:1;stroke-miterlimit:4;" d="M 0 -0.000228 L -2 -0.000228 " transform="matrix(1.25,0,0,1.25,64.222656,95.219035)"/>
<path style="fill:none;stroke-width:0.6;stroke-linecap:butt;stroke-linejoin:round;stroke:rgb(0%,0%,0%);stroke-opacity:1;stroke-miterlimit:4;" d="M 0 -0.000589 L -2 -0.000589 " transform="matrix(1.25,0,0,1.25,64.222656,91.926517)"/>
<path style="fill:none;stroke-width:0.6;stroke-linecap:butt;stroke-linejoin:round;stroke:rgb(0%,0%,0%);stroke-opacity:1;stroke-miterlimit:4;" d="M 0 0.001557 L -2 0.001557 " transform="matrix(1.25,0,0,1.25,64.222656,89.236335)"/>
<path style="fill:none;stroke-width:0.6;stroke-linecap:butt;stroke-linejoin:round;stroke:rgb(0%,0%,0%);stroke-opacity:1;stroke-miterlimit:4;" d="M 0 -0.000704 L -2 -0.000704 " transform="matrix(1.25,0,0,1.25,64.222656,86.961817)"/>
<path style="fill:none;stroke-width:0.6;stroke-linecap:butt;stroke-linejoin:round;stroke:rgb(0%,0%,0%);stroke-opacity:1;stroke-miterlimit:4;" d="M 0 0.000517 L -2 0.000517 " transform="matrix(1.25,0,0,1.25,64.222656,84.991541)"/>
<path style="fill:none;stroke-width:0.6;stroke-linecap:butt;stroke-linejoin:round;stroke:rgb(0%,0%,0%);stroke-opacity:1;stroke-miterlimit:4;" d="M 0 0.000218 L -2 0.000218 " transform="matrix(1.25,0,0,1.25,64.222656,83.253634)"/>
<path style="fill:none;stroke-width:0.6;stroke-linecap:butt;stroke-linejoin:round;stroke:rgb(0%,0%,0%);stroke-opacity:1;stroke-miterlimit:4;" d="M 0 0.000902 L -2 0.000902 " transform="matrix(1.25,0,0,1.25,64.222656,71.471529)"/>
<path style="fill:none;stroke-width:0.6;stroke-linecap:butt;stroke-linejoin:round;stroke:rgb(0%,0%,0%);stroke-opacity:1;stroke-miterlimit:4;" d="M 0 -0.000438 L -2 -0.000438 " transform="matrix(1.25,0,0,1.25,64.222656,65.488829)"/>
<path style="fill:none;stroke-width:0.6;stroke-linecap:butt;stroke-linejoin:round;stroke:rgb(0%,0%,0%);stroke-opacity:1;stroke-miterlimit:4;" d="M 0 -0.001478 L -2 -0.001478 " transform="matrix(1.25,0,0,1.25,64.222656,61.244035)"/>
<path style="fill:none;stroke-width:0.6;stroke-linecap:butt;stroke-linejoin:round;stroke:rgb(0%,0%,0%);stroke-opacity:1;stroke-miterlimit:4;" d="M 0 0.001286 L -2 0.001286 " transform="matrix(1.25,0,0,1.25,64.222656,57.951517)"/>
<path style="fill:none;stroke-width:0.6;stroke-linecap:butt;stroke-linejoin:round;stroke:rgb(0%,0%,0%);stroke-opacity:1;stroke-miterlimit:4;" d="M 0 0.000307 L -2 0.000307 " transform="matrix(1.25,0,0,1.25,64.222656,55.261335)"/>
<path style="fill:none;stroke-width:0.6;stroke-linecap:butt;stroke-linejoin:round;stroke:rgb(0%,0%,0%);stroke-opacity:1;stroke-miterlimit:4;" d="M 0 0.001171 L -2 0.001171 " transform="matrix(1.25,0,0,1.25,64.222656,52.986818)"/>
<path style="fill:none;stroke-width:0.6;stroke-linecap:butt;stroke-linejoin:round;stroke:rgb(0%,0%,0%);stroke-opacity:1;stroke-miterlimit:4;" d="M 0 -0.000733 L -2 -0.000733 " transform="matrix(1.25,0,0,1.25,64.222656,51.016541)"/>
<path style="fill:none;stroke-width:0.6;stroke-linecap:butt;stroke-linejoin:round;stroke:rgb(0%,0%,0%);stroke-opacity:1;stroke-miterlimit:4;" d="M 0 -0.001032 L -2 -0.001032 " transform="matrix(1.25,0,0,1.25,64.222656,49.278634)"/>
<path style="fill:none;stroke-width:0.6;stroke-linecap:butt;stroke-linejoin:round;stroke:rgb(0%,0%,0%);stroke-opacity:1;stroke-miterlimit:4;" d="M 0 -0.000348 L -2 -0.000348 " transform="matrix(1.25,0,0,1.25,64.222656,37.496529)"/>
<path style="fill:none;stroke-width:0.6;stroke-linecap:butt;stroke-linejoin:round;stroke:rgb(0%,0%,0%);stroke-opacity:1;stroke-miterlimit:4;" d="M 0 0.001437 L -2 0.001437 " transform="matrix(1.25,0,0,1.25,64.222656,31.513829)"/>
<path style="fill:none;stroke-width:0.6;stroke-linecap:butt;stroke-linejoin:round;stroke:rgb(0%,0%,0%);stroke-opacity:1;stroke-miterlimit:4;" d="M 0 0.000397 L -2 0.000397 " transform="matrix(1.25,0,0,1.25,64.222656,27.269035)"/>
<path style="fill:none;stroke-width:0.6;stroke-linecap:butt;stroke-linejoin:round;stroke:rgb(0%,0%,0%);stroke-opacity:1;stroke-miterlimit:4;" d="M 0 0.000036 L -2 0.000036 " transform="matrix(1.25,0,0,1.25,64.222656,23.976517)"/>
<path style="fill:none;stroke-width:0.6;stroke-linecap:butt;stroke-linejoin:round;stroke:rgb(0%,0%,0%);stroke-opacity:1;stroke-miterlimit:4;" d="M 0 -0.000943 L -2 -0.000943 " transform="matrix(1.25,0,0,1.25,64.222656,21.286335)"/>
<path style="fill:none;stroke-width:0.6;stroke-linecap:butt;stroke-linejoin:round;stroke:rgb(0%,0%,0%);stroke-opacity:1;stroke-miterlimit:4;" d="M 0 -0.000079 L -2 -0.000079 " transform="matrix(1.25,0,0,1.25,64.222656,19.011817)"/>
<path style="fill:none;stroke-width:0.6;stroke-linecap:butt;stroke-linejoin:round;stroke:rgb(0%,0%,0%);stroke-opacity:1;stroke-miterlimit:4;" d="M 0 0.001142 L -2 0.001142 " transform="matrix(1.25,0,0,1.25,64.222656,17.041541)"/>
<path style="fill:none;stroke-width:0.6;stroke-linecap:butt;stroke-linejoin:round;stroke:rgb(0%,0%,0%);stroke-opacity:1;stroke-miterlimit:4;" d="M 0 0.000843 L -2 0.000843 " transform="matrix(1.25,0,0,1.25,64.222656,15.303634)"/>
<path style=" stroke:none;fill-rule:nonzero;fill:rgb(0%,0%,0%);fill-opacity:1;" d="M 9 109.582031 L 9 108.457031 L 18.496094 108.457031 L 18.496094 109.582031 Z M 9 109.582031 "/>
<path style=" stroke:none;fill-rule:nonzero;fill:rgb(0%,0%,0%);fill-opacity:1;" d="M 12.449219 103.460938 C 12.449219 104.0625 12.683594 104.539062 13.152344 104.886719 C 13.625 105.238281 14.269531 105.414062 15.085938 105.414062 C 15.902344 105.414062 16.546875 105.238281 17.015625 104.890625 C 17.488281 104.542969 17.722656 104.066406 17.722656 103.460938 C 17.722656 102.859375 17.488281 102.386719 17.015625 102.039062 C 16.542969 101.6875 15.898438 101.511719 15.085938 101.511719 C 14.277344 101.511719 13.632812 101.6875 13.160156 102.039062 C 12.6875 102.386719 12.449219 102.859375 12.449219 103.460938 Z M 11.496094 103.460938 C 11.496094 102.484375 11.816406 101.714844 12.449219 101.160156 C 13.085938 100.601562 13.964844 100.320312 15.085938 100.320312 C 16.203125 100.320312 17.082031 100.601562 17.71875 101.160156 C 18.355469 101.714844 18.675781 102.484375 18.675781 103.460938 C 18.675781 104.441406 18.355469 105.207031 17.71875 105.765625 C 17.082031 106.320312 16.203125 106.597656 15.085938 106.597656 C 13.964844 106.597656 13.085938 106.320312 12.449219 105.765625 C 11.816406 105.207031 11.496094 104.441406 11.496094 103.460938 Z M 11.496094 103.460938 "/>
<path style=" stroke:none;fill-rule:nonzero;fill:rgb(0%,0%,0%);fill-opacity:1;" d="M 11.863281 94.101562 L 12.925781 94.101562 C 12.761719 94.417969 12.640625 94.75 12.558594 95.089844 C 12.476562 95.433594 12.4375 95.785156 12.4375 96.152344 C 12.4375 96.710938 12.523438 97.128906 12.691406 97.40625 C 12.863281 97.6875 13.121094 97.824219 13.460938 97.824219 C 13.722656 97.824219 13.925781 97.726562 14.074219 97.527344 C 14.222656 97.328125 14.367188 96.925781 14.5 96.324219 L 14.585938 95.9375 C 14.757812 95.140625 14.996094 94.574219 15.308594 94.238281 C 15.621094 93.902344 16.054688 93.734375 16.609375 93.734375 C 17.246094 93.734375 17.75 93.988281 18.121094 94.488281 C 18.492188 94.992188 18.675781 95.683594 18.675781 96.5625 C 18.675781 96.929688 18.640625 97.308594 18.566406 97.707031 C 18.496094 98.105469 18.390625 98.523438 18.246094 98.960938 L 17.085938 98.960938 C 17.304688 98.546875 17.464844 98.136719 17.574219 97.734375 C 17.679688 97.332031 17.734375 96.933594 17.734375 96.535156 C 17.734375 96.007812 17.644531 95.601562 17.460938 95.316406 C 17.28125 95.03125 17.027344 94.890625 16.695312 94.890625 C 16.390625 94.890625 16.160156 94.992188 15.996094 95.199219 C 15.832031 95.402344 15.675781 95.855469 15.523438 96.550781 L 15.433594 96.941406 C 15.289062 97.636719 15.0625 98.140625 14.757812 98.449219 C 14.457031 98.757812 14.039062 98.910156 13.511719 98.910156 C 12.867188 98.910156 12.371094 98.683594 12.023438 98.226562 C 11.671875 97.773438 11.496094 97.125 11.496094 96.285156 C 11.496094 95.871094 11.527344 95.484375 11.589844 95.117188 C 11.648438 94.75 11.742188 94.410156 11.863281 94.101562 Z M 11.863281 94.101562 "/>
<path style=" stroke:none;fill-rule:nonzero;fill:rgb(0%,0%,0%);fill-opacity:1;" d="M 11.863281 87.589844 L 12.925781 87.589844 C 12.761719 87.90625 12.640625 88.238281 12.558594 88.578125 C 12.476562 88.921875 12.4375 89.273438 12.4375 89.640625 C 12.4375 90.199219 12.523438 90.617188 12.691406 90.894531 C 12.863281 91.175781 13.121094 91.3125 13.460938 91.3125 C 13.722656 91.3125 13.925781 91.214844 14.074219 91.015625 C 14.222656 90.816406 14.367188 90.414062 14.5 89.8125 L 14.585938 89.425781 C 14.757812 88.628906 14.996094 88.0625 15.308594 87.726562 C 15.621094 87.390625 16.054688 87.222656 16.609375 87.222656 C 17.246094 87.222656 17.75 87.476562 18.121094 87.976562 C 18.492188 88.480469 18.675781 89.171875 18.675781 90.050781 C 18.675781 90.414062 18.640625 90.796875 18.566406 91.195312 C 18.496094 91.589844 18.390625 92.007812 18.246094 92.449219 L 17.085938 92.449219 C 17.304688 92.03125 17.464844 91.625 17.574219 91.222656 C 17.679688 90.820312 17.734375 90.421875 17.734375 90.023438 C 17.734375 89.496094 17.644531 89.089844 17.460938 88.804688 C 17.28125 88.519531 17.027344 88.378906 16.695312 88.378906 C 16.390625 88.378906 16.160156 88.480469 15.996094 88.6875 C 15.832031 88.890625 15.675781 89.339844 15.523438 90.039062 L 15.433594 90.429688 C 15.289062 91.125 15.0625 91.625 14.757812 91.9375 C 14.457031 92.246094 14.039062 92.398438 13.511719 92.398438 C 12.867188 92.398438 12.371094 92.171875 12.023438 91.714844 C 11.671875 91.261719 11.496094 90.613281 11.496094 89.773438 C 11.496094 89.359375 11.527344 88.96875 11.589844 88.605469 C 11.648438 88.238281 11.742188 87.898438 11.863281 87.589844 Z M 11.863281 87.589844 "/>
<g clip-path="url(#clip11)" clip-rule="nonzero">
<path style="fill:none;stroke-width:1.5;stroke-linecap:square;stroke-linejoin:round;stroke:rgb(12.156863%,46.666667%,70.588235%);stroke-opacity:1;stroke-miterlimit:4;" d="M 51.378125 27.828125 L 60.678125 61.63125 L 70.46875 74.71875 L 80.25625 82.91875 L 90.046875 89.928125 L 99.8375 96.453125 L 109.625 102.4375 L 119.415625 107.659375 L 129.203125 111.8875 L 138.99375 115.028125 L 148.784375 117.15625 L 158.571875 118.49375 L 168.3625 119.2875 L 178.153125 119.740625 L 187.940625 119.99375 L 197.73125 120.13125 L 207.51875 120.209375 L 217.309375 120.25 L 227.1 120.271875 L 236.8875 120.284375 L 246.678125 120.290625 " transform="matrix(1.25,0,0,1.25,0,0)"/>
</g>
<g clip-path="url(#clip12)" clip-rule="nonzero">
<path style="fill:none;stroke-width:1.5;stroke-linecap:butt;stroke-linejoin:round;stroke:rgb(74.901961%,0%,74.901961%);stroke-opacity:1;stroke-dasharray:5.55,2.4;stroke-miterlimit:4;" d="M 51.378125 29.98125 L 60.678125 62.353125 L 70.46875 75.978125 L 80.25625 84.85 L 90.046875 91.91875 L 99.8375 97.959375 L 109.625 103.14375 L 119.415625 107.240625 L 129.203125 110.303125 L 138.99375 112.471875 L 148.784375 113.859375 L 158.571875 114.740625 L 168.3625 115.234375 L 178.153125 115.553125 L 187.940625 115.734375 L 197.73125 115.846875 L 207.51875 115.9125 L 217.309375 115.96875 L 227.1 115.984375 L 236.8875 116.015625 L 246.678125 116.034375 " transform="matrix(1.25,0,0,1.25,0,0)"/>
</g>
<path style="fill:none;stroke-width:0.8;stroke-linecap:square;stroke-linejoin:miter;stroke:rgb(0%,0%,0%);stroke-opacity:1;stroke-miterlimit:4;" d="M 51.378125 146.9 L 51.378125 11 " transform="matrix(1.25,0,0,1.25,0,0)"/>
<path style="fill:none;stroke-width:0.8;stroke-linecap:square;stroke-linejoin:miter;stroke:rgb(0%,0%,0%);stroke-opacity:1;stroke-miterlimit:4;" d="M 246.678125 146.9 L 246.678125 11 " transform="matrix(1.25,0,0,1.25,0,0)"/>
<path style="fill:none;stroke-width:0.8;stroke-linecap:square;stroke-linejoin:miter;stroke:rgb(0%,0%,0%);stroke-opacity:1;stroke-miterlimit:4;" d="M 51.378125 146.9 L 246.678125 146.9 " transform="matrix(1.25,0,0,1.25,0,0)"/>
<path style="fill:none;stroke-width:0.8;stroke-linecap:square;stroke-linejoin:miter;stroke:rgb(0%,0%,0%);stroke-opacity:1;stroke-miterlimit:4;" d="M 51.378125 11 L 246.678125 11 " transform="matrix(1.25,0,0,1.25,0,0)"/>
<use xlink:href="#surface6" mask="url(#mask0)"/>
<path style="fill:none;stroke-width:1.5;stroke-linecap:square;stroke-linejoin:round;stroke:rgb(12.156863%,46.666667%,70.588235%);stroke-opacity:1;stroke-miterlimit:4;" d="M 186.403125 24.096875 L 206.403125 24.096875 " transform="matrix(1.25,0,0,1.25,0,0)"/>
<path style=" stroke:none;fill-rule:nonzero;fill:rgb(0%,0%,0%);fill-opacity:1;" d="M 270.292969 25.71875 L 270.292969 27.660156 L 272.605469 27.660156 L 272.605469 28.535156 L 270.292969 28.535156 L 270.292969 32.246094 C 270.292969 32.800781 270.367188 33.160156 270.523438 33.320312 C 270.671875 33.476562 270.984375 33.558594 271.453125 33.558594 L 272.605469 33.558594 L 272.605469 34.496094 L 271.453125 34.496094 C 270.585938 34.496094 269.988281 34.335938 269.65625 34.011719 C 269.328125 33.6875 269.164062 33.097656 269.164062 32.246094 L 269.164062 28.535156 L 268.339844 28.535156 L 268.339844 27.660156 L 269.164062 27.660156 L 269.164062 25.71875 Z M 270.292969 25.71875 "/>
<path style=" stroke:none;fill-rule:nonzero;fill:rgb(0%,0%,0%);fill-opacity:1;" d="M 278.042969 28.710938 C 277.917969 28.636719 277.78125 28.582031 277.632812 28.550781 C 277.484375 28.515625 277.320312 28.496094 277.140625 28.496094 C 276.507812 28.496094 276.019531 28.703125 275.679688 29.117188 C 275.339844 29.527344 275.167969 30.121094 275.167969 30.894531 L 275.167969 34.496094 L 274.039062 34.496094 L 274.039062 27.660156 L 275.167969 27.660156 L 275.167969 28.722656 C 275.40625 28.308594 275.714844 28 276.089844 27.800781 C 276.46875 27.597656 276.929688 27.496094 277.472656 27.496094 C 277.546875 27.496094 277.632812 27.503906 277.726562 27.511719 C 277.820312 27.523438 277.925781 27.535156 278.039062 27.558594 Z M 278.042969 28.710938 "/>
<path style=" stroke:none;fill-rule:nonzero;fill:rgb(0%,0%,0%);fill-opacity:1;" d="M 282.328125 31.0625 C 281.421875 31.0625 280.792969 31.164062 280.441406 31.371094 C 280.09375 31.578125 279.917969 31.933594 279.917969 32.433594 C 279.917969 32.832031 280.046875 33.148438 280.3125 33.382812 C 280.574219 33.617188 280.929688 33.734375 281.382812 33.734375 C 282.003906 33.734375 282.503906 33.511719 282.882812 33.070312 C 283.257812 32.628906 283.445312 32.042969 283.445312 31.3125 L 283.445312 31.0625 Z M 284.570312 30.597656 L 284.570312 34.496094 L 283.445312 34.496094 L 283.445312 33.460938 C 283.191406 33.875 282.871094 34.179688 282.488281 34.378906 C 282.105469 34.574219 281.636719 34.675781 281.082031 34.675781 C 280.382812 34.675781 279.828125 34.476562 279.414062 34.085938 C 279 33.691406 278.792969 33.164062 278.792969 32.507812 C 278.792969 31.738281 279.050781 31.160156 279.566406 30.769531 C 280.082031 30.378906 280.847656 30.183594 281.871094 30.183594 L 283.445312 30.183594 L 283.445312 30.070312 C 283.445312 29.554688 283.277344 29.15625 282.9375 28.871094 C 282.597656 28.589844 282.121094 28.449219 281.503906 28.449219 C 281.113281 28.449219 280.734375 28.496094 280.363281 28.589844 C 279.992188 28.683594 279.636719 28.824219 279.296875 29.011719 L 279.296875 27.972656 C 279.707031 27.8125 280.105469 27.695312 280.492188 27.617188 C 280.878906 27.535156 281.253906 27.496094 281.621094 27.496094 C 282.609375 27.496094 283.347656 27.753906 283.835938 28.265625 C 284.324219 28.777344 284.570312 29.554688 284.570312 30.597656 Z M 284.570312 30.597656 "/>
<path style=" stroke:none;fill-rule:nonzero;fill:rgb(0%,0%,0%);fill-opacity:1;" d="M 286.882812 27.660156 L 288.003906 27.660156 L 288.003906 34.496094 L 286.882812 34.496094 Z M 286.882812 25 L 288.003906 25 L 288.003906 26.421875 L 286.882812 26.421875 Z M 286.882812 25 "/>
<path style=" stroke:none;fill-rule:nonzero;fill:rgb(0%,0%,0%);fill-opacity:1;" d="M 296.039062 30.371094 L 296.039062 34.496094 L 294.914062 34.496094 L 294.914062 30.40625 C 294.914062 29.761719 294.789062 29.277344 294.535156 28.957031 C 294.285156 28.632812 293.90625 28.472656 293.402344 28.472656 C 292.792969 28.472656 292.316406 28.667969 291.964844 29.054688 C 291.617188 29.4375 291.441406 29.964844 291.441406 30.632812 L 291.441406 34.496094 L 290.3125 34.496094 L 290.3125 27.660156 L 291.441406 27.660156 L 291.441406 28.722656 C 291.710938 28.3125 292.027344 28.003906 292.390625 27.800781 C 292.753906 27.597656 293.175781 27.496094 293.652344 27.496094 C 294.4375 27.496094 295.03125 27.738281 295.433594 28.226562 C 295.835938 28.710938 296.039062 29.425781 296.039062 30.371094 Z M 296.039062 30.371094 "/>
<path style="fill:none;stroke-width:1.5;stroke-linecap:butt;stroke-linejoin:round;stroke:rgb(74.901961%,0%,74.901961%);stroke-opacity:1;stroke-dasharray:5.55,2.4;stroke-miterlimit:4;" d="M 186.403125 38.775 L 206.403125 38.775 " transform="matrix(1.25,0,0,1.25,0,0)"/>
<path style=" stroke:none;fill-rule:nonzero;fill:rgb(0%,0%,0%);fill-opacity:1;" d="M 270.292969 44.066406 L 270.292969 46.007812 L 272.605469 46.007812 L 272.605469 46.882812 L 270.292969 46.882812 L 270.292969 50.59375 C 270.292969 51.148438 270.367188 51.507812 270.523438 51.667969 C 270.671875 51.824219 270.984375 51.90625 271.453125 51.90625 L 272.605469 51.90625 L 272.605469 52.84375 L 271.453125 52.84375 C 270.585938 52.84375 269.988281 52.683594 269.65625 52.359375 C 269.328125 52.035156 269.164062 51.445312 269.164062 50.59375 L 269.164062 46.882812 L 268.339844 46.882812 L 268.339844 46.007812 L 269.164062 46.007812 L 269.164062 44.066406 Z M 270.292969 44.066406 "/>
<path style=" stroke:none;fill-rule:nonzero;fill:rgb(0%,0%,0%);fill-opacity:1;" d="M 279.929688 49.144531 L 279.929688 49.695312 L 274.765625 49.695312 C 274.816406 50.46875 275.050781 51.058594 275.464844 51.460938 C 275.882812 51.867188 276.464844 52.070312 277.207031 52.070312 C 277.640625 52.070312 278.058594 52.015625 278.460938 51.910156 C 278.867188 51.804688 279.269531 51.648438 279.667969 51.433594 L 279.667969 52.496094 C 279.265625 52.667969 278.851562 52.796875 278.429688 52.886719 C 278.003906 52.976562 277.578125 53.023438 277.140625 53.023438 C 276.050781 53.023438 275.1875 52.707031 274.550781 52.070312 C 273.914062 51.4375 273.59375 50.578125 273.59375 49.492188 C 273.59375 48.375 273.898438 47.488281 274.5 46.832031 C 275.105469 46.171875 275.921875 45.84375 276.945312 45.84375 C 277.867188 45.84375 278.59375 46.140625 279.128906 46.734375 C 279.664062 47.324219 279.929688 48.128906 279.929688 49.144531 Z M 278.808594 48.816406 C 278.800781 48.203125 278.628906 47.710938 278.292969 47.347656 C 277.957031 46.980469 277.511719 46.796875 276.957031 46.796875 C 276.332031 46.796875 275.832031 46.972656 275.453125 47.328125 C 275.078125 47.679688 274.859375 48.179688 274.804688 48.824219 Z M 278.808594 48.816406 "/>
<path style=" stroke:none;fill-rule:nonzero;fill:rgb(0%,0%,0%);fill-opacity:1;" d="M 286.128906 46.210938 L 286.128906 47.273438 C 285.8125 47.109375 285.484375 46.988281 285.140625 46.90625 C 284.800781 46.824219 284.445312 46.785156 284.078125 46.785156 C 283.523438 46.785156 283.105469 46.871094 282.824219 47.039062 C 282.546875 47.210938 282.40625 47.46875 282.40625 47.808594 C 282.40625 48.070312 282.507812 48.273438 282.707031 48.421875 C 282.90625 48.570312 283.308594 48.710938 283.910156 48.847656 L 284.292969 48.933594 C 285.089844 49.101562 285.65625 49.34375 285.992188 49.65625 C 286.328125 49.964844 286.496094 50.402344 286.496094 50.957031 C 286.496094 51.59375 286.246094 52.097656 285.742188 52.46875 C 285.242188 52.835938 284.550781 53.023438 283.671875 53.023438 C 283.304688 53.023438 282.925781 52.988281 282.527344 52.914062 C 282.128906 52.84375 281.710938 52.738281 281.273438 52.59375 L 281.273438 51.433594 C 281.6875 51.652344 282.097656 51.8125 282.5 51.921875 C 282.902344 52.027344 283.300781 52.082031 283.695312 52.082031 C 284.226562 52.082031 284.632812 51.992188 284.914062 51.808594 C 285.199219 51.628906 285.34375 51.375 285.34375 51.042969 C 285.34375 50.738281 285.242188 50.503906 285.035156 50.34375 C 284.832031 50.179688 284.378906 50.023438 283.683594 49.871094 L 283.292969 49.78125 C 282.597656 49.632812 282.09375 49.410156 281.785156 49.105469 C 281.476562 48.804688 281.320312 48.386719 281.320312 47.859375 C 281.320312 47.214844 281.550781 46.71875 282.003906 46.371094 C 282.460938 46.019531 283.109375 45.84375 283.945312 45.84375 C 284.359375 45.84375 284.75 45.875 285.117188 45.9375 C 285.484375 45.996094 285.820312 46.085938 286.128906 46.210938 Z M 286.128906 46.210938 "/>
<path style=" stroke:none;fill-rule:nonzero;fill:rgb(0%,0%,0%);fill-opacity:1;" d="M 289.398438 44.066406 L 289.398438 46.007812 L 291.710938 46.007812 L 291.710938 46.882812 L 289.398438 46.882812 L 289.398438 50.59375 C 289.398438 51.148438 289.472656 51.507812 289.625 51.667969 C 289.777344 51.824219 290.089844 51.90625 290.558594 51.90625 L 291.710938 51.90625 L 291.710938 52.84375 L 290.558594 52.84375 C 289.691406 52.84375 289.089844 52.683594 288.761719 52.359375 C 288.433594 52.035156 288.269531 51.445312 288.269531 50.59375 L 288.269531 46.882812 L 287.445312 46.882812 L 287.445312 46.007812 L 288.269531 46.007812 L 288.269531 44.066406 Z M 289.398438 44.066406 "/>
</g>
</svg>
