<?xml version="1.0" encoding="UTF-8"?>
<svg xmlns="http://www.w3.org/2000/svg" xmlns:xlink="http://www.w3.org/1999/xlink" width="329pt" height="227pt" viewBox="0 0 329 227" version="1.1">
<defs>
<clipPath id="clip1">
  <path d="M 102 10.449219 L 104 10.449219 L 104 180.324219 L 102 180.324219 Z M 102 10.449219 "/>
</clipPath>
<clipPath id="clip2">
  <path d="M 153 10.449219 L 155 10.449219 L 155 180.324219 L 153 180.324219 Z M 153 10.449219 "/>
</clipPath>
<clipPath id="clip3">
  <path d="M 204 10.449219 L 207 10.449219 L 207 180.324219 L 204 180.324219 Z M 204 10.449219 "/>
</clipPath>
<clipPath id="clip4">
  <path d="M 256 10.449219 L 258 10.449219 L 258 180.324219 L 256 180.324219 Z M 256 10.449219 "/>
</clipPath>
<clipPath id="clip5">
  <path d="M 307 10.449219 L 308.347656 10.449219 L 308.347656 180.324219 L 307 180.324219 Z M 307 10.449219 "/>
</clipPath>
<clipPath id="clip6">
  <path d="M 64.222656 127 L 308.347656 127 L 308.347656 130 L 64.222656 130 Z M 64.222656 127 "/>
</clipPath>
<clipPath id="clip7">
  <path d="M 64.222656 70 L 308.347656 70 L 308.347656 72 L 64.222656 72 Z M 64.222656 70 "/>
</clipPath>
<clipPath id="clip8">
  <path d="M 64.222656 13 L 308.347656 13 L 308.347656 15 L 64.222656 15 Z M 64.222656 13 "/>
</clipPath>
<clipPath id="clip9">
  <path d="M 64.222656 34 L 308.347656 34 L 308.347656 174 L 64.222656 174 Z M 64.222656 34 "/>
</clipPath>
<clipPath id="clip10">
  <path d="M 64.222656 17 L 308.347656 17 L 308.347656 102 L 64.222656 102 Z M 64.222656 17 "/>
</clipPath>
<filter id="alpha" filterUnits="objectBoundingBox" x="0%" y="0%" width="100%" height="100%">
  <feColorMatrix type="matrix" in="SourceGraphic" values="0 0 0 0 1 0 0 0 0 1 0 0 0 0 1 0 0 0 1 0"/>
</filter>
<mask id="mask0">
  <g filter="url(#alpha)">
<rect x="0" y="0" width="329" height="227" style="fill:rgb(0%,0%,0%);fill-opacity:0.8;stroke:none;"/>
  </g>
</mask>
<clipPath id="clip11">
  <rect width="329" height="227"/>
</clipPath>
<g id="surface6" clip-path="url(#clip11)">
<path style="fill-rule:nonzero;fill:rgb(100%,100%,100%);fill-opacity:1;stroke-width:1;stroke-linecap:butt;stroke-linejoin:miter;stroke:rgb(80%,80%,80%);stroke-opacity:1;stroke-miterlimit:4;" d="M 184.403125 45.715625 L 239.678125 45.715625 C 241.0125 45.715625 241.678125 45.05 241.678125 43.715625 L 241.678125 15.359375 C 241.678125 14.028125 241.0125 13.359375 239.678125 13.359375 L 184.403125 13.359375 C 183.06875 13.359375 182.403125 14.028125 182.403125 15.359375 L 182.403125 43.715625 C 182.403125 45.05 183.06875 45.715625 184.403125 45.715625 Z M 184.403125 45.715625 " transform="matrix(1.25,0,0,1.25,0,0)"/>
</g>
</defs>
<g id="surface1">
<path style=" stroke:none;fill-rule:nonzero;fill:rgb(100%,100%,100%);fill-opacity:1;" d="M 64.222656 180.324219 L 308.347656 180.324219 L 308.347656 10.449219 L 64.222656 10.449219 Z M 64.222656 180.324219 "/>
<g clip-path="url(#clip1)" clip-rule="nonzero">
<path style="fill:none;stroke-width:0.8;stroke-linecap:square;stroke-linejoin:round;stroke:rgb(69.019608%,69.019608%,69.019608%);stroke-opacity:1;stroke-miterlimit:4;" d="M 82.215625 144.259375 L 82.215625 8.359375 " transform="matrix(1.25,0,0,1.25,0,0)"/>
</g>
<path style="fill:none;stroke-width:0.8;stroke-linecap:butt;stroke-linejoin:round;stroke:rgb(0%,0%,0%);stroke-opacity:1;stroke-miterlimit:4;" d="M 0.000658 -0.000625 L 0.000658 3.499375 " transform="matrix(1.25,0,0,1.25,102.768709,180.325)"/>
<path style=" stroke:none;fill-rule:nonzero;fill:rgb(0%,0%,0%);fill-opacity:1;" d="M 97.214844 197.535156 L 101.515625 197.535156 L 101.515625 198.574219 L 95.730469 198.574219 L 95.730469 197.535156 C 96.199219 197.050781 96.835938 196.402344 97.644531 195.585938 C 98.453125 194.769531 98.960938 194.242188 99.167969 194.007812 C 99.5625 193.5625 99.835938 193.1875 99.992188 192.882812 C 100.152344 192.574219 100.230469 192.273438 100.230469 191.976562 C 100.230469 191.492188 100.058594 191.097656 99.71875 190.792969 C 99.378906 190.484375 98.9375 190.332031 98.390625 190.332031 C 98.003906 190.332031 97.597656 190.398438 97.167969 190.535156 C 96.738281 190.667969 96.28125 190.871094 95.792969 191.144531 L 95.792969 189.898438 C 96.289062 189.699219 96.75 189.550781 97.183594 189.449219 C 97.613281 189.347656 98.011719 189.296875 98.367188 189.296875 C 99.3125 189.296875 100.066406 189.53125 100.625 190.003906 C 101.1875 190.476562 101.46875 191.105469 101.46875 191.894531 C 101.46875 192.269531 101.398438 192.625 101.257812 192.960938 C 101.117188 193.296875 100.863281 193.691406 100.492188 194.148438 C 100.390625 194.265625 100.066406 194.605469 99.519531 195.171875 C 98.976562 195.734375 98.207031 196.523438 97.214844 197.535156 Z M 97.214844 197.535156 "/>
<path style=" stroke:none;fill-rule:nonzero;fill:rgb(0%,0%,0%);fill-opacity:1;" d="M 106.742188 190.273438 C 106.105469 190.273438 105.628906 190.585938 105.308594 191.210938 C 104.992188 191.832031 104.832031 192.773438 104.832031 194.027344 C 104.832031 195.273438 104.992188 196.210938 105.308594 196.835938 C 105.628906 197.460938 106.105469 197.773438 106.742188 197.773438 C 107.378906 197.773438 107.859375 197.460938 108.179688 196.835938 C 108.5 196.210938 108.660156 195.273438 108.660156 194.027344 C 108.660156 192.773438 108.5 191.832031 108.179688 191.210938 C 107.859375 190.585938 107.378906 190.273438 106.742188 190.273438 Z M 106.742188 189.296875 C 107.761719 189.296875 108.542969 189.699219 109.082031 190.507812 C 109.621094 191.316406 109.890625 192.488281 109.890625 194.027344 C 109.890625 195.558594 109.621094 196.730469 109.082031 197.539062 C 108.542969 198.347656 107.761719 198.75 106.742188 198.75 C 105.71875 198.75 104.941406 198.347656 104.402344 197.539062 C 103.863281 196.730469 103.59375 195.558594 103.59375 194.027344 C 103.59375 192.488281 103.863281 191.316406 104.402344 190.507812 C 104.941406 189.699219 105.71875 189.296875 106.742188 189.296875 Z M 106.742188 189.296875 "/>
<g clip-path="url(#clip2)" clip-rule="nonzero">
<path style="fill:none;stroke-width:0.8;stroke-linecap:square;stroke-linejoin:round;stroke:rgb(69.019608%,69.019608%,69.019608%);stroke-opacity:1;stroke-miterlimit:4;" d="M 123.33125 144.259375 L 123.33125 8.359375 " transform="matrix(1.25,0,0,1.25,0,0)"/>
</g>
<path style="fill:none;stroke-width:0.8;stroke-linecap:butt;stroke-linejoin:round;stroke:rgb(0%,0%,0%);stroke-opacity:1;stroke-miterlimit:4;" d="M 0.000493 -0.000625 L 0.000493 3.499375 " transform="matrix(1.25,0,0,1.25,154.163446,180.325)"/>
<path style=" stroke:none;fill-rule:nonzero;fill:rgb(0%,0%,0%);fill-opacity:1;" d="M 150.933594 190.535156 L 147.820312 195.398438 L 150.933594 195.398438 Z M 150.609375 189.460938 L 152.160156 189.460938 L 152.160156 195.398438 L 153.460938 195.398438 L 153.460938 196.425781 L 152.160156 196.425781 L 152.160156 198.574219 L 150.933594 198.574219 L 150.933594 196.425781 L 146.820312 196.425781 L 146.820312 195.234375 Z M 150.609375 189.460938 "/>
<path style=" stroke:none;fill-rule:nonzero;fill:rgb(0%,0%,0%);fill-opacity:1;" d="M 158.136719 190.273438 C 157.5 190.273438 157.023438 190.585938 156.703125 191.210938 C 156.386719 191.832031 156.226562 192.773438 156.226562 194.027344 C 156.226562 195.273438 156.386719 196.210938 156.703125 196.835938 C 157.023438 197.460938 157.5 197.773438 158.136719 197.773438 C 158.773438 197.773438 159.253906 197.460938 159.574219 196.835938 C 159.894531 196.210938 160.054688 195.273438 160.054688 194.027344 C 160.054688 192.773438 159.894531 191.832031 159.574219 191.210938 C 159.253906 190.585938 158.773438 190.273438 158.136719 190.273438 Z M 158.136719 189.296875 C 159.15625 189.296875 159.9375 189.699219 160.476562 190.507812 C 161.015625 191.316406 161.285156 192.488281 161.285156 194.027344 C 161.285156 195.558594 161.015625 196.730469 160.476562 197.539062 C 159.9375 198.347656 159.15625 198.75 158.136719 198.75 C 157.113281 198.75 156.335938 198.347656 155.796875 197.539062 C 155.257812 196.730469 154.988281 195.558594 154.988281 194.027344 C 154.988281 192.488281 155.257812 191.316406 155.796875 190.507812 C 156.335938 189.699219 157.113281 189.296875 158.136719 189.296875 Z M 158.136719 189.296875 "/>
<g clip-path="url(#clip3)" clip-rule="nonzero">
<path style="fill:none;stroke-width:0.8;stroke-linecap:square;stroke-linejoin:round;stroke:rgb(69.019608%,69.019608%,69.019608%);stroke-opacity:1;stroke-miterlimit:4;" d="M 164.446875 144.259375 L 164.446875 8.359375 " transform="matrix(1.25,0,0,1.25,0,0)"/>
</g>
<path style="fill:none;stroke-width:0.8;stroke-linecap:butt;stroke-linejoin:round;stroke:rgb(0%,0%,0%);stroke-opacity:1;stroke-miterlimit:4;" d="M 0.000329 -0.000625 L 0.000329 3.499375 " transform="matrix(1.25,0,0,1.25,205.558183,180.325)"/>
<path style=" stroke:none;fill-rule:nonzero;fill:rgb(0%,0%,0%);fill-opacity:1;" d="M 201.730469 193.527344 C 201.179688 193.527344 200.738281 193.714844 200.414062 194.09375 C 200.09375 194.472656 199.929688 194.992188 199.929688 195.648438 C 199.929688 196.304688 200.09375 196.824219 200.414062 197.203125 C 200.738281 197.585938 201.179688 197.773438 201.730469 197.773438 C 202.285156 197.773438 202.722656 197.585938 203.046875 197.203125 C 203.371094 196.824219 203.53125 196.304688 203.53125 195.648438 C 203.53125 194.992188 203.371094 194.472656 203.046875 194.09375 C 202.722656 193.714844 202.285156 193.527344 201.730469 193.527344 Z M 204.179688 189.660156 L 204.179688 190.785156 C 203.871094 190.636719 203.558594 190.527344 203.242188 190.449219 C 202.925781 190.371094 202.613281 190.332031 202.304688 190.332031 C 201.492188 190.332031 200.867188 190.609375 200.4375 191.15625 C 200.011719 191.707031 199.765625 192.535156 199.703125 193.648438 C 199.945312 193.292969 200.246094 193.023438 200.605469 192.832031 C 200.96875 192.644531 201.371094 192.550781 201.804688 192.550781 C 202.71875 192.550781 203.441406 192.828125 203.972656 193.382812 C 204.503906 193.9375 204.769531 194.695312 204.769531 195.648438 C 204.769531 196.585938 204.496094 197.335938 203.941406 197.902344 C 203.386719 198.46875 202.652344 198.75 201.730469 198.75 C 200.675781 198.75 199.871094 198.347656 199.3125 197.539062 C 198.757812 196.730469 198.476562 195.558594 198.476562 194.027344 C 198.476562 192.585938 198.820312 191.4375 199.503906 190.582031 C 200.1875 189.722656 201.105469 189.296875 202.253906 189.296875 C 202.566406 189.296875 202.878906 189.328125 203.191406 189.386719 C 203.507812 189.449219 203.835938 189.539062 204.179688 189.660156 Z M 204.179688 189.660156 "/>
<path style=" stroke:none;fill-rule:nonzero;fill:rgb(0%,0%,0%);fill-opacity:1;" d="M 209.53125 190.273438 C 208.894531 190.273438 208.417969 190.585938 208.097656 191.210938 C 207.78125 191.832031 207.621094 192.773438 207.621094 194.027344 C 207.621094 195.273438 207.78125 196.210938 208.097656 196.835938 C 208.417969 197.460938 208.894531 197.773438 209.53125 197.773438 C 210.167969 197.773438 210.648438 197.460938 210.96875 196.835938 C 211.289062 196.210938 211.449219 195.273438 211.449219 194.027344 C 211.449219 192.773438 211.289062 191.832031 210.96875 191.210938 C 210.648438 190.585938 210.167969 190.273438 209.53125 190.273438 Z M 209.53125 189.296875 C 210.550781 189.296875 211.332031 189.699219 211.871094 190.507812 C 212.410156 191.316406 212.679688 192.488281 212.679688 194.027344 C 212.679688 195.558594 212.410156 196.730469 211.871094 197.539062 C 211.332031 198.347656 210.550781 198.75 209.53125 198.75 C 208.507812 198.75 207.730469 198.347656 207.191406 197.539062 C 206.652344 196.730469 206.382812 195.558594 206.382812 194.027344 C 206.382812 192.488281 206.652344 191.316406 207.191406 190.507812 C 207.730469 189.699219 208.507812 189.296875 209.53125 189.296875 Z M 209.53125 189.296875 "/>
<g clip-path="url(#clip4)" clip-rule="nonzero">
<path style="fill:none;stroke-width:0.8;stroke-linecap:square;stroke-linejoin:round;stroke:rgb(69.019608%,69.019608%,69.019608%);stroke-opacity:1;stroke-miterlimit:4;" d="M 205.5625 144.259375 L 205.5625 8.359375 " transform="matrix(1.25,0,0,1.25,0,0)"/>
</g>
<path style="fill:none;stroke-width:0.8;stroke-linecap:butt;stroke-linejoin:round;stroke:rgb(0%,0%,0%);stroke-opacity:1;stroke-miterlimit:4;" d="M 0.000164 -0.000625 L 0.000164 3.499375 " transform="matrix(1.25,0,0,1.25,256.95292,180.325)"/>
<path style=" stroke:none;fill-rule:nonzero;fill:rgb(0%,0%,0%);fill-opacity:1;" d="M 252.972656 194.246094 C 252.386719 194.246094 251.925781 194.402344 251.589844 194.714844 C 251.253906 195.03125 251.085938 195.460938 251.085938 196.007812 C 251.085938 196.558594 251.253906 196.988281 251.589844 197.304688 C 251.925781 197.617188 252.386719 197.773438 252.972656 197.773438 C 253.558594 197.773438 254.019531 197.617188 254.355469 197.300781 C 254.695312 196.984375 254.863281 196.554688 254.863281 196.007812 C 254.863281 195.460938 254.695312 195.03125 254.359375 194.714844 C 254.027344 194.402344 253.5625 194.246094 252.972656 194.246094 Z M 251.738281 193.722656 C 251.210938 193.589844 250.800781 193.34375 250.503906 192.984375 C 250.210938 192.621094 250.0625 192.179688 250.0625 191.65625 C 250.0625 190.929688 250.320312 190.355469 250.839844 189.929688 C 251.359375 189.507812 252.070312 189.296875 252.972656 189.296875 C 253.878906 189.296875 254.59375 189.507812 255.109375 189.929688 C 255.625 190.355469 255.882812 190.929688 255.882812 191.65625 C 255.882812 192.179688 255.738281 192.621094 255.441406 192.984375 C 255.148438 193.34375 254.738281 193.589844 254.210938 193.722656 C 254.804688 193.859375 255.269531 194.128906 255.597656 194.535156 C 255.929688 194.9375 256.097656 195.429688 256.097656 196.007812 C 256.097656 196.894531 255.828125 197.570312 255.289062 198.042969 C 254.75 198.515625 253.976562 198.75 252.972656 198.75 C 251.96875 198.75 251.195312 198.515625 250.65625 198.042969 C 250.117188 197.570312 249.847656 196.894531 249.847656 196.007812 C 249.847656 195.429688 250.015625 194.9375 250.347656 194.535156 C 250.683594 194.128906 251.144531 193.859375 251.738281 193.722656 Z M 251.289062 191.773438 C 251.289062 192.246094 251.4375 192.613281 251.730469 192.878906 C 252.027344 193.140625 252.441406 193.273438 252.972656 193.273438 C 253.503906 193.273438 253.917969 193.140625 254.214844 192.878906 C 254.515625 192.613281 254.664062 192.246094 254.664062 191.773438 C 254.664062 191.300781 254.515625 190.933594 254.214844 190.667969 C 253.917969 190.40625 253.503906 190.273438 252.972656 190.273438 C 252.441406 190.273438 252.027344 190.40625 251.730469 190.667969 C 251.4375 190.933594 251.289062 191.300781 251.289062 191.773438 Z M 251.289062 191.773438 "/>
<path style=" stroke:none;fill-rule:nonzero;fill:rgb(0%,0%,0%);fill-opacity:1;" d="M 260.925781 190.273438 C 260.292969 190.273438 259.8125 190.585938 259.492188 191.210938 C 259.175781 191.832031 259.015625 192.773438 259.015625 194.027344 C 259.015625 195.273438 259.175781 196.210938 259.492188 196.835938 C 259.8125 197.460938 260.292969 197.773438 260.925781 197.773438 C 261.566406 197.773438 262.042969 197.460938 262.363281 196.835938 C 262.683594 196.210938 262.84375 195.273438 262.84375 194.027344 C 262.84375 192.773438 262.683594 191.832031 262.363281 191.210938 C 262.042969 190.585938 261.566406 190.273438 260.925781 190.273438 Z M 260.925781 189.296875 C 261.949219 189.296875 262.726562 189.699219 263.265625 190.507812 C 263.804688 191.316406 264.074219 192.488281 264.074219 194.027344 C 264.074219 195.558594 263.804688 196.730469 263.265625 197.539062 C 262.726562 198.347656 261.949219 198.75 260.925781 198.75 C 259.90625 198.75 259.125 198.347656 258.585938 197.539062 C 258.046875 196.730469 257.777344 195.558594 257.777344 194.027344 C 257.777344 192.488281 258.046875 191.316406 258.585938 190.507812 C 259.125 189.699219 259.90625 189.296875 260.925781 189.296875 Z M 260.925781 189.296875 "/>
<g clip-path="url(#clip5)" clip-rule="nonzero">
<path style="fill:none;stroke-width:0.8;stroke-linecap:square;stroke-linejoin:round;stroke:rgb(69.019608%,69.019608%,69.019608%);stroke-opacity:1;stroke-miterlimit:4;" d="M 246.678125 144.259375 L 246.678125 8.359375 " transform="matrix(1.25,0,0,1.25,0,0)"/>
</g>
<path style="fill:none;stroke-width:0.8;stroke-linecap:butt;stroke-linejoin:round;stroke:rgb(0%,0%,0%);stroke-opacity:1;stroke-miterlimit:4;" d="M 0 -0.000625 L 0 3.499375 " transform="matrix(1.25,0,0,1.25,308.347656,180.325)"/>
<path style=" stroke:none;fill-rule:nonzero;fill:rgb(0%,0%,0%);fill-opacity:1;" d="M 297.96875 197.535156 L 299.984375 197.535156 L 299.984375 190.582031 L 297.789062 191.023438 L 297.789062 189.898438 L 299.96875 189.460938 L 301.203125 189.460938 L 301.203125 197.535156 L 303.21875 197.535156 L 303.21875 198.574219 L 297.96875 198.574219 Z M 297.96875 197.535156 "/>
<path style=" stroke:none;fill-rule:nonzero;fill:rgb(0%,0%,0%);fill-opacity:1;" d="M 308.34375 190.273438 C 307.710938 190.273438 307.230469 190.585938 306.910156 191.210938 C 306.59375 191.832031 306.433594 192.773438 306.433594 194.027344 C 306.433594 195.273438 306.59375 196.210938 306.910156 196.835938 C 307.230469 197.460938 307.710938 197.773438 308.34375 197.773438 C 308.984375 197.773438 309.460938 197.460938 309.78125 196.835938 C 310.101562 196.210938 310.261719 195.273438 310.261719 194.027344 C 310.261719 192.773438 310.101562 191.832031 309.78125 191.210938 C 309.460938 190.585938 308.984375 190.273438 308.34375 190.273438 Z M 308.34375 189.296875 C 309.367188 189.296875 310.144531 189.699219 310.683594 190.507812 C 311.222656 191.316406 311.492188 192.488281 311.492188 194.027344 C 311.492188 195.558594 311.222656 196.730469 310.683594 197.539062 C 310.144531 198.347656 309.367188 198.75 308.34375 198.75 C 307.324219 198.75 306.542969 198.347656 306.003906 197.539062 C 305.464844 196.730469 305.195312 195.558594 305.195312 194.027344 C 305.195312 192.488281 305.464844 191.316406 306.003906 190.507812 C 306.542969 189.699219 307.324219 189.296875 308.34375 189.296875 Z M 308.34375 189.296875 "/>
<path style=" stroke:none;fill-rule:nonzero;fill:rgb(0%,0%,0%);fill-opacity:1;" d="M 316.296875 190.273438 C 315.664062 190.273438 315.183594 190.585938 314.863281 191.210938 C 314.546875 191.832031 314.386719 192.773438 314.386719 194.027344 C 314.386719 195.273438 314.546875 196.210938 314.863281 196.835938 C 315.183594 197.460938 315.664062 197.773438 316.296875 197.773438 C 316.9375 197.773438 317.414062 197.460938 317.734375 196.835938 C 318.054688 196.210938 318.214844 195.273438 318.214844 194.027344 C 318.214844 192.773438 318.054688 191.832031 317.734375 191.210938 C 317.414062 190.585938 316.9375 190.273438 316.296875 190.273438 Z M 316.296875 189.296875 C 317.320312 189.296875 318.097656 189.699219 318.636719 190.507812 C 319.175781 191.316406 319.445312 192.488281 319.445312 194.027344 C 319.445312 195.558594 319.175781 196.730469 318.636719 197.539062 C 318.097656 198.347656 317.320312 198.75 316.296875 198.75 C 315.277344 198.75 314.496094 198.347656 313.957031 197.539062 C 313.417969 196.730469 313.148438 195.558594 313.148438 194.027344 C 313.148438 192.488281 313.417969 191.316406 313.957031 190.507812 C 314.496094 189.699219 315.277344 189.296875 316.296875 189.296875 Z M 316.296875 189.296875 "/>
<path style=" stroke:none;fill-rule:nonzero;fill:rgb(0%,0%,0%);fill-opacity:1;" d="M 171.019531 211.972656 L 171.019531 212.519531 L 165.855469 212.519531 C 165.90625 213.292969 166.136719 213.882812 166.554688 214.289062 C 166.972656 214.691406 167.550781 214.894531 168.296875 214.894531 C 168.726562 214.894531 169.144531 214.84375 169.550781 214.738281 C 169.957031 214.632812 170.359375 214.472656 170.757812 214.261719 L 170.757812 215.324219 C 170.355469 215.492188 169.941406 215.625 169.515625 215.714844 C 169.09375 215.804688 168.664062 215.847656 168.230469 215.847656 C 167.140625 215.847656 166.273438 215.53125 165.636719 214.898438 C 165 214.261719 164.683594 213.402344 164.683594 212.320312 C 164.683594 211.199219 164.984375 210.3125 165.589844 209.65625 C 166.195312 209 167.007812 208.671875 168.035156 208.671875 C 168.953125 208.671875 169.679688 208.96875 170.214844 209.558594 C 170.75 210.152344 171.019531 210.953125 171.019531 211.972656 Z M 169.894531 211.640625 C 169.886719 211.027344 169.714844 210.539062 169.378906 210.171875 C 169.042969 209.804688 168.601562 209.621094 168.046875 209.621094 C 167.421875 209.621094 166.917969 209.800781 166.542969 210.152344 C 166.167969 210.507812 165.949219 211.007812 165.890625 211.648438 Z M 169.894531 211.640625 "/>
<path style=" stroke:none;fill-rule:nonzero;fill:rgb(0%,0%,0%);fill-opacity:1;" d="M 173.949219 214.644531 L 173.949219 218.269531 L 172.820312 218.269531 L 172.820312 208.835938 L 173.949219 208.835938 L 173.949219 209.871094 C 174.183594 209.464844 174.484375 209.164062 174.84375 208.96875 C 175.203125 208.769531 175.632812 208.671875 176.132812 208.671875 C 176.964844 208.671875 177.640625 209 178.15625 209.660156 C 178.675781 210.316406 178.9375 211.183594 178.9375 212.257812 C 178.9375 213.332031 178.675781 214.199219 178.15625 214.859375 C 177.640625 215.519531 176.964844 215.847656 176.132812 215.847656 C 175.632812 215.847656 175.203125 215.75 174.84375 215.550781 C 174.484375 215.355469 174.183594 215.050781 173.949219 214.644531 Z M 177.769531 212.257812 C 177.769531 211.433594 177.601562 210.785156 177.261719 210.316406 C 176.921875 209.84375 176.453125 209.609375 175.859375 209.609375 C 175.265625 209.609375 174.796875 209.84375 174.457031 210.316406 C 174.117188 210.785156 173.949219 211.433594 173.949219 212.257812 C 173.949219 213.085938 174.117188 213.730469 174.457031 214.203125 C 174.796875 214.671875 175.265625 214.90625 175.859375 214.90625 C 176.453125 214.90625 176.921875 214.671875 177.261719 214.203125 C 177.601562 213.730469 177.769531 213.085938 177.769531 212.257812 Z M 177.769531 212.257812 "/>
<path style=" stroke:none;fill-rule:nonzero;fill:rgb(0%,0%,0%);fill-opacity:1;" d="M 183.445312 209.621094 C 182.84375 209.621094 182.367188 209.855469 182.015625 210.328125 C 181.667969 210.796875 181.492188 211.441406 181.492188 212.257812 C 181.492188 213.078125 181.664062 213.71875 182.011719 214.191406 C 182.363281 214.660156 182.839844 214.894531 183.445312 214.894531 C 184.042969 214.894531 184.519531 214.660156 184.867188 214.1875 C 185.21875 213.714844 185.390625 213.074219 185.390625 212.257812 C 185.390625 211.449219 185.21875 210.808594 184.867188 210.332031 C 184.519531 209.859375 184.042969 209.621094 183.445312 209.621094 Z M 183.445312 208.671875 C 184.421875 208.671875 185.1875 208.988281 185.746094 209.625 C 186.304688 210.257812 186.582031 211.136719 186.582031 212.257812 C 186.582031 213.378906 186.304688 214.253906 185.746094 214.894531 C 185.1875 215.53125 184.421875 215.847656 183.445312 215.847656 C 182.464844 215.847656 181.695312 215.53125 181.140625 214.894531 C 180.585938 214.253906 180.308594 213.378906 180.308594 212.257812 C 180.308594 211.136719 180.585938 210.257812 181.140625 209.625 C 181.695312 208.988281 182.464844 208.671875 183.445312 208.671875 Z M 183.445312 208.671875 "/>
<path style=" stroke:none;fill-rule:nonzero;fill:rgb(0%,0%,0%);fill-opacity:1;" d="M 193.363281 209.097656 L 193.363281 210.148438 C 193.046875 209.972656 192.726562 209.839844 192.410156 209.753906 C 192.089844 209.664062 191.769531 209.621094 191.441406 209.621094 C 190.714844 209.621094 190.148438 209.851562 189.742188 210.316406 C 189.339844 210.777344 189.140625 211.425781 189.140625 212.257812 C 189.140625 213.09375 189.339844 213.742188 189.742188 214.203125 C 190.148438 214.664062 190.714844 214.894531 191.441406 214.894531 C 191.769531 214.894531 192.089844 214.851562 192.410156 214.765625 C 192.726562 214.675781 193.046875 214.546875 193.363281 214.371094 L 193.363281 215.410156 C 193.050781 215.554688 192.726562 215.664062 192.390625 215.738281 C 192.054688 215.8125 191.699219 215.847656 191.320312 215.847656 C 190.289062 215.847656 189.472656 215.523438 188.863281 214.878906 C 188.257812 214.230469 187.957031 213.359375 187.957031 212.257812 C 187.957031 211.144531 188.261719 210.269531 188.875 209.628906 C 189.488281 208.992188 190.328125 208.671875 191.394531 208.671875 C 191.738281 208.671875 192.074219 208.707031 192.40625 208.777344 C 192.734375 208.847656 193.054688 208.953125 193.363281 209.097656 Z M 193.363281 209.097656 "/>
<path style=" stroke:none;fill-rule:nonzero;fill:rgb(0%,0%,0%);fill-opacity:1;" d="M 201 211.542969 L 201 215.671875 L 199.878906 215.671875 L 199.878906 211.582031 C 199.878906 210.933594 199.75 210.449219 199.5 210.128906 C 199.246094 209.808594 198.867188 209.648438 198.363281 209.648438 C 197.757812 209.648438 197.277344 209.839844 196.929688 210.226562 C 196.578125 210.613281 196.402344 211.140625 196.402344 211.808594 L 196.402344 215.671875 L 195.273438 215.671875 L 195.273438 206.171875 L 196.402344 206.171875 L 196.402344 209.898438 C 196.671875 209.484375 196.988281 209.179688 197.351562 208.976562 C 197.71875 208.773438 198.136719 208.671875 198.613281 208.671875 C 199.398438 208.671875 199.992188 208.914062 200.394531 209.398438 C 200.800781 209.886719 201 210.601562 201 211.542969 Z M 201 211.542969 "/>
<path style=" stroke:none;fill-rule:nonzero;fill:rgb(0%,0%,0%);fill-opacity:1;" d="M 207.597656 209.035156 L 207.597656 210.097656 C 207.28125 209.9375 206.949219 209.8125 206.609375 209.734375 C 206.265625 209.652344 205.914062 209.609375 205.546875 209.609375 C 204.988281 209.609375 204.570312 209.695312 204.292969 209.867188 C 204.011719 210.035156 203.875 210.292969 203.875 210.636719 C 203.875 210.894531 203.972656 211.101562 204.171875 211.25 C 204.371094 211.398438 204.773438 211.539062 205.375 211.671875 L 205.761719 211.757812 C 206.558594 211.929688 207.125 212.171875 207.460938 212.480469 C 207.796875 212.792969 207.964844 213.226562 207.964844 213.785156 C 207.964844 214.417969 207.710938 214.921875 207.210938 215.292969 C 206.707031 215.664062 206.015625 215.847656 205.136719 215.847656 C 204.773438 215.847656 204.390625 215.8125 203.992188 215.742188 C 203.597656 215.667969 203.179688 215.5625 202.738281 215.421875 L 202.738281 214.261719 C 203.15625 214.476562 203.5625 214.640625 203.964844 214.746094 C 204.367188 214.855469 204.765625 214.90625 205.164062 214.90625 C 205.691406 214.90625 206.097656 214.816406 206.382812 214.636719 C 206.667969 214.453125 206.808594 214.199219 206.808594 213.871094 C 206.808594 213.566406 206.707031 213.332031 206.5 213.167969 C 206.296875 213.007812 205.847656 212.847656 205.148438 212.699219 L 204.757812 212.605469 C 204.0625 212.460938 203.5625 212.234375 203.25 211.933594 C 202.941406 211.628906 202.789062 211.214844 202.789062 210.683594 C 202.789062 210.042969 203.015625 209.546875 203.472656 209.195312 C 203.925781 208.847656 204.574219 208.671875 205.414062 208.671875 C 205.828125 208.671875 206.21875 208.703125 206.582031 208.761719 C 206.949219 208.824219 207.289062 208.914062 207.597656 209.035156 Z M 207.597656 209.035156 "/>
<g clip-path="url(#clip6)" clip-rule="nonzero">
<path style="fill:none;stroke-width:0.8;stroke-linecap:square;stroke-linejoin:round;stroke:rgb(69.019608%,69.019608%,69.019608%);stroke-opacity:1;stroke-miterlimit:4;" d="M 51.378125 102.90625 L 246.678125 102.90625 " transform="matrix(1.25,0,0,1.25,0,0)"/>
</g>
<path style="fill:none;stroke-width:0.8;stroke-linecap:butt;stroke-linejoin:round;stroke:rgb(0%,0%,0%);stroke-opacity:1;stroke-miterlimit:4;" d="M 0 -0.001324 L -3.5 -0.001324 " transform="matrix(1.25,0,0,1.25,64.222656,128.634467)"/>
<path style=" stroke:none;fill-rule:nonzero;fill:rgb(0%,0%,0%);fill-opacity:1;" d="M 27.648438 132.25 L 29.664062 132.25 L 29.664062 125.296875 L 27.46875 125.738281 L 27.46875 124.613281 L 29.648438 124.175781 L 30.882812 124.175781 L 30.882812 132.25 L 32.898438 132.25 L 32.898438 133.289062 L 27.648438 133.289062 Z M 27.648438 132.25 "/>
<path style=" stroke:none;fill-rule:nonzero;fill:rgb(0%,0%,0%);fill-opacity:1;" d="M 38.023438 124.988281 C 37.390625 124.988281 36.910156 125.300781 36.589844 125.925781 C 36.273438 126.546875 36.113281 127.488281 36.113281 128.742188 C 36.113281 129.988281 36.273438 130.925781 36.589844 131.550781 C 36.910156 132.175781 37.390625 132.488281 38.023438 132.488281 C 38.664062 132.488281 39.140625 132.175781 39.460938 131.550781 C 39.78125 130.925781 39.941406 129.988281 39.941406 128.742188 C 39.941406 127.488281 39.78125 126.546875 39.460938 125.925781 C 39.140625 125.300781 38.664062 124.988281 38.023438 124.988281 Z M 38.023438 124.011719 C 39.046875 124.011719 39.824219 124.414062 40.363281 125.222656 C 40.902344 126.03125 41.171875 127.203125 41.171875 128.742188 C 41.171875 130.273438 40.902344 131.445312 40.363281 132.253906 C 39.824219 133.0625 39.046875 133.464844 38.023438 133.464844 C 37.003906 133.464844 36.222656 133.0625 35.683594 132.253906 C 35.144531 131.445312 34.875 130.273438 34.875 128.742188 C 34.875 127.203125 35.144531 126.03125 35.683594 125.222656 C 36.222656 124.414062 37.003906 124.011719 38.023438 124.011719 Z M 38.023438 124.011719 "/>
<path style=" stroke:none;fill-rule:nonzero;fill:rgb(0%,0%,0%);fill-opacity:1;" d="M 43.050781 125.394531 L 48.527344 125.394531 L 48.527344 126.121094 L 43.050781 126.121094 Z M 43.050781 125.394531 "/>
<path style=" stroke:none;fill-rule:nonzero;fill:rgb(0%,0%,0%);fill-opacity:1;" d="M 51.132812 127.777344 L 54.144531 127.777344 L 54.144531 128.503906 L 50.097656 128.503906 L 50.097656 127.777344 C 50.421875 127.4375 50.871094 126.984375 51.433594 126.414062 C 52 125.839844 52.355469 125.472656 52.5 125.304688 C 52.777344 124.996094 52.96875 124.734375 53.078125 124.519531 C 53.1875 124.304688 53.246094 124.09375 53.246094 123.882812 C 53.246094 123.546875 53.125 123.269531 52.886719 123.054688 C 52.648438 122.839844 52.339844 122.734375 51.957031 122.734375 C 51.6875 122.734375 51.402344 122.78125 51.101562 122.875 C 50.800781 122.96875 50.480469 123.113281 50.136719 123.304688 L 50.136719 122.429688 C 50.484375 122.292969 50.808594 122.1875 51.113281 122.113281 C 51.414062 122.042969 51.691406 122.007812 51.941406 122.007812 C 52.601562 122.007812 53.128906 122.175781 53.523438 122.503906 C 53.914062 122.835938 54.109375 123.277344 54.109375 123.828125 C 54.109375 124.089844 54.0625 124.339844 53.964844 124.574219 C 53.867188 124.808594 53.6875 125.085938 53.425781 125.40625 C 53.355469 125.488281 53.128906 125.726562 52.75 126.121094 C 52.367188 126.515625 51.828125 127.066406 51.132812 127.777344 Z M 51.132812 127.777344 "/>
<g clip-path="url(#clip7)" clip-rule="nonzero">
<path style="fill:none;stroke-width:0.8;stroke-linecap:square;stroke-linejoin:round;stroke:rgb(69.019608%,69.019608%,69.019608%);stroke-opacity:1;stroke-miterlimit:4;" d="M 51.378125 56.953125 L 246.678125 56.953125 " transform="matrix(1.25,0,0,1.25,0,0)"/>
</g>
<path style="fill:none;stroke-width:0.8;stroke-linecap:butt;stroke-linejoin:round;stroke:rgb(0%,0%,0%);stroke-opacity:1;stroke-miterlimit:4;" d="M 0 -0.000271 L -3.5 -0.000271 " transform="matrix(1.25,0,0,1.25,64.222656,71.191745)"/>
<path style=" stroke:none;fill-rule:nonzero;fill:rgb(0%,0%,0%);fill-opacity:1;" d="M 35.023438 74.808594 L 37.039062 74.808594 L 37.039062 67.855469 L 34.84375 68.292969 L 34.84375 67.171875 L 37.023438 66.730469 L 38.257812 66.730469 L 38.257812 74.808594 L 40.273438 74.808594 L 40.273438 75.84375 L 35.023438 75.84375 Z M 35.023438 74.808594 "/>
<path style=" stroke:none;fill-rule:nonzero;fill:rgb(0%,0%,0%);fill-opacity:1;" d="M 45.398438 67.542969 C 44.765625 67.542969 44.285156 67.855469 43.964844 68.480469 C 43.648438 69.105469 43.488281 70.042969 43.488281 71.296875 C 43.488281 72.546875 43.648438 73.484375 43.964844 74.109375 C 44.285156 74.734375 44.765625 75.046875 45.398438 75.046875 C 46.039062 75.046875 46.515625 74.734375 46.835938 74.109375 C 47.15625 73.484375 47.316406 72.546875 47.316406 71.296875 C 47.316406 70.042969 47.15625 69.105469 46.835938 68.480469 C 46.515625 67.855469 46.039062 67.542969 45.398438 67.542969 Z M 45.398438 66.566406 C 46.421875 66.566406 47.199219 66.972656 47.738281 67.78125 C 48.277344 68.589844 48.546875 69.761719 48.546875 71.296875 C 48.546875 72.832031 48.277344 74.003906 47.738281 74.8125 C 47.199219 75.621094 46.421875 76.023438 45.398438 76.023438 C 44.378906 76.023438 43.597656 75.621094 43.058594 74.8125 C 42.519531 74.003906 42.25 72.832031 42.25 71.296875 C 42.25 69.761719 42.519531 68.589844 43.058594 67.78125 C 43.597656 66.972656 44.378906 66.566406 45.398438 66.566406 Z M 45.398438 66.566406 "/>
<path style=" stroke:none;fill-rule:nonzero;fill:rgb(0%,0%,0%);fill-opacity:1;" d="M 52.277344 65.25 C 51.835938 65.25 51.5 65.46875 51.277344 65.90625 C 51.054688 66.34375 50.941406 67 50.941406 67.878906 C 50.941406 68.75 51.054688 69.40625 51.277344 69.84375 C 51.5 70.28125 51.835938 70.5 52.277344 70.5 C 52.726562 70.5 53.0625 70.28125 53.285156 69.84375 C 53.507812 69.40625 53.621094 68.75 53.621094 67.878906 C 53.621094 67 53.507812 66.34375 53.285156 65.90625 C 53.0625 65.46875 52.726562 65.25 52.277344 65.25 Z M 52.277344 64.566406 C 52.996094 64.566406 53.539062 64.847656 53.917969 65.414062 C 54.296875 65.980469 54.484375 66.800781 54.484375 67.878906 C 54.484375 68.949219 54.296875 69.769531 53.917969 70.335938 C 53.539062 70.902344 52.996094 71.183594 52.277344 71.183594 C 51.5625 71.183594 51.019531 70.902344 50.640625 70.335938 C 50.265625 69.769531 50.074219 68.949219 50.074219 67.878906 C 50.074219 66.800781 50.265625 65.980469 50.640625 65.414062 C 51.019531 64.847656 51.5625 64.566406 52.277344 64.566406 Z M 52.277344 64.566406 "/>
<g clip-path="url(#clip8)" clip-rule="nonzero">
<path style="fill:none;stroke-width:0.8;stroke-linecap:square;stroke-linejoin:round;stroke:rgb(69.019608%,69.019608%,69.019608%);stroke-opacity:1;stroke-miterlimit:4;" d="M 51.378125 11 L 246.678125 11 " transform="matrix(1.25,0,0,1.25,0,0)"/>
</g>
<path style="fill:none;stroke-width:0.8;stroke-linecap:butt;stroke-linejoin:round;stroke:rgb(0%,0%,0%);stroke-opacity:1;stroke-miterlimit:4;" d="M 0 0.000781 L -3.5 0.000781 " transform="matrix(1.25,0,0,1.25,64.222656,13.749024)"/>
<path style=" stroke:none;fill-rule:nonzero;fill:rgb(0%,0%,0%);fill-opacity:1;" d="M 35.023438 17.363281 L 37.039062 17.363281 L 37.039062 10.410156 L 34.84375 10.851562 L 34.84375 9.726562 L 37.023438 9.289062 L 38.257812 9.289062 L 38.257812 17.363281 L 40.273438 17.363281 L 40.273438 18.402344 L 35.023438 18.402344 Z M 35.023438 17.363281 "/>
<path style=" stroke:none;fill-rule:nonzero;fill:rgb(0%,0%,0%);fill-opacity:1;" d="M 45.398438 10.101562 C 44.765625 10.101562 44.285156 10.414062 43.964844 11.039062 C 43.648438 11.664062 43.488281 12.601562 43.488281 13.855469 C 43.488281 15.105469 43.648438 16.039062 43.964844 16.664062 C 44.285156 17.289062 44.765625 17.601562 45.398438 17.601562 C 46.039062 17.601562 46.515625 17.289062 46.835938 16.664062 C 47.15625 16.039062 47.316406 15.105469 47.316406 13.855469 C 47.316406 12.601562 47.15625 11.664062 46.835938 11.039062 C 46.515625 10.414062 46.039062 10.101562 45.398438 10.101562 Z M 45.398438 9.125 C 46.421875 9.125 47.199219 9.527344 47.738281 10.335938 C 48.277344 11.144531 48.546875 12.316406 48.546875 13.855469 C 48.546875 15.390625 48.277344 16.558594 47.738281 17.367188 C 47.199219 18.175781 46.421875 18.578125 45.398438 18.578125 C 44.378906 18.578125 43.597656 18.175781 43.058594 17.367188 C 42.519531 16.558594 42.25 15.390625 42.25 13.855469 C 42.25 12.316406 42.519531 11.144531 43.058594 10.335938 C 43.597656 9.527344 44.378906 9.125 45.398438 9.125 Z M 45.398438 9.125 "/>
<path style=" stroke:none;fill-rule:nonzero;fill:rgb(0%,0%,0%);fill-opacity:1;" d="M 51.175781 12.890625 L 54.1875 12.890625 L 54.1875 13.617188 L 50.140625 13.617188 L 50.140625 12.890625 C 50.464844 12.550781 50.914062 12.097656 51.476562 11.527344 C 52.042969 10.957031 52.398438 10.585938 52.542969 10.421875 C 52.820312 10.109375 53.011719 9.847656 53.121094 9.632812 C 53.234375 9.417969 53.289062 9.207031 53.289062 9 C 53.289062 8.660156 53.167969 8.382812 52.929688 8.171875 C 52.691406 7.957031 52.382812 7.847656 52 7.847656 C 51.730469 7.847656 51.445312 7.894531 51.144531 7.988281 C 50.84375 8.082031 50.523438 8.226562 50.179688 8.417969 L 50.179688 7.546875 C 50.527344 7.40625 50.851562 7.300781 51.15625 7.230469 C 51.457031 7.160156 51.734375 7.121094 51.984375 7.121094 C 52.644531 7.121094 53.171875 7.289062 53.566406 7.621094 C 53.957031 7.949219 54.15625 8.390625 54.15625 8.941406 C 54.15625 9.207031 54.105469 9.453125 54.007812 9.6875 C 53.910156 9.921875 53.730469 10.199219 53.472656 10.519531 C 53.398438 10.601562 53.171875 10.839844 52.792969 11.234375 C 52.410156 11.628906 51.871094 12.183594 51.175781 12.890625 Z M 51.175781 12.890625 "/>
<path style=" stroke:none;fill-rule:nonzero;fill:rgb(0%,0%,0%);fill-opacity:1;" d="M 9 106.28125 L 9 105.160156 L 18.496094 105.160156 L 18.496094 106.28125 Z M 9 106.28125 "/>
<path style=" stroke:none;fill-rule:nonzero;fill:rgb(0%,0%,0%);fill-opacity:1;" d="M 12.449219 100.160156 C 12.449219 100.761719 12.683594 101.238281 13.152344 101.589844 C 13.625 101.9375 14.269531 102.113281 15.085938 102.113281 C 15.902344 102.113281 16.546875 101.941406 17.015625 101.59375 C 17.488281 101.242188 17.722656 100.765625 17.722656 100.160156 C 17.722656 99.5625 17.488281 99.085938 17.015625 98.738281 C 16.542969 98.386719 15.898438 98.214844 15.085938 98.214844 C 14.277344 98.214844 13.632812 98.386719 13.160156 98.738281 C 12.6875 99.085938 12.449219 99.5625 12.449219 100.160156 Z M 11.496094 100.160156 C 11.496094 99.183594 11.816406 98.417969 12.449219 97.859375 C 13.085938 97.300781 13.964844 97.023438 15.085938 97.023438 C 16.203125 97.023438 17.082031 97.300781 17.71875 97.859375 C 18.355469 98.417969 18.675781 99.183594 18.675781 100.160156 C 18.675781 101.140625 18.355469 101.910156 17.71875 102.464844 C 17.082031 103.019531 16.203125 103.296875 15.085938 103.296875 C 13.964844 103.296875 13.085938 103.019531 12.449219 102.464844 C 11.816406 101.910156 11.496094 101.140625 11.496094 100.160156 Z M 11.496094 100.160156 "/>
<path style=" stroke:none;fill-rule:nonzero;fill:rgb(0%,0%,0%);fill-opacity:1;" d="M 11.863281 90.804688 L 12.925781 90.804688 C 12.761719 91.121094 12.640625 91.449219 12.558594 91.792969 C 12.476562 92.132812 12.4375 92.488281 12.4375 92.855469 C 12.4375 93.410156 12.523438 93.828125 12.691406 94.109375 C 12.863281 94.386719 13.121094 94.527344 13.460938 94.527344 C 13.722656 94.527344 13.925781 94.425781 14.074219 94.226562 C 14.222656 94.027344 14.367188 93.628906 14.5 93.023438 L 14.585938 92.640625 C 14.757812 91.84375 14.996094 91.277344 15.308594 90.941406 C 15.621094 90.605469 16.054688 90.4375 16.609375 90.4375 C 17.246094 90.4375 17.75 90.6875 18.121094 91.191406 C 18.492188 91.691406 18.675781 92.382812 18.675781 93.261719 C 18.675781 93.628906 18.640625 94.011719 18.566406 94.40625 C 18.496094 94.804688 18.390625 95.222656 18.246094 95.660156 L 17.085938 95.660156 C 17.304688 95.246094 17.464844 94.835938 17.574219 94.433594 C 17.679688 94.03125 17.734375 93.632812 17.734375 93.238281 C 17.734375 92.707031 17.644531 92.300781 17.460938 92.019531 C 17.28125 91.734375 17.027344 91.589844 16.695312 91.589844 C 16.390625 91.589844 16.160156 91.695312 15.996094 91.898438 C 15.832031 92.105469 15.675781 92.554688 15.523438 93.25 L 15.433594 93.640625 C 15.289062 94.335938 15.0625 94.839844 14.757812 95.148438 C 14.457031 95.457031 14.039062 95.613281 13.511719 95.613281 C 12.867188 95.613281 12.371094 95.382812 12.023438 94.929688 C 11.671875 94.472656 11.496094 93.824219 11.496094 92.988281 C 11.496094 92.574219 11.527344 92.183594 11.589844 91.816406 C 11.648438 91.449219 11.742188 91.113281 11.863281 90.804688 Z M 11.863281 90.804688 "/>
<path style=" stroke:none;fill-rule:nonzero;fill:rgb(0%,0%,0%);fill-opacity:1;" d="M 11.863281 84.292969 L 12.925781 84.292969 C 12.761719 84.609375 12.640625 84.9375 12.558594 85.28125 C 12.476562 85.621094 12.4375 85.976562 12.4375 86.34375 C 12.4375 86.898438 12.523438 87.316406 12.691406 87.597656 C 12.863281 87.875 13.121094 88.015625 13.460938 88.015625 C 13.722656 88.015625 13.925781 87.914062 14.074219 87.714844 C 14.222656 87.515625 14.367188 87.113281 14.5 86.511719 L 14.585938 86.128906 C 14.757812 85.332031 14.996094 84.765625 15.308594 84.429688 C 15.621094 84.09375 16.054688 83.925781 16.609375 83.925781 C 17.246094 83.925781 17.75 84.175781 18.121094 84.679688 C 18.492188 85.179688 18.675781 85.871094 18.675781 86.75 C 18.675781 87.117188 18.640625 87.496094 18.566406 87.894531 C 18.496094 88.292969 18.390625 88.710938 18.246094 89.148438 L 17.085938 89.148438 C 17.304688 88.734375 17.464844 88.324219 17.574219 87.921875 C 17.679688 87.519531 17.734375 87.121094 17.734375 86.726562 C 17.734375 86.195312 17.644531 85.789062 17.460938 85.507812 C 17.28125 85.222656 17.027344 85.078125 16.695312 85.078125 C 16.390625 85.078125 16.160156 85.179688 15.996094 85.386719 C 15.832031 85.589844 15.675781 86.042969 15.523438 86.738281 L 15.433594 87.128906 C 15.289062 87.824219 15.0625 88.328125 14.757812 88.636719 C 14.457031 88.945312 14.039062 89.101562 13.511719 89.101562 C 12.867188 89.101562 12.371094 88.871094 12.023438 88.417969 C 11.671875 87.960938 11.496094 87.3125 11.496094 86.476562 C 11.496094 86.0625 11.527344 85.671875 11.589844 85.304688 C 11.648438 84.9375 11.742188 84.601562 11.863281 84.292969 Z M 11.863281 84.292969 "/>
<g clip-path="url(#clip9)" clip-rule="nonzero">
<path style="fill:none;stroke-width:1.5;stroke-linecap:square;stroke-linejoin:round;stroke:rgb(12.156863%,46.666667%,70.588235%);stroke-opacity:1;stroke-miterlimit:4;" d="M 51.378125 28.753125 L 61.65625 44.44375 L 71.9375 59.11875 L 82.215625 72.875 L 92.49375 85.803125 L 102.771875 97.95 L 113.053125 109.14375 L 123.33125 118.93125 L 133.609375 126.6625 L 143.8875 131.784375 L 154.16875 134.703125 L 164.446875 136.309375 L 174.725 137.071875 L 185.003125 137.578125 L 195.284375 137.834375 L 205.5625 137.928125 L 215.840625 138.03125 L 226.11875 138.05 L 236.4 138.05625 L 246.678125 138.08125 " transform="matrix(1.25,0,0,1.25,0,0)"/>
</g>
<g clip-path="url(#clip10)" clip-rule="nonzero">
<path style="fill:none;stroke-width:1.5;stroke-linecap:butt;stroke-linejoin:round;stroke:rgb(74.901961%,0%,74.901961%);stroke-opacity:1;stroke-dasharray:5.55,2.4;stroke-miterlimit:4;" d="M 51.378125 14.5375 L 61.65625 18.221875 L 71.9375 21.834375 L 82.215625 25.43125 L 92.49375 29.021875 L 102.771875 32.609375 L 113.053125 36.19375 L 123.33125 39.76875 L 133.609375 43.340625 L 143.8875 46.9 L 154.16875 50.446875 L 164.446875 53.978125 L 174.725 57.4875 L 185.003125 60.96875 L 195.284375 64.41875 L 205.5625 67.81875 L 215.840625 71.1625 L 226.11875 74.428125 L 236.4 77.596875 L 246.678125 80.640625 " transform="matrix(1.25,0,0,1.25,0,0)"/>
</g>
<path style="fill:none;stroke-width:0.8;stroke-linecap:square;stroke-linejoin:miter;stroke:rgb(0%,0%,0%);stroke-opacity:1;stroke-miterlimit:4;" d="M 51.378125 144.259375 L 51.378125 8.359375 " transform="matrix(1.25,0,0,1.25,0,0)"/>
<path style="fill:none;stroke-width:0.8;stroke-linecap:square;stroke-linejoin:miter;stroke:rgb(0%,0%,0%);stroke-opacity:1;stroke-miterlimit:4;" d="M 246.678125 144.259375 L 246.678125 8.359375 " transform="matrix(1.25,0,0,1.25,0,0)"/>
<path style="fill:none;stroke-width:0.8;stroke-linecap:square;stroke-linejoin:miter;stroke:rgb(0%,0%,0%);stroke-opacity:1;stroke-miterlimit:4;" d="M 51.378125 144.259375 L 246.678125 144.259375 " transform="matrix(1.25,0,0,1.25,0,0)"/>
<path style="fill:none;stroke-width:0.8;stroke-linecap:square;stroke-linejoin:miter;stroke:rgb(0%,0%,0%);stroke-opacity:1;stroke-miterlimit:4;" d="M 51.378125 8.359375 L 246.678125 8.359375 " transform="matrix(1.25,0,0,1.25,0,0)"/>
<use xlink:href="#surface6" mask="url(#mask0)"/>
<path style="fill:none;stroke-width:1.5;stroke-linecap:square;stroke-linejoin:round;stroke:rgb(12.156863%,46.666667%,70.588235%);stroke-opacity:1;stroke-miterlimit:4;" d="M 186.403125 21.459375 L 206.403125 21.459375 " transform="matrix(1.25,0,0,1.25,0,0)"/>
<path style=" stroke:none;fill-rule:nonzero;fill:rgb(0%,0%,0%);fill-opacity:1;" d="M 270.292969 22.421875 L 270.292969 24.363281 L 272.605469 24.363281 L 272.605469 25.234375 L 270.292969 25.234375 L 270.292969 28.945312 C 270.292969 29.503906 270.367188 29.863281 270.523438 30.019531 C 270.671875 30.179688 270.984375 30.257812 271.453125 30.257812 L 272.605469 30.257812 L 272.605469 31.199219 L 271.453125 31.199219 C 270.585938 31.199219 269.988281 31.035156 269.65625 30.714844 C 269.328125 30.390625 269.164062 29.800781 269.164062 28.945312 L 269.164062 25.234375 L 268.339844 25.234375 L 268.339844 24.363281 L 269.164062 24.363281 L 269.164062 22.421875 Z M 270.292969 22.421875 "/>
<path style=" stroke:none;fill-rule:nonzero;fill:rgb(0%,0%,0%);fill-opacity:1;" d="M 278.042969 25.410156 C 277.917969 25.339844 277.78125 25.285156 277.632812 25.25 C 277.484375 25.214844 277.320312 25.199219 277.140625 25.199219 C 276.507812 25.199219 276.019531 25.40625 275.679688 25.816406 C 275.339844 26.230469 275.167969 26.824219 275.167969 27.597656 L 275.167969 31.199219 L 274.039062 31.199219 L 274.039062 24.363281 L 275.167969 24.363281 L 275.167969 25.425781 C 275.40625 25.007812 275.714844 24.703125 276.089844 24.5 C 276.46875 24.300781 276.929688 24.199219 277.472656 24.199219 C 277.546875 24.199219 277.632812 24.203125 277.726562 24.214844 C 277.820312 24.222656 277.925781 24.238281 278.039062 24.257812 Z M 278.042969 25.410156 "/>
<path style=" stroke:none;fill-rule:nonzero;fill:rgb(0%,0%,0%);fill-opacity:1;" d="M 282.328125 27.761719 C 281.421875 27.761719 280.792969 27.867188 280.441406 28.074219 C 280.09375 28.28125 279.917969 28.632812 279.917969 29.136719 C 279.917969 29.535156 280.046875 29.851562 280.3125 30.085938 C 280.574219 30.316406 280.929688 30.433594 281.382812 30.433594 C 282.003906 30.433594 282.503906 30.214844 282.882812 29.773438 C 283.257812 29.332031 283.445312 28.746094 283.445312 28.011719 L 283.445312 27.761719 Z M 284.570312 27.296875 L 284.570312 31.199219 L 283.445312 31.199219 L 283.445312 30.160156 C 283.191406 30.574219 282.871094 30.882812 282.488281 31.078125 C 282.105469 31.277344 281.636719 31.375 281.082031 31.375 C 280.382812 31.375 279.828125 31.179688 279.414062 30.785156 C 279 30.394531 278.792969 29.867188 278.792969 29.207031 C 278.792969 28.441406 279.050781 27.859375 279.566406 27.46875 C 280.082031 27.078125 280.847656 26.882812 281.871094 26.882812 L 283.445312 26.882812 L 283.445312 26.773438 C 283.445312 26.253906 283.277344 25.855469 282.9375 25.574219 C 282.597656 25.289062 282.121094 25.148438 281.503906 25.148438 C 281.113281 25.148438 280.734375 25.195312 280.363281 25.289062 C 279.992188 25.382812 279.636719 25.523438 279.296875 25.710938 L 279.296875 24.671875 C 279.707031 24.515625 280.105469 24.394531 280.492188 24.316406 C 280.878906 24.238281 281.253906 24.199219 281.621094 24.199219 C 282.609375 24.199219 283.347656 24.453125 283.835938 24.96875 C 284.324219 25.480469 284.570312 26.257812 284.570312 27.296875 Z M 284.570312 27.296875 "/>
<path style=" stroke:none;fill-rule:nonzero;fill:rgb(0%,0%,0%);fill-opacity:1;" d="M 286.882812 24.363281 L 288.003906 24.363281 L 288.003906 31.199219 L 286.882812 31.199219 Z M 286.882812 21.699219 L 288.003906 21.699219 L 288.003906 23.125 L 286.882812 23.125 Z M 286.882812 21.699219 "/>
<path style=" stroke:none;fill-rule:nonzero;fill:rgb(0%,0%,0%);fill-opacity:1;" d="M 296.039062 27.070312 L 296.039062 31.199219 L 294.914062 31.199219 L 294.914062 27.109375 C 294.914062 26.460938 294.789062 25.976562 294.535156 25.65625 C 294.285156 25.335938 293.90625 25.175781 293.402344 25.175781 C 292.792969 25.175781 292.316406 25.367188 291.964844 25.753906 C 291.617188 26.140625 291.441406 26.667969 291.441406 27.335938 L 291.441406 31.199219 L 290.3125 31.199219 L 290.3125 24.363281 L 291.441406 24.363281 L 291.441406 25.425781 C 291.710938 25.011719 292.027344 24.707031 292.390625 24.503906 C 292.753906 24.300781 293.175781 24.199219 293.652344 24.199219 C 294.4375 24.199219 295.03125 24.441406 295.433594 24.925781 C 295.835938 25.414062 296.039062 26.128906 296.039062 27.070312 Z M 296.039062 27.070312 "/>
<path style="fill:none;stroke-width:1.5;stroke-linecap:butt;stroke-linejoin:round;stroke:rgb(74.901961%,0%,74.901961%);stroke-opacity:1;stroke-dasharray:5.55,2.4;stroke-miterlimit:4;" d="M 186.403125 36.1375 L 206.403125 36.1375 " transform="matrix(1.25,0,0,1.25,0,0)"/>
<path style=" stroke:none;fill-rule:nonzero;fill:rgb(0%,0%,0%);fill-opacity:1;" d="M 270.292969 40.769531 L 270.292969 42.710938 L 272.605469 42.710938 L 272.605469 43.582031 L 270.292969 43.582031 L 270.292969 47.292969 C 270.292969 47.851562 270.367188 48.210938 270.523438 48.367188 C 270.671875 48.527344 270.984375 48.605469 271.453125 48.605469 L 272.605469 48.605469 L 272.605469 49.546875 L 271.453125 49.546875 C 270.585938 49.546875 269.988281 49.382812 269.65625 49.0625 C 269.328125 48.738281 269.164062 48.148438 269.164062 47.292969 L 269.164062 43.582031 L 268.339844 43.582031 L 268.339844 42.710938 L 269.164062 42.710938 L 269.164062 40.769531 Z M 270.292969 40.769531 "/>
<path style=" stroke:none;fill-rule:nonzero;fill:rgb(0%,0%,0%);fill-opacity:1;" d="M 279.929688 45.847656 L 279.929688 46.394531 L 274.765625 46.394531 C 274.816406 47.167969 275.050781 47.757812 275.464844 48.164062 C 275.882812 48.566406 276.464844 48.769531 277.207031 48.769531 C 277.640625 48.769531 278.058594 48.71875 278.460938 48.613281 C 278.867188 48.507812 279.269531 48.347656 279.667969 48.136719 L 279.667969 49.199219 C 279.265625 49.367188 278.851562 49.5 278.429688 49.589844 C 278.003906 49.679688 277.578125 49.722656 277.140625 49.722656 C 276.050781 49.722656 275.1875 49.40625 274.550781 48.773438 C 273.914062 48.136719 273.59375 47.277344 273.59375 46.195312 C 273.59375 45.074219 273.898438 44.1875 274.5 43.53125 C 275.105469 42.875 275.921875 42.546875 276.945312 42.546875 C 277.867188 42.546875 278.59375 42.84375 279.128906 43.433594 C 279.664062 44.027344 279.929688 44.828125 279.929688 45.847656 Z M 278.808594 45.515625 C 278.800781 44.902344 278.628906 44.414062 278.292969 44.046875 C 277.957031 43.679688 277.511719 43.496094 276.957031 43.496094 C 276.332031 43.496094 275.832031 43.675781 275.453125 44.027344 C 275.078125 44.382812 274.859375 44.882812 274.804688 45.523438 Z M 278.808594 45.515625 "/>
<path style=" stroke:none;fill-rule:nonzero;fill:rgb(0%,0%,0%);fill-opacity:1;" d="M 286.128906 42.910156 L 286.128906 43.972656 C 285.8125 43.8125 285.484375 43.6875 285.140625 43.609375 C 284.800781 43.527344 284.445312 43.484375 284.078125 43.484375 C 283.523438 43.484375 283.105469 43.570312 282.824219 43.742188 C 282.546875 43.910156 282.40625 44.167969 282.40625 44.511719 C 282.40625 44.769531 282.507812 44.976562 282.707031 45.125 C 282.90625 45.273438 283.308594 45.414062 283.910156 45.546875 L 284.292969 45.632812 C 285.089844 45.804688 285.65625 46.046875 285.992188 46.355469 C 286.328125 46.667969 286.496094 47.101562 286.496094 47.660156 C 286.496094 48.292969 286.246094 48.796875 285.742188 49.167969 C 285.242188 49.539062 284.550781 49.722656 283.671875 49.722656 C 283.304688 49.722656 282.925781 49.6875 282.527344 49.617188 C 282.128906 49.542969 281.710938 49.4375 281.273438 49.296875 L 281.273438 48.136719 C 281.6875 48.351562 282.097656 48.515625 282.5 48.621094 C 282.902344 48.730469 283.300781 48.78125 283.695312 48.78125 C 284.226562 48.78125 284.632812 48.691406 284.914062 48.511719 C 285.199219 48.328125 285.34375 48.074219 285.34375 47.746094 C 285.34375 47.441406 285.242188 47.207031 285.035156 47.042969 C 284.832031 46.882812 284.378906 46.722656 283.683594 46.574219 L 283.292969 46.480469 C 282.597656 46.335938 282.09375 46.109375 281.785156 45.808594 C 281.476562 45.503906 281.320312 45.089844 281.320312 44.558594 C 281.320312 43.917969 281.550781 43.421875 282.003906 43.070312 C 282.460938 42.722656 283.109375 42.546875 283.945312 42.546875 C 284.359375 42.546875 284.75 42.578125 285.117188 42.636719 C 285.484375 42.699219 285.820312 42.789062 286.128906 42.910156 Z M 286.128906 42.910156 "/>
<path style=" stroke:none;fill-rule:nonzero;fill:rgb(0%,0%,0%);fill-opacity:1;" d="M 289.398438 40.769531 L 289.398438 42.710938 L 291.710938 42.710938 L 291.710938 43.582031 L 289.398438 43.582031 L 289.398438 47.292969 C 289.398438 47.851562 289.472656 48.210938 289.625 48.367188 C 289.777344 48.527344 290.089844 48.605469 290.558594 48.605469 L 291.710938 48.605469 L 291.710938 49.546875 L 290.558594 49.546875 C 289.691406 49.546875 289.089844 49.382812 288.761719 49.0625 C 288.433594 48.738281 288.269531 48.148438 288.269531 47.292969 L 288.269531 43.582031 L 287.445312 43.582031 L 287.445312 42.710938 L 288.269531 42.710938 L 288.269531 40.769531 Z M 289.398438 40.769531 "/>
</g>
</svg>
