<?xml version="1.0" encoding="UTF-8"?>
<svg xmlns="http://www.w3.org/2000/svg" xmlns:xlink="http://www.w3.org/1999/xlink" width="329pt" height="226pt" viewBox="0 0 329 226" version="1.1">
<defs>
<clipPath id="clip1">
  <path d="M 102 9 L 104 9 L 104 178.875 L 102 178.875 Z M 102 9 "/>
</clipPath>
<clipPath id="clip2">
  <path d="M 153 9 L 155 9 L 155 178.875 L 153 178.875 Z M 153 9 "/>
</clipPath>
<clipPath id="clip3">
  <path d="M 204 9 L 207 9 L 207 178.875 L 204 178.875 Z M 204 9 "/>
</clipPath>
<clipPath id="clip4">
  <path d="M 256 9 L 258 9 L 258 178.875 L 256 178.875 Z M 256 9 "/>
</clipPath>
<clipPath id="clip5">
  <path d="M 307 9 L 308.347656 9 L 308.347656 178.875 L 307 178.875 Z M 307 9 "/>
</clipPath>
<clipPath id="clip6">
  <path d="M 64.222656 147 L 308.347656 147 L 308.347656 150 L 64.222656 150 Z M 64.222656 147 "/>
</clipPath>
<clipPath id="clip7">
  <path d="M 64.222656 104 L 308.347656 104 L 308.347656 107 L 64.222656 107 Z M 64.222656 104 "/>
</clipPath>
<clipPath id="clip8">
  <path d="M 64.222656 62 L 308.347656 62 L 308.347656 64 L 64.222656 64 Z M 64.222656 62 "/>
</clipPath>
<clipPath id="clip9">
  <path d="M 64.222656 19 L 308.347656 19 L 308.347656 22 L 64.222656 22 Z M 64.222656 19 "/>
</clipPath>
<clipPath id="clip10">
  <path d="M 64.222656 63 L 308.347656 63 L 308.347656 173 L 64.222656 173 Z M 64.222656 63 "/>
</clipPath>
<clipPath id="clip11">
  <path d="M 64.222656 15 L 308.347656 15 L 308.347656 95 L 64.222656 95 Z M 64.222656 15 "/>
</clipPath>
<filter id="alpha" filterUnits="objectBoundingBox" x="0%" y="0%" width="100%" height="100%">
  <feColorMatrix type="matrix" in="SourceGraphic" values="0 0 0 0 1 0 0 0 0 1 0 0 0 0 1 0 0 0 1 0"/>
</filter>
<mask id="mask0">
  <g filter="url(#alpha)">
<rect x="0" y="0" width="329" height="226" style="fill:rgb(0%,0%,0%);fill-opacity:0.8;stroke:none;"/>
  </g>
</mask>
<clipPath id="clip12">
  <rect width="329" height="226"/>
</clipPath>
<g id="surface6" clip-path="url(#clip12)">
<path style="fill-rule:nonzero;fill:rgb(100%,100%,100%);fill-opacity:1;stroke-width:1;stroke-linecap:butt;stroke-linejoin:miter;stroke:rgb(80%,80%,80%);stroke-opacity:1;stroke-miterlimit:4;" d="M 184.403125 44.55625 L 239.678125 44.55625 C 241.0125 44.55625 241.678125 43.890625 241.678125 42.55625 L 241.678125 14.2 C 241.678125 12.865625 241.0125 12.2 239.678125 12.2 L 184.403125 12.2 C 183.06875 12.2 182.403125 12.865625 182.403125 14.2 L 182.403125 42.55625 C 182.403125 43.890625 183.06875 44.55625 184.403125 44.55625 Z M 184.403125 44.55625 " transform="matrix(1.25,0,0,1.25,0,0)"/>
</g>
</defs>
<g id="surface1">
<path style=" stroke:none;fill-rule:nonzero;fill:rgb(100%,100%,100%);fill-opacity:1;" d="M 64.222656 178.875 L 308.347656 178.875 L 308.347656 9 L 64.222656 9 Z M 64.222656 178.875 "/>
<g clip-path="url(#clip1)" clip-rule="nonzero">
<path style="fill:none;stroke-width:0.8;stroke-linecap:square;stroke-linejoin:round;stroke:rgb(69.019608%,69.019608%,69.019608%);stroke-opacity:1;stroke-miterlimit:4;" d="M 82.215625 143.1 L 82.215625 7.2 " transform="matrix(1.25,0,0,1.25,0,0)"/>
</g>
<path style="fill:none;stroke-width:0.8;stroke-linecap:butt;stroke-linejoin:round;stroke:rgb(0%,0%,0%);stroke-opacity:1;stroke-miterlimit:4;" d="M 0.000658 0 L 0.000658 3.5 " transform="matrix(1.25,0,0,1.25,102.768709,178.875)"/>
<path style=" stroke:none;fill-rule:nonzero;fill:rgb(0%,0%,0%);fill-opacity:1;" d="M 97.214844 196.085938 L 101.515625 196.085938 L 101.515625 197.125 L 95.730469 197.125 L 95.730469 196.085938 C 96.199219 195.601562 96.835938 194.953125 97.644531 194.136719 C 98.453125 193.320312 98.960938 192.792969 99.167969 192.558594 C 99.5625 192.113281 99.835938 191.738281 99.992188 191.433594 C 100.152344 191.125 100.230469 190.824219 100.230469 190.527344 C 100.230469 190.042969 100.058594 189.648438 99.71875 189.34375 C 99.378906 189.035156 98.9375 188.882812 98.390625 188.882812 C 98.003906 188.882812 97.597656 188.949219 97.167969 189.085938 C 96.738281 189.21875 96.28125 189.421875 95.792969 189.695312 L 95.792969 188.449219 C 96.289062 188.25 96.75 188.101562 97.183594 188 C 97.613281 187.898438 98.011719 187.847656 98.367188 187.847656 C 99.3125 187.847656 100.066406 188.082031 100.625 188.554688 C 101.1875 189.027344 101.46875 189.65625 101.46875 190.445312 C 101.46875 190.820312 101.398438 191.175781 101.257812 191.511719 C 101.117188 191.847656 100.863281 192.242188 100.492188 192.699219 C 100.390625 192.816406 100.066406 193.15625 99.519531 193.722656 C 98.976562 194.285156 98.207031 195.074219 97.214844 196.085938 Z M 97.214844 196.085938 "/>
<path style=" stroke:none;fill-rule:nonzero;fill:rgb(0%,0%,0%);fill-opacity:1;" d="M 106.742188 188.824219 C 106.105469 188.824219 105.628906 189.136719 105.308594 189.761719 C 104.992188 190.382812 104.832031 191.324219 104.832031 192.578125 C 104.832031 193.824219 104.992188 194.761719 105.308594 195.386719 C 105.628906 196.011719 106.105469 196.324219 106.742188 196.324219 C 107.378906 196.324219 107.859375 196.011719 108.179688 195.386719 C 108.5 194.761719 108.660156 193.824219 108.660156 192.578125 C 108.660156 191.324219 108.5 190.382812 108.179688 189.761719 C 107.859375 189.136719 107.378906 188.824219 106.742188 188.824219 Z M 106.742188 187.847656 C 107.761719 187.847656 108.542969 188.25 109.082031 189.058594 C 109.621094 189.867188 109.890625 191.039062 109.890625 192.578125 C 109.890625 194.109375 109.621094 195.28125 109.082031 196.089844 C 108.542969 196.898438 107.761719 197.300781 106.742188 197.300781 C 105.71875 197.300781 104.941406 196.898438 104.402344 196.089844 C 103.863281 195.28125 103.59375 194.109375 103.59375 192.578125 C 103.59375 191.039062 103.863281 189.867188 104.402344 189.058594 C 104.941406 188.25 105.71875 187.847656 106.742188 187.847656 Z M 106.742188 187.847656 "/>
<g clip-path="url(#clip2)" clip-rule="nonzero">
<path style="fill:none;stroke-width:0.8;stroke-linecap:square;stroke-linejoin:round;stroke:rgb(69.019608%,69.019608%,69.019608%);stroke-opacity:1;stroke-miterlimit:4;" d="M 123.33125 143.1 L 123.33125 7.2 " transform="matrix(1.25,0,0,1.25,0,0)"/>
</g>
<path style="fill:none;stroke-width:0.8;stroke-linecap:butt;stroke-linejoin:round;stroke:rgb(0%,0%,0%);stroke-opacity:1;stroke-miterlimit:4;" d="M 0.000493 0 L 0.000493 3.5 " transform="matrix(1.25,0,0,1.25,154.163446,178.875)"/>
<path style=" stroke:none;fill-rule:nonzero;fill:rgb(0%,0%,0%);fill-opacity:1;" d="M 150.933594 189.085938 L 147.820312 193.949219 L 150.933594 193.949219 Z M 150.609375 188.011719 L 152.160156 188.011719 L 152.160156 193.949219 L 153.460938 193.949219 L 153.460938 194.976562 L 152.160156 194.976562 L 152.160156 197.125 L 150.933594 197.125 L 150.933594 194.976562 L 146.820312 194.976562 L 146.820312 193.785156 Z M 150.609375 188.011719 "/>
<path style=" stroke:none;fill-rule:nonzero;fill:rgb(0%,0%,0%);fill-opacity:1;" d="M 158.136719 188.824219 C 157.5 188.824219 157.023438 189.136719 156.703125 189.761719 C 156.386719 190.382812 156.226562 191.324219 156.226562 192.578125 C 156.226562 193.824219 156.386719 194.761719 156.703125 195.386719 C 157.023438 196.011719 157.5 196.324219 158.136719 196.324219 C 158.773438 196.324219 159.253906 196.011719 159.574219 195.386719 C 159.894531 194.761719 160.054688 193.824219 160.054688 192.578125 C 160.054688 191.324219 159.894531 190.382812 159.574219 189.761719 C 159.253906 189.136719 158.773438 188.824219 158.136719 188.824219 Z M 158.136719 187.847656 C 159.15625 187.847656 159.9375 188.25 160.476562 189.058594 C 161.015625 189.867188 161.285156 191.039062 161.285156 192.578125 C 161.285156 194.109375 161.015625 195.28125 160.476562 196.089844 C 159.9375 196.898438 159.15625 197.300781 158.136719 197.300781 C 157.113281 197.300781 156.335938 196.898438 155.796875 196.089844 C 155.257812 195.28125 154.988281 194.109375 154.988281 192.578125 C 154.988281 191.039062 155.257812 189.867188 155.796875 189.058594 C 156.335938 188.25 157.113281 187.847656 158.136719 187.847656 Z M 158.136719 187.847656 "/>
<g clip-path="url(#clip3)" clip-rule="nonzero">
<path style="fill:none;stroke-width:0.8;stroke-linecap:square;stroke-linejoin:round;stroke:rgb(69.019608%,69.019608%,69.019608%);stroke-opacity:1;stroke-miterlimit:4;" d="M 164.446875 143.1 L 164.446875 7.2 " transform="matrix(1.25,0,0,1.25,0,0)"/>
</g>
<path style="fill:none;stroke-width:0.8;stroke-linecap:butt;stroke-linejoin:round;stroke:rgb(0%,0%,0%);stroke-opacity:1;stroke-miterlimit:4;" d="M 0.000329 0 L 0.000329 3.5 " transform="matrix(1.25,0,0,1.25,205.558183,178.875)"/>
<path style=" stroke:none;fill-rule:nonzero;fill:rgb(0%,0%,0%);fill-opacity:1;" d="M 201.730469 192.078125 C 201.179688 192.078125 200.738281 192.265625 200.414062 192.644531 C 200.09375 193.023438 199.929688 193.539062 199.929688 194.199219 C 199.929688 194.855469 200.09375 195.371094 200.414062 195.753906 C 200.738281 196.132812 201.179688 196.324219 201.730469 196.324219 C 202.285156 196.324219 202.722656 196.132812 203.046875 195.753906 C 203.371094 195.371094 203.53125 194.855469 203.53125 194.199219 C 203.53125 193.539062 203.371094 193.023438 203.046875 192.644531 C 202.722656 192.265625 202.285156 192.078125 201.730469 192.078125 Z M 204.179688 188.210938 L 204.179688 189.335938 C 203.871094 189.1875 203.558594 189.078125 203.242188 189 C 202.925781 188.921875 202.613281 188.882812 202.304688 188.882812 C 201.492188 188.882812 200.867188 189.15625 200.4375 189.707031 C 200.011719 190.257812 199.765625 191.085938 199.703125 192.199219 C 199.945312 191.84375 200.246094 191.570312 200.605469 191.382812 C 200.96875 191.195312 201.371094 191.101562 201.804688 191.101562 C 202.71875 191.101562 203.441406 191.378906 203.972656 191.933594 C 204.503906 192.488281 204.769531 193.242188 204.769531 194.199219 C 204.769531 195.136719 204.496094 195.886719 203.941406 196.453125 C 203.386719 197.019531 202.652344 197.300781 201.730469 197.300781 C 200.675781 197.300781 199.871094 196.898438 199.3125 196.089844 C 198.757812 195.28125 198.476562 194.109375 198.476562 192.578125 C 198.476562 191.136719 198.820312 189.988281 199.503906 189.132812 C 200.1875 188.273438 201.105469 187.847656 202.253906 187.847656 C 202.566406 187.847656 202.878906 187.875 203.191406 187.9375 C 203.507812 188 203.835938 188.089844 204.179688 188.210938 Z M 204.179688 188.210938 "/>
<path style=" stroke:none;fill-rule:nonzero;fill:rgb(0%,0%,0%);fill-opacity:1;" d="M 209.53125 188.824219 C 208.894531 188.824219 208.417969 189.136719 208.097656 189.761719 C 207.78125 190.382812 207.621094 191.324219 207.621094 192.578125 C 207.621094 193.824219 207.78125 194.761719 208.097656 195.386719 C 208.417969 196.011719 208.894531 196.324219 209.53125 196.324219 C 210.167969 196.324219 210.648438 196.011719 210.96875 195.386719 C 211.289062 194.761719 211.449219 193.824219 211.449219 192.578125 C 211.449219 191.324219 211.289062 190.382812 210.96875 189.761719 C 210.648438 189.136719 210.167969 188.824219 209.53125 188.824219 Z M 209.53125 187.847656 C 210.550781 187.847656 211.332031 188.25 211.871094 189.058594 C 212.410156 189.867188 212.679688 191.039062 212.679688 192.578125 C 212.679688 194.109375 212.410156 195.28125 211.871094 196.089844 C 211.332031 196.898438 210.550781 197.300781 209.53125 197.300781 C 208.507812 197.300781 207.730469 196.898438 207.191406 196.089844 C 206.652344 195.28125 206.382812 194.109375 206.382812 192.578125 C 206.382812 191.039062 206.652344 189.867188 207.191406 189.058594 C 207.730469 188.25 208.507812 187.847656 209.53125 187.847656 Z M 209.53125 187.847656 "/>
<g clip-path="url(#clip4)" clip-rule="nonzero">
<path style="fill:none;stroke-width:0.8;stroke-linecap:square;stroke-linejoin:round;stroke:rgb(69.019608%,69.019608%,69.019608%);stroke-opacity:1;stroke-miterlimit:4;" d="M 205.5625 143.1 L 205.5625 7.2 " transform="matrix(1.25,0,0,1.25,0,0)"/>
</g>
<path style="fill:none;stroke-width:0.8;stroke-linecap:butt;stroke-linejoin:round;stroke:rgb(0%,0%,0%);stroke-opacity:1;stroke-miterlimit:4;" d="M 0.000164 0 L 0.000164 3.5 " transform="matrix(1.25,0,0,1.25,256.95292,178.875)"/>
<path style=" stroke:none;fill-rule:nonzero;fill:rgb(0%,0%,0%);fill-opacity:1;" d="M 252.972656 192.796875 C 252.386719 192.796875 251.925781 192.953125 251.589844 193.265625 C 251.253906 193.578125 251.085938 194.011719 251.085938 194.558594 C 251.085938 195.109375 251.253906 195.539062 251.589844 195.855469 C 251.925781 196.167969 252.386719 196.324219 252.972656 196.324219 C 253.558594 196.324219 254.019531 196.167969 254.355469 195.851562 C 254.695312 195.535156 254.863281 195.105469 254.863281 194.558594 C 254.863281 194.011719 254.695312 193.578125 254.359375 193.265625 C 254.027344 192.953125 253.5625 192.796875 252.972656 192.796875 Z M 251.738281 192.273438 C 251.210938 192.140625 250.800781 191.894531 250.503906 191.535156 C 250.210938 191.171875 250.0625 190.726562 250.0625 190.207031 C 250.0625 189.480469 250.320312 188.902344 250.839844 188.480469 C 251.359375 188.058594 252.070312 187.847656 252.972656 187.847656 C 253.878906 187.847656 254.59375 188.058594 255.109375 188.480469 C 255.625 188.902344 255.882812 189.480469 255.882812 190.207031 C 255.882812 190.726562 255.738281 191.171875 255.441406 191.535156 C 255.148438 191.894531 254.738281 192.140625 254.210938 192.273438 C 254.804688 192.410156 255.269531 192.679688 255.597656 193.085938 C 255.929688 193.488281 256.097656 193.976562 256.097656 194.558594 C 256.097656 195.441406 255.828125 196.121094 255.289062 196.59375 C 254.75 197.066406 253.976562 197.300781 252.972656 197.300781 C 251.96875 197.300781 251.195312 197.066406 250.65625 196.59375 C 250.117188 196.121094 249.847656 195.441406 249.847656 194.558594 C 249.847656 193.976562 250.015625 193.488281 250.347656 193.085938 C 250.683594 192.679688 251.144531 192.410156 251.738281 192.273438 Z M 251.289062 190.324219 C 251.289062 190.796875 251.4375 191.164062 251.730469 191.429688 C 252.027344 191.691406 252.441406 191.824219 252.972656 191.824219 C 253.503906 191.824219 253.917969 191.691406 254.214844 191.429688 C 254.515625 191.164062 254.664062 190.796875 254.664062 190.324219 C 254.664062 189.851562 254.515625 189.484375 254.214844 189.21875 C 253.917969 188.953125 253.503906 188.824219 252.972656 188.824219 C 252.441406 188.824219 252.027344 188.953125 251.730469 189.21875 C 251.4375 189.484375 251.289062 189.851562 251.289062 190.324219 Z M 251.289062 190.324219 "/>
<path style=" stroke:none;fill-rule:nonzero;fill:rgb(0%,0%,0%);fill-opacity:1;" d="M 260.925781 188.824219 C 260.292969 188.824219 259.8125 189.136719 259.492188 189.761719 C 259.175781 190.382812 259.015625 191.324219 259.015625 192.578125 C 259.015625 193.824219 259.175781 194.761719 259.492188 195.386719 C 259.8125 196.011719 260.292969 196.324219 260.925781 196.324219 C 261.566406 196.324219 262.042969 196.011719 262.363281 195.386719 C 262.683594 194.761719 262.84375 193.824219 262.84375 192.578125 C 262.84375 191.324219 262.683594 190.382812 262.363281 189.761719 C 262.042969 189.136719 261.566406 188.824219 260.925781 188.824219 Z M 260.925781 187.847656 C 261.949219 187.847656 262.726562 188.25 263.265625 189.058594 C 263.804688 189.867188 264.074219 191.039062 264.074219 192.578125 C 264.074219 194.109375 263.804688 195.28125 263.265625 196.089844 C 262.726562 196.898438 261.949219 197.300781 260.925781 197.300781 C 259.90625 197.300781 259.125 196.898438 258.585938 196.089844 C 258.046875 195.28125 257.777344 194.109375 257.777344 192.578125 C 257.777344 191.039062 258.046875 189.867188 258.585938 189.058594 C 259.125 188.25 259.90625 187.847656 260.925781 187.847656 Z M 260.925781 187.847656 "/>
<g clip-path="url(#clip5)" clip-rule="nonzero">
<path style="fill:none;stroke-width:0.8;stroke-linecap:square;stroke-linejoin:round;stroke:rgb(69.019608%,69.019608%,69.019608%);stroke-opacity:1;stroke-miterlimit:4;" d="M 246.678125 143.1 L 246.678125 7.2 " transform="matrix(1.25,0,0,1.25,0,0)"/>
</g>
<path style="fill:none;stroke-width:0.8;stroke-linecap:butt;stroke-linejoin:round;stroke:rgb(0%,0%,0%);stroke-opacity:1;stroke-miterlimit:4;" d="M 0 0 L 0 3.5 " transform="matrix(1.25,0,0,1.25,308.347656,178.875)"/>
<path style=" stroke:none;fill-rule:nonzero;fill:rgb(0%,0%,0%);fill-opacity:1;" d="M 297.96875 196.085938 L 299.984375 196.085938 L 299.984375 189.132812 L 297.789062 189.574219 L 297.789062 188.449219 L 299.96875 188.011719 L 301.203125 188.011719 L 301.203125 196.085938 L 303.21875 196.085938 L 303.21875 197.125 L 297.96875 197.125 Z M 297.96875 196.085938 "/>
<path style=" stroke:none;fill-rule:nonzero;fill:rgb(0%,0%,0%);fill-opacity:1;" d="M 308.34375 188.824219 C 307.710938 188.824219 307.230469 189.136719 306.910156 189.761719 C 306.59375 190.382812 306.433594 191.324219 306.433594 192.578125 C 306.433594 193.824219 306.59375 194.761719 306.910156 195.386719 C 307.230469 196.011719 307.710938 196.324219 308.34375 196.324219 C 308.984375 196.324219 309.460938 196.011719 309.78125 195.386719 C 310.101562 194.761719 310.261719 193.824219 310.261719 192.578125 C 310.261719 191.324219 310.101562 190.382812 309.78125 189.761719 C 309.460938 189.136719 308.984375 188.824219 308.34375 188.824219 Z M 308.34375 187.847656 C 309.367188 187.847656 310.144531 188.25 310.683594 189.058594 C 311.222656 189.867188 311.492188 191.039062 311.492188 192.578125 C 311.492188 194.109375 311.222656 195.28125 310.683594 196.089844 C 310.144531 196.898438 309.367188 197.300781 308.34375 197.300781 C 307.324219 197.300781 306.542969 196.898438 306.003906 196.089844 C 305.464844 195.28125 305.195312 194.109375 305.195312 192.578125 C 305.195312 191.039062 305.464844 189.867188 306.003906 189.058594 C 306.542969 188.25 307.324219 187.847656 308.34375 187.847656 Z M 308.34375 187.847656 "/>
<path style=" stroke:none;fill-rule:nonzero;fill:rgb(0%,0%,0%);fill-opacity:1;" d="M 316.296875 188.824219 C 315.664062 188.824219 315.183594 189.136719 314.863281 189.761719 C 314.546875 190.382812 314.386719 191.324219 314.386719 192.578125 C 314.386719 193.824219 314.546875 194.761719 314.863281 195.386719 C 315.183594 196.011719 315.664062 196.324219 316.296875 196.324219 C 316.9375 196.324219 317.414062 196.011719 317.734375 195.386719 C 318.054688 194.761719 318.214844 193.824219 318.214844 192.578125 C 318.214844 191.324219 318.054688 190.382812 317.734375 189.761719 C 317.414062 189.136719 316.9375 188.824219 316.296875 188.824219 Z M 316.296875 187.847656 C 317.320312 187.847656 318.097656 188.25 318.636719 189.058594 C 319.175781 189.867188 319.445312 191.039062 319.445312 192.578125 C 319.445312 194.109375 319.175781 195.28125 318.636719 196.089844 C 318.097656 196.898438 317.320312 197.300781 316.296875 197.300781 C 315.277344 197.300781 314.496094 196.898438 313.957031 196.089844 C 313.417969 195.28125 313.148438 194.109375 313.148438 192.578125 C 313.148438 191.039062 313.417969 189.867188 313.957031 189.058594 C 314.496094 188.25 315.277344 187.847656 316.296875 187.847656 Z M 316.296875 187.847656 "/>
<path style=" stroke:none;fill-rule:nonzero;fill:rgb(0%,0%,0%);fill-opacity:1;" d="M 171.019531 210.523438 L 171.019531 211.070312 L 165.855469 211.070312 C 165.90625 211.84375 166.136719 212.433594 166.554688 212.839844 C 166.972656 213.242188 167.550781 213.445312 168.296875 213.445312 C 168.726562 213.445312 169.144531 213.394531 169.550781 213.289062 C 169.957031 213.183594 170.359375 213.023438 170.757812 212.8125 L 170.757812 213.875 C 170.355469 214.042969 169.941406 214.175781 169.515625 214.265625 C 169.09375 214.355469 168.664062 214.398438 168.230469 214.398438 C 167.140625 214.398438 166.273438 214.082031 165.636719 213.449219 C 165 212.8125 164.683594 211.953125 164.683594 210.871094 C 164.683594 209.75 164.984375 208.863281 165.589844 208.207031 C 166.195312 207.550781 167.007812 207.222656 168.035156 207.222656 C 168.953125 207.222656 169.679688 207.515625 170.214844 208.109375 C 170.75 208.699219 171.019531 209.503906 171.019531 210.523438 Z M 169.894531 210.191406 C 169.886719 209.578125 169.714844 209.089844 169.378906 208.722656 C 169.042969 208.355469 168.601562 208.171875 168.046875 208.171875 C 167.421875 208.171875 166.917969 208.347656 166.542969 208.703125 C 166.167969 209.058594 165.949219 209.554688 165.890625 210.199219 Z M 169.894531 210.191406 "/>
<path style=" stroke:none;fill-rule:nonzero;fill:rgb(0%,0%,0%);fill-opacity:1;" d="M 173.949219 213.195312 L 173.949219 216.820312 L 172.820312 216.820312 L 172.820312 207.386719 L 173.949219 207.386719 L 173.949219 208.421875 C 174.183594 208.015625 174.484375 207.714844 174.84375 207.519531 C 175.203125 207.320312 175.632812 207.222656 176.132812 207.222656 C 176.964844 207.222656 177.640625 207.550781 178.15625 208.210938 C 178.675781 208.867188 178.9375 209.734375 178.9375 210.808594 C 178.9375 211.882812 178.675781 212.75 178.15625 213.410156 C 177.640625 214.070312 176.964844 214.398438 176.132812 214.398438 C 175.632812 214.398438 175.203125 214.300781 174.84375 214.101562 C 174.484375 213.902344 174.183594 213.601562 173.949219 213.195312 Z M 177.769531 210.808594 C 177.769531 209.984375 177.601562 209.335938 177.261719 208.867188 C 176.921875 208.394531 176.453125 208.160156 175.859375 208.160156 C 175.265625 208.160156 174.796875 208.394531 174.457031 208.867188 C 174.117188 209.335938 173.949219 209.984375 173.949219 210.808594 C 173.949219 211.632812 174.117188 212.28125 174.457031 212.753906 C 174.796875 213.222656 175.265625 213.457031 175.859375 213.457031 C 176.453125 213.457031 176.921875 213.222656 177.261719 212.753906 C 177.601562 212.28125 177.769531 211.632812 177.769531 210.808594 Z M 177.769531 210.808594 "/>
<path style=" stroke:none;fill-rule:nonzero;fill:rgb(0%,0%,0%);fill-opacity:1;" d="M 183.445312 208.171875 C 182.84375 208.171875 182.367188 208.40625 182.015625 208.878906 C 181.667969 209.347656 181.492188 209.992188 181.492188 210.808594 C 181.492188 211.625 181.664062 212.269531 182.011719 212.742188 C 182.363281 213.210938 182.839844 213.445312 183.445312 213.445312 C 184.042969 213.445312 184.519531 213.210938 184.867188 212.738281 C 185.21875 212.265625 185.390625 211.621094 185.390625 210.808594 C 185.390625 210 185.21875 209.355469 184.867188 208.882812 C 184.519531 208.410156 184.042969 208.171875 183.445312 208.171875 Z M 183.445312 207.222656 C 184.421875 207.222656 185.1875 207.539062 185.746094 208.175781 C 186.304688 208.808594 186.582031 209.6875 186.582031 210.808594 C 186.582031 211.925781 186.304688 212.804688 185.746094 213.445312 C 185.1875 214.082031 184.421875 214.398438 183.445312 214.398438 C 182.464844 214.398438 181.695312 214.082031 181.140625 213.445312 C 180.585938 212.804688 180.308594 211.925781 180.308594 210.808594 C 180.308594 209.6875 180.585938 208.808594 181.140625 208.175781 C 181.695312 207.539062 182.464844 207.222656 183.445312 207.222656 Z M 183.445312 207.222656 "/>
<path style=" stroke:none;fill-rule:nonzero;fill:rgb(0%,0%,0%);fill-opacity:1;" d="M 193.363281 207.648438 L 193.363281 208.699219 C 193.046875 208.523438 192.726562 208.390625 192.410156 208.304688 C 192.089844 208.214844 191.769531 208.171875 191.441406 208.171875 C 190.714844 208.171875 190.148438 208.402344 189.742188 208.867188 C 189.339844 209.328125 189.140625 209.972656 189.140625 210.808594 C 189.140625 211.644531 189.339844 212.292969 189.742188 212.753906 C 190.148438 213.214844 190.714844 213.445312 191.441406 213.445312 C 191.769531 213.445312 192.089844 213.402344 192.410156 213.316406 C 192.726562 213.226562 193.046875 213.097656 193.363281 212.921875 L 193.363281 213.960938 C 193.050781 214.105469 192.726562 214.214844 192.390625 214.289062 C 192.054688 214.363281 191.699219 214.398438 191.320312 214.398438 C 190.289062 214.398438 189.472656 214.074219 188.863281 213.429688 C 188.257812 212.78125 187.957031 211.90625 187.957031 210.808594 C 187.957031 209.695312 188.261719 208.816406 188.875 208.179688 C 189.488281 207.539062 190.328125 207.222656 191.394531 207.222656 C 191.738281 207.222656 192.074219 207.257812 192.40625 207.328125 C 192.734375 207.398438 193.054688 207.503906 193.363281 207.648438 Z M 193.363281 207.648438 "/>
<path style=" stroke:none;fill-rule:nonzero;fill:rgb(0%,0%,0%);fill-opacity:1;" d="M 201 210.09375 L 201 214.222656 L 199.878906 214.222656 L 199.878906 210.132812 C 199.878906 209.484375 199.75 209 199.5 208.679688 C 199.246094 208.359375 198.867188 208.199219 198.363281 208.199219 C 197.757812 208.199219 197.277344 208.390625 196.929688 208.777344 C 196.578125 209.164062 196.402344 209.691406 196.402344 210.359375 L 196.402344 214.222656 L 195.273438 214.222656 L 195.273438 204.722656 L 196.402344 204.722656 L 196.402344 208.449219 C 196.671875 208.035156 196.988281 207.730469 197.351562 207.527344 C 197.71875 207.324219 198.136719 207.222656 198.613281 207.222656 C 199.398438 207.222656 199.992188 207.464844 200.394531 207.949219 C 200.800781 208.433594 201 209.148438 201 210.09375 Z M 201 210.09375 "/>
<path style=" stroke:none;fill-rule:nonzero;fill:rgb(0%,0%,0%);fill-opacity:1;" d="M 207.597656 207.585938 L 207.597656 208.648438 C 207.28125 208.484375 206.949219 208.363281 206.609375 208.285156 C 206.265625 208.203125 205.914062 208.160156 205.546875 208.160156 C 204.988281 208.160156 204.570312 208.246094 204.292969 208.417969 C 204.011719 208.585938 203.875 208.84375 203.875 209.1875 C 203.875 209.445312 203.972656 209.652344 204.171875 209.800781 C 204.371094 209.949219 204.773438 210.089844 205.375 210.222656 L 205.761719 210.308594 C 206.558594 210.480469 207.125 210.71875 207.460938 211.03125 C 207.796875 211.34375 207.964844 211.777344 207.964844 212.335938 C 207.964844 212.96875 207.710938 213.472656 207.210938 213.84375 C 206.707031 214.214844 206.015625 214.398438 205.136719 214.398438 C 204.773438 214.398438 204.390625 214.363281 203.992188 214.292969 C 203.597656 214.21875 203.179688 214.113281 202.738281 213.972656 L 202.738281 212.8125 C 203.15625 213.027344 203.5625 213.1875 203.964844 213.296875 C 204.367188 213.402344 204.765625 213.457031 205.164062 213.457031 C 205.691406 213.457031 206.097656 213.367188 206.382812 213.1875 C 206.667969 213.003906 206.808594 212.75 206.808594 212.421875 C 206.808594 212.117188 206.707031 211.882812 206.5 211.71875 C 206.296875 211.554688 205.847656 211.398438 205.148438 211.25 L 204.757812 211.15625 C 204.0625 211.011719 203.5625 210.785156 203.25 210.484375 C 202.941406 210.179688 202.789062 209.761719 202.789062 209.234375 C 202.789062 208.589844 203.015625 208.09375 203.472656 207.746094 C 203.925781 207.394531 204.574219 207.222656 205.414062 207.222656 C 205.828125 207.222656 206.21875 207.25 206.582031 207.3125 C 206.949219 207.371094 207.289062 207.464844 207.597656 207.585938 Z M 207.597656 207.585938 "/>
<g clip-path="url(#clip6)" clip-rule="nonzero">
<path style="fill:none;stroke-width:0.8;stroke-linecap:square;stroke-linejoin:round;stroke:rgb(69.019608%,69.019608%,69.019608%);stroke-opacity:1;stroke-miterlimit:4;" d="M 51.378125 118.653125 L 246.678125 118.653125 " transform="matrix(1.25,0,0,1.25,0,0)"/>
</g>
<path style="fill:none;stroke-width:0.8;stroke-linecap:butt;stroke-linejoin:round;stroke:rgb(0%,0%,0%);stroke-opacity:1;stroke-miterlimit:4;" d="M 0 0.001245 L -3.5 0.001245 " transform="matrix(1.25,0,0,1.25,64.222656,148.31485)"/>
<path style=" stroke:none;fill-rule:nonzero;fill:rgb(0%,0%,0%);fill-opacity:1;" d="M 27.648438 151.941406 L 29.664062 151.941406 L 29.664062 144.988281 L 27.46875 145.425781 L 27.46875 144.304688 L 29.648438 143.863281 L 30.882812 143.863281 L 30.882812 151.941406 L 32.898438 151.941406 L 32.898438 152.976562 L 27.648438 152.976562 Z M 27.648438 151.941406 "/>
<path style=" stroke:none;fill-rule:nonzero;fill:rgb(0%,0%,0%);fill-opacity:1;" d="M 38.023438 144.675781 C 37.390625 144.675781 36.910156 144.988281 36.589844 145.613281 C 36.273438 146.238281 36.113281 147.175781 36.113281 148.429688 C 36.113281 149.679688 36.273438 150.617188 36.589844 151.242188 C 36.910156 151.867188 37.390625 152.179688 38.023438 152.179688 C 38.664062 152.179688 39.140625 151.867188 39.460938 151.242188 C 39.78125 150.617188 39.941406 149.679688 39.941406 148.429688 C 39.941406 147.175781 39.78125 146.238281 39.460938 145.613281 C 39.140625 144.988281 38.664062 144.675781 38.023438 144.675781 Z M 38.023438 143.699219 C 39.046875 143.699219 39.824219 144.105469 40.363281 144.914062 C 40.902344 145.722656 41.171875 146.894531 41.171875 148.429688 C 41.171875 149.964844 40.902344 151.136719 40.363281 151.945312 C 39.824219 152.753906 39.046875 153.15625 38.023438 153.15625 C 37.003906 153.15625 36.222656 152.753906 35.683594 151.945312 C 35.144531 151.136719 34.875 149.964844 34.875 148.429688 C 34.875 146.894531 35.144531 145.722656 35.683594 144.914062 C 36.222656 144.105469 37.003906 143.699219 38.023438 143.699219 Z M 38.023438 143.699219 "/>
<path style=" stroke:none;fill-rule:nonzero;fill:rgb(0%,0%,0%);fill-opacity:1;" d="M 43.050781 145.085938 L 48.527344 145.085938 L 48.527344 145.8125 L 43.050781 145.8125 Z M 43.050781 145.085938 "/>
<path style=" stroke:none;fill-rule:nonzero;fill:rgb(0%,0%,0%);fill-opacity:1;" d="M 50.539062 147.46875 L 51.949219 147.46875 L 51.949219 142.601562 L 50.414062 142.90625 L 50.414062 142.121094 L 51.941406 141.8125 L 52.804688 141.8125 L 52.804688 147.46875 L 54.214844 147.46875 L 54.214844 148.191406 L 50.539062 148.191406 Z M 50.539062 147.46875 "/>
<g clip-path="url(#clip7)" clip-rule="nonzero">
<path style="fill:none;stroke-width:0.8;stroke-linecap:square;stroke-linejoin:round;stroke:rgb(69.019608%,69.019608%,69.019608%);stroke-opacity:1;stroke-miterlimit:4;" d="M 51.378125 84.54375 L 246.678125 84.54375 " transform="matrix(1.25,0,0,1.25,0,0)"/>
</g>
<path style="fill:none;stroke-width:0.8;stroke-linecap:butt;stroke-linejoin:round;stroke:rgb(0%,0%,0%);stroke-opacity:1;stroke-miterlimit:4;" d="M 0 0.001186 L -3.5 0.001186 " transform="matrix(1.25,0,0,1.25,64.222656,105.678205)"/>
<path style=" stroke:none;fill-rule:nonzero;fill:rgb(0%,0%,0%);fill-opacity:1;" d="M 35.023438 109.292969 L 37.039062 109.292969 L 37.039062 102.339844 L 34.84375 102.78125 L 34.84375 101.65625 L 37.023438 101.21875 L 38.257812 101.21875 L 38.257812 109.292969 L 40.273438 109.292969 L 40.273438 110.332031 L 35.023438 110.332031 Z M 35.023438 109.292969 "/>
<path style=" stroke:none;fill-rule:nonzero;fill:rgb(0%,0%,0%);fill-opacity:1;" d="M 45.398438 102.03125 C 44.765625 102.03125 44.285156 102.34375 43.964844 102.96875 C 43.648438 103.59375 43.488281 104.53125 43.488281 105.785156 C 43.488281 107.035156 43.648438 107.96875 43.964844 108.59375 C 44.285156 109.21875 44.765625 109.53125 45.398438 109.53125 C 46.039062 109.53125 46.515625 109.21875 46.835938 108.59375 C 47.15625 107.96875 47.316406 107.035156 47.316406 105.785156 C 47.316406 104.53125 47.15625 103.59375 46.835938 102.96875 C 46.515625 102.34375 46.039062 102.03125 45.398438 102.03125 Z M 45.398438 101.054688 C 46.421875 101.054688 47.199219 101.457031 47.738281 102.265625 C 48.277344 103.074219 48.546875 104.246094 48.546875 105.785156 C 48.546875 107.320312 48.277344 108.488281 47.738281 109.296875 C 47.199219 110.105469 46.421875 110.507812 45.398438 110.507812 C 44.378906 110.507812 43.597656 110.105469 43.058594 109.296875 C 42.519531 108.488281 42.25 107.320312 42.25 105.785156 C 42.25 104.246094 42.519531 103.074219 43.058594 102.265625 C 43.597656 101.457031 44.378906 101.054688 45.398438 101.054688 Z M 45.398438 101.054688 "/>
<path style=" stroke:none;fill-rule:nonzero;fill:rgb(0%,0%,0%);fill-opacity:1;" d="M 52.277344 99.734375 C 51.835938 99.734375 51.5 99.953125 51.277344 100.390625 C 51.054688 100.828125 50.941406 101.484375 50.941406 102.363281 C 50.941406 103.238281 51.054688 103.894531 51.277344 104.332031 C 51.5 104.769531 51.835938 104.988281 52.277344 104.988281 C 52.726562 104.988281 53.0625 104.769531 53.285156 104.332031 C 53.507812 103.894531 53.621094 103.238281 53.621094 102.363281 C 53.621094 101.484375 53.507812 100.828125 53.285156 100.390625 C 53.0625 99.953125 52.726562 99.734375 52.277344 99.734375 Z M 52.277344 99.050781 C 52.996094 99.050781 53.539062 99.335938 53.917969 99.902344 C 54.296875 100.464844 54.484375 101.289062 54.484375 102.363281 C 54.484375 103.4375 54.296875 104.257812 53.917969 104.824219 C 53.539062 105.386719 52.996094 105.671875 52.277344 105.671875 C 51.5625 105.671875 51.019531 105.386719 50.640625 104.824219 C 50.265625 104.257812 50.074219 103.4375 50.074219 102.363281 C 50.074219 101.289062 50.265625 100.464844 50.640625 99.902344 C 51.019531 99.335938 51.5625 99.050781 52.277344 99.050781 Z M 52.277344 99.050781 "/>
<g clip-path="url(#clip8)" clip-rule="nonzero">
<path style="fill:none;stroke-width:0.8;stroke-linecap:square;stroke-linejoin:round;stroke:rgb(69.019608%,69.019608%,69.019608%);stroke-opacity:1;stroke-miterlimit:4;" d="M 51.378125 50.434375 L 246.678125 50.434375 " transform="matrix(1.25,0,0,1.25,0,0)"/>
</g>
<path style="fill:none;stroke-width:0.8;stroke-linecap:butt;stroke-linejoin:round;stroke:rgb(0%,0%,0%);stroke-opacity:1;stroke-miterlimit:4;" d="M 0 0.001126 L -3.5 0.001126 " transform="matrix(1.25,0,0,1.25,64.222656,63.041561)"/>
<path style=" stroke:none;fill-rule:nonzero;fill:rgb(0%,0%,0%);fill-opacity:1;" d="M 35.023438 66.667969 L 37.039062 66.667969 L 37.039062 59.714844 L 34.84375 60.152344 L 34.84375 59.03125 L 37.023438 58.589844 L 38.257812 58.589844 L 38.257812 66.667969 L 40.273438 66.667969 L 40.273438 67.703125 L 35.023438 67.703125 Z M 35.023438 66.667969 "/>
<path style=" stroke:none;fill-rule:nonzero;fill:rgb(0%,0%,0%);fill-opacity:1;" d="M 45.398438 59.402344 C 44.765625 59.402344 44.285156 59.714844 43.964844 60.339844 C 43.648438 60.964844 43.488281 61.902344 43.488281 63.15625 C 43.488281 64.40625 43.648438 65.34375 43.964844 65.96875 C 44.285156 66.59375 44.765625 66.90625 45.398438 66.90625 C 46.039062 66.90625 46.515625 66.59375 46.835938 65.96875 C 47.15625 65.34375 47.316406 64.40625 47.316406 63.15625 C 47.316406 61.902344 47.15625 60.964844 46.835938 60.339844 C 46.515625 59.714844 46.039062 59.402344 45.398438 59.402344 Z M 45.398438 58.425781 C 46.421875 58.425781 47.199219 58.832031 47.738281 59.640625 C 48.277344 60.449219 48.546875 61.621094 48.546875 63.15625 C 48.546875 64.691406 48.277344 65.863281 47.738281 66.671875 C 47.199219 67.480469 46.421875 67.882812 45.398438 67.882812 C 44.378906 67.882812 43.597656 67.480469 43.058594 66.671875 C 42.519531 65.863281 42.25 64.691406 42.25 63.15625 C 42.25 61.621094 42.519531 60.449219 43.058594 59.640625 C 43.597656 58.832031 44.378906 58.425781 45.398438 58.425781 Z M 45.398438 58.425781 "/>
<path style=" stroke:none;fill-rule:nonzero;fill:rgb(0%,0%,0%);fill-opacity:1;" d="M 50.582031 62.195312 L 51.992188 62.195312 L 51.992188 57.328125 L 50.460938 57.632812 L 50.460938 56.847656 L 51.984375 56.539062 L 52.847656 56.539062 L 52.847656 62.195312 L 54.257812 62.195312 L 54.257812 62.917969 L 50.582031 62.917969 Z M 50.582031 62.195312 "/>
<g clip-path="url(#clip9)" clip-rule="nonzero">
<path style="fill:none;stroke-width:0.8;stroke-linecap:square;stroke-linejoin:round;stroke:rgb(69.019608%,69.019608%,69.019608%);stroke-opacity:1;stroke-miterlimit:4;" d="M 51.378125 16.325 L 246.678125 16.325 " transform="matrix(1.25,0,0,1.25,0,0)"/>
</g>
<path style="fill:none;stroke-width:0.8;stroke-linecap:butt;stroke-linejoin:round;stroke:rgb(0%,0%,0%);stroke-opacity:1;stroke-miterlimit:4;" d="M 0 0.001067 L -3.5 0.001067 " transform="matrix(1.25,0,0,1.25,64.222656,20.404916)"/>
<path style=" stroke:none;fill-rule:nonzero;fill:rgb(0%,0%,0%);fill-opacity:1;" d="M 35.023438 24.019531 L 37.039062 24.019531 L 37.039062 17.066406 L 34.84375 17.507812 L 34.84375 16.382812 L 37.023438 15.945312 L 38.257812 15.945312 L 38.257812 24.019531 L 40.273438 24.019531 L 40.273438 25.058594 L 35.023438 25.058594 Z M 35.023438 24.019531 "/>
<path style=" stroke:none;fill-rule:nonzero;fill:rgb(0%,0%,0%);fill-opacity:1;" d="M 45.398438 16.757812 C 44.765625 16.757812 44.285156 17.070312 43.964844 17.695312 C 43.648438 18.320312 43.488281 19.257812 43.488281 20.511719 C 43.488281 21.761719 43.648438 22.695312 43.964844 23.320312 C 44.285156 23.945312 44.765625 24.257812 45.398438 24.257812 C 46.039062 24.257812 46.515625 23.945312 46.835938 23.320312 C 47.15625 22.695312 47.316406 21.761719 47.316406 20.511719 C 47.316406 19.257812 47.15625 18.320312 46.835938 17.695312 C 46.515625 17.070312 46.039062 16.757812 45.398438 16.757812 Z M 45.398438 15.78125 C 46.421875 15.78125 47.199219 16.183594 47.738281 16.992188 C 48.277344 17.800781 48.546875 18.972656 48.546875 20.511719 C 48.546875 22.046875 48.277344 23.214844 47.738281 24.023438 C 47.199219 24.832031 46.421875 25.234375 45.398438 25.234375 C 44.378906 25.234375 43.597656 24.832031 43.058594 24.023438 C 42.519531 23.214844 42.25 22.046875 42.25 20.511719 C 42.25 18.972656 42.519531 17.800781 43.058594 16.992188 C 43.597656 16.183594 44.378906 15.78125 45.398438 15.78125 Z M 45.398438 15.78125 "/>
<path style=" stroke:none;fill-rule:nonzero;fill:rgb(0%,0%,0%);fill-opacity:1;" d="M 51.175781 19.546875 L 54.1875 19.546875 L 54.1875 20.273438 L 50.140625 20.273438 L 50.140625 19.546875 C 50.464844 19.207031 50.914062 18.753906 51.476562 18.183594 C 52.042969 17.609375 52.398438 17.242188 52.542969 17.078125 C 52.820312 16.765625 53.011719 16.503906 53.121094 16.289062 C 53.234375 16.074219 53.289062 15.863281 53.289062 15.65625 C 53.289062 15.316406 53.167969 15.039062 52.929688 14.828125 C 52.691406 14.613281 52.382812 14.503906 52 14.503906 C 51.730469 14.503906 51.445312 14.550781 51.144531 14.644531 C 50.84375 14.738281 50.523438 14.882812 50.179688 15.074219 L 50.179688 14.203125 C 50.527344 14.0625 50.851562 13.957031 51.15625 13.886719 C 51.457031 13.816406 51.734375 13.777344 51.984375 13.777344 C 52.644531 13.777344 53.171875 13.945312 53.566406 14.273438 C 53.957031 14.605469 54.15625 15.046875 54.15625 15.597656 C 54.15625 15.859375 54.105469 16.109375 54.007812 16.34375 C 53.910156 16.578125 53.730469 16.855469 53.472656 17.175781 C 53.398438 17.257812 53.171875 17.496094 52.792969 17.890625 C 52.410156 18.285156 51.871094 18.839844 51.175781 19.546875 Z M 51.175781 19.546875 "/>
<path style="fill:none;stroke-width:0.6;stroke-linecap:butt;stroke-linejoin:round;stroke:rgb(0%,0%,0%);stroke-opacity:1;stroke-miterlimit:4;" d="M 0 0.000482 L -2 0.000482 " transform="matrix(1.25,0,0,1.25,64.222656,178.116585)"/>
<path style="fill:none;stroke-width:0.6;stroke-linecap:butt;stroke-linejoin:round;stroke:rgb(0%,0%,0%);stroke-opacity:1;stroke-miterlimit:4;" d="M 0 0.000584 L -2 0.000584 " transform="matrix(1.25,0,0,1.25,64.222656,170.608645)"/>
<path style="fill:none;stroke-width:0.6;stroke-linecap:butt;stroke-linejoin:round;stroke:rgb(0%,0%,0%);stroke-opacity:1;stroke-miterlimit:4;" d="M 0 -0.000341 L -2 -0.000341 " transform="matrix(1.25,0,0,1.25,64.222656,165.281676)"/>
<path style="fill:none;stroke-width:0.6;stroke-linecap:butt;stroke-linejoin:round;stroke:rgb(0%,0%,0%);stroke-opacity:1;stroke-miterlimit:4;" d="M 0 -0.001057 L -2 -0.001057 " transform="matrix(1.25,0,0,1.25,64.222656,161.149759)"/>
<path style="fill:none;stroke-width:0.6;stroke-linecap:butt;stroke-linejoin:round;stroke:rgb(0%,0%,0%);stroke-opacity:1;stroke-miterlimit:4;" d="M 0 -0.000239 L -2 -0.000239 " transform="matrix(1.25,0,0,1.25,64.222656,157.773736)"/>
<path style="fill:none;stroke-width:0.6;stroke-linecap:butt;stroke-linejoin:round;stroke:rgb(0%,0%,0%);stroke-opacity:1;stroke-miterlimit:4;" d="M 0 -0.001104 L -2 -0.001104 " transform="matrix(1.25,0,0,1.25,64.222656,154.919349)"/>
<path style="fill:none;stroke-width:0.6;stroke-linecap:butt;stroke-linejoin:round;stroke:rgb(0%,0%,0%);stroke-opacity:1;stroke-miterlimit:4;" d="M 0 -0.001164 L -2 -0.001164 " transform="matrix(1.25,0,0,1.25,64.222656,152.446767)"/>
<path style="fill:none;stroke-width:0.6;stroke-linecap:butt;stroke-linejoin:round;stroke:rgb(0%,0%,0%);stroke-opacity:1;stroke-miterlimit:4;" d="M 0 -0.000136 L -2 -0.000136 " transform="matrix(1.25,0,0,1.25,64.222656,150.265795)"/>
<path style="fill:none;stroke-width:0.6;stroke-linecap:butt;stroke-linejoin:round;stroke:rgb(0%,0%,0%);stroke-opacity:1;stroke-miterlimit:4;" d="M 0 0.000422 L -2 0.000422 " transform="matrix(1.25,0,0,1.25,64.222656,135.479941)"/>
<path style="fill:none;stroke-width:0.6;stroke-linecap:butt;stroke-linejoin:round;stroke:rgb(0%,0%,0%);stroke-opacity:1;stroke-miterlimit:4;" d="M 0 0.000525 L -2 0.000525 " transform="matrix(1.25,0,0,1.25,64.222656,127.972)"/>
<path style="fill:none;stroke-width:0.6;stroke-linecap:butt;stroke-linejoin:round;stroke:rgb(0%,0%,0%);stroke-opacity:1;stroke-miterlimit:4;" d="M 0 -0.0004 L -2 -0.0004 " transform="matrix(1.25,0,0,1.25,64.222656,122.645031)"/>
<path style="fill:none;stroke-width:0.6;stroke-linecap:butt;stroke-linejoin:round;stroke:rgb(0%,0%,0%);stroke-opacity:1;stroke-miterlimit:4;" d="M 0 -0.001116 L -2 -0.001116 " transform="matrix(1.25,0,0,1.25,64.222656,118.513114)"/>
<path style="fill:none;stroke-width:0.6;stroke-linecap:butt;stroke-linejoin:round;stroke:rgb(0%,0%,0%);stroke-opacity:1;stroke-miterlimit:4;" d="M 0 -0.000298 L -2 -0.000298 " transform="matrix(1.25,0,0,1.25,64.222656,115.137091)"/>
<path style="fill:none;stroke-width:0.6;stroke-linecap:butt;stroke-linejoin:round;stroke:rgb(0%,0%,0%);stroke-opacity:1;stroke-miterlimit:4;" d="M 0 -0.001164 L -2 -0.001164 " transform="matrix(1.25,0,0,1.25,64.222656,112.282705)"/>
<path style="fill:none;stroke-width:0.6;stroke-linecap:butt;stroke-linejoin:round;stroke:rgb(0%,0%,0%);stroke-opacity:1;stroke-miterlimit:4;" d="M 0 -0.001223 L -2 -0.001223 " transform="matrix(1.25,0,0,1.25,64.222656,109.810122)"/>
<path style="fill:none;stroke-width:0.6;stroke-linecap:butt;stroke-linejoin:round;stroke:rgb(0%,0%,0%);stroke-opacity:1;stroke-miterlimit:4;" d="M 0 -0.000196 L -2 -0.000196 " transform="matrix(1.25,0,0,1.25,64.222656,107.629151)"/>
<path style="fill:none;stroke-width:0.6;stroke-linecap:butt;stroke-linejoin:round;stroke:rgb(0%,0%,0%);stroke-opacity:1;stroke-miterlimit:4;" d="M 0 0.000363 L -2 0.000363 " transform="matrix(1.25,0,0,1.25,64.222656,92.843296)"/>
<path style="fill:none;stroke-width:0.6;stroke-linecap:butt;stroke-linejoin:round;stroke:rgb(0%,0%,0%);stroke-opacity:1;stroke-miterlimit:4;" d="M 0 0.000465 L -2 0.000465 " transform="matrix(1.25,0,0,1.25,64.222656,85.335356)"/>
<path style="fill:none;stroke-width:0.6;stroke-linecap:butt;stroke-linejoin:round;stroke:rgb(0%,0%,0%);stroke-opacity:1;stroke-miterlimit:4;" d="M 0 -0.00046 L -2 -0.00046 " transform="matrix(1.25,0,0,1.25,64.222656,80.008387)"/>
<path style="fill:none;stroke-width:0.6;stroke-linecap:butt;stroke-linejoin:round;stroke:rgb(0%,0%,0%);stroke-opacity:1;stroke-miterlimit:4;" d="M 0 -0.001176 L -2 -0.001176 " transform="matrix(1.25,0,0,1.25,64.222656,75.87647)"/>
<path style="fill:none;stroke-width:0.6;stroke-linecap:butt;stroke-linejoin:round;stroke:rgb(0%,0%,0%);stroke-opacity:1;stroke-miterlimit:4;" d="M 0 -0.000358 L -2 -0.000358 " transform="matrix(1.25,0,0,1.25,64.222656,72.500447)"/>
<path style="fill:none;stroke-width:0.6;stroke-linecap:butt;stroke-linejoin:round;stroke:rgb(0%,0%,0%);stroke-opacity:1;stroke-miterlimit:4;" d="M 0 -0.001224 L -2 -0.001224 " transform="matrix(1.25,0,0,1.25,64.222656,69.646061)"/>
<path style="fill:none;stroke-width:0.6;stroke-linecap:butt;stroke-linejoin:round;stroke:rgb(0%,0%,0%);stroke-opacity:1;stroke-miterlimit:4;" d="M 0 -0.001283 L -2 -0.001283 " transform="matrix(1.25,0,0,1.25,64.222656,67.173479)"/>
<path style="fill:none;stroke-width:0.6;stroke-linecap:butt;stroke-linejoin:round;stroke:rgb(0%,0%,0%);stroke-opacity:1;stroke-miterlimit:4;" d="M 0 -0.000255 L -2 -0.000255 " transform="matrix(1.25,0,0,1.25,64.222656,64.992506)"/>
<path style="fill:none;stroke-width:0.6;stroke-linecap:butt;stroke-linejoin:round;stroke:rgb(0%,0%,0%);stroke-opacity:1;stroke-miterlimit:4;" d="M 0 0.000303 L -2 0.000303 " transform="matrix(1.25,0,0,1.25,64.222656,50.206653)"/>
<path style="fill:none;stroke-width:0.6;stroke-linecap:butt;stroke-linejoin:round;stroke:rgb(0%,0%,0%);stroke-opacity:1;stroke-miterlimit:4;" d="M 0 0.000406 L -2 0.000406 " transform="matrix(1.25,0,0,1.25,64.222656,42.698711)"/>
<path style="fill:none;stroke-width:0.6;stroke-linecap:butt;stroke-linejoin:round;stroke:rgb(0%,0%,0%);stroke-opacity:1;stroke-miterlimit:4;" d="M 0 -0.00052 L -2 -0.00052 " transform="matrix(1.25,0,0,1.25,64.222656,37.371744)"/>
<path style="fill:none;stroke-width:0.6;stroke-linecap:butt;stroke-linejoin:round;stroke:rgb(0%,0%,0%);stroke-opacity:1;stroke-miterlimit:4;" d="M 0 -0.001235 L -2 -0.001235 " transform="matrix(1.25,0,0,1.25,64.222656,33.239825)"/>
<path style="fill:none;stroke-width:0.6;stroke-linecap:butt;stroke-linejoin:round;stroke:rgb(0%,0%,0%);stroke-opacity:1;stroke-miterlimit:4;" d="M 0 -0.000417 L -2 -0.000417 " transform="matrix(1.25,0,0,1.25,64.222656,29.863802)"/>
<path style="fill:none;stroke-width:0.6;stroke-linecap:butt;stroke-linejoin:round;stroke:rgb(0%,0%,0%);stroke-opacity:1;stroke-miterlimit:4;" d="M 0 -0.001283 L -2 -0.001283 " transform="matrix(1.25,0,0,1.25,64.222656,27.009416)"/>
<path style="fill:none;stroke-width:0.6;stroke-linecap:butt;stroke-linejoin:round;stroke:rgb(0%,0%,0%);stroke-opacity:1;stroke-miterlimit:4;" d="M 0 -0.001342 L -2 -0.001342 " transform="matrix(1.25,0,0,1.25,64.222656,24.536834)"/>
<path style="fill:none;stroke-width:0.6;stroke-linecap:butt;stroke-linejoin:round;stroke:rgb(0%,0%,0%);stroke-opacity:1;stroke-miterlimit:4;" d="M 0 -0.000315 L -2 -0.000315 " transform="matrix(1.25,0,0,1.25,64.222656,22.355863)"/>
<path style=" stroke:none;fill-rule:nonzero;fill:rgb(0%,0%,0%);fill-opacity:1;" d="M 9 104.832031 L 9 103.707031 L 18.496094 103.707031 L 18.496094 104.832031 Z M 9 104.832031 "/>
<path style=" stroke:none;fill-rule:nonzero;fill:rgb(0%,0%,0%);fill-opacity:1;" d="M 12.449219 98.710938 C 12.449219 99.3125 12.683594 99.789062 13.152344 100.136719 C 13.625 100.488281 14.269531 100.664062 15.085938 100.664062 C 15.902344 100.664062 16.546875 100.488281 17.015625 100.140625 C 17.488281 99.792969 17.722656 99.316406 17.722656 98.710938 C 17.722656 98.113281 17.488281 97.636719 17.015625 97.289062 C 16.542969 96.9375 15.898438 96.761719 15.085938 96.761719 C 14.277344 96.761719 13.632812 96.9375 13.160156 97.289062 C 12.6875 97.636719 12.449219 98.113281 12.449219 98.710938 Z M 11.496094 98.710938 C 11.496094 97.734375 11.816406 96.96875 12.449219 96.410156 C 13.085938 95.851562 13.964844 95.570312 15.085938 95.570312 C 16.203125 95.570312 17.082031 95.851562 17.71875 96.410156 C 18.355469 96.96875 18.675781 97.734375 18.675781 98.710938 C 18.675781 99.691406 18.355469 100.460938 17.71875 101.015625 C 17.082031 101.570312 16.203125 101.847656 15.085938 101.847656 C 13.964844 101.847656 13.085938 101.570312 12.449219 101.015625 C 11.816406 100.460938 11.496094 99.691406 11.496094 98.710938 Z M 11.496094 98.710938 "/>
<path style=" stroke:none;fill-rule:nonzero;fill:rgb(0%,0%,0%);fill-opacity:1;" d="M 11.863281 89.355469 L 12.925781 89.355469 C 12.761719 89.671875 12.640625 90 12.558594 90.34375 C 12.476562 90.683594 12.4375 91.039062 12.4375 91.40625 C 12.4375 91.960938 12.523438 92.378906 12.691406 92.660156 C 12.863281 92.9375 13.121094 93.078125 13.460938 93.078125 C 13.722656 93.078125 13.925781 92.976562 14.074219 92.777344 C 14.222656 92.578125 14.367188 92.175781 14.5 91.574219 L 14.585938 91.191406 C 14.757812 90.394531 14.996094 89.828125 15.308594 89.492188 C 15.621094 89.15625 16.054688 88.988281 16.609375 88.988281 C 17.246094 88.988281 17.75 89.238281 18.121094 89.742188 C 18.492188 90.242188 18.675781 90.933594 18.675781 91.8125 C 18.675781 92.179688 18.640625 92.558594 18.566406 92.957031 C 18.496094 93.355469 18.390625 93.773438 18.246094 94.210938 L 17.085938 94.210938 C 17.304688 93.796875 17.464844 93.386719 17.574219 92.984375 C 17.679688 92.582031 17.734375 92.183594 17.734375 91.789062 C 17.734375 91.257812 17.644531 90.851562 17.460938 90.570312 C 17.28125 90.285156 17.027344 90.140625 16.695312 90.140625 C 16.390625 90.140625 16.160156 90.242188 15.996094 90.449219 C 15.832031 90.652344 15.675781 91.105469 15.523438 91.800781 L 15.433594 92.191406 C 15.289062 92.886719 15.0625 93.390625 14.757812 93.699219 C 14.457031 94.007812 14.039062 94.164062 13.511719 94.164062 C 12.867188 94.164062 12.371094 93.933594 12.023438 93.480469 C 11.671875 93.023438 11.496094 92.375 11.496094 91.539062 C 11.496094 91.125 11.527344 90.734375 11.589844 90.367188 C 11.648438 90 11.742188 89.664062 11.863281 89.355469 Z M 11.863281 89.355469 "/>
<path style=" stroke:none;fill-rule:nonzero;fill:rgb(0%,0%,0%);fill-opacity:1;" d="M 11.863281 82.839844 L 12.925781 82.839844 C 12.761719 83.15625 12.640625 83.488281 12.558594 83.828125 C 12.476562 84.171875 12.4375 84.523438 12.4375 84.890625 C 12.4375 85.449219 12.523438 85.867188 12.691406 86.144531 C 12.863281 86.425781 13.121094 86.5625 13.460938 86.5625 C 13.722656 86.5625 13.925781 86.464844 14.074219 86.265625 C 14.222656 86.066406 14.367188 85.664062 14.5 85.0625 L 14.585938 84.675781 C 14.757812 83.878906 14.996094 83.3125 15.308594 82.976562 C 15.621094 82.640625 16.054688 82.472656 16.609375 82.472656 C 17.246094 82.472656 17.75 82.726562 18.121094 83.226562 C 18.492188 83.730469 18.675781 84.421875 18.675781 85.300781 C 18.675781 85.667969 18.640625 86.046875 18.566406 86.445312 C 18.496094 86.84375 18.390625 87.261719 18.246094 87.699219 L 17.085938 87.699219 C 17.304688 87.285156 17.464844 86.875 17.574219 86.472656 C 17.679688 86.070312 17.734375 85.671875 17.734375 85.273438 C 17.734375 84.746094 17.644531 84.339844 17.460938 84.054688 C 17.28125 83.769531 17.027344 83.628906 16.695312 83.628906 C 16.390625 83.628906 16.160156 83.730469 15.996094 83.9375 C 15.832031 84.140625 15.675781 84.59375 15.523438 85.289062 L 15.433594 85.679688 C 15.289062 86.375 15.0625 86.878906 14.757812 87.1875 C 14.457031 87.496094 14.039062 87.648438 13.511719 87.648438 C 12.867188 87.648438 12.371094 87.421875 12.023438 86.964844 C 11.671875 86.511719 11.496094 85.863281 11.496094 85.023438 C 11.496094 84.609375 11.527344 84.222656 11.589844 83.855469 C 11.648438 83.488281 11.742188 83.148438 11.863281 82.839844 Z M 11.863281 82.839844 "/>
<g clip-path="url(#clip10)" clip-rule="nonzero">
<path style="fill:none;stroke-width:1.5;stroke-linecap:square;stroke-linejoin:round;stroke:rgb(12.156863%,46.666667%,70.588235%);stroke-opacity:1;stroke-miterlimit:4;" d="M 51.378125 52.234375 L 61.65625 91.39375 L 71.9375 120.95 L 82.215625 130.453125 L 92.49375 130.825 L 102.771875 130.803125 L 113.053125 131.03125 L 123.33125 131.365625 L 133.609375 131.803125 L 143.8875 132.38125 L 154.16875 132.778125 L 164.446875 133.290625 L 174.725 133.71875 L 185.003125 134.2 L 195.284375 134.65 L 205.5625 135.125 L 215.840625 135.440625 L 226.11875 136.065625 L 236.4 136.425 L 246.678125 136.921875 " transform="matrix(1.25,0,0,1.25,0,0)"/>
</g>
<g clip-path="url(#clip11)" clip-rule="nonzero">
<path style="fill:none;stroke-width:1.5;stroke-linecap:butt;stroke-linejoin:round;stroke:rgb(74.901961%,0%,74.901961%);stroke-opacity:1;stroke-dasharray:5.55,2.4;stroke-miterlimit:4;" d="M 51.378125 13.378125 L 61.65625 18.69375 L 71.9375 23.890625 L 82.215625 29.009375 L 92.49375 34.025 L 102.771875 38.90625 L 113.053125 43.6 L 123.33125 48.06875 L 133.609375 52.25625 L 143.8875 56.096875 L 154.16875 59.55 L 164.446875 62.590625 L 174.725 65.203125 L 185.003125 67.4125 L 195.284375 69.24375 L 205.5625 70.75625 L 215.840625 72.00625 L 226.11875 73.046875 L 236.4 73.928125 L 246.678125 74.684375 " transform="matrix(1.25,0,0,1.25,0,0)"/>
</g>
<path style="fill:none;stroke-width:0.8;stroke-linecap:square;stroke-linejoin:miter;stroke:rgb(0%,0%,0%);stroke-opacity:1;stroke-miterlimit:4;" d="M 51.378125 143.1 L 51.378125 7.2 " transform="matrix(1.25,0,0,1.25,0,0)"/>
<path style="fill:none;stroke-width:0.8;stroke-linecap:square;stroke-linejoin:miter;stroke:rgb(0%,0%,0%);stroke-opacity:1;stroke-miterlimit:4;" d="M 246.678125 143.1 L 246.678125 7.2 " transform="matrix(1.25,0,0,1.25,0,0)"/>
<path style="fill:none;stroke-width:0.8;stroke-linecap:square;stroke-linejoin:miter;stroke:rgb(0%,0%,0%);stroke-opacity:1;stroke-miterlimit:4;" d="M 51.378125 143.1 L 246.678125 143.1 " transform="matrix(1.25,0,0,1.25,0,0)"/>
<path style="fill:none;stroke-width:0.8;stroke-linecap:square;stroke-linejoin:miter;stroke:rgb(0%,0%,0%);stroke-opacity:1;stroke-miterlimit:4;" d="M 51.378125 7.2 L 246.678125 7.2 " transform="matrix(1.25,0,0,1.25,0,0)"/>
<use xlink:href="#surface6" mask="url(#mask0)"/>
<path style="fill:none;stroke-width:1.5;stroke-linecap:square;stroke-linejoin:round;stroke:rgb(12.156863%,46.666667%,70.588235%);stroke-opacity:1;stroke-miterlimit:4;" d="M 186.403125 20.296875 L 206.403125 20.296875 " transform="matrix(1.25,0,0,1.25,0,0)"/>
<path style=" stroke:none;fill-rule:nonzero;fill:rgb(0%,0%,0%);fill-opacity:1;" d="M 270.292969 20.96875 L 270.292969 22.910156 L 272.605469 22.910156 L 272.605469 23.785156 L 270.292969 23.785156 L 270.292969 27.496094 C 270.292969 28.054688 270.367188 28.410156 270.523438 28.570312 C 270.671875 28.730469 270.984375 28.808594 271.453125 28.808594 L 272.605469 28.808594 L 272.605469 29.746094 L 271.453125 29.746094 C 270.585938 29.746094 269.988281 29.585938 269.65625 29.261719 C 269.328125 28.9375 269.164062 28.351562 269.164062 27.496094 L 269.164062 23.785156 L 268.339844 23.785156 L 268.339844 22.910156 L 269.164062 22.910156 L 269.164062 20.96875 Z M 270.292969 20.96875 "/>
<path style=" stroke:none;fill-rule:nonzero;fill:rgb(0%,0%,0%);fill-opacity:1;" d="M 278.042969 23.960938 C 277.917969 23.886719 277.78125 23.835938 277.632812 23.800781 C 277.484375 23.765625 277.320312 23.746094 277.140625 23.746094 C 276.507812 23.746094 276.019531 23.953125 275.679688 24.367188 C 275.339844 24.78125 275.167969 25.371094 275.167969 26.144531 L 275.167969 29.746094 L 274.039062 29.746094 L 274.039062 22.910156 L 275.167969 22.910156 L 275.167969 23.972656 C 275.40625 23.558594 275.714844 23.25 276.089844 23.050781 C 276.46875 22.847656 276.929688 22.746094 277.472656 22.746094 C 277.546875 22.746094 277.632812 22.753906 277.726562 22.761719 C 277.820312 22.773438 277.925781 22.789062 278.039062 22.808594 Z M 278.042969 23.960938 "/>
<path style=" stroke:none;fill-rule:nonzero;fill:rgb(0%,0%,0%);fill-opacity:1;" d="M 282.328125 26.3125 C 281.421875 26.3125 280.792969 26.414062 280.441406 26.621094 C 280.09375 26.828125 279.917969 27.183594 279.917969 27.683594 C 279.917969 28.082031 280.046875 28.398438 280.3125 28.632812 C 280.574219 28.867188 280.929688 28.984375 281.382812 28.984375 C 282.003906 28.984375 282.503906 28.761719 282.882812 28.320312 C 283.257812 27.878906 283.445312 27.292969 283.445312 26.5625 L 283.445312 26.3125 Z M 284.570312 25.847656 L 284.570312 29.746094 L 283.445312 29.746094 L 283.445312 28.710938 C 283.191406 29.125 282.871094 29.429688 282.488281 29.628906 C 282.105469 29.828125 281.636719 29.925781 281.082031 29.925781 C 280.382812 29.925781 279.828125 29.730469 279.414062 29.335938 C 279 28.941406 278.792969 28.417969 278.792969 27.757812 C 278.792969 26.988281 279.050781 26.410156 279.566406 26.019531 C 280.082031 25.628906 280.847656 25.433594 281.871094 25.433594 L 283.445312 25.433594 L 283.445312 25.320312 C 283.445312 24.804688 283.277344 24.40625 282.9375 24.121094 C 282.597656 23.839844 282.121094 23.699219 281.503906 23.699219 C 281.113281 23.699219 280.734375 23.746094 280.363281 23.839844 C 279.992188 23.933594 279.636719 24.074219 279.296875 24.261719 L 279.296875 23.222656 C 279.707031 23.0625 280.105469 22.945312 280.492188 22.867188 C 280.878906 22.789062 281.253906 22.746094 281.621094 22.746094 C 282.609375 22.746094 283.347656 23.003906 283.835938 23.515625 C 284.324219 24.027344 284.570312 24.804688 284.570312 25.847656 Z M 284.570312 25.847656 "/>
<path style=" stroke:none;fill-rule:nonzero;fill:rgb(0%,0%,0%);fill-opacity:1;" d="M 286.882812 22.910156 L 288.003906 22.910156 L 288.003906 29.746094 L 286.882812 29.746094 Z M 286.882812 20.25 L 288.003906 20.25 L 288.003906 21.671875 L 286.882812 21.671875 Z M 286.882812 20.25 "/>
<path style=" stroke:none;fill-rule:nonzero;fill:rgb(0%,0%,0%);fill-opacity:1;" d="M 296.039062 25.621094 L 296.039062 29.746094 L 294.914062 29.746094 L 294.914062 25.65625 C 294.914062 25.011719 294.789062 24.527344 294.535156 24.207031 C 294.285156 23.886719 293.90625 23.722656 293.402344 23.722656 C 292.792969 23.722656 292.316406 23.917969 291.964844 24.304688 C 291.617188 24.691406 291.441406 25.214844 291.441406 25.882812 L 291.441406 29.746094 L 290.3125 29.746094 L 290.3125 22.910156 L 291.441406 22.910156 L 291.441406 23.972656 C 291.710938 23.5625 292.027344 23.253906 292.390625 23.050781 C 292.753906 22.847656 293.175781 22.746094 293.652344 22.746094 C 294.4375 22.746094 295.03125 22.992188 295.433594 23.476562 C 295.835938 23.960938 296.039062 24.675781 296.039062 25.621094 Z M 296.039062 25.621094 "/>
<path style="fill:none;stroke-width:1.5;stroke-linecap:butt;stroke-linejoin:round;stroke:rgb(74.901961%,0%,74.901961%);stroke-opacity:1;stroke-dasharray:5.55,2.4;stroke-miterlimit:4;" d="M 186.403125 34.975 L 206.403125 34.975 " transform="matrix(1.25,0,0,1.25,0,0)"/>
<path style=" stroke:none;fill-rule:nonzero;fill:rgb(0%,0%,0%);fill-opacity:1;" d="M 270.292969 39.316406 L 270.292969 41.257812 L 272.605469 41.257812 L 272.605469 42.132812 L 270.292969 42.132812 L 270.292969 45.84375 C 270.292969 46.402344 270.367188 46.757812 270.523438 46.917969 C 270.671875 47.078125 270.984375 47.15625 271.453125 47.15625 L 272.605469 47.15625 L 272.605469 48.09375 L 271.453125 48.09375 C 270.585938 48.09375 269.988281 47.933594 269.65625 47.609375 C 269.328125 47.285156 269.164062 46.699219 269.164062 45.84375 L 269.164062 42.132812 L 268.339844 42.132812 L 268.339844 41.257812 L 269.164062 41.257812 L 269.164062 39.316406 Z M 270.292969 39.316406 "/>
<path style=" stroke:none;fill-rule:nonzero;fill:rgb(0%,0%,0%);fill-opacity:1;" d="M 279.929688 44.394531 L 279.929688 44.945312 L 274.765625 44.945312 C 274.816406 45.71875 275.050781 46.308594 275.464844 46.710938 C 275.882812 47.117188 276.464844 47.320312 277.207031 47.320312 C 277.640625 47.320312 278.058594 47.265625 278.460938 47.160156 C 278.867188 47.054688 279.269531 46.898438 279.667969 46.683594 L 279.667969 47.746094 C 279.265625 47.917969 278.851562 48.046875 278.429688 48.136719 C 278.003906 48.226562 277.578125 48.273438 277.140625 48.273438 C 276.050781 48.273438 275.1875 47.957031 274.550781 47.320312 C 273.914062 46.6875 273.59375 45.828125 273.59375 44.742188 C 273.59375 43.625 273.898438 42.738281 274.5 42.082031 C 275.105469 41.425781 275.921875 41.09375 276.945312 41.09375 C 277.867188 41.09375 278.59375 41.390625 279.128906 41.984375 C 279.664062 42.574219 279.929688 43.378906 279.929688 44.394531 Z M 278.808594 44.066406 C 278.800781 43.453125 278.628906 42.964844 278.292969 42.597656 C 277.957031 42.230469 277.511719 42.046875 276.957031 42.046875 C 276.332031 42.046875 275.832031 42.222656 275.453125 42.578125 C 275.078125 42.933594 274.859375 43.429688 274.804688 44.074219 Z M 278.808594 44.066406 "/>
<path style=" stroke:none;fill-rule:nonzero;fill:rgb(0%,0%,0%);fill-opacity:1;" d="M 286.128906 41.460938 L 286.128906 42.523438 C 285.8125 42.359375 285.484375 42.238281 285.140625 42.15625 C 284.800781 42.074219 284.445312 42.035156 284.078125 42.035156 C 283.523438 42.035156 283.105469 42.121094 282.824219 42.289062 C 282.546875 42.460938 282.40625 42.71875 282.40625 43.058594 C 282.40625 43.320312 282.507812 43.523438 282.707031 43.671875 C 282.90625 43.820312 283.308594 43.964844 283.910156 44.097656 L 284.292969 44.183594 C 285.089844 44.355469 285.65625 44.59375 285.992188 44.90625 C 286.328125 45.21875 286.496094 45.652344 286.496094 46.207031 C 286.496094 46.84375 286.246094 47.347656 285.742188 47.71875 C 285.242188 48.089844 284.550781 48.273438 283.671875 48.273438 C 283.304688 48.273438 282.925781 48.238281 282.527344 48.164062 C 282.128906 48.09375 281.710938 47.988281 281.273438 47.84375 L 281.273438 46.683594 C 281.6875 46.902344 282.097656 47.0625 282.5 47.171875 C 282.902344 47.277344 283.300781 47.332031 283.695312 47.332031 C 284.226562 47.332031 284.632812 47.242188 284.914062 47.058594 C 285.199219 46.878906 285.34375 46.625 285.34375 46.292969 C 285.34375 45.988281 285.242188 45.757812 285.035156 45.59375 C 284.832031 45.429688 284.378906 45.273438 283.683594 45.121094 L 283.292969 45.03125 C 282.597656 44.886719 282.09375 44.660156 281.785156 44.355469 C 281.476562 44.054688 281.320312 43.636719 281.320312 43.109375 C 281.320312 42.464844 281.550781 41.96875 282.003906 41.621094 C 282.460938 41.269531 283.109375 41.09375 283.945312 41.09375 C 284.359375 41.09375 284.75 41.125 285.117188 41.1875 C 285.484375 41.246094 285.820312 41.339844 286.128906 41.460938 Z M 286.128906 41.460938 "/>
<path style=" stroke:none;fill-rule:nonzero;fill:rgb(0%,0%,0%);fill-opacity:1;" d="M 289.398438 39.316406 L 289.398438 41.257812 L 291.710938 41.257812 L 291.710938 42.132812 L 289.398438 42.132812 L 289.398438 45.84375 C 289.398438 46.402344 289.472656 46.757812 289.625 46.917969 C 289.777344 47.078125 290.089844 47.15625 290.558594 47.15625 L 291.710938 47.15625 L 291.710938 48.09375 L 290.558594 48.09375 C 289.691406 48.09375 289.089844 47.933594 288.761719 47.609375 C 288.433594 47.285156 288.269531 46.699219 288.269531 45.84375 L 288.269531 42.132812 L 287.445312 42.132812 L 287.445312 41.257812 L 288.269531 41.257812 L 288.269531 39.316406 Z M 289.398438 39.316406 "/>
</g>
</svg>
